<?xml version="1.0" encoding="utf-8"?>
<!-- Generator: Adobe Illustrator 16.0.4, SVG Export Plug-In . SVG Version: 6.00 Build 0)  -->
<!DOCTYPE svg PUBLIC "-//W3C//DTD SVG 1.1//EN" "http://www.w3.org/Graphics/SVG/1.1/DTD/svg11.dtd">
<svg version="1.1" id="Layer_1" xmlns="http://www.w3.org/2000/svg" xmlns:xlink="http://www.w3.org/1999/xlink" x="0px" y="0px"
	 width="500px" height="500px" viewBox="0 0 500 500" enable-background="new 0 0 500 500" xml:space="preserve">
<rect fill="#FBB03B" width="500" height="500"/>
<g>
	<path fill="#FFFFFF" d="M193.151,297.478H122.12l-14.551,39.955H71.561l67.085-174.865h39.462l66.592,174.865h-36.996
		L193.151,297.478z M133.466,266.401h48.341l-24.17-66.099L133.466,266.401z"/>
	<path fill="#FFFFFF" d="M279.472,337.433V162.567h62.646c12.492,0,24.003,1.973,34.528,5.919
		c10.521,3.947,19.607,9.662,27.253,17.142c7.647,7.483,13.646,16.648,18.004,27.5c4.355,10.852,6.537,23.184,6.537,36.996
		s-2.182,26.144-6.537,36.996c-4.357,10.852-10.401,19.978-18.126,27.376c-7.732,7.399-16.856,13.072-27.378,17.019
		c-10.523,3.945-22.034,5.919-34.528,5.919H279.472z M340.637,305.863c7.068,0,13.812-1.11,20.225-3.33s12.001-5.63,16.771-10.234
		c4.768-4.602,8.547-10.397,11.345-17.389c2.794-6.986,4.192-15.249,4.192-24.787c0-9.534-1.398-17.796-4.192-24.787
		c-2.798-6.987-6.535-12.783-11.222-17.388c-4.687-4.602-10.236-8.055-16.647-10.359c-6.413-2.3-13.158-3.453-20.225-3.453h-27.378
		v111.727H340.637z"/>
</g>
</svg>
