<?xml version="1.0" encoding="utf-8"?>
<!-- Generator: Adobe Illustrator 16.0.4, SVG Export Plug-In . SVG Version: 6.00 Build 0)  -->
<!DOCTYPE svg PUBLIC "-//W3C//DTD SVG 1.1//EN" "http://www.w3.org/Graphics/SVG/1.1/DTD/svg11.dtd">
<svg version="1.1" id="Layer_1" xmlns="http://www.w3.org/2000/svg" xmlns:xlink="http://www.w3.org/1999/xlink" x="0px" y="0px"
	 width="85px" height="85px" viewBox="0 0 85 85" enable-background="new 0 0 85 85" xml:space="preserve">
<g>
	<g>
		<path fill="#FFFFFF" d="M1.21,76.227V62.046h8.88v2.601H3.97v3.24h5.54v2.46H3.97v3.279h6.12v2.601H1.21z"/>
		<path fill="#FFFFFF" d="M11.93,73.546c0-0.439,0.076-0.829,0.229-1.17c0.153-0.34,0.363-0.636,0.631-0.89
			c0.267-0.253,0.576-0.453,0.93-0.6c0.353-0.146,0.736-0.253,1.149-0.32l2.421-0.36c0.279-0.039,0.473-0.123,0.579-0.25
			c0.107-0.126,0.16-0.275,0.16-0.449c0-0.347-0.137-0.646-0.41-0.9c-0.273-0.253-0.689-0.38-1.25-0.38
			c-0.586,0-1.036,0.16-1.35,0.479c-0.313,0.32-0.49,0.693-0.53,1.121l-2.359-0.5c0.04-0.387,0.16-0.773,0.359-1.16
			c0.2-0.387,0.474-0.733,0.82-1.041c0.347-0.307,0.773-0.557,1.28-0.75c0.506-0.192,1.093-0.289,1.76-0.289
			c0.773,0,1.434,0.104,1.98,0.31c0.546,0.207,0.989,0.479,1.329,0.82c0.341,0.34,0.587,0.737,0.74,1.19s0.23,0.926,0.23,1.42v4.84
			c0,0.267,0.013,0.55,0.04,0.85c0.026,0.3,0.053,0.537,0.08,0.71h-2.44c-0.026-0.134-0.05-0.316-0.07-0.55
			c-0.02-0.233-0.029-0.443-0.029-0.631c-0.254,0.388-0.617,0.728-1.091,1.021c-0.473,0.294-1.076,0.44-1.81,0.44
			c-0.52,0-0.99-0.084-1.41-0.25c-0.42-0.167-0.776-0.387-1.069-0.66c-0.294-0.273-0.518-0.587-0.671-0.939
			C12.006,74.304,11.93,73.934,11.93,73.546z M15.869,74.526c0.28,0,0.551-0.036,0.811-0.109c0.26-0.074,0.49-0.2,0.689-0.381
			c0.2-0.18,0.36-0.412,0.48-0.699s0.18-0.65,0.18-1.09v-0.44l-2.22,0.34c-0.347,0.054-0.637,0.177-0.87,0.37s-0.35,0.483-0.35,0.87
			c0,0.294,0.106,0.557,0.319,0.79C15.123,74.41,15.442,74.526,15.869,74.526z"/>
		<path fill="#FFFFFF" d="M24.749,72.986c0.027,0.388,0.187,0.733,0.48,1.04c0.293,0.307,0.733,0.46,1.32,0.46
			c0.439,0,0.767-0.097,0.979-0.29s0.32-0.423,0.32-0.689c0-0.227-0.08-0.424-0.24-0.59c-0.16-0.167-0.434-0.291-0.82-0.371
			l-1.3-0.299c-0.96-0.214-1.66-0.584-2.1-1.11c-0.44-0.526-0.66-1.137-0.66-1.83c0-0.44,0.093-0.856,0.28-1.25
			c0.187-0.394,0.442-0.733,0.77-1.021c0.327-0.286,0.713-0.516,1.16-0.689c0.446-0.174,0.937-0.26,1.47-0.26
			c0.693,0,1.28,0.097,1.76,0.289c0.48,0.193,0.87,0.438,1.171,0.73c0.3,0.293,0.522,0.604,0.67,0.93
			c0.146,0.327,0.232,0.624,0.26,0.891l-2.22,0.5c-0.027-0.146-0.07-0.297-0.131-0.45c-0.06-0.153-0.156-0.296-0.289-0.431
			c-0.134-0.133-0.297-0.239-0.49-0.319s-0.431-0.12-0.71-0.12c-0.347,0-0.644,0.094-0.891,0.28c-0.246,0.187-0.37,0.42-0.37,0.7
			c0,0.24,0.084,0.434,0.25,0.58c0.167,0.146,0.384,0.246,0.65,0.3l1.4,0.3c0.973,0.2,1.703,0.573,2.189,1.12s0.73,1.18,0.73,1.899
			c0,0.4-0.077,0.794-0.23,1.181s-0.39,0.733-0.71,1.04c-0.319,0.307-0.72,0.553-1.2,0.74c-0.479,0.186-1.04,0.279-1.68,0.279
			c-0.747,0-1.373-0.106-1.88-0.32c-0.507-0.213-0.92-0.473-1.24-0.779c-0.319-0.307-0.557-0.637-0.71-0.99s-0.243-0.67-0.27-0.95
			L24.749,72.986z"/>
		<path fill="#FFFFFF" d="M32.949,80.106l2.32-5.12l-4.18-8.6h2.979l2.62,5.76l2.42-5.76h2.84l-6.18,13.72H32.949z"/>
		<path fill="#FFFFFF" d="M47.99,70.767h-1.44v5.46h-2.78V62.046h5.541c0.692,0,1.316,0.114,1.869,0.341s1.027,0.533,1.42,0.92
			c0.394,0.387,0.697,0.847,0.91,1.38s0.32,1.107,0.32,1.721c0,1-0.27,1.853-0.811,2.56c-0.539,0.706-1.276,1.193-2.209,1.46
			l3.039,5.8h-3.08L47.99,70.767z M48.79,68.387c0.706,0,1.253-0.181,1.64-0.54c0.387-0.36,0.58-0.833,0.58-1.42
			c0-0.6-0.193-1.08-0.58-1.44s-0.934-0.54-1.64-0.54h-2.24v3.94H48.79z"/>
		<path fill="#FFFFFF" d="M64.61,73.407c-0.12,0.426-0.31,0.829-0.57,1.209c-0.26,0.381-0.577,0.711-0.95,0.99
			c-0.373,0.28-0.81,0.504-1.31,0.67c-0.5,0.167-1.05,0.25-1.65,0.25c-0.68,0-1.327-0.117-1.94-0.35
			c-0.613-0.233-1.152-0.576-1.619-1.03c-0.467-0.453-0.837-1.007-1.11-1.66s-0.409-1.394-0.409-2.22c0-0.787,0.133-1.5,0.399-2.141
			c0.267-0.64,0.623-1.183,1.069-1.629c0.447-0.447,0.964-0.793,1.551-1.041c0.586-0.246,1.193-0.369,1.82-0.369
			c1.533,0,2.727,0.453,3.58,1.359c0.853,0.907,1.279,2.154,1.279,3.74c0,0.188-0.007,0.363-0.02,0.53
			c-0.014,0.167-0.021,0.263-0.021,0.29h-7.04c0.014,0.32,0.09,0.617,0.23,0.89c0.14,0.273,0.32,0.511,0.539,0.71
			c0.221,0.2,0.477,0.357,0.771,0.471s0.606,0.17,0.94,0.17c0.627,0,1.116-0.141,1.47-0.42c0.353-0.281,0.61-0.641,0.771-1.08
			L64.61,73.407z M62.13,70.187c-0.013-0.24-0.063-0.477-0.149-0.71c-0.088-0.233-0.221-0.44-0.4-0.62s-0.406-0.326-0.68-0.439
			s-0.598-0.17-0.971-0.17c-0.347,0-0.652,0.06-0.92,0.18c-0.267,0.119-0.493,0.273-0.68,0.46c-0.188,0.187-0.33,0.394-0.43,0.62
			s-0.157,0.453-0.17,0.68H62.13z"/>
		<path fill="#FFFFFF" d="M69.51,76.227h-2.66v-9.84h2.58v1.22c0.307-0.506,0.723-0.88,1.25-1.12c0.526-0.239,1.057-0.36,1.59-0.36
			c0.613,0,1.143,0.104,1.59,0.311s0.816,0.483,1.11,0.83c0.293,0.347,0.51,0.76,0.649,1.24c0.141,0.479,0.211,0.986,0.211,1.52v6.2
			h-2.66v-5.74c0-0.56-0.144-1.026-0.43-1.399c-0.287-0.373-0.75-0.561-1.391-0.561c-0.587,0-1.04,0.197-1.359,0.59
			c-0.32,0.394-0.48,0.877-0.48,1.45V76.227z"/>
		<path fill="#FFFFFF" d="M81.811,66.387h1.979v2.36h-1.979v4.119c0,0.428,0.096,0.724,0.289,0.891
			c0.193,0.166,0.483,0.25,0.87,0.25c0.16,0,0.32-0.007,0.479-0.021c0.16-0.013,0.273-0.032,0.341-0.06v2.199
			c-0.12,0.055-0.304,0.107-0.55,0.16c-0.247,0.054-0.564,0.08-0.95,0.08c-0.96,0-1.72-0.266-2.28-0.8
			c-0.561-0.533-0.84-1.28-0.84-2.239v-4.58h-1.78v-2.36h0.5c0.521,0,0.903-0.15,1.15-0.45s0.37-0.67,0.37-1.109v-1.381h2.4V66.387z
			"/>
	</g>
	<g>
		<polygon fill="#FFFFFF" points="39.5,55.5 0.5,55.5 0.5,15.228 9.5,4.5 32.5,4.5 39.5,15.727 		"/>
		<polygon fill="#FFFFFF" points="83.5,55.5 45.5,55.5 45.5,29.894 52.5,20.5 78.5,20.5 83.5,30.227 		"/>
	</g>
</g>
</svg>
