<?xml version="1.0" encoding="UTF-8" standalone="no"?>
<svg width="310px" height="198px" viewBox="0 0 310 198" version="1.1" xmlns="http://www.w3.org/2000/svg" xmlns:xlink="http://www.w3.org/1999/xlink">
    <!-- Generator: Sketch 39.1 (31720) - http://www.bohemiancoding.com/sketch -->
    <title>Rectangle-path</title>
    <desc>Created with Sketch.</desc>
    <defs></defs>
    <g id="Page-1" stroke="none" stroke-width="1" fill="none" fill-rule="evenodd">
        <g id="energy_y">
            <rect id="Rectangle-path" fill="#2341C1" x="0" y="0" width="309.32" height="197.5"></rect>
            <polyline id="Shape" stroke="#FFFFFF" points="294.6 154.55 43.2 154.55 43.2 25.89"></polyline>
            <rect id="Rectangle-path" fill="#FFFFFF" x="51.85" y="134.378436" width="4.67" height="9.13469591"></rect>
            <rect id="Rectangle-path" fill="#FFFFFF" x="62.02" y="134.378436" width="4.67" height="9.13469591"></rect>
            <rect id="Rectangle-path" fill="#FFFFFF" x="72.18" y="134.378436" width="4.67" height="9.13469591"></rect>
            <rect id="Rectangle-path" fill="#FFFFFF" x="82.35" y="134.378436" width="4.67" height="9.13469591"></rect>
            <rect id="Rectangle-path" fill="#FFFFFF" x="92.52" y="134.378436" width="4.67" height="9.13469591"></rect>
            <rect id="Rectangle-path" fill="#FFFFFF" x="102.68" y="87.9975325" width="4.67" height="55.5155993"></rect>
            <rect id="Rectangle-path" fill="#FFFFFF" x="112.85" y="55.1469682" width="4.67" height="88.3661636"></rect>
            <rect id="Rectangle-path" fill="#FFFFFF" x="123.02" y="41.6509701" width="4.67" height="101.86903"></rect>
            <rect id="Rectangle-path" fill="#FFFFFF" x="133.18" y="65.1195836" width="4.67" height="78.3935482"></rect>
            <rect id="Rectangle-path" fill="#FFFFFF" x="143.35" y="105.044386" width="4.67" height="38.4687457"></rect>
            <rect id="Rectangle-path" fill="#FFFFFF" x="153.52" y="118.629671" width="4.67" height="24.8834611"></rect>
            <rect id="Rectangle-path" fill="#FFFFFF" x="163.68" y="122.262944" width="4.67" height="21.2501873"></rect>
            <rect id="Rectangle-path" fill="#FFFFFF" x="173.85" y="116.644763" width="4.67" height="26.8683687"></rect>
            <rect id="Rectangle-path" fill="#FFFFFF" x="184.02" y="121.528048" width="4.67" height="21.9850839"></rect>
            <rect id="Rectangle-path" fill="#FFFFFF" x="194.18" y="124.282193" width="4.67" height="19.237807"></rect>
            <rect id="Rectangle-path" fill="#FFFFFF" x="204.35" y="124.282193" width="4.67" height="19.237807"></rect>
            <rect id="Rectangle-path" fill="#FFFFFF" x="214.52" y="81.445277" width="4.67" height="62.074723"></rect>
            <rect id="Rectangle-path" fill="#FFFFFF" x="224.68" y="71.273484" width="4.67" height="72.2396478"></rect>
            <rect id="Rectangle-path" fill="#FFFFFF" x="234.85" y="50.5315429" width="4.67" height="92.9815889"></rect>
            <rect id="Rectangle-path" fill="#FFFFFF" x="245.02" y="50.5315429" width="4.67" height="92.9815889"></rect>
            <rect id="Rectangle-path" fill="#FFFFFF" x="255.18" y="75.2845084" width="4.67" height="68.2354916"></rect>
            <rect id="Rectangle-path" fill="#FFFFFF" x="265.35" y="85.586797" width="4.67" height="57.933203"></rect>
            <rect id="Rectangle-path" fill="#FFFFFF" x="275.52" y="93.4234045" width="4.67" height="50.0897273"></rect>
            <rect id="Rectangle-path" fill="#FFFFFF" x="285.68" y="109.39882" width="4.67" height="34.1143117"></rect>
            <text id="00:00" fill="#FFFFFF" font-family="Helvetica" font-size="10" font-weight="normal">
                <tspan x="42.57" y="168.26">00:00</tspan>
            </text>
            <text id="KWH" fill="#FFFFFF" transform="translate(30.180000, 73.000000) rotate(-90.000000) translate(-30.180000, -73.000000) " font-family="Helvetica" font-size="10" font-weight="normal">
                <tspan x="17.18" y="77">KWH</tspan>
            </text>
            <text id="Hour" fill="#FFFFFF" font-family="Helvetica" font-size="10" font-weight="normal">
                <tspan x="156.33" y="188.26">Hour</tspan>
            </text>
            <text id="Thursday-22nd-Septem" fill="#FFFFFF" font-family="Helvetica" font-size="10" font-weight="normal">
                <tspan x="60" y="23.89">Thursday 22nd September 2016</tspan>
            </text>
            <text id="12:00" fill="#FFFFFF" font-family="Helvetica" font-size="10" font-weight="normal">
                <tspan x="155.74" y="168.26">12:00</tspan>
            </text>
            <text id="24:00" fill="#FFFFFF" font-family="Helvetica" font-size="10" font-weight="normal">
                <tspan x="270.02" y="168">24:00</tspan>
            </text>
        </g>
    </g>
</svg>