<svg id="Layer_2" data-name="Layer 2" xmlns="http://www.w3.org/2000/svg" viewBox="0 0 306.1 257.5"><defs><style>.cls-1{fill:#2341c1;}.cls-2{fill:none;stroke:#fff;stroke-miterlimit:10;}.cls-3,.cls-4{fill:#fff;}.cls-4{font-size:10px;font-family:Calibre;}</style></defs><title>Graph 1</title><rect class="cls-1" x="-2.32" width="309.32" height="257.5"/><polyline class="cls-2" points="289.6 212.55 38.2 212.55 38.2 23.38"/><rect class="cls-3" x="46.85" y="188.21" width="4.67" height="13.3"/><rect class="cls-3" x="57.02" y="188.21" width="4.67" height="13.3"/><rect class="cls-3" x="67.18" y="188.21" width="4.67" height="13.3"/><rect class="cls-3" x="77.35" y="188.21" width="4.67" height="13.3"/><rect class="cls-3" x="87.52" y="188.21" width="4.67" height="13.3"/><rect class="cls-3" x="97.68" y="120.68" width="4.67" height="80.83"/><rect class="cls-3" x="107.85" y="72.85" width="4.67" height="128.66"/><rect class="cls-3" x="118.02" y="53.2" width="4.67" height="148.32"/><rect class="cls-3" x="128.18" y="87.37" width="4.67" height="114.14"/><rect class="cls-3" x="138.35" y="145.5" width="4.67" height="56.01"/><rect class="cls-3" x="148.52" y="165.28" width="4.67" height="36.23"/><rect class="cls-3" x="158.68" y="170.57" width="4.67" height="30.94"/><rect class="cls-3" x="168.85" y="162.39" width="4.67" height="39.12"/><rect class="cls-3" x="179.02" y="169.5" width="4.67" height="32.01"/><rect class="cls-3" x="189.18" y="173.51" width="4.67" height="28.01"/><rect class="cls-3" x="199.35" y="173.51" width="4.67" height="28.01"/><rect class="cls-3" x="209.52" y="111.14" width="4.67" height="90.38"/><rect class="cls-3" x="219.68" y="96.33" width="4.67" height="105.18"/><rect class="cls-3" x="229.85" y="66.13" width="4.67" height="135.38"/><rect class="cls-3" x="240.02" y="66.13" width="4.67" height="135.38"/><rect class="cls-3" x="250.18" y="102.17" width="4.67" height="99.35"/><rect class="cls-3" x="260.35" y="117.17" width="4.67" height="84.35"/><rect class="cls-3" x="270.52" y="128.58" width="4.67" height="72.93"/><rect class="cls-3" x="280.68" y="151.84" width="4.67" height="49.67"/><text/><text class="cls-4" transform="translate(37.57 226.26)">00:00</text><text class="cls-4" transform="translate(18.97 126.47) rotate(-90)">K<tspan x="5.34" y="0">wh</tspan></text><text class="cls-4" transform="translate(151.33 246.26)">Hour</text><text class="cls-4" transform="translate(102.13 15.93)">Thu<tspan x="15.43" y="0">r</tspan><tspan x="18.61" y="0">sd</tspan><tspan x="27.77" y="0">a</tspan><tspan x="32.19" y="0">y </tspan><tspan x="38.95" y="0">2</tspan><tspan x="43.57" y="0">2nd </tspan><tspan x="60.26" y="0">S</tspan><tspan x="65.4" y="0">ep</tspan><tspan x="74.99" y="0">t</tspan><tspan x="78.11" y="0">em</tspan><tspan x="89.85" y="0">b</tspan><tspan x="94.89" y="0">er 2</tspan><tspan x="109.45" y="0">0</tspan><tspan x="114.74" y="0">16</tspan></text><text class="cls-4" transform="translate(150.74 226.26)">1<tspan x="3.32" y="0">2</tspan><tspan x="8.09" y="0">:00</tspan></text><text class="cls-4" transform="translate(272.02 226.26)">2<tspan x="4.44" y="0">4:00</tspan></text></svg>