<?xml version="1.0" encoding="UTF-8" standalone="no"?>
<svg width="500px" height="300px" viewBox="0 0 500 300" version="1.1" xmlns="http://www.w3.org/2000/svg" xmlns:xlink="http://www.w3.org/1999/xlink" style="background: #FFFFFF;">
    <!-- Generator: Sketch 40.1 (33804) - http://www.bohemiancoding.com/sketch -->
    <title>Group</title>
    <desc>Created with Sketch.</desc>
    <defs></defs>
    <g id="Page-1" stroke="none" stroke-width="1" fill="none" fill-rule="evenodd">
        <polygon id="Shape" fill="#ECECEC" points="84.1 34.1 124.4 20.3 122.6 15.2 89.1 15.2 78.2 20.6"></polygon>
        <g id="Group">
            <polygon id="Shape" fill="#ECECEC" points="383.516484 36.8478261 225.274725 63.75 191.208791 91.4673913 203.846154 113.804348 212.912088 112.5 225.824176 133.695652 443.131868 98.3152174 499.725275 72.5543478 499.725275 12.0652174"></polygon>
            <polygon id="Shape" fill="#ECECEC" points="179.67033 11.4130435 183.241758 16.3043478 205.769231 9.61956522 202.747253 5.38043478"></polygon>
            <path d="M0,278.967391 L0,299.51087 L499.725275,299.51087 L499.725275,190.271739 C407.967033,202.826087 226.923077,230.380435 0,278.967391 L0,278.967391 Z" id="Shape" fill="#3A50A2" opacity="0.2"></path>
            <polygon id="Shape" fill="#ECECEC" points="95.6043956 89.5108696 170.604396 19.8913043 183.241758 16.3043478 179.67033 11.4130435 202.747253 5.38043478 205.769231 9.61956522 235.989011 0.97826087 0 0.97826087 0 114.130435"></polygon>
            <path d="M499.725275,122.771739 L499.725275,105.326087 L263.736264,142.826087 L202.197802,153.586957 L175.274725,97.6630435 L231.318681,45.6521739 L451.098901,0.97826087 L373.626374,0.97826087 L356.593407,4.40217391 L354.395604,0.97826087 L327.747253,0.97826087 L332.967033,9.29347826 L222.252747,31.7934783 L205.769231,9.7826087 L183.241758,16.3043478 L203.571429,43.6956522 L144.505495,98.6413043 L121.428571,116.413043 L90.6593407,150.326087 L61.8131868,160.434783 L14.2857143,186.358696 L0,188.967391 L0,206.576087 L188.461538,173.641304 L246.153846,184.402174 L0,224.673913 L0,242.119565 L288.186813,194.836957 L499.450549,157.663043 L499.450549,140.054348 L289.835165,176.902174 L231.318681,165.978261 L271.153846,158.967391 L499.725275,122.771739 L499.725275,122.771739 Z M68.6813187,176.902174 L76.9230769,172.5 L109.615385,161.086957 L142.582418,124.728261 L156.868132,113.641304 L178.296703,157.826087 L68.6813187,176.902174 L68.6813187,176.902174 Z" id="Shape" fill="#ECECEC"></path>
        </g>
        <path d="M289,74.7352941 C289,85.6794118 269.5,116 269.5,116 C269.5,116 250,85.6794118 250,74.7352941 C250,63.7911765 258.686364,55 269.5,55 C280.313636,55 289,63.7911765 289,74.7352941 L289,74.7352941 Z" id="Shape" fill="#1D1D1B"></path>
    </g>
</svg>