<?xml version="1.0" encoding="utf-8"?>
<!-- Generator: Adobe Illustrator 16.0.4, SVG Export Plug-In . SVG Version: 6.00 Build 0)  -->
<!DOCTYPE svg PUBLIC "-//W3C//DTD SVG 1.1//EN" "http://www.w3.org/Graphics/SVG/1.1/DTD/svg11.dtd">
<svg version="1.1" id="Layer_1" xmlns="http://www.w3.org/2000/svg" xmlns:xlink="http://www.w3.org/1999/xlink" x="0px" y="0px"
	 width="106px" height="106px" viewBox="0 0 106 106" enable-background="new 0 0 106 106" xml:space="preserve">
<g>
	<path fill="#FFFFFF" d="M53,106C23.776,106,0,82.225,0,53C0,23.776,23.776,0,53,0c29.225,0,53,23.776,53,53
		C106,82.225,82.225,106,53,106z M53,6C27.084,6,6,27.084,6,53s21.084,47,47,47s47-21.084,47-47S78.916,6,53,6z"/>
</g>
<g>
	<polygon fill="#FFFFFF" points="42.982,80.885 21.627,55.447 26.223,51.59 42.857,71.404 79.678,25.115 84.373,28.851 	"/>
</g>
</svg>
