<?xml version="1.0" encoding="utf-8"?>
<!-- Generator: Adobe Illustrator 16.0.4, SVG Export Plug-In . SVG Version: 6.00 Build 0)  -->
<!DOCTYPE svg PUBLIC "-//W3C//DTD SVG 1.1//EN" "http://www.w3.org/Graphics/SVG/1.1/DTD/svg11.dtd">
<svg version="1.1" id="Layer_1" xmlns="http://www.w3.org/2000/svg" xmlns:xlink="http://www.w3.org/1999/xlink" x="0px" y="0px"
	 width="64px" height="64px" viewBox="736 992 64 64" enable-background="new 736 992 64 64" xml:space="preserve">
<g>
	<g>
		<path fill="#FFFFFF" d="M741.954,1007.627h52.093c3.287,0,5.953-2.667,5.953-5.953c0-3.291-2.663-5.954-5.95-5.954h-52.096
			c-3.287,0-5.954,2.663-5.954,5.954C736,1004.96,738.667,1007.627,741.954,1007.627z M794.047,1018.044h-52.093
			c-3.288,0-5.954,2.666-5.954,5.957c0,3.287,2.667,5.953,5.954,5.953h52.093c3.287,0,5.953-2.666,5.953-5.953
			C800,1020.71,797.334,1018.044,794.047,1018.044z M794.047,1040.37h-52.093c-3.288,0-5.954,2.665-5.954,5.956
			c0,3.288,2.667,5.954,5.954,5.954h52.093c3.287,0,5.953-2.666,5.953-5.954C800,1043.035,797.334,1040.37,794.047,1040.37z"/>
	</g>
</g>
</svg>
