<?xml version="1.0" encoding="utf-8"?>
<!-- Generator: Adobe Illustrator 16.0.4, SVG Export Plug-In . SVG Version: 6.00 Build 0)  -->
<!DOCTYPE svg PUBLIC "-//W3C//DTD SVG 1.1//EN" "http://www.w3.org/Graphics/SVG/1.1/DTD/svg11.dtd">
<svg version="1.1" id="Layer_1" xmlns="http://www.w3.org/2000/svg" xmlns:xlink="http://www.w3.org/1999/xlink" x="0px" y="0px"
	 width="64px" height="64px" viewBox="736 992 64 64" enable-background="new 736 992 64 64" xml:space="preserve">
<path fill="#FFFFFF" d="M796.471,1019.989h-46.837l14.757-14.757c1.604-1.604,1.604-4.17,0-5.613c-1.604-1.604-4.17-1.604-5.614,0
	l-21.654,21.493c-0.802,0.803-1.122,1.925-1.122,2.888c0,0.962,0.32,2.085,1.122,2.887l21.494,21.494
	c1.604,1.604,4.171,1.604,5.614,0c1.604-1.604,1.604-4.17,0-5.614l-14.757-14.757h46.837c2.085,0,3.689-1.765,3.689-4.01
	C800,1021.754,798.556,1019.989,796.471,1019.989z"/>
</svg>
