<?xml version="1.0" encoding="utf-8"?>
<!-- Generator: Adobe Illustrator 16.0.4, SVG Export Plug-In . SVG Version: 6.00 Build 0)  -->
<!DOCTYPE svg PUBLIC "-//W3C//DTD SVG 1.1//EN" "http://www.w3.org/Graphics/SVG/1.1/DTD/svg11.dtd">
<svg version="1.1" id="Layer_1" xmlns="http://www.w3.org/2000/svg" xmlns:xlink="http://www.w3.org/1999/xlink" x="0px" y="0px"
	 width="341px" height="460px" viewBox="0 0 341 460" enable-background="new 0 0 341 460" xml:space="preserve">
<title>Artboard</title>
<desc>Created with Sketch.</desc>
<g id="Page-1_1_">
	<g id="Artboard">
		<g id="Page-1" transform="translate(1.000000, 28.000000)">
			<path id="Stroke-1" fill="none" stroke="#FFFFFF" stroke-width="55" stroke-linejoin="round" d="M32.858,203.773l6.757,146.281
				c0,0-0.163,37.191,53.781-10.439c44.037-38.883,92.275-80.312,133.387-122.357"/>
			<path id="Stroke-3" fill="none" stroke="#FFFFFF" stroke-width="55" d="M160.877,428.031c0,0-17.424-134.618-17.124-231.697
				c0.264-85.579,6.616-160.093,67.012-189.381c21.67-10.509,52.464-8.114,71.65,6.683c26.856,20.711,46.785,63.4,6.737,128.09
				c-3.834,6.194-8.22,12.589-13.199,19.187"/>
			<g id="Group-7" transform="translate(0.000000, 116.561000)">
				<path id="Fill-5" fill="#FFFFFF" d="M60.398,31.501c-0.64,16.512-14.544,29.38-31.056,28.741S-0.038,45.697,0.602,29.185
					S15.146-0.196,31.658,0.444C48.17,1.084,61.038,14.988,60.398,31.501"/>
			</g>
		</g>
	</g>
</g>
</svg>
