<?xml version="1.0" encoding="UTF-8" standalone="no"?>
<svg width="70px" height="70px" viewBox="0 0 70 70" version="1.1" xmlns="http://www.w3.org/2000/svg" xmlns:xlink="http://www.w3.org/1999/xlink">
    <!-- Generator: Sketch 39.1 (31720) - http://www.bohemiancoding.com/sketch -->
    <title>noun_184473_cc</title>
    <desc>Created with Sketch.</desc>
    <defs></defs>
    <g id="Page-1" stroke="none" stroke-width="1" fill="none" fill-rule="evenodd">
        <g id="noun_184473_cc" fill="#FFFFFF">
            <g id="Group">
                <path d="M52.773,16.101 C52.773,16.101 55.073,9.138 49.859,7.035 C49.859,7.035 50.515,11.811 49.544,10.934 C48.57,10.056 47.643,9.77 47.643,9.77 C47.643,9.77 47.596,16.487 46.221,16.424 C44.844,16.364 44.337,14.238 43.022,12.872 C41.707,11.503 38.61,10.009 37.067,11.971 C35.524,13.93 36.005,15.319 36.005,15.319 C36.005,15.319 22.368,18.524 21.113,19.499 L23.952,19.931 L2.84,30.479 L8.677,23.905 L6.185,24.846 C6.185,24.846 9.698,17.187 17.166,15.398 C17.166,15.398 9.223,13.017 8.738,11.631 C8.738,11.631 22.471,13.27 26.894,10.575 C31.316,7.884 26.665,9.369 25.785,9.677 C24.911,9.985 16.911,9.796 16.911,9.796 C16.911,9.796 26.131,6.512 25.048,6.349 C23.962,6.186 18.083,2.955 19.015,0.466 C19.015,0.466 25.459,3.633 26.782,3.101 C28.109,2.57 51.88,-1.731 54.248,10.039 C54.248,10.039 54.763,13.04 54.172,16.023 L52.773,16.101 L52.773,16.101 Z" id="Shape"></path>
                <path d="M44.012,16.385 L40.668,18.364 C40.668,18.364 40.742,16.035 39.459,16.283 C38.178,16.524 41.629,13.827 37.756,13.827 C37.756,13.827 38.127,12.276 39.641,12.362 C41.148,12.44 43.027,13.749 44.012,16.385 L44.012,16.385 Z" id="Shape"></path>
                <path d="M35.362,16.831 L35.806,19.382 C35.806,19.382 30.325,22.651 28.702,26.06 L36.352,21.221 C36.352,21.221 28.036,27.714 26.826,29.285 C25.622,30.858 22.983,34.555 22.983,34.555 C22.983,34.555 32.297,25.139 37.087,23.677 C37.087,23.677 23.578,32.451 19.649,41.948 C15.716,51.44 13.339,59.86 23.827,65.538 C23.827,65.538 -1.085,60.018 7.617,38.226 C7.617,38.226 2.824,43.351 1.429,50.744 C1.429,50.744 -1.16,40.412 5.579,33.387 C12.318,26.362 27.269,19.993 27.269,19.993 L24.873,19.342 C24.876,19.338 32.864,16.889 35.362,16.831 L35.362,16.831 Z" id="Shape"></path>
                <path d="M37.945,18.975 C37.945,18.975 38.808,20.569 39.238,20.486 C39.664,20.404 37.15,22.366 37.15,22.366 L37.945,18.975 L37.945,18.975 Z" id="Shape"></path>
                <path d="M33.991,28.614 C33.991,28.614 32.789,31.062 33.068,31.985 C33.339,32.902 34.148,35.802 34.148,35.802 C34.148,35.802 30.466,38.169 30.249,39.604 C30.034,41.032 40.658,43.081 44.053,52.661 C47.448,62.243 46.18,65.12 46.18,65.12 C46.18,65.12 43.375,52.556 37.757,51.268 C37.757,51.268 42.926,56.438 43.555,59.604 C44.184,62.77 44.923,66.098 44.047,66.407 C43.168,66.714 28.327,67.827 25.922,65.415 C23.522,63.003 13.569,57.407 19.161,46.112 C24.743,34.821 30.862,29.162 33.991,28.614 L33.991,28.614 Z" id="Shape"></path>
                <path d="M61.585,22.847 C61.585,22.847 58.74,22.417 57.999,22.741 C57.259,23.067 55.839,23.293 55.839,23.293 C55.839,23.293 54.494,21.188 53.235,21.287 C51.973,21.393 49.088,21.249 49.088,21.249 L51.599,18.408 L50.998,20.515 C50.998,20.515 55.25,18.963 56.215,21.737 C56.215,21.737 57.948,22.149 57.539,21.207 C57.129,20.269 56.125,18.658 56.125,18.658 C56.125,18.658 58.969,19.089 59.049,21.291 L61.585,22.847 L61.585,22.847 Z" id="Shape"></path>
                <path d="M68.281,27.953 C68.281,27.953 67.796,29.34 66.482,28.853 C65.177,28.363 64.492,27.377 64.492,27.377 C64.492,27.377 64.209,28.361 65.271,29.544 C66.339,30.732 66.214,32.467 65.855,32.998 C65.497,33.531 62.994,36.37 62.295,36.407 C61.597,36.447 61.683,39.532 62.496,39.657 C63.308,39.78 64.54,38.941 64.67,38.084 C64.799,37.229 64.365,36.434 64.99,35.061 C65.608,33.696 66.936,33.165 67.293,32.631 C67.652,32.099 70.359,28.853 68.281,27.953 L68.281,27.953 Z" id="Shape"></path>
                <path d="M62.833,31.954 C62.833,31.954 63.354,33.059 62.139,32.876 C60.923,32.689 58.104,32.115 58.104,32.115 C58.104,32.115 58.561,33.646 59.506,33.789 C60.453,33.934 62.422,34.671 62.422,34.671 C62.422,34.671 56.163,35.774 55.216,31.972 C54.27,28.174 59.938,26.401 59.938,26.401 C59.938,26.401 57.238,31.403 62.833,31.954 L62.833,31.954 Z" id="Shape"></path>
                <path d="M44.643,24.085 L47.751,27.332 C47.751,27.332 43.441,30.191 43.162,32.051 C42.877,33.906 42.174,36.727 45.721,37.995 C49.268,39.263 51.208,40.141 51.706,36.849 C51.706,36.849 53.146,40.142 55.264,39.878 C55.264,39.878 54.466,42.388 56.053,43.8 C57.639,45.21 57.802,45.966 58.451,45.331 C59.101,44.694 61.263,45.022 62.037,45.436 C62.805,45.839 63.527,46.54 63.527,46.54 C63.527,46.54 63.716,48.03 63.177,47.946 C62.631,47.866 61.779,48.028 61.152,48.518 C60.523,49.007 58.629,48.723 57.904,48.024 C57.179,47.331 54.967,43.637 53.845,43.753 C52.72,43.876 52.406,44.126 53.083,45.101 C53.765,46.083 60.638,56.489 56.997,69.534 C56.997,69.534 52.334,54.646 49.783,54.114 L47.848,62.302 C47.848,62.302 45.452,46.145 38.873,42.956 C32.3,39.768 31.595,38.93 36.191,38.746 C36.191,38.746 37.353,30.149 44.638,27.743 L44.643,24.085 L44.643,24.085 Z" id="Shape"></path>
                <path d="M61.17,36.53 L60.568,37.753 C60.568,37.753 57.703,37.469 57.101,37.816 C56.492,38.164 52.33,39.138 53.437,36.379 C54.549,33.626 57.558,35.691 58.189,36.078 C58.827,36.468 61.17,36.53 61.17,36.53 L61.17,36.53 Z" id="Shape"></path>
            </g>
        </g>
    </g>
</svg>