<?xml version="1.0" encoding="utf-8"?>
<!-- Generator: Adobe Illustrator 19.2.1, SVG Export Plug-In . SVG Version: 6.00 Build 0)  -->
<svg version="1.1" id="Layer_1" xmlns="http://www.w3.org/2000/svg" xmlns:xlink="http://www.w3.org/1999/xlink" x="0px" y="0px"
	 viewBox="0 0 171.3 125.7" style="enable-background:new 0 0 171.3 125.7;" xml:space="preserve">
<style type="text/css">
	.st0{fill:#ECECEC;}
	.st1{fill:#DBDBDB;}
	.st2{fill:#FFFFFF;}
	.st3{fill:#1D1D1B;}
	.st4{fill:none;stroke:#1D1D1B;stroke-linecap:round;stroke-linejoin:round;stroke-miterlimit:10;stroke-dasharray:4;}
</style>
<image style="overflow:visible;" width="770" height="565" xlink:href="../../../../../Desktop/Screen Shot 2016-10-28 at 14.59.05.png"  transform="matrix(0.2224 0 0 0.2224 0 0)">
</image>
<g>
	<g>
		<rect x="0" class="st0" width="171.3" height="125.7"/>
	</g>
	<g>
		<path class="st1" d="M169.3,125.7c0,0-0.4-16.4-8.4-18.6s-11.1-3.5-11.1-3.5l-17.5,3.6l-16,13.2l-2.5,5.3h28.5H169.3z"/>
	</g>
	<g>
		<polygon class="st1" points="116.7,0 112.2,10 130.7,14.8 148,32.8 171.3,21.7 171.3,0 		"/>
	</g>
	<g>
		<polygon class="st2" points="123.6,125.7 119.9,120.1 97.6,73.2 74.8,19.4 72.3,0 79.4,0 81.6,17.5 104,70.4 126.1,116.9 
			132.1,125.7 		"/>
	</g>
	<g>
		<polygon class="st2" points="171.3,88 134.1,64.1 101.2,32.8 76.7,21.7 79.6,15.3 105.1,26.9 138.4,58.6 171.3,79.6 		"/>
	</g>
	<g>
		<polygon class="st2" points="80.6,125.7 66.5,90.4 29.3,0 36.9,0 73,87.7 88.2,125.7 		"/>
	</g>
	<g>
		<polygon class="st2" points="0,122.8 -0.2,115 53.8,87 88.5,79.7 126.1,70.7 150.7,67.7 171.3,59.9 171.3,67.4 152.4,74.6 
			127.1,77.6 90,86.6 56.2,93.7 		"/>
	</g>
	<g>
		<path class="st1" d="M0,76.8c0,0,28.6-24.5,24.6-29.8s-5.3-29.8-5.3-29.8H0V76.8z"/>
	</g>
	<g>
		<polygon class="st2" points="53,125.7 0,57.3 0,45.9 61.8,125.7 		"/>
	</g>
</g>
<path class="st3" d="M22.7,95.8c0,3.6-6.5,13.5-6.5,13.5s-6.5-10-6.5-13.5s2.9-6.5,6.5-6.5S22.7,92.2,22.7,95.8z"/>
<circle class="st3" cx="137.2" cy="33.6" r="6.2"/>
<polyline class="st4" points="137.2,33.6 122,47.7 151.6,71.2 54.9,90.7 18.9,108.3 "/>
</svg>
