<?xml version="1.0" encoding="utf-8"?>
<!-- Generator: Adobe Illustrator 16.0.4, SVG Export Plug-In . SVG Version: 6.00 Build 0)  -->
<!DOCTYPE svg PUBLIC "-//W3C//DTD SVG 1.1//EN" "http://www.w3.org/Graphics/SVG/1.1/DTD/svg11.dtd">
<svg version="1.1" id="Layer_1" xmlns="http://www.w3.org/2000/svg" xmlns:xlink="http://www.w3.org/1999/xlink" x="0px" y="0px"
	 width="253.179px" height="518.058px" viewBox="0 0 253.179 518.058" enable-background="new 0 0 253.179 518.058"
	 xml:space="preserve">
<g>
	<path fill="#FFFFFF" d="M224.549,517.558H28.627c-15.509,0-28.127-12.618-28.127-28.129V28.63C0.5,13.119,13.118,0.5,28.627,0.5
		h195.922c15.511,0,28.13,12.619,28.13,28.13v460.799C252.679,504.94,240.06,517.558,224.549,517.558z M28.627,1.5
		C13.669,1.5,1.5,13.67,1.5,28.63v460.799c0,14.959,12.169,27.129,27.127,27.129h195.922c14.959,0,27.13-12.17,27.13-27.129V28.63
		c0-14.959-12.171-27.13-27.13-27.13H28.627z"/>
	<path fill="#FFFFFF" d="M224.549,518.058H28.627C12.842,518.058,0,505.215,0,489.429V28.63C0,12.843,12.842,0,28.627,0h195.922
		c15.786,0,28.63,12.843,28.63,28.63v460.799C253.179,505.215,240.335,518.058,224.549,518.058z M28.627,2
		C13.945,2,2,13.946,2,28.63v460.799c0,14.684,11.945,26.629,26.627,26.629h195.922c14.684,0,26.63-11.945,26.63-26.629V28.63
		c0-14.684-11.946-26.63-26.63-26.63H28.627z"/>
	<path fill="#FFFFFF" d="M237.05,460.428H16.264V67.398H237.05V460.428z M17.264,459.428H236.05V68.398H17.264V459.428z"/>
	<path fill="#FFFFFF" d="M237.55,460.928H15.764V66.898H237.55V460.928z M17.764,458.928H235.55V68.898H17.764V458.928z"/>
	<path fill="#FFFFFF" d="M87.296,42.56c-2.792,0-5.064-2.272-5.064-5.064c0-2.792,2.271-5.063,5.064-5.063
		c2.794,0,5.067,2.271,5.067,5.063C92.363,40.288,90.09,42.56,87.296,42.56z M87.296,33.432c-2.241,0-4.064,1.823-4.064,4.063
		c0,2.241,1.823,4.064,4.064,4.064c2.243,0,4.067-1.823,4.067-4.064C91.363,35.255,89.539,33.432,87.296,33.432z"/>
	<path fill="#FFFFFF" d="M87.296,43.06c-3.068,0-5.564-2.496-5.564-5.564c0-3.068,2.496-5.563,5.564-5.563
		c3.07,0,5.567,2.496,5.567,5.563C92.863,40.564,90.366,43.06,87.296,43.06z M87.296,33.932c-1.965,0-3.564,1.599-3.564,3.563
		c0,1.965,1.599,3.564,3.564,3.564c1.967,0,3.567-1.599,3.567-3.564C90.863,35.531,89.263,33.932,87.296,33.932z"/>
	<path fill="#FFFFFF" d="M127.431,24.301c-2.129,0-3.861-1.73-3.861-3.858s1.732-3.858,3.861-3.858c2.127,0,3.858,1.731,3.858,3.858
		S129.558,24.301,127.431,24.301z M127.431,17.585c-1.578,0-2.861,1.282-2.861,2.858c0,1.576,1.283,2.858,2.861,2.858
		c1.576,0,2.858-1.282,2.858-2.858C130.289,18.867,129.007,17.585,127.431,17.585z"/>
	<path fill="#FFFFFF" d="M127.431,24.801c-2.405,0-4.361-1.955-4.361-4.358c0-2.403,1.956-4.358,4.361-4.358
		c2.402,0,4.358,1.955,4.358,4.358C131.789,22.846,129.833,24.801,127.431,24.801z M127.431,18.085
		c-1.302,0-2.361,1.058-2.361,2.358s1.059,2.358,2.361,2.358c1.301,0,2.358-1.058,2.358-2.358S128.731,18.085,127.431,18.085z"/>
	<path fill="#FFFFFF" d="M144.655,39.976h-36.516c-1.653,0-2.998-1.344-2.998-2.996c0-1.653,1.345-2.999,2.998-2.999h36.516
		c1.653,0,2.998,1.345,2.998,2.999C147.653,38.632,146.309,39.976,144.655,39.976z M108.139,34.981
		c-1.102,0-1.998,0.896-1.998,1.999c0,1.101,0.896,1.996,1.998,1.996h36.516c1.102,0,1.998-0.895,1.998-1.996
		c0-1.102-0.896-1.999-1.998-1.999H108.139z"/>
	<path fill="#FFFFFF" d="M144.655,40.476h-36.516c-1.929,0-3.498-1.568-3.498-3.496c0-1.929,1.569-3.499,3.498-3.499h36.516
		c1.93,0,3.498,1.569,3.498,3.499C148.153,38.907,146.585,40.476,144.655,40.476z M108.139,35.481c-0.826,0-1.498,0.672-1.498,1.499
		c0,0.825,0.672,1.496,1.498,1.496h36.516c0.826,0,1.498-0.671,1.498-1.496c0-0.826-0.672-1.499-1.498-1.499H108.139z"/>
	<path fill="#FFFFFF" d="M126.311,511.07c-11.482,0-20.824-9.343-20.824-20.826c0-11.482,9.342-20.824,20.824-20.824
		c11.483,0,20.825,9.342,20.825,20.824C147.136,501.727,137.794,511.07,126.311,511.07z M126.311,470.419
		c-10.931,0-19.824,8.894-19.824,19.824c0,10.933,8.893,19.826,19.824,19.826s19.825-8.894,19.825-19.826
		C146.136,479.313,137.242,470.419,126.311,470.419z"/>
	<path fill="#FFFFFF" d="M126.311,511.57c-11.758,0-21.324-9.566-21.324-21.326c0-11.758,9.566-21.324,21.324-21.324
		s21.325,9.566,21.325,21.324C147.636,502.003,138.069,511.57,126.311,511.57z M126.311,470.919
		c-10.655,0-19.324,8.669-19.324,19.324c0,10.656,8.669,19.326,19.324,19.326c10.655,0,19.325-8.67,19.325-19.326
		C145.636,479.588,136.966,470.919,126.311,470.919z"/>
	<path fill="#FFFFFF" d="M126.311,507.391c-9.456,0-17.148-7.692-17.148-17.147s7.692-17.147,17.148-17.147
		s17.147,7.692,17.147,17.147S135.767,507.391,126.311,507.391z M126.311,474.096c-8.904,0-16.148,7.244-16.148,16.147
		s7.244,16.147,16.148,16.147s16.147-7.244,16.147-16.147S135.215,474.096,126.311,474.096z"/>
	<path fill="#FFFFFF" d="M126.311,507.891c-9.731,0-17.648-7.917-17.648-17.647s7.917-17.647,17.648-17.647
		s17.647,7.917,17.647,17.647S136.042,507.891,126.311,507.891z M126.311,474.596c-8.628,0-15.648,7.02-15.648,15.647
		s7.02,15.647,15.648,15.647c8.627,0,15.647-7.02,15.647-15.647S134.938,474.596,126.311,474.596z"/>
</g>
</svg>
