<?xml version="1.0" encoding="UTF-8" standalone="no"?>
<svg width="62px" height="24px" viewBox="0 0 62 24" version="1.1" xmlns="http://www.w3.org/2000/svg" xmlns:xlink="http://www.w3.org/1999/xlink">
    <!-- Generator: Sketch 40.3 (33839) - http://www.bohemiancoding.com/sketch -->
    <title>public_guardian_logo</title>
    <desc>Created with Sketch.</desc>
    <defs></defs>
    <g id="Page-1" stroke="none" stroke-width="1" fill="none" fill-rule="evenodd">
        <g id="public_guardian_logo" fill="#000000">
            <g id="Page-1">
                <g id="public_guardian_logo">
                    <g id="Group" transform="translate(0.000000, 17.000000)">
                        <path d="M0,5.163 L0,1.054 L1.472,1.054 C1.765,1.054 2.036,1.101 2.284,1.194 C2.531,1.286 2.744,1.422 2.924,1.597 C3.104,1.771 3.244,1.988 3.347,2.243 C3.45,2.496 3.501,2.786 3.501,3.112 C3.501,3.436 3.45,3.726 3.347,3.979 C3.244,4.234 3.103,4.452 2.922,4.624 C2.74,4.798 2.526,4.931 2.278,5.023 C2.03,5.117 1.76,5.164 1.466,5.164 L0,5.163 L0,5.163 L0,5.163 L0,5.163 Z M1.438,4.421 C1.604,4.421 1.762,4.395 1.914,4.343 C2.064,4.291 2.196,4.21 2.308,4.102 C2.42,3.996 2.509,3.859 2.575,3.695 C2.64,3.531 2.674,3.338 2.674,3.113 C2.674,2.886 2.641,2.693 2.575,2.528 C2.509,2.367 2.421,2.228 2.311,2.122 C2.201,2.014 2.07,1.933 1.92,1.879 C1.77,1.824 1.611,1.798 1.444,1.798 L0.8,1.798 L0.8,4.423 L1.438,4.421 L1.438,4.421 L1.438,4.421 L1.438,4.421 Z" id="Shape"></path>
                        <path d="M4.045,1.378 C4.045,1.243 4.092,1.13 4.185,1.036 C4.278,0.942 4.389,0.895 4.521,0.895 C4.656,0.895 4.769,0.942 4.86,1.036 C4.951,1.13 4.996,1.243 4.996,1.378 C4.996,1.506 4.951,1.616 4.86,1.71 C4.769,1.801 4.656,1.847 4.521,1.847 C4.389,1.847 4.278,1.801 4.185,1.71 C4.092,1.616 4.045,1.506 4.045,1.378 L4.045,1.378 L4.045,1.378 Z M4.138,5.163 L4.138,2.31 L4.909,2.31 L4.909,5.163 L4.138,5.163 L4.138,5.163 L4.138,5.163 Z" id="Shape"></path>
                        <path d="M6.224,5.134 C6.251,5.291 6.323,5.421 6.438,5.522 C6.554,5.624 6.705,5.672 6.89,5.672 C7.134,5.672 7.321,5.61 7.452,5.484 C7.583,5.358 7.649,5.156 7.649,4.878 L7.649,4.67 C7.59,4.763 7.496,4.847 7.364,4.923 C7.232,4.999 7.063,5.035 6.854,5.035 C6.665,5.035 6.489,5.001 6.327,4.93 C6.165,4.862 6.025,4.766 5.907,4.64 C5.789,4.518 5.696,4.372 5.629,4.203 C5.562,4.036 5.528,3.85 5.528,3.649 C5.528,3.461 5.56,3.281 5.626,3.114 C5.691,2.944 5.783,2.798 5.898,2.67 C6.013,2.542 6.153,2.441 6.315,2.37 C6.477,2.297 6.657,2.26 6.854,2.26 C7.082,2.26 7.261,2.299 7.393,2.38 C7.525,2.461 7.616,2.552 7.666,2.648 L7.666,2.312 L8.408,2.312 L8.408,4.857 C8.408,5.053 8.38,5.244 8.324,5.421 C8.268,5.601 8.18,5.758 8.06,5.896 C7.94,6.035 7.786,6.144 7.597,6.227 C7.407,6.308 7.179,6.35 6.913,6.35 C6.716,6.35 6.537,6.324 6.377,6.266 C6.216,6.21 6.077,6.136 5.957,6.04 C5.837,5.945 5.741,5.836 5.667,5.711 C5.594,5.586 5.547,5.453 5.528,5.317 L6.224,5.134 L6.224,5.134 L6.224,5.134 Z M6.989,4.375 C7.186,4.375 7.347,4.309 7.473,4.178 C7.598,4.046 7.661,3.871 7.661,3.651 C7.661,3.429 7.595,3.255 7.464,3.126 C7.333,2.999 7.174,2.933 6.988,2.933 C6.892,2.933 6.801,2.951 6.718,2.982 C6.635,3.016 6.563,3.066 6.501,3.128 C6.439,3.191 6.391,3.271 6.356,3.358 C6.322,3.446 6.304,3.546 6.304,3.653 C6.304,3.878 6.368,4.053 6.496,4.183 C6.624,4.311 6.788,4.375 6.989,4.375 L6.989,4.375 L6.989,4.375 Z" id="Shape"></path>
                        <path d="M9.098,1.378 C9.098,1.243 9.145,1.13 9.238,1.036 C9.331,0.942 9.443,0.895 9.574,0.895 C9.709,0.895 9.822,0.942 9.913,1.036 C10.004,1.13 10.049,1.243 10.049,1.378 C10.049,1.506 10.004,1.616 9.913,1.71 C9.822,1.801 9.709,1.847 9.574,1.847 C9.443,1.847 9.331,1.801 9.238,1.71 C9.145,1.616 9.098,1.506 9.098,1.378 L9.098,1.378 L9.098,1.378 Z M9.191,5.163 L9.191,2.31 L9.962,2.31 L9.962,5.163 L9.191,5.163 L9.191,5.163 L9.191,5.163 Z" id="Shape"></path>
                        <path d="M11.735,2.312 L12.308,2.312 L12.308,2.996 L11.735,2.996 L11.735,4.189 C11.735,4.314 11.762,4.4 11.819,4.448 C11.875,4.497 11.958,4.52 12.071,4.52 C12.117,4.52 12.164,4.518 12.21,4.515 C12.256,4.51 12.289,4.505 12.308,4.495 L12.308,5.134 C12.273,5.149 12.221,5.166 12.148,5.181 C12.077,5.196 11.985,5.202 11.873,5.202 C11.595,5.202 11.375,5.126 11.212,4.972 C11.05,4.817 10.969,4.601 10.969,4.325 L10.969,2.996 L10.453,2.996 L10.453,2.312 L10.598,2.312 C10.748,2.312 10.86,2.268 10.931,2.182 C11.002,2.095 11.038,1.988 11.038,1.86 L11.038,1.46 L11.734,1.46 L11.735,2.312 L11.735,2.312 L11.735,2.312 L11.735,2.312 Z" id="Shape"></path>
                        <path d="M12.808,4.387 C12.808,4.259 12.83,4.147 12.874,4.048 C12.919,3.947 12.98,3.864 13.057,3.79 C13.134,3.717 13.224,3.657 13.327,3.615 C13.429,3.574 13.54,3.542 13.66,3.521 L14.361,3.417 C14.442,3.405 14.498,3.381 14.529,3.344 C14.56,3.307 14.575,3.265 14.575,3.213 C14.575,3.111 14.536,3.025 14.456,2.953 C14.377,2.879 14.256,2.843 14.094,2.843 C13.924,2.843 13.794,2.889 13.703,2.983 C13.612,3.075 13.561,3.182 13.55,3.307 L12.866,3.162 C12.878,3.049 12.912,2.937 12.97,2.825 C13.028,2.712 13.107,2.61 13.207,2.522 C13.308,2.433 13.431,2.363 13.578,2.305 C13.724,2.248 13.895,2.222 14.088,2.222 C14.312,2.222 14.504,2.251 14.662,2.31 C14.82,2.372 14.949,2.452 15.047,2.548 C15.146,2.647 15.217,2.762 15.261,2.892 C15.306,3.025 15.328,3.163 15.328,3.305 L15.328,4.707 C15.328,4.783 15.332,4.867 15.34,4.953 C15.347,5.039 15.356,5.106 15.363,5.159 L14.655,5.159 C14.648,5.12 14.641,5.065 14.635,5 C14.629,4.931 14.626,4.872 14.626,4.816 C14.553,4.927 14.447,5.025 14.311,5.112 C14.174,5.198 14,5.242 13.787,5.242 C13.636,5.242 13.5,5.218 13.378,5.169 C13.256,5.122 13.153,5.058 13.068,4.977 C12.983,4.899 12.918,4.808 12.873,4.707 C12.83,4.606 12.808,4.497 12.808,4.387 L12.808,4.387 L12.808,4.387 Z M13.949,4.67 C14.03,4.67 14.109,4.659 14.183,4.638 C14.259,4.618 14.325,4.581 14.383,4.528 C14.441,4.476 14.487,4.411 14.522,4.327 C14.557,4.244 14.574,4.139 14.574,4.011 L14.574,3.883 L13.931,3.982 C13.83,4 13.746,4.035 13.679,4.089 C13.612,4.146 13.578,4.23 13.578,4.342 C13.578,4.426 13.609,4.502 13.671,4.571 C13.733,4.635 13.826,4.67 13.949,4.67 L13.949,4.67 L13.949,4.67 Z" id="Shape"></path>
                        <polygon id="Shape" points="16.104 5.163 16.104 0.968 16.875 0.968 16.875 5.163"></polygon>
                        <path d="M19.986,3.615 L19.986,5.163 L19.186,5.163 L19.186,1.054 L20.723,1.054 C20.923,1.054 21.107,1.086 21.273,1.15 C21.439,1.214 21.581,1.302 21.701,1.417 C21.82,1.532 21.912,1.667 21.976,1.824 C22.04,1.978 22.072,2.15 22.072,2.335 C22.072,2.523 22.04,2.693 21.976,2.852 C21.912,3.011 21.82,3.147 21.701,3.259 C21.581,3.369 21.438,3.458 21.273,3.522 C21.107,3.586 20.923,3.619 20.723,3.619 L19.986,3.619 L19.986,3.615 L19.986,3.615 L19.986,3.615 Z M20.624,2.926 C20.825,2.926 20.982,2.871 21.097,2.766 C21.212,2.662 21.268,2.518 21.268,2.341 C21.268,2.153 21.211,2.009 21.097,1.906 C20.983,1.801 20.826,1.749 20.624,1.749 L19.993,1.749 L19.993,2.926 L20.624,2.926 L20.624,2.926 L20.624,2.926 Z" id="Shape"></path>
                        <path d="M24.392,5.163 C24.385,5.131 24.378,5.087 24.375,5.027 C24.371,4.97 24.369,4.913 24.369,4.855 C24.293,4.991 24.18,5.085 24.03,5.147 C23.882,5.207 23.732,5.236 23.582,5.236 C23.408,5.236 23.254,5.207 23.122,5.147 C22.988,5.085 22.875,5.007 22.783,4.908 C22.69,4.805 22.62,4.688 22.571,4.552 C22.523,4.414 22.499,4.27 22.499,4.114 L22.499,2.31 L23.27,2.31 L23.27,3.956 C23.27,4.118 23.312,4.256 23.394,4.364 C23.477,4.473 23.61,4.531 23.792,4.531 C23.965,4.531 24.099,4.475 24.191,4.374 C24.284,4.269 24.33,4.133 24.33,3.969 L24.33,2.311 L25.101,2.311 L25.101,4.647 C25.101,4.757 25.103,4.861 25.109,4.953 C25.115,5.044 25.121,5.111 25.13,5.164 L24.392,5.163 L24.392,5.163 L24.392,5.163 L24.392,5.163 Z" id="Shape"></path>
                        <path d="M25.922,5.163 L25.922,0.968 L26.681,0.968 L26.681,2.623 C26.747,2.524 26.854,2.435 27.003,2.354 C27.152,2.273 27.333,2.234 27.545,2.234 C27.753,2.234 27.939,2.273 28.101,2.347 C28.263,2.423 28.402,2.526 28.516,2.661 C28.629,2.793 28.715,2.95 28.774,3.132 C28.832,3.315 28.86,3.511 28.86,3.725 C28.86,3.941 28.828,4.14 28.764,4.325 C28.702,4.51 28.611,4.667 28.493,4.802 C28.375,4.94 28.233,5.043 28.067,5.119 C27.901,5.194 27.717,5.231 27.517,5.231 C27.319,5.231 27.148,5.191 27.003,5.116 C26.858,5.038 26.748,4.938 26.67,4.813 L26.67,5.163 L25.922,5.163 L25.922,5.163 L25.922,5.163 Z M28.089,3.732 C28.089,3.469 28.021,3.27 27.883,3.132 C27.747,2.994 27.58,2.926 27.382,2.926 C27.285,2.926 27.194,2.943 27.107,2.977 C27.02,3.012 26.945,3.064 26.881,3.132 C26.818,3.198 26.766,3.284 26.728,3.383 C26.689,3.484 26.67,3.601 26.67,3.732 C26.67,3.859 26.689,3.972 26.728,4.074 C26.766,4.175 26.818,4.261 26.881,4.33 C26.945,4.397 27.02,4.453 27.107,4.488 C27.194,4.525 27.285,4.544 27.382,4.544 C27.58,4.544 27.747,4.475 27.883,4.335 C28.021,4.196 28.089,3.994 28.089,3.732 L28.089,3.732 L28.089,3.732 Z" id="Shape"></path>
                        <polygon id="Shape" points="29.468 5.163 29.468 0.968 30.239 0.968 30.239 5.163"></polygon>
                        <path d="M30.97,1.378 C30.97,1.243 31.014,1.13 31.108,1.036 C31.201,0.942 31.312,0.895 31.445,0.895 C31.58,0.895 31.693,0.942 31.785,1.036 C31.875,1.13 31.92,1.243 31.92,1.378 C31.92,1.506 31.875,1.616 31.785,1.71 C31.693,1.801 31.58,1.847 31.445,1.847 C31.312,1.847 31.201,1.801 31.108,1.71 C31.015,1.616 30.97,1.506 30.97,1.378 L30.97,1.378 L30.97,1.378 Z M31.061,5.163 L31.061,2.31 L31.832,2.31 L31.832,5.163 L31.061,5.163 L31.061,5.163 L31.061,5.163 Z" id="Shape"></path>
                        <path d="M33.935,2.938 C33.833,2.938 33.742,2.957 33.655,2.991 C33.567,3.024 33.492,3.077 33.426,3.145 C33.361,3.21 33.31,3.294 33.27,3.395 C33.231,3.497 33.211,3.609 33.211,3.737 C33.211,3.866 33.231,3.98 33.27,4.082 C33.31,4.18 33.361,4.267 33.43,4.335 C33.496,4.406 33.575,4.458 33.66,4.492 C33.744,4.525 33.842,4.544 33.942,4.544 C34.039,4.544 34.125,4.528 34.197,4.502 C34.273,4.473 34.338,4.434 34.393,4.389 C34.449,4.342 34.489,4.291 34.524,4.232 C34.555,4.173 34.582,4.121 34.595,4.063 L35.273,4.292 C35.244,4.409 35.192,4.526 35.121,4.641 C35.047,4.756 34.957,4.857 34.847,4.949 C34.734,5.04 34.602,5.113 34.451,5.171 C34.301,5.227 34.131,5.254 33.942,5.254 C33.733,5.254 33.537,5.217 33.352,5.141 C33.167,5.065 33.007,4.962 32.873,4.828 C32.738,4.692 32.633,4.534 32.558,4.349 C32.479,4.164 32.44,3.963 32.44,3.744 C32.44,3.525 32.479,3.32 32.553,3.137 C32.629,2.949 32.735,2.791 32.867,2.658 C32.998,2.525 33.156,2.421 33.336,2.346 C33.516,2.27 33.709,2.233 33.918,2.233 C34.111,2.233 34.283,2.259 34.437,2.316 C34.59,2.374 34.722,2.444 34.834,2.533 C34.944,2.622 35.035,2.724 35.106,2.841 C35.173,2.959 35.224,3.077 35.255,3.195 L34.565,3.428 C34.531,3.308 34.464,3.198 34.367,3.097 C34.269,2.988 34.125,2.938 33.935,2.938 L33.935,2.938 L33.935,2.938 Z" id="Shape"></path>
                        <path d="M40.403,5.163 L40.351,4.693 C40.304,4.761 40.246,4.832 40.171,4.896 C40.098,4.965 40.009,5.024 39.907,5.08 C39.804,5.131 39.688,5.173 39.561,5.202 C39.433,5.233 39.291,5.249 39.138,5.249 C38.861,5.249 38.598,5.2 38.35,5.102 C38.101,5.004 37.885,4.862 37.7,4.68 C37.511,4.495 37.362,4.272 37.253,4.006 C37.143,3.741 37.089,3.444 37.089,3.111 C37.089,2.777 37.146,2.479 37.257,2.215 C37.372,1.949 37.528,1.726 37.723,1.539 C37.919,1.353 38.143,1.213 38.396,1.114 C38.649,1.014 38.916,0.967 39.192,0.967 C39.463,0.967 39.703,1.001 39.914,1.072 C40.127,1.142 40.309,1.239 40.463,1.358 C40.617,1.479 40.744,1.615 40.847,1.763 C40.945,1.915 41.021,2.068 41.073,2.228 L40.306,2.5 C40.28,2.406 40.238,2.312 40.181,2.223 C40.127,2.129 40.053,2.046 39.961,1.97 C39.871,1.894 39.76,1.832 39.633,1.783 C39.508,1.735 39.361,1.712 39.194,1.712 C39.04,1.712 38.883,1.738 38.729,1.793 C38.577,1.847 38.437,1.93 38.317,2.046 C38.194,2.158 38.095,2.304 38.017,2.481 C37.941,2.657 37.902,2.865 37.902,3.11 C37.902,3.34 37.938,3.546 38.008,3.719 C38.08,3.896 38.174,4.043 38.291,4.16 C38.408,4.278 38.547,4.367 38.703,4.426 C38.86,4.488 39.025,4.517 39.199,4.517 C39.388,4.517 39.551,4.489 39.685,4.434 C39.821,4.377 39.931,4.308 40.017,4.227 C40.105,4.146 40.169,4.058 40.216,3.967 C40.259,3.873 40.286,3.79 40.298,3.716 L39,3.716 L39,3.021 L41.051,3.021 L41.051,5.162 L40.403,5.162 L40.403,5.163 L40.403,5.163 Z" id="Shape"></path>
                        <path d="M43.653,5.163 C43.645,5.131 43.64,5.087 43.634,5.027 C43.632,4.97 43.63,4.913 43.63,4.855 C43.554,4.991 43.441,5.085 43.29,5.147 C43.141,5.207 42.991,5.236 42.841,5.236 C42.667,5.236 42.515,5.207 42.382,5.147 C42.247,5.085 42.134,5.007 42.042,4.908 C41.948,4.805 41.878,4.688 41.829,4.552 C41.782,4.414 41.757,4.27 41.757,4.114 L41.757,2.31 L42.528,2.31 L42.528,3.956 C42.528,4.118 42.57,4.256 42.651,4.364 C42.734,4.473 42.868,4.531 43.047,4.531 C43.223,4.531 43.356,4.475 43.447,4.374 C43.541,4.269 43.586,4.133 43.586,3.969 L43.586,2.311 L44.357,2.311 L44.357,4.647 C44.357,4.757 44.359,4.861 44.368,4.953 C44.372,5.044 44.38,5.111 44.388,5.164 L43.653,5.163 L43.653,5.163 L43.653,5.163 L43.653,5.163 Z" id="Shape"></path>
                        <path d="M45.007,4.387 C45.007,4.259 45.032,4.147 45.075,4.048 C45.12,3.947 45.179,3.864 45.259,3.79 C45.335,3.717 45.425,3.657 45.529,3.615 C45.631,3.574 45.744,3.542 45.861,3.521 L46.563,3.417 C46.644,3.405 46.701,3.381 46.73,3.344 C46.762,3.307 46.777,3.265 46.777,3.213 C46.777,3.111 46.738,3.025 46.66,2.953 C46.578,2.879 46.459,2.843 46.297,2.843 C46.127,2.843 45.996,2.889 45.905,2.983 C45.814,3.075 45.762,3.182 45.752,3.307 L45.067,3.162 C45.08,3.049 45.114,2.937 45.173,2.825 C45.229,2.712 45.308,2.61 45.407,2.522 C45.509,2.433 45.632,2.363 45.778,2.305 C45.924,2.248 46.094,2.222 46.29,2.222 C46.514,2.222 46.704,2.251 46.861,2.31 C47.021,2.372 47.148,2.452 47.247,2.548 C47.347,2.647 47.419,2.762 47.464,2.892 C47.509,3.025 47.529,3.163 47.529,3.305 L47.529,4.707 C47.529,4.783 47.532,4.867 47.54,4.953 C47.55,5.039 47.558,5.106 47.563,5.159 L46.856,5.159 C46.848,5.12 46.84,5.065 46.836,5 C46.828,4.931 46.826,4.872 46.826,4.816 C46.752,4.927 46.648,5.025 46.512,5.112 C46.373,5.196 46.2,5.24 45.987,5.24 C45.837,5.24 45.7,5.216 45.579,5.167 C45.456,5.12 45.353,5.056 45.269,4.975 C45.183,4.897 45.12,4.806 45.075,4.705 C45.033,4.606 45.007,4.497 45.007,4.387 L45.007,4.387 L45.007,4.387 Z M46.151,4.67 C46.232,4.67 46.31,4.659 46.386,4.638 C46.46,4.618 46.529,4.581 46.585,4.528 C46.644,4.476 46.689,4.411 46.725,4.327 C46.759,4.244 46.777,4.139 46.777,4.011 L46.777,3.883 L46.132,3.982 C46.032,4 45.948,4.035 45.882,4.089 C45.814,4.146 45.778,4.23 45.778,4.342 C45.778,4.426 45.81,4.502 45.872,4.571 C45.934,4.635 46.028,4.67 46.151,4.67 L46.151,4.67 L46.151,4.67 Z" id="Shape"></path>
                        <path d="M50.046,3.075 C49.97,3.059 49.891,3.053 49.815,3.053 C49.714,3.053 49.619,3.069 49.531,3.093 C49.442,3.122 49.364,3.166 49.301,3.228 C49.235,3.29 49.181,3.372 49.142,3.474 C49.1,3.578 49.08,3.704 49.08,3.859 L49.08,5.165 L48.309,5.165 L48.309,2.312 L49.058,2.312 L49.058,2.734 C49.1,2.641 49.154,2.565 49.223,2.506 C49.289,2.445 49.361,2.4 49.437,2.37 C49.513,2.339 49.586,2.315 49.663,2.307 C49.739,2.294 49.809,2.289 49.87,2.289 C49.898,2.289 49.932,2.289 49.958,2.292 C49.987,2.294 50.018,2.297 50.05,2.299 L50.05,3.075 L50.046,3.075 L50.046,3.075 L50.046,3.075 Z" id="Shape"></path>
                        <path d="M53.279,4.648 C53.279,4.745 53.283,4.839 53.287,4.935 C53.289,5.029 53.297,5.105 53.305,5.164 L52.569,5.164 C52.561,5.132 52.553,5.086 52.548,5.023 C52.542,4.961 52.538,4.897 52.538,4.833 C52.473,4.944 52.372,5.039 52.234,5.117 C52.098,5.192 51.931,5.232 51.74,5.232 C51.534,5.232 51.346,5.195 51.178,5.12 C51.008,5.044 50.861,4.939 50.74,4.808 C50.618,4.673 50.521,4.516 50.454,4.331 C50.384,4.148 50.349,3.948 50.349,3.731 C50.349,3.522 50.382,3.329 50.453,3.146 C50.518,2.964 50.612,2.807 50.732,2.672 C50.852,2.539 50.998,2.434 51.166,2.358 C51.332,2.28 51.518,2.243 51.719,2.243 C51.844,2.243 51.948,2.253 52.039,2.277 C52.131,2.298 52.209,2.329 52.275,2.364 C52.337,2.397 52.392,2.436 52.434,2.475 C52.473,2.517 52.503,2.556 52.523,2.596 L52.523,0.967 L53.282,0.967 L53.279,4.648 L53.279,4.648 L53.279,4.648 L53.279,4.648 Z M51.125,3.732 C51.125,3.987 51.191,4.186 51.324,4.33 C51.457,4.473 51.627,4.544 51.83,4.544 C52.029,4.544 52.193,4.473 52.33,4.33 C52.465,4.186 52.533,3.985 52.533,3.727 C52.533,3.471 52.465,3.275 52.33,3.137 C52.193,2.999 52.029,2.931 51.83,2.931 C51.635,2.931 51.467,3.002 51.33,3.14 C51.194,3.281 51.125,3.476 51.125,3.732 L51.125,3.732 L51.125,3.732 Z" id="Shape"></path>
                        <path d="M54.023,1.378 C54.023,1.243 54.067,1.13 54.162,1.036 C54.256,0.942 54.365,0.895 54.498,0.895 C54.633,0.895 54.746,0.942 54.838,1.036 C54.929,1.13 54.973,1.243 54.973,1.378 C54.973,1.506 54.929,1.616 54.838,1.71 C54.746,1.801 54.633,1.847 54.498,1.847 C54.365,1.847 54.256,1.801 54.162,1.71 C54.067,1.616 54.023,1.506 54.023,1.378 L54.023,1.378 L54.023,1.378 Z M54.114,5.163 L54.114,2.31 L54.885,2.31 L54.885,5.163 L54.114,5.163 L54.114,5.163 L54.114,5.163 Z" id="Shape"></path>
                        <path d="M55.535,4.387 C55.535,4.259 55.556,4.147 55.6,4.048 C55.644,3.947 55.704,3.864 55.783,3.79 C55.861,3.717 55.949,3.657 56.054,3.615 C56.157,3.574 56.268,3.542 56.388,3.521 L57.088,3.417 C57.168,3.405 57.226,3.381 57.256,3.344 C57.285,3.307 57.304,3.265 57.304,3.213 C57.304,3.111 57.262,3.025 57.184,2.953 C57.105,2.879 56.985,2.843 56.823,2.843 C56.654,2.843 56.521,2.889 56.43,2.983 C56.34,3.075 56.289,3.182 56.278,3.307 L55.594,3.162 C55.604,3.049 55.639,2.937 55.698,2.825 C55.757,2.712 55.837,2.61 55.936,2.522 C56.038,2.433 56.161,2.363 56.307,2.305 C56.453,2.248 56.623,2.222 56.816,2.222 C57.042,2.222 57.231,2.251 57.39,2.31 C57.547,2.372 57.676,2.452 57.776,2.548 C57.876,2.647 57.946,2.762 57.99,2.892 C58.034,3.025 58.056,3.163 58.056,3.305 L58.056,4.707 C58.056,4.783 58.061,4.867 58.068,4.953 C58.077,5.039 58.083,5.106 58.09,5.159 L57.385,5.159 C57.375,5.12 57.369,5.065 57.363,5 C57.358,4.931 57.356,4.872 57.356,4.816 C57.282,4.927 57.176,5.025 57.04,5.112 C56.902,5.196 56.728,5.24 56.518,5.24 C56.366,5.24 56.23,5.216 56.108,5.167 C55.987,5.12 55.884,5.056 55.798,4.975 C55.714,4.897 55.648,4.806 55.604,4.705 C55.556,4.606 55.535,4.497 55.535,4.387 L55.535,4.387 L55.535,4.387 Z M56.675,4.67 C56.757,4.67 56.835,4.659 56.909,4.638 C56.984,4.618 57.052,4.581 57.109,4.528 C57.167,4.476 57.213,4.411 57.247,4.327 C57.282,4.244 57.302,4.139 57.302,4.011 L57.302,3.883 L56.657,3.982 C56.556,4 56.472,4.035 56.404,4.089 C56.339,4.146 56.303,4.23 56.303,4.342 C56.303,4.426 56.332,4.502 56.396,4.571 C56.458,4.635 56.55,4.67 56.675,4.67 L56.675,4.67 L56.675,4.67 Z" id="Shape"></path>
                        <path d="M59.601,5.163 L58.83,5.163 L58.83,2.31 L59.58,2.31 L59.58,2.664 C59.668,2.517 59.789,2.408 59.94,2.34 C60.091,2.269 60.248,2.235 60.401,2.235 C60.58,2.235 60.73,2.267 60.861,2.327 C60.992,2.386 61.096,2.467 61.182,2.566 C61.268,2.669 61.329,2.786 61.37,2.925 C61.409,3.065 61.432,3.209 61.432,3.364 L61.432,5.162 L60.661,5.162 L60.661,3.5 C60.661,3.338 60.62,3.203 60.536,3.093 C60.452,2.985 60.319,2.931 60.134,2.931 C59.964,2.931 59.831,2.991 59.741,3.103 C59.646,3.215 59.599,3.356 59.599,3.523 L59.601,5.163 L59.601,5.163 L59.601,5.163 L59.601,5.163 Z" id="Shape"></path>
                    </g>
                    <g id="Group" transform="translate(24.000000, 0.000000)">
                        <path d="M0.741,0.126 L0.741,4.38 L0.739,4.38 L0.739,5.802 L0.741,5.802 L0.741,9.927 C0.741,11.219 5.266,13.215 6.418,13.215 C7.57,13.215 12.095,11.222 12.095,9.927 L12.095,0.126 L0.741,0.126 L0.741,0.126 L0.741,0.126 Z M7.626,4.325 L7.626,2.959 L6.204,2.959 L6.204,4.38 L7.562,4.38 L5.118,6.489 L5.118,5.959 L3.696,5.959 L3.696,7.381 L4.084,7.381 L1.922,9.246 L1.922,5.802 L1.937,5.802 L2.73,5.802 L3.359,5.802 L3.359,4.38 L2.73,4.38 L1.937,4.38 L1.922,4.38 L1.922,2.909 L3.344,2.909 L3.359,2.909 L3.359,1.49 L4.781,1.49 L4.781,2.909 L6.203,2.909 L6.203,1.49 L10.91,1.49 L7.626,4.325 L7.626,4.325 L7.626,4.325 Z" id="Shape"></path>
                        <rect id="Rectangle-path" x="3.359" y="2.909" width="1.422" height="1.423"></rect>
                    </g>
                </g>
            </g>
        </g>
    </g>
</svg>