<?xml version="1.0" encoding="UTF-8" standalone="no"?>
<svg width="47px" height="28px" viewBox="0 0 47 28" version="1.1" xmlns="http://www.w3.org/2000/svg" xmlns:xlink="http://www.w3.org/1999/xlink">
    <!-- Generator: Sketch 40.3 (33839) - http://www.bohemiancoding.com/sketch -->
    <title>public_guardian_logo</title>
    <desc>Created with Sketch.</desc>
    <defs></defs>
    <g id="Page-1" stroke="none" stroke-width="1" fill="none" fill-rule="evenodd">
        <g id="public_guardian_logo" fill="#000000">
            <path d="M11.479,2.456 C11.568,2.237 11.655,2.017 11.737,1.809 C11.532,1.951 11.339,2.108 11.123,2.228 C10.894,2.356 10.64,2.309 10.382,2.249 C10.399,2.526 10.487,2.734 10.778,2.841 C10.56,3.02 10.368,3.19 10.164,3.342 C9.522,3.82 9.19,3.462 9.043,2.929 C9.035,2.902 9.03,2.873 9.026,2.846 C9.001,2.682 8.975,2.519 8.956,2.387 C8.659,2.683 8.374,3.004 8.052,3.279 C7.742,3.543 7.542,3.502 7.358,3.139 C7.169,2.765 7.031,2.367 6.872,1.978 C6.853,1.934 6.848,1.886 6.842,1.86 C7.088,1.76 7.315,1.669 7.542,1.578 C6.916,1.311 6.811,0.744 6.635,0.184 C6.453,0.74 6.357,1.314 5.725,1.578 C5.957,1.671 6.188,1.764 6.434,1.861 C6.4,1.968 6.372,2.09 6.323,2.203 C6.17,2.551 6.026,2.904 5.844,3.236 C5.709,3.48 5.549,3.5 5.314,3.348 C5.18,3.263 5.052,3.163 4.942,3.049 C4.726,2.826 4.524,2.589 4.309,2.35 C4.296,2.465 4.299,2.577 4.27,2.677 C4.2,2.903 4.14,3.137 4.026,3.342 C3.907,3.562 3.672,3.619 3.448,3.53 C3.073,3.383 2.794,3.108 2.505,2.832 C2.776,2.721 2.901,2.513 2.861,2.256 C2.274,2.354 2.266,2.351 1.52,1.772 C1.547,1.847 1.565,1.899 1.584,1.949 C2.021,3.035 2.456,4.122 2.889,5.209 L10.376,5.209 C10.742,4.292 11.11,3.374 11.479,2.456 L11.479,2.456 Z" id="Shape"></path>
            <g id="Group" transform="translate(0.000000, 19.000000)">
                <path d="M10.936,0.148 C10.936,0.148 10.942,0.187 10.957,0.253 C11.015,0.534 11.211,1.296 11.657,1.564 C12.009,1.786 12.317,2.423 11.503,3.019 C11.503,3.019 8.284,6.435 2.972,7.295 L0.856,5.357 C0.856,5.357 3.082,5.489 4.845,4.628 C6.608,3.77 9.752,2.525 10.936,0.148 L10.936,0.148 Z" id="Shape"></path>
                <path d="M0.311,4.898 L2.499,4.898 C2.499,4.898 2.499,3.546 3.687,3.722 L4.125,4.302 L6.063,3.398 C6.063,3.398 4.813,2.773 3.938,3.086 L3.188,3.274 C3.186,3.273 1.561,2.023 0.311,4.898 L0.311,4.898 Z" id="Shape"></path>
                <path d="M11.061,6.962 C11.061,6.962 10.999,7.818 9.873,7.297 C9.248,6.776 10.123,5.337 10.467,5.337 C10.811,5.337 11.748,4.399 12.623,5.337 C13.498,6.275 11.977,6.462 12.019,6.525 C12.061,6.587 12.123,8.337 10.748,8.275 C9.373,8.213 6.686,6.599 6.686,6.599 L8.498,5.711 C8.498,5.711 9.453,6.044 9.47,6.181 C9.487,6.316 9.232,7.239 9.658,7.425 C10.084,7.613 10.969,7.986 11.5,7.296 C12.031,6.606 10.895,6.703 11.061,6.962 L11.061,6.962 Z" id="Shape"></path>
            </g>
            <path d="M0.651,6.012 L0.651,16.29 C0.651,17.644 1.719,18.743 3.058,18.809 L3.055,18.823 C3.055,18.823 3.1,18.821 3.166,18.821 C3.172,18.821 3.176,18.823 3.182,18.823 C3.188,18.823 3.193,18.821 3.199,18.821 C3.857,18.821 6.603,18.934 6.603,20.747 C6.603,18.933 9.352,18.821 10.008,18.821 C10.014,18.821 10.02,18.823 10.026,18.823 C10.03,18.823 10.036,18.821 10.04,18.821 C10.106,18.821 10.151,18.823 10.151,18.823 L10.148,18.809 C11.488,18.745 12.555,17.647 12.555,16.29 L12.555,6.012 L0.651,6.012 L0.651,6.012 Z M3.396,9.412 L3.396,6.638 L6.17,6.638 L6.17,9.412 L3.396,9.412 L3.396,9.412 Z M8.944,17.732 L6.17,17.732 L6.17,14.96 L8.943,14.96 L8.944,17.732 L8.944,17.732 L8.944,17.732 Z M11.811,14.96 L9.038,14.96 L9.038,12.186 L6.265,12.186 L6.265,9.412 L9.038,9.412 L9.038,12.186 L11.811,12.186 L11.811,14.96 L11.811,14.96 Z M11.811,9.384 L9.038,9.384 L9.038,6.61 L11.811,6.61 L11.811,9.384 L11.811,9.384 Z" id="Shape"></path>
            <g id="Group" transform="translate(16.000000, 5.000000)">
                <path d="M0.368,6.246 L0.368,1.028 L2.237,1.028 C2.61,1.028 2.953,1.087 3.267,1.204 C3.581,1.322 3.853,1.493 4.08,1.716 C4.307,1.939 4.487,2.213 4.617,2.537 C4.747,2.861 4.812,3.228 4.812,3.641 C4.812,4.054 4.747,4.421 4.617,4.745 C4.487,5.069 4.306,5.341 4.076,5.562 C3.846,5.783 3.573,5.952 3.259,6.07 C2.946,6.188 2.603,6.247 2.23,6.247 L0.368,6.246 L0.368,6.246 L0.368,6.246 Z M2.193,5.304 C2.404,5.304 2.605,5.271 2.797,5.204 C2.988,5.138 3.154,5.036 3.297,4.899 C3.44,4.762 3.553,4.588 3.636,4.38 C3.719,4.172 3.761,3.925 3.761,3.64 C3.761,3.356 3.719,3.109 3.636,2.901 C3.553,2.693 3.442,2.519 3.301,2.382 C3.161,2.245 2.996,2.142 2.805,2.073 C2.614,2.004 2.412,1.969 2.201,1.969 L1.384,1.969 L1.384,5.303 L2.193,5.303 L2.193,5.304 Z" id="Shape"></path>
                <path d="M5.504,1.44 C5.504,1.268 5.564,1.124 5.681,1.005 C5.798,0.887 5.941,0.829 6.108,0.829 C6.28,0.829 6.423,0.888 6.539,1.005 C6.654,1.123 6.711,1.268 6.711,1.44 C6.711,1.602 6.654,1.742 6.539,1.859 C6.423,1.977 6.28,2.036 6.108,2.036 C5.941,2.036 5.798,1.977 5.681,1.859 C5.564,1.741 5.504,1.602 5.504,1.44 L5.504,1.44 Z M5.623,6.246 L5.623,2.625 L6.602,2.625 L6.602,6.246 L5.623,6.246 L5.623,6.246 Z" id="Shape"></path>
                <path d="M8.271,6.209 C8.306,6.41 8.396,6.574 8.543,6.702 C8.689,6.83 8.881,6.893 9.117,6.893 C9.426,6.893 9.662,6.813 9.83,6.654 C9.996,6.494 10.08,6.238 10.08,5.884 L10.08,5.62 C10.006,5.738 9.888,5.845 9.72,5.94 C9.554,6.036 9.336,6.084 9.074,6.084 C8.834,6.084 8.611,6.04 8.404,5.952 C8.199,5.864 8.019,5.741 7.871,5.584 C7.721,5.427 7.603,5.242 7.517,5.029 C7.431,4.815 7.388,4.581 7.388,4.326 C7.388,4.086 7.429,3.859 7.513,3.645 C7.597,3.431 7.711,3.244 7.859,3.082 C8.007,2.92 8.183,2.792 8.388,2.699 C8.595,2.606 8.824,2.559 9.074,2.559 C9.363,2.559 9.592,2.61 9.758,2.713 C9.926,2.816 10.041,2.929 10.104,3.052 L10.104,2.625 L11.047,2.625 L11.047,5.856 C11.047,6.106 11.01,6.345 10.94,6.574 C10.871,6.802 10.756,7.003 10.606,7.178 C10.455,7.352 10.256,7.492 10.016,7.597 C9.776,7.702 9.487,7.755 9.147,7.755 C8.897,7.755 8.67,7.719 8.467,7.648 C8.264,7.577 8.086,7.481 7.934,7.361 C7.783,7.241 7.66,7.101 7.565,6.942 C7.474,6.783 7.416,6.617 7.39,6.445 L8.271,6.209 L8.271,6.209 Z M9.242,5.245 C9.494,5.245 9.697,5.162 9.857,4.995 C10.017,4.828 10.097,4.605 10.097,4.325 C10.097,4.045 10.013,3.824 9.845,3.659 C9.679,3.495 9.478,3.412 9.241,3.412 C9.12,3.412 9.005,3.433 8.898,3.474 C8.794,3.516 8.702,3.577 8.624,3.658 C8.546,3.739 8.482,3.836 8.439,3.949 C8.394,4.062 8.374,4.187 8.374,4.324 C8.374,4.609 8.454,4.833 8.616,4.997 C8.779,5.163 8.988,5.245 9.242,5.245 L9.242,5.245 Z" id="Shape"></path>
                <path d="M11.922,1.44 C11.922,1.268 11.981,1.124 12.098,1.005 C12.217,0.887 12.36,0.829 12.526,0.829 C12.699,0.829 12.84,0.888 12.957,1.005 C13.071,1.123 13.131,1.268 13.131,1.44 C13.131,1.602 13.071,1.742 12.957,1.859 C12.842,1.976 12.699,2.036 12.526,2.036 C12.36,2.036 12.217,1.977 12.098,1.859 C11.98,1.742 11.922,1.602 11.922,1.44 L11.922,1.44 Z M12.039,6.246 L12.039,2.625 L13.018,2.625 L13.018,6.246 L12.039,6.246 L12.039,6.246 Z" id="Shape"></path>
                <path d="M15.27,2.625 L15.999,2.625 L15.999,3.494 L15.27,3.494 L15.27,5.01 C15.27,5.167 15.305,5.276 15.377,5.338 C15.447,5.399 15.555,5.43 15.697,5.43 C15.756,5.43 15.814,5.428 15.873,5.423 C15.932,5.418 15.975,5.411 15.998,5.401 L15.998,6.211 C15.955,6.231 15.887,6.25 15.797,6.27 C15.705,6.29 15.59,6.3 15.447,6.3 C15.093,6.3 14.814,6.202 14.607,6.006 C14.402,5.81 14.297,5.535 14.297,5.181 L14.297,3.496 L13.644,3.496 L13.644,2.627 L13.828,2.627 C14.019,2.627 14.16,2.572 14.25,2.461 C14.342,2.351 14.387,2.214 14.387,2.053 L14.387,1.545 L15.27,1.545 L15.27,2.625 L15.27,2.625 Z" id="Shape"></path>
                <path d="M16.631,5.259 C16.631,5.097 16.66,4.954 16.717,4.829 C16.772,4.704 16.85,4.595 16.947,4.501 C17.044,4.407 17.16,4.334 17.289,4.28 C17.42,4.226 17.56,4.187 17.713,4.162 L18.604,4.029 C18.708,4.014 18.778,3.984 18.817,3.937 C18.856,3.89 18.879,3.835 18.879,3.771 C18.879,3.643 18.828,3.533 18.728,3.439 C18.627,3.346 18.474,3.299 18.269,3.299 C18.051,3.299 17.885,3.358 17.771,3.476 C17.656,3.594 17.59,3.731 17.578,3.888 L16.709,3.704 C16.723,3.562 16.768,3.419 16.842,3.277 C16.914,3.134 17.016,3.007 17.143,2.894 C17.272,2.781 17.428,2.689 17.614,2.618 C17.802,2.547 18.016,2.511 18.262,2.511 C18.547,2.511 18.789,2.549 18.991,2.625 C19.194,2.701 19.356,2.802 19.481,2.927 C19.606,3.052 19.696,3.198 19.752,3.365 C19.808,3.532 19.836,3.706 19.836,3.887 L19.836,5.668 C19.836,5.766 19.842,5.871 19.852,5.981 C19.862,6.091 19.873,6.179 19.881,6.242 L18.98,6.242 C18.97,6.193 18.962,6.125 18.956,6.04 C18.947,5.954 18.943,5.877 18.943,5.808 C18.851,5.95 18.716,6.076 18.544,6.183 C18.37,6.291 18.148,6.345 17.878,6.345 C17.688,6.345 17.516,6.314 17.357,6.253 C17.204,6.191 17.072,6.11 16.964,6.01 C16.857,5.91 16.773,5.794 16.718,5.664 C16.66,5.538 16.631,5.402 16.631,5.259 L16.631,5.259 Z M18.082,5.62 C18.184,5.62 18.283,5.606 18.379,5.579 C18.475,5.552 18.559,5.505 18.633,5.439 C18.707,5.373 18.766,5.287 18.811,5.181 C18.854,5.076 18.877,4.942 18.877,4.78 L18.877,4.618 L18.059,4.743 C17.932,4.763 17.826,4.808 17.739,4.879 C17.653,4.95 17.61,5.057 17.61,5.199 C17.61,5.307 17.649,5.404 17.729,5.49 C17.807,5.577 17.924,5.62 18.082,5.62 L18.082,5.62 Z" id="Shape"></path>
                <polygon id="Shape" points="20.818 6.246 20.818 0.918 21.797 0.918 21.797 6.246"></polygon>
                <path d="M1.383,12.312 L1.383,14.277 L0.367,14.277 L0.367,9.059 L2.317,9.059 C2.572,9.059 2.805,9.099 3.016,9.18 C3.227,9.261 3.409,9.374 3.561,9.519 C3.713,9.664 3.829,9.834 3.911,10.035 C3.991,10.232 4.032,10.45 4.032,10.685 C4.032,10.919 3.991,11.138 3.911,11.339 C3.829,11.54 3.714,11.712 3.561,11.855 C3.409,11.998 3.227,12.109 3.016,12.189 C2.805,12.271 2.572,12.312 2.317,12.312 L1.383,12.312 L1.383,12.312 Z M2.193,11.436 C2.448,11.436 2.648,11.37 2.793,11.235 C2.938,11.1 3.01,10.92 3.01,10.694 C3.01,10.459 2.938,10.274 2.793,10.141 C2.648,10.008 2.448,9.942 2.193,9.942 L1.39,9.942 L1.39,11.436 L2.193,11.436 L2.193,11.436 Z" id="Shape"></path>
                <path d="M6.977,14.275 C6.967,14.236 6.959,14.179 6.956,14.107 C6.95,14.033 6.948,13.96 6.948,13.885 C6.85,14.058 6.706,14.181 6.518,14.256 C6.328,14.332 6.139,14.37 5.947,14.37 C5.726,14.37 5.531,14.332 5.361,14.256 C5.192,14.181 5.049,14.078 4.931,13.95 C4.813,13.823 4.724,13.672 4.661,13.498 C4.6,13.324 4.569,13.14 4.569,12.942 L4.569,10.653 L5.548,10.653 L5.548,12.743 C5.548,12.949 5.601,13.123 5.706,13.263 C5.811,13.404 5.979,13.474 6.211,13.474 C6.432,13.474 6.601,13.408 6.718,13.275 C6.837,13.142 6.896,12.97 6.896,12.759 L6.896,10.655 L7.875,10.655 L7.875,13.621 C7.875,13.764 7.879,13.892 7.887,14.008 C7.893,14.123 7.903,14.213 7.912,14.278 L6.977,14.278 L6.977,14.275 L6.977,14.275 Z" id="Shape"></path>
                <path d="M8.92,14.275 L8.92,8.948 L9.883,8.948 L9.883,11.052 C9.967,10.925 10.104,10.811 10.293,10.71 C10.481,10.609 10.711,10.559 10.981,10.559 C11.246,10.559 11.481,10.608 11.688,10.704 C11.893,10.8 12.069,10.933 12.213,11.1 C12.357,11.267 12.467,11.469 12.541,11.701 C12.613,11.932 12.65,12.182 12.65,12.452 C12.65,12.725 12.609,12.979 12.529,13.214 C12.449,13.449 12.334,13.65 12.183,13.821 C12.032,13.992 11.853,14.127 11.642,14.22 C11.431,14.317 11.199,14.365 10.943,14.365 C10.693,14.365 10.476,14.315 10.293,14.219 C10.107,14.12 9.967,13.993 9.869,13.836 L9.869,14.276 L8.92,14.276 L8.92,14.275 Z M11.672,12.459 C11.672,12.125 11.584,11.871 11.41,11.697 C11.236,11.521 11.023,11.435 10.773,11.435 C10.652,11.435 10.535,11.456 10.422,11.5 C10.314,11.544 10.217,11.608 10.136,11.694 C10.056,11.781 9.99,11.887 9.943,12.014 C9.892,12.141 9.869,12.288 9.869,12.455 C9.869,12.616 9.892,12.762 9.943,12.889 C9.992,13.018 10.056,13.124 10.136,13.213 C10.217,13.301 10.314,13.368 10.422,13.415 C10.533,13.462 10.651,13.484 10.773,13.484 C11.023,13.484 11.236,13.396 11.41,13.218 C11.584,13.044 11.672,12.792 11.672,12.459 L11.672,12.459 Z" id="Shape"></path>
                <polygon id="Shape" points="13.424 14.275 13.424 8.948 14.403 8.948 14.403 14.275"></polygon>
                <path d="M15.328,9.471 C15.328,9.299 15.389,9.155 15.506,9.036 C15.623,8.919 15.766,8.86 15.932,8.86 C16.104,8.86 16.248,8.919 16.364,9.036 C16.479,9.154 16.537,9.299 16.537,9.471 C16.537,9.632 16.479,9.773 16.364,9.89 C16.25,10.007 16.104,10.068 15.932,10.068 C15.766,10.068 15.623,10.007 15.506,9.89 C15.389,9.771 15.328,9.632 15.328,9.471 L15.328,9.471 Z M15.447,14.275 L15.447,10.655 L16.426,10.655 L16.426,14.275 L15.447,14.275 L15.447,14.275 Z" id="Shape"></path>
                <path d="M19.098,11.45 C18.969,11.45 18.85,11.472 18.742,11.515 C18.631,11.56 18.535,11.624 18.451,11.71 C18.367,11.796 18.301,11.901 18.252,12.029 C18.203,12.157 18.181,12.3 18.181,12.464 C18.181,12.628 18.203,12.771 18.252,12.9 C18.301,13.027 18.369,13.134 18.455,13.222 C18.541,13.312 18.64,13.377 18.75,13.421 C18.858,13.465 18.979,13.487 19.104,13.487 C19.227,13.487 19.336,13.467 19.432,13.43 C19.528,13.393 19.61,13.346 19.678,13.286 C19.746,13.226 19.803,13.161 19.844,13.088 C19.885,13.014 19.916,12.943 19.936,12.874 L20.797,13.161 C20.758,13.312 20.693,13.462 20.602,13.605 C20.512,13.751 20.395,13.879 20.252,13.996 C20.109,14.113 19.943,14.205 19.752,14.275 C19.561,14.347 19.344,14.381 19.104,14.381 C18.84,14.381 18.59,14.333 18.358,14.237 C18.125,14.141 17.922,14.008 17.752,13.836 C17.58,13.665 17.444,13.462 17.349,13.23 C17.248,12.998 17.201,12.741 17.201,12.46 C17.201,12.181 17.25,11.923 17.346,11.689 C17.442,11.454 17.575,11.251 17.742,11.082 C17.912,10.913 18.111,10.78 18.34,10.686 C18.567,10.589 18.815,10.541 19.078,10.541 C19.324,10.541 19.543,10.577 19.736,10.646 C19.931,10.718 20.099,10.81 20.242,10.922 C20.383,11.035 20.498,11.165 20.588,11.312 C20.676,11.459 20.74,11.609 20.779,11.761 L19.9,12.059 C19.857,11.908 19.771,11.768 19.646,11.639 C19.521,11.511 19.338,11.45 19.098,11.45 L19.098,11.45 Z" id="Shape"></path>
                <path d="M4.268,21.305 L4.203,20.708 C4.143,20.796 4.067,20.883 3.974,20.969 C3.88,21.055 3.769,21.131 3.638,21.198 C3.509,21.263 3.363,21.316 3.2,21.355 C3.038,21.394 2.859,21.415 2.663,21.415 C2.309,21.415 1.975,21.353 1.663,21.227 C1.349,21.102 1.072,20.922 0.835,20.69 C0.597,20.458 0.407,20.172 0.268,19.836 C0.128,19.499 0.058,19.12 0.058,18.698 C0.058,18.275 0.13,17.896 0.275,17.56 C0.421,17.224 0.617,16.939 0.865,16.704 C1.113,16.469 1.396,16.288 1.719,16.163 C2.04,16.038 2.377,15.975 2.731,15.975 C3.075,15.975 3.379,16.02 3.647,16.112 C3.915,16.203 4.147,16.325 4.342,16.475 C4.539,16.627 4.7,16.799 4.828,16.992 C4.955,17.182 5.051,17.38 5.115,17.581 L4.143,17.927 C4.109,17.81 4.056,17.693 3.985,17.573 C3.914,17.456 3.82,17.348 3.705,17.253 C3.59,17.158 3.451,17.079 3.29,17.019 C3.128,16.957 2.941,16.926 2.73,16.926 C2.534,16.926 2.337,16.96 2.141,17.029 C1.945,17.099 1.769,17.206 1.615,17.349 C1.461,17.495 1.334,17.678 1.236,17.902 C1.138,18.126 1.09,18.392 1.09,18.701 C1.09,18.996 1.135,19.255 1.226,19.476 C1.317,19.701 1.437,19.886 1.586,20.037 C1.736,20.185 1.91,20.3 2.108,20.376 C2.306,20.452 2.517,20.488 2.738,20.488 C2.978,20.488 3.183,20.454 3.355,20.383 C3.527,20.313 3.668,20.225 3.779,20.122 C3.889,20.018 3.972,19.908 4.029,19.791 C4.086,19.673 4.121,19.566 4.136,19.475 L2.488,19.475 L2.488,18.591 L5.092,18.591 L5.092,21.307 L4.268,21.307 L4.268,21.305 L4.268,21.305 Z" id="Shape"></path>
                <path d="M8.396,21.305 C8.386,21.266 8.377,21.208 8.375,21.135 C8.369,21.061 8.367,20.989 8.367,20.914 C8.269,21.086 8.125,21.209 7.937,21.285 C7.748,21.361 7.558,21.398 7.367,21.398 C7.146,21.398 6.951,21.361 6.781,21.285 C6.611,21.209 6.468,21.107 6.351,20.978 C6.233,20.851 6.144,20.701 6.081,20.527 C6.02,20.353 5.989,20.168 5.989,19.97 L5.989,17.681 L6.968,17.681 L6.968,19.771 C6.968,19.978 7.021,20.152 7.126,20.292 C7.231,20.432 7.399,20.502 7.63,20.502 C7.852,20.502 8.022,20.436 8.139,20.303 C8.257,20.17 8.317,19.999 8.317,19.788 L8.317,17.684 L9.296,17.684 L9.296,20.649 C9.296,20.793 9.3,20.92 9.306,21.037 C9.314,21.151 9.325,21.242 9.333,21.306 L8.396,21.306 L8.396,21.305 L8.396,21.305 Z" id="Shape"></path>
                <path d="M10.119,20.316 C10.119,20.155 10.146,20.01 10.203,19.885 C10.26,19.76 10.336,19.652 10.435,19.558 C10.533,19.465 10.646,19.392 10.777,19.337 C10.908,19.283 11.048,19.243 11.201,19.219 L12.092,19.087 C12.194,19.072 12.266,19.041 12.305,18.994 C12.344,18.948 12.364,18.891 12.364,18.829 C12.364,18.701 12.313,18.591 12.215,18.498 C12.112,18.404 11.961,18.358 11.754,18.358 C11.539,18.358 11.373,18.417 11.258,18.534 C11.144,18.651 11.078,18.79 11.064,18.946 L10.195,18.762 C10.211,18.618 10.256,18.477 10.328,18.334 C10.402,18.191 10.502,18.064 10.631,17.951 C10.758,17.839 10.914,17.746 11.102,17.675 C11.289,17.606 11.504,17.569 11.748,17.569 C12.033,17.569 12.275,17.608 12.478,17.684 C12.676,17.759 12.84,17.86 12.965,17.985 C13.09,18.11 13.183,18.256 13.237,18.423 C13.293,18.59 13.321,18.766 13.321,18.945 L13.321,20.726 C13.321,20.825 13.326,20.927 13.336,21.038 C13.347,21.148 13.357,21.236 13.364,21.3 L12.468,21.3 C12.458,21.251 12.447,21.184 12.444,21.098 C12.436,21.012 12.432,20.936 12.432,20.867 C12.337,21.01 12.204,21.135 12.032,21.243 C11.856,21.35 11.636,21.405 11.366,21.405 C11.175,21.405 11.001,21.374 10.846,21.311 C10.692,21.25 10.561,21.169 10.45,21.069 C10.343,20.968 10.262,20.854 10.204,20.723 C10.146,20.596 10.119,20.46 10.119,20.316 L10.119,20.316 Z M11.568,20.678 C11.672,20.678 11.771,20.665 11.867,20.639 C11.963,20.612 12.047,20.565 12.121,20.498 C12.193,20.432 12.252,20.346 12.297,20.24 C12.342,20.134 12.363,20.001 12.363,19.839 L12.363,19.677 L11.547,19.803 C11.418,19.824 11.313,19.867 11.227,19.94 C11.141,20.011 11.098,20.118 11.098,20.259 C11.098,20.366 11.137,20.464 11.215,20.55 C11.293,20.636 11.412,20.678 11.568,20.678 L11.568,20.678 Z" id="Shape"></path>
                <path d="M16.514,18.654 C16.416,18.633 16.319,18.625 16.219,18.625 C16.092,18.625 15.973,18.643 15.86,18.677 C15.748,18.711 15.649,18.768 15.565,18.846 C15.481,18.924 15.416,19.03 15.364,19.158 C15.311,19.288 15.287,19.451 15.287,19.646 L15.287,21.302 L14.308,21.302 L14.308,17.681 L15.257,17.681 L15.257,18.218 C15.31,18.101 15.38,18.004 15.466,17.929 C15.552,17.853 15.644,17.794 15.739,17.755 C15.835,17.715 15.93,17.689 16.026,17.674 C16.122,17.659 16.208,17.652 16.286,17.652 C16.325,17.652 16.364,17.654 16.401,17.657 C16.438,17.659 16.475,17.663 16.514,17.668 L16.514,18.654 L16.514,18.654 L16.514,18.654 Z" id="Shape"></path>
                <path d="M20.621,20.648 C20.621,20.771 20.623,20.892 20.629,21.011 C20.633,21.131 20.641,21.23 20.65,21.302 L19.715,21.302 C19.703,21.263 19.694,21.204 19.689,21.125 C19.683,21.047 19.679,20.966 19.679,20.882 C19.595,21.025 19.465,21.146 19.291,21.243 C19.117,21.34 18.906,21.389 18.662,21.389 C18.401,21.389 18.164,21.34 17.946,21.244 C17.731,21.148 17.547,21.015 17.391,20.848 C17.237,20.678 17.115,20.477 17.026,20.244 C16.938,20.012 16.893,19.757 16.893,19.482 C16.893,19.215 16.936,18.968 17.022,18.738 C17.108,18.508 17.227,18.308 17.379,18.138 C17.531,17.968 17.715,17.834 17.928,17.737 C18.141,17.638 18.375,17.591 18.631,17.591 C18.787,17.591 18.924,17.606 19.039,17.635 C19.154,17.664 19.254,17.701 19.336,17.745 C19.42,17.789 19.488,17.837 19.539,17.889 C19.59,17.942 19.629,17.992 19.652,18.039 L19.652,15.973 L20.617,15.973 L20.617,20.647 L20.621,20.647 L20.621,20.648 Z M17.883,19.486 C17.883,19.808 17.969,20.062 18.137,20.244 C18.307,20.426 18.522,20.515 18.783,20.515 C19.033,20.515 19.244,20.424 19.416,20.244 C19.588,20.062 19.674,19.806 19.674,19.478 C19.674,19.154 19.588,18.905 19.416,18.73 C19.244,18.556 19.033,18.469 18.783,18.469 C18.533,18.469 18.319,18.558 18.145,18.734 C17.971,18.912 17.883,19.162 17.883,19.486 L17.883,19.486 Z" id="Shape"></path>
                <path d="M21.562,16.498 C21.562,16.326 21.623,16.182 21.74,16.062 C21.857,15.945 22,15.885 22.166,15.885 C22.338,15.885 22.482,15.945 22.598,16.062 C22.713,16.181 22.77,16.326 22.77,16.498 C22.77,16.66 22.713,16.8 22.598,16.917 C22.483,17.035 22.338,17.094 22.166,17.094 C22,17.094 21.857,17.035 21.74,16.917 C21.623,16.8 21.562,16.66 21.562,16.498 L21.562,16.498 Z M21.682,21.305 L21.682,17.684 L22.661,17.684 L22.661,21.305 L21.682,21.305 L21.682,21.305 Z" id="Shape"></path>
                <path d="M23.484,20.316 C23.484,20.155 23.511,20.01 23.568,19.885 C23.625,19.76 23.701,19.652 23.799,19.558 C23.898,19.465 24.011,19.392 24.142,19.337 C24.273,19.283 24.413,19.243 24.566,19.219 L25.457,19.087 C25.559,19.072 25.631,19.041 25.67,18.994 C25.709,18.948 25.729,18.891 25.729,18.829 C25.729,18.701 25.678,18.591 25.58,18.498 C25.477,18.404 25.326,18.358 25.119,18.358 C24.903,18.358 24.737,18.417 24.623,18.534 C24.508,18.651 24.442,18.79 24.428,18.946 L23.56,18.762 C23.576,18.618 23.621,18.477 23.693,18.334 C23.767,18.191 23.867,18.064 23.996,17.951 C24.123,17.839 24.279,17.746 24.467,17.675 C24.653,17.606 24.869,17.569 25.113,17.569 C25.398,17.569 25.64,17.608 25.842,17.684 C26.041,17.759 26.205,17.86 26.33,17.985 C26.455,18.11 26.547,18.256 26.602,18.423 C26.657,18.59 26.686,18.766 26.686,18.945 L26.686,20.726 C26.686,20.825 26.69,20.927 26.701,21.038 C26.711,21.148 26.722,21.236 26.729,21.3 L25.833,21.3 C25.823,21.251 25.812,21.184 25.809,21.098 C25.8,21.012 25.796,20.936 25.796,20.867 C25.702,21.01 25.568,21.135 25.397,21.243 C25.221,21.35 25.001,21.405 24.731,21.405 C24.54,21.405 24.366,21.374 24.21,21.311 C24.057,21.25 23.925,21.169 23.814,21.069 C23.708,20.968 23.626,20.854 23.568,20.723 C23.512,20.596 23.484,20.46 23.484,20.316 L23.484,20.316 Z M24.934,20.678 C25.038,20.678 25.137,20.665 25.233,20.639 C25.33,20.612 25.414,20.565 25.487,20.498 C25.559,20.432 25.619,20.346 25.664,20.24 C25.709,20.134 25.729,20.001 25.729,19.839 L25.729,19.677 L24.914,19.803 C24.785,19.824 24.681,19.867 24.594,19.94 C24.508,20.011 24.465,20.118 24.465,20.259 C24.465,20.366 24.504,20.464 24.582,20.55 C24.66,20.636 24.777,20.678 24.934,20.678 L24.934,20.678 Z" id="Shape"></path>
                <path d="M28.65,21.305 L27.671,21.305 L27.671,17.684 L28.62,17.684 L28.62,18.132 C28.732,17.945 28.887,17.809 29.079,17.721 C29.273,17.631 29.468,17.587 29.665,17.587 C29.891,17.587 30.085,17.625 30.249,17.701 C30.415,17.777 30.55,17.879 30.659,18.007 C30.765,18.134 30.847,18.286 30.896,18.463 C30.947,18.641 30.974,18.826 30.974,19.024 L30.974,21.305 L29.995,21.305 L29.995,19.192 C29.995,18.987 29.941,18.815 29.837,18.677 C29.733,18.539 29.563,18.471 29.327,18.471 C29.109,18.471 28.943,18.543 28.825,18.688 C28.708,18.834 28.648,19.01 28.648,19.221 L28.648,21.305 L28.65,21.305 L28.65,21.305 Z" id="Shape"></path>
            </g>
        </g>
    </g>
</svg>