<?xml version="1.0" encoding="utf-8"?>
<!-- Generator: Adobe Illustrator 16.0.4, SVG Export Plug-In . SVG Version: 6.00 Build 0)  -->
<!DOCTYPE svg PUBLIC "-//W3C//DTD SVG 1.1//EN" "http://www.w3.org/Graphics/SVG/1.1/DTD/svg11.dtd">
<svg version="1.1" id="Ebene_1" xmlns="http://www.w3.org/2000/svg" xmlns:xlink="http://www.w3.org/1999/xlink" x="0px" y="0px"
	 width="46.664px" height="27.093px" viewBox="7.311 16.184 46.664 27.093" enable-background="new 7.311 16.184 46.664 27.093"
	 xml:space="preserve">
<g>
	<path fill="#FFFFFF" d="M18.479,18.456c0.089-0.219,0.176-0.439,0.258-0.647c-0.205,0.142-0.398,0.299-0.614,0.419
		c-0.229,0.128-0.483,0.081-0.741,0.021c0.017,0.277,0.105,0.485,0.396,0.592c-0.218,0.179-0.41,0.349-0.614,0.501
		c-0.642,0.478-0.974,0.12-1.121-0.413c-0.008-0.027-0.013-0.056-0.017-0.083c-0.025-0.164-0.051-0.327-0.07-0.459
		c-0.297,0.296-0.582,0.617-0.904,0.892c-0.31,0.264-0.51,0.223-0.694-0.14c-0.189-0.374-0.327-0.772-0.486-1.161
		c-0.019-0.044-0.024-0.092-0.03-0.118c0.246-0.1,0.473-0.191,0.7-0.282c-0.626-0.267-0.731-0.834-0.907-1.394
		c-0.182,0.556-0.278,1.13-0.91,1.394c0.232,0.093,0.463,0.186,0.709,0.283c-0.034,0.107-0.062,0.229-0.111,0.342
		c-0.153,0.348-0.297,0.701-0.479,1.033c-0.135,0.244-0.295,0.264-0.53,0.112c-0.134-0.085-0.262-0.185-0.372-0.299
		c-0.216-0.223-0.418-0.46-0.633-0.699c-0.013,0.115-0.01,0.227-0.039,0.327c-0.07,0.226-0.13,0.46-0.244,0.665
		c-0.119,0.22-0.354,0.277-0.578,0.188c-0.375-0.147-0.654-0.422-0.943-0.698c0.271-0.111,0.396-0.319,0.356-0.576
		c-0.587,0.098-0.595,0.095-1.341-0.484c0.027,0.075,0.045,0.127,0.064,0.177c0.437,1.086,0.872,2.173,1.305,3.26h7.487
		C17.742,20.292,18.11,19.374,18.479,18.456z"/>
</g>
<g>
	<path fill="#FFFFFF" d="M17.936,35.148c0,0,0.006,0.039,0.021,0.105c0.058,0.281,0.254,1.043,0.7,1.311
		c0.352,0.222,0.66,0.859-0.154,1.455c0,0-3.219,3.416-8.531,4.276l-2.116-1.938c0,0,2.226,0.132,3.989-0.729
		C13.608,38.77,16.752,37.525,17.936,35.148z"/>
	<path fill="#FFFFFF" d="M7.311,39.898h2.188c0,0,0-1.352,1.188-1.176l0.438,0.58l1.938-0.904c0,0-1.25-0.625-2.125-0.312
		l-0.75,0.188C10.186,38.273,8.561,37.023,7.311,39.898z"/>
	<path fill="#FFFFFF" d="M18.061,41.962c0,0-0.062,0.856-1.188,0.335c-0.625-0.521,0.25-1.96,0.594-1.96
		c0.344,0,1.281-0.938,2.156,0s-0.646,1.125-0.604,1.188c0.042,0.062,0.104,1.812-1.271,1.75c-1.375-0.062-4.062-1.676-4.062-1.676
		l1.812-0.888c0,0,0.955,0.333,0.972,0.47c0.017,0.135-0.238,1.058,0.188,1.244c0.426,0.188,1.311,0.561,1.842-0.129
		S17.895,41.703,18.061,41.962z"/>
</g>
<path fill="#FFFFFF" d="M7.651,22.012V32.29c0,1.354,1.068,2.453,2.407,2.519l-0.003,0.014c0,0,0.045-0.002,0.111-0.002
	c0.006,0,0.01,0.002,0.016,0.002c0.006,0,0.011-0.002,0.017-0.002c0.658,0,3.404,0.113,3.404,1.926c0-1.814,2.749-1.926,3.405-1.926
	c0.006,0,0.012,0.002,0.018,0.002c0.004,0,0.01-0.002,0.014-0.002c0.066,0,0.111,0.002,0.111,0.002l-0.003-0.014
	c1.34-0.064,2.407-1.162,2.407-2.519V22.012H7.651z M10.396,25.412v-2.774h2.774v2.774H10.396z M15.944,33.732H13.17V30.96h2.773
	L15.944,33.732L15.944,33.732z M18.811,30.96h-2.773v-2.774h-2.773v-2.774h2.773v2.774h2.773V30.96z M18.811,25.384h-2.773V22.61
	h2.773V25.384z"/>
<g>
	<path fill="#FFFFFF" d="M23.368,27.246v-5.218h1.869c0.373,0,0.716,0.059,1.03,0.176c0.314,0.118,0.586,0.289,0.813,0.512
		c0.227,0.223,0.407,0.497,0.537,0.821c0.13,0.324,0.195,0.691,0.195,1.104s-0.065,0.78-0.195,1.104
		c-0.13,0.324-0.311,0.596-0.541,0.817s-0.503,0.39-0.817,0.508c-0.313,0.118-0.656,0.177-1.029,0.177L23.368,27.246L23.368,27.246z
		 M25.193,26.304c0.211,0,0.412-0.033,0.604-0.1c0.191-0.066,0.357-0.168,0.5-0.305c0.143-0.137,0.256-0.311,0.339-0.519
		s0.125-0.455,0.125-0.74c0-0.284-0.042-0.531-0.125-0.739s-0.194-0.382-0.335-0.519c-0.14-0.137-0.305-0.24-0.496-0.309
		c-0.191-0.069-0.393-0.104-0.604-0.104h-0.817v3.334H25.193z"/>
	<path fill="#FFFFFF" d="M28.504,22.44c0-0.172,0.06-0.316,0.177-0.435c0.117-0.118,0.26-0.176,0.427-0.176
		c0.172,0,0.315,0.059,0.431,0.176c0.115,0.118,0.172,0.263,0.172,0.435c0,0.162-0.057,0.302-0.172,0.419
		c-0.116,0.118-0.259,0.177-0.431,0.177c-0.167,0-0.31-0.059-0.427-0.177C28.564,22.741,28.504,22.602,28.504,22.44z M28.623,27.246
		v-3.621h0.979v3.621H28.623z"/>
	<path fill="#FFFFFF" d="M31.271,27.209c0.035,0.201,0.125,0.365,0.272,0.493c0.146,0.128,0.338,0.191,0.574,0.191
		c0.309,0,0.545-0.08,0.713-0.239c0.166-0.16,0.25-0.416,0.25-0.77V26.62c-0.074,0.118-0.192,0.225-0.36,0.32
		c-0.166,0.096-0.384,0.144-0.646,0.144c-0.24,0-0.463-0.044-0.67-0.132c-0.205-0.088-0.385-0.211-0.533-0.368
		c-0.15-0.157-0.268-0.342-0.354-0.555c-0.086-0.214-0.129-0.448-0.129-0.703c0-0.24,0.041-0.467,0.125-0.681
		c0.084-0.214,0.198-0.401,0.346-0.563s0.324-0.29,0.529-0.383c0.207-0.093,0.436-0.14,0.686-0.14c0.289,0,0.518,0.051,0.684,0.154
		c0.168,0.103,0.283,0.216,0.346,0.339v-0.427h0.943v3.231c0,0.25-0.037,0.489-0.107,0.718c-0.069,0.228-0.184,0.429-0.334,0.604
		c-0.151,0.174-0.35,0.314-0.59,0.419s-0.529,0.158-0.869,0.158c-0.25,0-0.477-0.036-0.68-0.107s-0.381-0.167-0.533-0.287
		c-0.151-0.12-0.274-0.26-0.369-0.419c-0.091-0.159-0.149-0.325-0.175-0.497L31.271,27.209z M32.242,26.245
		c0.252,0,0.455-0.083,0.615-0.25s0.24-0.39,0.24-0.67c0-0.28-0.084-0.501-0.252-0.666c-0.166-0.164-0.367-0.247-0.604-0.247
		c-0.121,0-0.236,0.021-0.343,0.062c-0.104,0.042-0.196,0.103-0.274,0.184s-0.142,0.178-0.185,0.291
		c-0.045,0.113-0.065,0.238-0.065,0.375c0,0.285,0.08,0.509,0.242,0.673C31.779,26.163,31.988,26.245,32.242,26.245z"/>
	<path fill="#FFFFFF" d="M34.922,22.44c0-0.172,0.059-0.316,0.176-0.435c0.119-0.118,0.262-0.176,0.428-0.176
		c0.173,0,0.314,0.059,0.431,0.176c0.114,0.118,0.174,0.263,0.174,0.435c0,0.162-0.06,0.302-0.174,0.419
		c-0.115,0.117-0.258,0.177-0.431,0.177c-0.166,0-0.309-0.059-0.428-0.177C34.98,22.742,34.922,22.602,34.922,22.44z M35.039,27.246
		v-3.621h0.979v3.621H35.039z"/>
	<path fill="#FFFFFF" d="M38.27,23.625h0.729v0.869H38.27v1.516c0,0.157,0.035,0.266,0.107,0.328c0.07,0.061,0.178,0.092,0.32,0.092
		c0.059,0,0.117-0.002,0.176-0.007s0.102-0.012,0.125-0.022v0.81c-0.043,0.02-0.111,0.039-0.201,0.059
		c-0.092,0.02-0.207,0.03-0.35,0.03c-0.354,0-0.633-0.098-0.84-0.294c-0.205-0.196-0.31-0.471-0.31-0.825v-1.685h-0.653v-0.869
		h0.184c0.191,0,0.332-0.055,0.422-0.166c0.092-0.11,0.137-0.247,0.137-0.408v-0.508h0.883V23.625z"/>
	<path fill="#FFFFFF" d="M39.631,26.259c0-0.162,0.029-0.305,0.086-0.43c0.055-0.125,0.133-0.234,0.23-0.328
		c0.097-0.094,0.213-0.167,0.342-0.221c0.131-0.054,0.271-0.093,0.424-0.118l0.891-0.133c0.104-0.015,0.174-0.045,0.213-0.092
		s0.062-0.102,0.062-0.166c0-0.128-0.051-0.238-0.151-0.332c-0.101-0.093-0.254-0.14-0.459-0.14c-0.218,0-0.384,0.059-0.498,0.177
		c-0.115,0.118-0.181,0.255-0.193,0.412l-0.869-0.184c0.014-0.142,0.059-0.285,0.133-0.427c0.072-0.143,0.174-0.27,0.301-0.383
		c0.129-0.113,0.285-0.205,0.471-0.276c0.188-0.071,0.402-0.107,0.648-0.107c0.285,0,0.527,0.038,0.729,0.114
		c0.203,0.076,0.365,0.177,0.49,0.302s0.215,0.271,0.271,0.438s0.084,0.341,0.084,0.522v1.781c0,0.098,0.006,0.203,0.016,0.313
		s0.021,0.198,0.029,0.261H41.98c-0.01-0.049-0.018-0.117-0.024-0.202c-0.009-0.086-0.013-0.163-0.013-0.232
		c-0.092,0.142-0.227,0.268-0.399,0.375c-0.174,0.108-0.396,0.162-0.666,0.162c-0.19,0-0.362-0.031-0.521-0.092
		c-0.153-0.062-0.285-0.143-0.393-0.243c-0.107-0.1-0.191-0.216-0.246-0.346C39.66,26.538,39.631,26.402,39.631,26.259z
		 M41.082,26.62c0.102,0,0.201-0.014,0.297-0.041c0.096-0.027,0.18-0.074,0.254-0.14s0.133-0.152,0.178-0.258
		c0.043-0.105,0.066-0.239,0.066-0.401v-0.162l-0.818,0.125c-0.127,0.02-0.233,0.065-0.32,0.136
		c-0.086,0.071-0.129,0.178-0.129,0.32c0,0.108,0.039,0.205,0.119,0.291C40.807,26.577,40.924,26.62,41.082,26.62z"/>
	<path fill="#FFFFFF" d="M43.818,27.246v-5.328h0.979v5.328H43.818z"/>
	<path fill="#FFFFFF" d="M24.383,33.312v1.965h-1.016v-5.218h1.95c0.255,0,0.488,0.04,0.699,0.121
		c0.211,0.081,0.393,0.194,0.545,0.339c0.152,0.145,0.268,0.315,0.35,0.516c0.08,0.197,0.121,0.415,0.121,0.65
		c0,0.234-0.041,0.453-0.121,0.654c-0.082,0.201-0.197,0.373-0.35,0.516c-0.152,0.143-0.334,0.254-0.545,0.334
		c-0.211,0.082-0.444,0.123-0.699,0.123H24.383z M25.193,32.436c0.255,0,0.455-0.066,0.6-0.201s0.217-0.315,0.217-0.541
		c0-0.235-0.072-0.42-0.217-0.553s-0.345-0.199-0.6-0.199H24.39v1.494H25.193z"/>
	<path fill="#FFFFFF" d="M29.977,35.275c-0.01-0.039-0.018-0.096-0.021-0.168c-0.006-0.074-0.008-0.147-0.008-0.222
		c-0.098,0.173-0.242,0.296-0.43,0.371c-0.19,0.076-0.379,0.114-0.571,0.114c-0.221,0-0.416-0.038-0.586-0.114
		c-0.169-0.075-0.312-0.178-0.43-0.306c-0.118-0.127-0.207-0.278-0.27-0.452c-0.061-0.174-0.092-0.358-0.092-0.556v-2.289h0.979
		v2.09c0,0.206,0.053,0.38,0.158,0.52c0.105,0.141,0.273,0.211,0.505,0.211c0.221,0,0.39-0.066,0.507-0.199
		c0.119-0.133,0.178-0.305,0.178-0.516v-2.104h0.979v2.966c0,0.143,0.004,0.271,0.012,0.387c0.006,0.115,0.016,0.205,0.025,0.27
		h-0.935V35.275z"/>
	<path fill="#FFFFFF" d="M31.92,35.275v-5.327h0.963v2.104c0.084-0.127,0.221-0.241,0.41-0.342c0.188-0.101,0.418-0.151,0.688-0.151
		c0.265,0,0.5,0.049,0.707,0.145c0.205,0.096,0.381,0.229,0.525,0.396s0.254,0.369,0.328,0.601c0.072,0.231,0.109,0.481,0.109,0.751
		c0,0.273-0.041,0.527-0.121,0.762s-0.195,0.436-0.346,0.607c-0.151,0.171-0.33,0.306-0.541,0.399
		c-0.211,0.097-0.443,0.145-0.699,0.145c-0.25,0-0.467-0.05-0.65-0.146c-0.186-0.099-0.326-0.226-0.424-0.383v0.44H31.92z
		 M34.672,33.459c0-0.334-0.088-0.588-0.262-0.762c-0.174-0.176-0.387-0.262-0.637-0.262c-0.121,0-0.238,0.021-0.351,0.065
		c-0.108,0.044-0.205,0.108-0.286,0.194c-0.08,0.087-0.146,0.193-0.193,0.32c-0.051,0.127-0.074,0.274-0.074,0.441
		c0,0.161,0.023,0.307,0.074,0.434c0.049,0.129,0.113,0.235,0.193,0.324c0.081,0.088,0.178,0.155,0.286,0.202
		c0.111,0.047,0.229,0.069,0.351,0.069c0.25,0,0.463-0.088,0.637-0.266C34.584,34.044,34.672,33.792,34.672,33.459z"/>
	<path fill="#FFFFFF" d="M36.424,35.275v-5.327h0.979v5.327H36.424z"/>
	<path fill="#FFFFFF" d="M38.328,30.471c0-0.172,0.061-0.316,0.178-0.435c0.117-0.117,0.26-0.176,0.426-0.176
		c0.172,0,0.316,0.059,0.432,0.176c0.115,0.118,0.173,0.263,0.173,0.435c0,0.161-0.058,0.302-0.173,0.419
		c-0.114,0.117-0.26,0.178-0.432,0.178c-0.166,0-0.309-0.061-0.426-0.178C38.389,30.771,38.328,30.632,38.328,30.471z
		 M38.447,35.275v-3.62h0.979v3.62H38.447z"/>
	<path fill="#FFFFFF" d="M42.098,32.45c-0.129,0-0.248,0.022-0.356,0.065c-0.111,0.045-0.207,0.109-0.291,0.195
		s-0.15,0.191-0.199,0.319s-0.071,0.271-0.071,0.435s0.022,0.307,0.071,0.436c0.049,0.127,0.117,0.234,0.203,0.322
		c0.086,0.09,0.185,0.155,0.295,0.199c0.108,0.044,0.229,0.066,0.354,0.066c0.123,0,0.232-0.02,0.328-0.057s0.178-0.084,0.246-0.144
		s0.125-0.125,0.166-0.198c0.041-0.074,0.072-0.145,0.092-0.214l0.861,0.287c-0.039,0.151-0.104,0.301-0.195,0.444
		c-0.09,0.146-0.207,0.274-0.35,0.391s-0.309,0.209-0.5,0.279c-0.191,0.072-0.408,0.106-0.648,0.106
		c-0.264,0-0.514-0.048-0.746-0.144c-0.233-0.096-0.436-0.229-0.606-0.401c-0.172-0.171-0.308-0.374-0.403-0.606
		c-0.101-0.232-0.148-0.489-0.148-0.77c0-0.279,0.049-0.537,0.145-0.771c0.096-0.235,0.229-0.438,0.396-0.607
		c0.17-0.169,0.369-0.302,0.598-0.396c0.227-0.097,0.475-0.145,0.738-0.145c0.246,0,0.465,0.036,0.658,0.105
		c0.195,0.072,0.363,0.164,0.506,0.276c0.141,0.113,0.256,0.243,0.346,0.39c0.088,0.147,0.152,0.297,0.191,0.449L42.9,33.059
		c-0.043-0.151-0.129-0.291-0.254-0.42C42.521,32.511,42.338,32.45,42.098,32.45z"/>
	<path fill="#FFFFFF" d="M27.268,42.305l-0.065-0.597c-0.06,0.088-0.136,0.175-0.229,0.261c-0.094,0.086-0.205,0.162-0.336,0.229
		c-0.129,0.065-0.275,0.118-0.438,0.157c-0.162,0.039-0.341,0.06-0.537,0.06c-0.354,0-0.688-0.062-1-0.188
		c-0.314-0.125-0.591-0.305-0.828-0.537c-0.238-0.232-0.428-0.518-0.567-0.854c-0.14-0.337-0.21-0.716-0.21-1.138
		c0-0.423,0.072-0.802,0.217-1.138c0.146-0.336,0.342-0.621,0.59-0.856c0.248-0.235,0.531-0.416,0.854-0.541
		c0.321-0.125,0.658-0.188,1.012-0.188c0.344,0,0.648,0.045,0.916,0.137c0.268,0.091,0.5,0.213,0.695,0.363
		c0.197,0.152,0.358,0.324,0.486,0.517c0.127,0.19,0.223,0.388,0.287,0.589l-0.972,0.346c-0.034-0.117-0.087-0.234-0.158-0.354
		c-0.071-0.117-0.165-0.225-0.28-0.32c-0.115-0.095-0.254-0.174-0.415-0.234c-0.162-0.062-0.349-0.093-0.56-0.093
		c-0.196,0-0.393,0.034-0.589,0.103c-0.196,0.07-0.372,0.177-0.526,0.32c-0.154,0.146-0.281,0.329-0.379,0.553
		c-0.098,0.224-0.146,0.49-0.146,0.799c0,0.295,0.045,0.554,0.136,0.775c0.091,0.225,0.211,0.41,0.36,0.561
		c0.15,0.148,0.324,0.263,0.522,0.339c0.198,0.076,0.409,0.112,0.63,0.112c0.24,0,0.445-0.034,0.617-0.105
		c0.172-0.07,0.313-0.158,0.424-0.261c0.11-0.104,0.193-0.214,0.25-0.331c0.057-0.118,0.092-0.225,0.107-0.316h-1.648v-0.884h2.604
		v2.716H27.268L27.268,42.305z"/>
	<path fill="#FFFFFF" d="M31.396,42.305c-0.01-0.039-0.019-0.097-0.021-0.17c-0.006-0.074-0.008-0.146-0.008-0.221
		c-0.098,0.172-0.242,0.295-0.43,0.371c-0.189,0.076-0.379,0.113-0.57,0.113c-0.221,0-0.416-0.037-0.586-0.113
		c-0.17-0.076-0.313-0.178-0.43-0.307c-0.118-0.127-0.207-0.277-0.27-0.451c-0.061-0.174-0.092-0.359-0.092-0.557v-2.289h0.979v2.09
		c0,0.207,0.053,0.381,0.158,0.521s0.273,0.21,0.504,0.21c0.222,0,0.392-0.066,0.509-0.199c0.118-0.133,0.178-0.304,0.178-0.515
		v-2.104h0.979v2.965c0,0.144,0.004,0.271,0.01,0.388c0.008,0.114,0.019,0.205,0.027,0.269H31.396L31.396,42.305z"/>
	<path fill="#FFFFFF" d="M33.119,41.316c0-0.161,0.027-0.306,0.084-0.431s0.133-0.233,0.232-0.327
		c0.098-0.093,0.211-0.166,0.342-0.221c0.131-0.054,0.271-0.094,0.424-0.118l0.891-0.132c0.102-0.015,0.174-0.046,0.213-0.093
		c0.039-0.046,0.059-0.103,0.059-0.165c0-0.128-0.051-0.238-0.149-0.331c-0.103-0.094-0.254-0.14-0.461-0.14
		c-0.215,0-0.381,0.059-0.496,0.176c-0.114,0.117-0.18,0.256-0.194,0.412l-0.869-0.184c0.016-0.144,0.061-0.285,0.133-0.428
		c0.074-0.143,0.174-0.27,0.303-0.383c0.127-0.112,0.283-0.205,0.471-0.276c0.187-0.069,0.402-0.106,0.646-0.106
		c0.285,0,0.527,0.039,0.73,0.115c0.198,0.075,0.362,0.176,0.487,0.301s0.218,0.271,0.272,0.438
		c0.056,0.167,0.084,0.343,0.084,0.522v1.781c0,0.099,0.005,0.201,0.015,0.312c0.011,0.11,0.021,0.198,0.028,0.262h-0.896
		c-0.01-0.049-0.021-0.116-0.024-0.202c-0.008-0.086-0.012-0.162-0.012-0.231c-0.095,0.143-0.228,0.268-0.4,0.376
		c-0.176,0.107-0.396,0.162-0.666,0.162c-0.191,0-0.365-0.031-0.52-0.094c-0.154-0.061-0.285-0.142-0.396-0.242
		c-0.107-0.101-0.188-0.215-0.246-0.346C33.146,41.596,33.119,41.46,33.119,41.316z M34.568,41.678c0.104,0,0.203-0.013,0.299-0.039
		c0.096-0.027,0.18-0.074,0.254-0.141c0.072-0.066,0.131-0.152,0.176-0.258c0.045-0.106,0.066-0.239,0.066-0.401v-0.162
		l-0.816,0.126c-0.129,0.021-0.234,0.064-0.32,0.137c-0.086,0.071-0.129,0.178-0.129,0.319c0,0.107,0.039,0.205,0.117,0.291
		S34.412,41.678,34.568,41.678z"/>
	<path fill="#FFFFFF" d="M39.514,39.654c-0.098-0.021-0.195-0.029-0.295-0.029c-0.127,0-0.246,0.018-0.359,0.052
		c-0.112,0.034-0.211,0.091-0.295,0.169s-0.149,0.184-0.201,0.312c-0.053,0.13-0.077,0.293-0.077,0.488v1.656h-0.979v-3.621h0.949
		v0.537c0.053-0.117,0.123-0.214,0.209-0.289c0.086-0.076,0.178-0.135,0.273-0.174c0.096-0.04,0.191-0.066,0.287-0.081
		s0.182-0.022,0.26-0.022c0.039,0,0.078,0.002,0.115,0.005c0.037,0.002,0.074,0.006,0.113,0.011V39.654L39.514,39.654z"/>
	<path fill="#FFFFFF" d="M43.621,41.648c0,0.123,0.002,0.244,0.008,0.363c0.004,0.12,0.012,0.219,0.021,0.291h-0.935
		c-0.012-0.039-0.021-0.098-0.026-0.177c-0.006-0.078-0.01-0.159-0.01-0.243c-0.084,0.143-0.214,0.264-0.388,0.361
		s-0.385,0.146-0.629,0.146c-0.261,0-0.498-0.049-0.716-0.145c-0.215-0.096-0.399-0.229-0.555-0.396
		c-0.154-0.17-0.276-0.371-0.365-0.604c-0.088-0.232-0.133-0.487-0.133-0.762c0-0.267,0.043-0.514,0.129-0.744s0.205-0.43,0.357-0.6
		s0.336-0.304,0.549-0.401c0.213-0.099,0.447-0.146,0.703-0.146c0.156,0,0.293,0.015,0.408,0.044s0.215,0.066,0.297,0.11
		c0.084,0.044,0.152,0.092,0.203,0.144c0.051,0.053,0.09,0.103,0.113,0.15v-2.066h0.965v4.674H43.621z M40.883,40.486
		c0,0.322,0.086,0.576,0.254,0.758c0.17,0.182,0.385,0.271,0.646,0.271c0.25,0,0.461-0.091,0.633-0.271
		c0.172-0.182,0.258-0.438,0.258-0.766c0-0.324-0.086-0.573-0.258-0.748c-0.172-0.174-0.383-0.261-0.633-0.261
		s-0.464,0.089-0.638,0.265C40.971,39.912,40.883,40.162,40.883,40.486z"/>
	<path fill="#FFFFFF" d="M44.562,37.498c0-0.172,0.061-0.316,0.178-0.436c0.117-0.117,0.26-0.177,0.426-0.177
		c0.172,0,0.316,0.06,0.432,0.177c0.115,0.119,0.172,0.264,0.172,0.436c0,0.162-0.057,0.302-0.172,0.419
		c-0.115,0.118-0.26,0.177-0.432,0.177c-0.166,0-0.309-0.059-0.426-0.177C44.623,37.8,44.562,37.66,44.562,37.498z M44.682,42.305
		v-3.621h0.979v3.621H44.682z"/>
	<path fill="#FFFFFF" d="M46.484,41.316c0-0.161,0.027-0.306,0.084-0.431s0.133-0.233,0.231-0.327
		c0.099-0.093,0.212-0.166,0.343-0.221c0.131-0.054,0.271-0.094,0.424-0.118l0.891-0.132c0.102-0.015,0.174-0.046,0.213-0.093
		c0.039-0.046,0.059-0.103,0.059-0.165c0-0.128-0.051-0.238-0.149-0.331c-0.103-0.094-0.254-0.14-0.461-0.14
		c-0.216,0-0.382,0.059-0.496,0.176c-0.115,0.117-0.181,0.256-0.195,0.412l-0.868-0.184c0.016-0.144,0.061-0.285,0.133-0.428
		c0.074-0.143,0.174-0.27,0.303-0.383c0.127-0.112,0.283-0.205,0.471-0.276c0.186-0.069,0.402-0.106,0.646-0.106
		c0.285,0,0.527,0.039,0.729,0.115c0.199,0.075,0.363,0.176,0.488,0.301s0.217,0.271,0.272,0.438s0.084,0.343,0.084,0.522v1.781
		c0,0.099,0.004,0.201,0.015,0.312c0.01,0.11,0.021,0.198,0.028,0.262h-0.896c-0.01-0.049-0.021-0.116-0.024-0.202
		c-0.009-0.086-0.013-0.162-0.013-0.231c-0.094,0.143-0.228,0.268-0.399,0.376c-0.176,0.107-0.396,0.162-0.666,0.162
		c-0.191,0-0.365-0.031-0.521-0.094c-0.153-0.061-0.285-0.142-0.396-0.242c-0.106-0.101-0.188-0.215-0.246-0.346
		C46.512,41.596,46.484,41.46,46.484,41.316z M47.934,41.678c0.104,0,0.203-0.013,0.299-0.039c0.097-0.027,0.181-0.074,0.254-0.141
		c0.072-0.066,0.132-0.152,0.177-0.258c0.045-0.106,0.065-0.239,0.065-0.401v-0.162l-0.815,0.126
		c-0.129,0.021-0.233,0.064-0.32,0.137c-0.086,0.071-0.129,0.178-0.129,0.319c0,0.107,0.039,0.205,0.117,0.291
		S47.777,41.678,47.934,41.678z"/>
	<path fill="#FFFFFF" d="M51.65,42.305h-0.979v-3.621h0.949v0.448c0.112-0.187,0.267-0.323,0.459-0.411
		c0.194-0.09,0.389-0.134,0.586-0.134c0.226,0,0.42,0.038,0.584,0.114c0.166,0.076,0.301,0.178,0.41,0.306
		c0.106,0.127,0.188,0.279,0.237,0.456c0.051,0.178,0.078,0.363,0.078,0.561v2.281h-0.979v-2.113c0-0.205-0.054-0.377-0.158-0.515
		s-0.274-0.206-0.51-0.206c-0.218,0-0.384,0.072-0.502,0.217c-0.117,0.146-0.177,0.322-0.177,0.533v2.084H51.65z"/>
</g>
</svg>
