<?xml version="1.0" encoding="utf-8"?>
<!-- Generator: Adobe Illustrator 16.0.4, SVG Export Plug-In . SVG Version: 6.00 Build 0)  -->
<!DOCTYPE svg PUBLIC "-//W3C//DTD SVG 1.1//EN" "http://www.w3.org/Graphics/SVG/1.1/DTD/svg11.dtd">
<svg version="1.1" id="Ebene_1" xmlns="http://www.w3.org/2000/svg" xmlns:xlink="http://www.w3.org/1999/xlink" x="0px" y="0px"
	 width="61.468px" height="32.6px" viewBox="0 0 61.468 32.6" enable-background="new 0 0 61.468 32.6" xml:space="preserve">
<g enable-background="new    ">
	<path fill="#222222" d="M0,28.163v-4.109h1.472c0.293,0,0.564,0.047,0.812,0.14c0.247,0.092,0.46,0.228,0.64,0.403
		c0.18,0.174,0.32,0.391,0.423,0.646c0.103,0.253,0.154,0.543,0.154,0.869c0,0.324-0.051,0.614-0.154,0.867
		c-0.103,0.255-0.244,0.473-0.425,0.645c-0.182,0.174-0.396,0.307-0.644,0.399c-0.248,0.094-0.518,0.141-0.812,0.141L0,28.163
		L0,28.163z M1.438,27.421c0.166,0,0.324-0.026,0.476-0.078c0.15-0.052,0.282-0.133,0.394-0.241
		c0.112-0.106,0.201-0.243,0.267-0.407c0.065-0.164,0.099-0.357,0.099-0.582c0-0.227-0.033-0.42-0.099-0.585
		c-0.066-0.161-0.154-0.3-0.264-0.406c-0.11-0.108-0.241-0.189-0.391-0.243c-0.15-0.055-0.309-0.081-0.476-0.081H0.8v2.625
		L1.438,27.421L1.438,27.421z"/>
	<path fill="#222222" d="M4.045,24.378c0-0.135,0.047-0.248,0.14-0.342c0.093-0.094,0.204-0.141,0.336-0.141
		c0.135,0,0.248,0.047,0.339,0.141c0.091,0.094,0.136,0.207,0.136,0.342c0,0.128-0.045,0.238-0.136,0.332
		c-0.091,0.091-0.204,0.137-0.339,0.137c-0.132,0-0.243-0.046-0.336-0.137C4.092,24.616,4.045,24.506,4.045,24.378z M4.138,28.163
		v-2.853h0.771v2.853H4.138z"/>
	<path fill="#222222" d="M6.224,28.134c0.027,0.157,0.099,0.287,0.214,0.388c0.116,0.102,0.267,0.15,0.452,0.15
		c0.244,0,0.431-0.062,0.562-0.188c0.131-0.126,0.197-0.328,0.197-0.606V27.67c-0.059,0.093-0.153,0.177-0.285,0.253
		c-0.132,0.076-0.301,0.112-0.51,0.112c-0.189,0-0.365-0.034-0.527-0.105c-0.162-0.068-0.302-0.164-0.42-0.29
		c-0.118-0.122-0.211-0.268-0.278-0.437c-0.067-0.167-0.101-0.353-0.101-0.554c0-0.188,0.032-0.368,0.098-0.535
		c0.065-0.17,0.157-0.316,0.272-0.444c0.115-0.128,0.255-0.229,0.417-0.3c0.162-0.073,0.342-0.11,0.539-0.11
		c0.228,0,0.407,0.039,0.539,0.12s0.223,0.172,0.273,0.268v-0.336h0.742v2.545c0,0.196-0.028,0.387-0.084,0.564
		c-0.056,0.18-0.144,0.337-0.264,0.475c-0.12,0.139-0.274,0.248-0.463,0.331c-0.19,0.081-0.418,0.123-0.684,0.123
		c-0.197,0-0.376-0.026-0.536-0.084c-0.161-0.056-0.3-0.13-0.42-0.226c-0.12-0.095-0.216-0.204-0.29-0.329
		c-0.073-0.125-0.12-0.258-0.139-0.394L6.224,28.134z M6.989,27.375c0.197,0,0.358-0.066,0.484-0.197
		c0.125-0.132,0.188-0.307,0.188-0.527c0-0.222-0.066-0.396-0.197-0.525c-0.131-0.127-0.29-0.193-0.476-0.193
		c-0.096,0-0.187,0.018-0.27,0.049c-0.083,0.034-0.155,0.084-0.217,0.146c-0.062,0.063-0.11,0.143-0.145,0.23
		c-0.034,0.088-0.052,0.188-0.052,0.295c0,0.225,0.064,0.4,0.192,0.53C6.624,27.311,6.788,27.375,6.989,27.375z"/>
	<path fill="#222222" d="M9.098,24.378c0-0.135,0.047-0.248,0.14-0.342c0.093-0.094,0.205-0.141,0.336-0.141
		c0.135,0,0.248,0.047,0.339,0.141c0.091,0.094,0.136,0.207,0.136,0.342c0,0.128-0.045,0.238-0.136,0.332
		c-0.091,0.091-0.204,0.137-0.339,0.137c-0.131,0-0.243-0.046-0.336-0.137C9.145,24.616,9.098,24.506,9.098,24.378z M9.191,28.163
		v-2.853h0.771v2.853H9.191z"/>
	<path fill="#222222" d="M11.735,25.312h0.573v0.684h-0.573v1.193c0,0.125,0.027,0.211,0.084,0.259
		c0.056,0.049,0.139,0.072,0.252,0.072c0.046,0,0.093-0.002,0.139-0.005c0.046-0.005,0.079-0.01,0.098-0.02v0.639
		c-0.035,0.015-0.087,0.032-0.16,0.047c-0.071,0.015-0.163,0.021-0.275,0.021c-0.278,0-0.498-0.076-0.661-0.23
		c-0.162-0.155-0.243-0.371-0.243-0.647v-1.329h-0.516v-0.684h0.145c0.15,0,0.262-0.044,0.333-0.13
		c0.071-0.087,0.107-0.194,0.107-0.322V24.46h0.696L11.735,25.312L11.735,25.312z"/>
	<path fill="#222222" d="M12.808,27.387c0-0.128,0.022-0.24,0.066-0.339c0.045-0.101,0.106-0.184,0.183-0.258
		c0.077-0.073,0.167-0.133,0.27-0.175c0.102-0.041,0.213-0.073,0.333-0.094l0.701-0.104c0.081-0.012,0.137-0.036,0.168-0.073
		c0.031-0.037,0.046-0.079,0.046-0.131c0-0.102-0.039-0.188-0.119-0.26c-0.079-0.074-0.2-0.11-0.362-0.11
		c-0.17,0-0.3,0.046-0.391,0.14c-0.091,0.092-0.142,0.199-0.153,0.324l-0.684-0.145c0.012-0.113,0.046-0.225,0.104-0.337
		c0.058-0.113,0.137-0.215,0.237-0.303c0.101-0.089,0.224-0.159,0.371-0.217c0.146-0.057,0.317-0.083,0.51-0.083
		c0.224,0,0.416,0.029,0.574,0.088c0.158,0.062,0.287,0.142,0.385,0.238c0.099,0.099,0.17,0.214,0.214,0.344
		c0.045,0.133,0.067,0.271,0.067,0.413v1.402c0,0.076,0.004,0.16,0.012,0.246c0.007,0.086,0.016,0.153,0.023,0.206h-0.708
		c-0.007-0.039-0.014-0.094-0.02-0.159c-0.006-0.069-0.009-0.128-0.009-0.184c-0.073,0.111-0.179,0.209-0.315,0.296
		c-0.137,0.086-0.311,0.13-0.524,0.13c-0.151,0-0.287-0.024-0.409-0.073c-0.122-0.047-0.225-0.111-0.31-0.192
		c-0.085-0.078-0.15-0.169-0.195-0.27C12.83,27.606,12.808,27.497,12.808,27.387z M13.949,27.67c0.081,0,0.16-0.011,0.234-0.032
		c0.076-0.02,0.142-0.057,0.2-0.11c0.058-0.052,0.104-0.117,0.139-0.201c0.035-0.083,0.052-0.188,0.052-0.316v-0.128l-0.643,0.099
		c-0.101,0.018-0.185,0.053-0.252,0.107c-0.067,0.057-0.101,0.141-0.101,0.253c0,0.084,0.031,0.16,0.093,0.229
		C13.733,27.635,13.826,27.67,13.949,27.67z"/>
	<path fill="#222222" d="M16.104,28.163v-4.195h0.771v4.195H16.104z"/>
	<path fill="#222222" d="M19.986,26.615v1.548h-0.8v-4.109h1.537c0.2,0,0.384,0.032,0.55,0.096c0.166,0.064,0.308,0.152,0.428,0.267
		c0.119,0.115,0.211,0.25,0.275,0.407c0.064,0.154,0.096,0.326,0.096,0.511c0,0.188-0.032,0.358-0.096,0.517
		c-0.064,0.159-0.156,0.295-0.275,0.407c-0.12,0.11-0.263,0.199-0.428,0.263c-0.166,0.064-0.35,0.097-0.55,0.097h-0.737V26.615z
		 M20.624,25.926c0.201,0,0.358-0.055,0.473-0.16c0.115-0.104,0.171-0.248,0.171-0.425c0-0.188-0.057-0.332-0.171-0.435
		c-0.114-0.105-0.271-0.157-0.473-0.157h-0.631v1.177H20.624z"/>
	<path fill="#222222" d="M24.392,28.163c-0.007-0.032-0.014-0.076-0.017-0.136c-0.004-0.057-0.006-0.114-0.006-0.172
		c-0.076,0.136-0.189,0.23-0.339,0.292c-0.148,0.06-0.298,0.089-0.448,0.089c-0.174,0-0.328-0.029-0.46-0.089
		c-0.134-0.062-0.247-0.14-0.339-0.239c-0.093-0.103-0.163-0.22-0.212-0.356c-0.048-0.138-0.072-0.282-0.072-0.438v-1.804h0.771
		v1.646c0,0.162,0.042,0.3,0.124,0.408c0.083,0.109,0.216,0.167,0.398,0.167c0.173,0,0.307-0.056,0.399-0.157
		c0.093-0.105,0.139-0.241,0.139-0.405v-1.658h0.771v2.336c0,0.11,0.002,0.214,0.008,0.306c0.006,0.091,0.012,0.158,0.021,0.211
		L24.392,28.163L24.392,28.163z"/>
	<path fill="#222222" d="M25.922,28.163v-4.195h0.759v1.655c0.066-0.099,0.173-0.188,0.322-0.269c0.149-0.081,0.33-0.12,0.542-0.12
		c0.208,0,0.394,0.039,0.556,0.113c0.162,0.076,0.301,0.179,0.415,0.314c0.113,0.132,0.199,0.289,0.258,0.471
		c0.058,0.183,0.086,0.379,0.086,0.593c0,0.216-0.032,0.415-0.096,0.6c-0.062,0.185-0.153,0.342-0.271,0.477
		c-0.118,0.138-0.26,0.241-0.426,0.317c-0.166,0.075-0.35,0.112-0.55,0.112c-0.198,0-0.369-0.04-0.514-0.115
		c-0.145-0.078-0.255-0.178-0.333-0.303v0.35H25.922z M28.089,26.732c0-0.263-0.068-0.462-0.206-0.6
		c-0.136-0.138-0.303-0.206-0.501-0.206c-0.097,0-0.188,0.017-0.275,0.051c-0.087,0.035-0.162,0.087-0.226,0.155
		c-0.063,0.066-0.115,0.152-0.153,0.251c-0.039,0.101-0.058,0.218-0.058,0.349c0,0.127,0.019,0.24,0.058,0.342
		c0.038,0.101,0.09,0.187,0.153,0.256c0.064,0.067,0.139,0.123,0.226,0.158c0.087,0.037,0.178,0.056,0.275,0.056
		c0.198,0,0.365-0.069,0.501-0.209C28.021,27.196,28.089,26.994,28.089,26.732z"/>
	<path fill="#222222" d="M29.468,28.163v-4.195h0.771v4.195H29.468z"/>
	<path fill="#222222" d="M30.97,24.378c0-0.135,0.044-0.248,0.138-0.342c0.093-0.094,0.204-0.141,0.337-0.141
		c0.135,0,0.248,0.047,0.34,0.141c0.09,0.094,0.135,0.207,0.135,0.342c0,0.128-0.045,0.238-0.135,0.332
		c-0.092,0.091-0.205,0.137-0.34,0.137c-0.133,0-0.244-0.046-0.337-0.137C31.015,24.616,30.97,24.506,30.97,24.378z M31.061,28.163
		v-2.853h0.771v2.853H31.061z"/>
	<path fill="#222222" d="M33.935,25.938c-0.102,0-0.193,0.019-0.28,0.053c-0.088,0.033-0.163,0.086-0.229,0.154
		c-0.065,0.065-0.116,0.149-0.156,0.25c-0.039,0.102-0.059,0.214-0.059,0.342c0,0.129,0.02,0.243,0.059,0.345
		c0.04,0.098,0.091,0.185,0.16,0.253c0.066,0.071,0.145,0.123,0.23,0.157c0.084,0.033,0.182,0.052,0.282,0.052
		c0.097,0,0.183-0.016,0.255-0.042c0.076-0.029,0.141-0.068,0.196-0.113c0.056-0.047,0.096-0.098,0.131-0.157
		c0.031-0.059,0.058-0.111,0.071-0.169l0.678,0.229c-0.029,0.117-0.081,0.234-0.152,0.349c-0.074,0.115-0.164,0.216-0.274,0.308
		c-0.113,0.091-0.245,0.164-0.396,0.222c-0.15,0.056-0.32,0.083-0.509,0.083c-0.209,0-0.405-0.037-0.59-0.113
		s-0.345-0.179-0.479-0.313c-0.135-0.136-0.24-0.294-0.315-0.479c-0.079-0.185-0.118-0.386-0.118-0.605s0.039-0.424,0.113-0.607
		c0.076-0.188,0.182-0.346,0.314-0.479c0.131-0.133,0.289-0.237,0.469-0.312c0.18-0.076,0.373-0.113,0.582-0.113
		c0.193,0,0.365,0.026,0.519,0.083c0.153,0.058,0.285,0.128,0.397,0.217c0.11,0.089,0.201,0.191,0.272,0.308
		c0.067,0.118,0.118,0.236,0.149,0.354l-0.69,0.233c-0.034-0.12-0.101-0.23-0.198-0.331C34.269,25.988,34.125,25.938,33.935,25.938z
		"/>
	<path fill="#222222" d="M40.403,28.163l-0.052-0.47c-0.047,0.068-0.105,0.139-0.18,0.203c-0.073,0.069-0.162,0.128-0.264,0.184
		c-0.103,0.051-0.219,0.093-0.346,0.122c-0.128,0.031-0.27,0.047-0.423,0.047c-0.277,0-0.54-0.049-0.788-0.147
		c-0.249-0.098-0.465-0.24-0.65-0.422c-0.189-0.185-0.338-0.408-0.447-0.674c-0.11-0.265-0.164-0.562-0.164-0.895
		c0-0.334,0.057-0.632,0.168-0.896c0.115-0.266,0.271-0.489,0.466-0.676c0.196-0.186,0.42-0.326,0.673-0.425
		c0.253-0.1,0.52-0.147,0.796-0.147c0.271,0,0.511,0.034,0.722,0.105c0.213,0.07,0.395,0.167,0.549,0.286
		c0.154,0.121,0.281,0.257,0.384,0.405c0.098,0.152,0.174,0.305,0.226,0.465l-0.767,0.272c-0.026-0.094-0.068-0.188-0.125-0.277
		c-0.054-0.094-0.128-0.177-0.22-0.253c-0.09-0.076-0.201-0.138-0.328-0.187c-0.125-0.048-0.272-0.071-0.439-0.071
		c-0.154,0-0.311,0.026-0.465,0.081c-0.152,0.054-0.292,0.137-0.412,0.253c-0.123,0.112-0.222,0.258-0.3,0.435
		c-0.076,0.176-0.115,0.384-0.115,0.629c0,0.23,0.036,0.436,0.106,0.609c0.072,0.177,0.166,0.324,0.283,0.441
		c0.117,0.118,0.256,0.207,0.412,0.266c0.157,0.062,0.322,0.091,0.496,0.091c0.189,0,0.352-0.028,0.486-0.083
		c0.136-0.057,0.246-0.126,0.332-0.207c0.088-0.081,0.152-0.169,0.199-0.26c0.043-0.094,0.07-0.177,0.082-0.251H39v-0.695h2.051
		v2.141H40.403z"/>
	<path fill="#222222" d="M43.653,28.163c-0.008-0.032-0.013-0.076-0.019-0.136c-0.002-0.057-0.004-0.114-0.004-0.172
		c-0.076,0.136-0.189,0.23-0.34,0.292c-0.149,0.06-0.299,0.089-0.449,0.089c-0.174,0-0.326-0.029-0.459-0.089
		c-0.135-0.062-0.248-0.14-0.34-0.239c-0.094-0.103-0.164-0.22-0.213-0.356c-0.047-0.138-0.072-0.282-0.072-0.438v-1.804h0.771
		v1.646c0,0.162,0.042,0.3,0.123,0.408c0.083,0.109,0.217,0.167,0.396,0.167c0.176,0,0.309-0.056,0.4-0.157
		c0.094-0.105,0.139-0.241,0.139-0.405v-1.658h0.771v2.336c0,0.11,0.002,0.214,0.011,0.306c0.004,0.091,0.012,0.158,0.02,0.211
		L43.653,28.163L43.653,28.163z"/>
	<path fill="#222222" d="M45.007,27.387c0-0.128,0.025-0.24,0.068-0.339c0.045-0.101,0.104-0.184,0.184-0.258
		c0.076-0.073,0.166-0.133,0.27-0.175c0.102-0.041,0.215-0.073,0.332-0.094l0.702-0.104c0.081-0.012,0.138-0.036,0.167-0.073
		c0.032-0.037,0.047-0.079,0.047-0.131c0-0.102-0.039-0.188-0.117-0.26c-0.082-0.074-0.201-0.11-0.363-0.11
		c-0.17,0-0.301,0.046-0.392,0.14c-0.091,0.092-0.143,0.199-0.153,0.324l-0.685-0.145c0.013-0.113,0.047-0.225,0.106-0.337
		c0.056-0.113,0.135-0.215,0.234-0.303c0.102-0.089,0.225-0.159,0.371-0.217c0.146-0.057,0.316-0.083,0.512-0.083
		c0.224,0,0.414,0.029,0.571,0.088c0.16,0.062,0.287,0.142,0.386,0.238c0.1,0.099,0.172,0.214,0.217,0.344
		c0.045,0.133,0.065,0.271,0.065,0.413v1.402c0,0.076,0.003,0.16,0.011,0.246c0.01,0.086,0.018,0.153,0.023,0.206h-0.707
		c-0.008-0.039-0.016-0.094-0.02-0.159c-0.008-0.069-0.01-0.128-0.01-0.184c-0.074,0.111-0.178,0.209-0.314,0.296
		c-0.139,0.084-0.312,0.128-0.525,0.128c-0.15,0-0.287-0.024-0.408-0.073c-0.123-0.047-0.226-0.111-0.31-0.192
		c-0.086-0.078-0.149-0.169-0.194-0.27C45.033,27.606,45.007,27.497,45.007,27.387z M46.151,27.67c0.081,0,0.159-0.011,0.235-0.032
		c0.074-0.02,0.143-0.057,0.199-0.11c0.059-0.052,0.104-0.117,0.14-0.201c0.034-0.083,0.052-0.188,0.052-0.316v-0.128l-0.645,0.099
		c-0.1,0.018-0.184,0.053-0.25,0.107c-0.068,0.057-0.104,0.141-0.104,0.253c0,0.084,0.032,0.16,0.094,0.229
		C45.934,27.635,46.028,27.67,46.151,27.67z"/>
	<path fill="#222222" d="M50.046,26.075c-0.076-0.016-0.155-0.022-0.231-0.022c-0.101,0-0.196,0.016-0.284,0.04
		c-0.089,0.029-0.167,0.073-0.23,0.135c-0.066,0.062-0.12,0.144-0.159,0.246c-0.042,0.104-0.062,0.23-0.062,0.385v1.306h-0.771
		v-2.853h0.749v0.422c0.042-0.093,0.096-0.169,0.165-0.228c0.066-0.061,0.138-0.106,0.214-0.136
		c0.076-0.031,0.149-0.055,0.226-0.063c0.076-0.013,0.146-0.018,0.207-0.018c0.028,0,0.062,0,0.088,0.003
		c0.029,0.002,0.06,0.005,0.092,0.007v0.776H50.046z"/>
	<path fill="#222222" d="M53.279,27.648c0,0.097,0.004,0.191,0.008,0.287c0.002,0.094,0.01,0.17,0.018,0.229h-0.736
		c-0.008-0.032-0.016-0.078-0.021-0.141c-0.006-0.062-0.01-0.126-0.01-0.19c-0.065,0.111-0.166,0.206-0.304,0.284
		c-0.136,0.075-0.303,0.115-0.494,0.115c-0.206,0-0.394-0.037-0.562-0.112c-0.17-0.076-0.317-0.181-0.438-0.312
		c-0.122-0.135-0.219-0.292-0.286-0.477c-0.07-0.183-0.105-0.383-0.105-0.6c0-0.209,0.033-0.402,0.104-0.585
		c0.065-0.182,0.159-0.339,0.279-0.474c0.12-0.133,0.266-0.238,0.434-0.314c0.166-0.078,0.352-0.115,0.553-0.115
		c0.125,0,0.229,0.01,0.32,0.034c0.092,0.021,0.17,0.052,0.236,0.087c0.062,0.033,0.117,0.072,0.159,0.111
		c0.039,0.042,0.069,0.081,0.089,0.121v-1.629h0.759L53.279,27.648L53.279,27.648z M51.125,26.732c0,0.255,0.066,0.454,0.199,0.598
		c0.133,0.143,0.303,0.214,0.506,0.214c0.199,0,0.363-0.071,0.5-0.214c0.135-0.144,0.203-0.345,0.203-0.603
		c0-0.256-0.068-0.452-0.203-0.59c-0.137-0.138-0.301-0.206-0.5-0.206c-0.195,0-0.363,0.071-0.5,0.209
		C51.194,26.281,51.125,26.476,51.125,26.732z"/>
	<path fill="#222222" d="M54.023,24.378c0-0.135,0.044-0.248,0.139-0.342c0.094-0.094,0.203-0.141,0.336-0.141
		c0.135,0,0.248,0.047,0.34,0.141c0.091,0.094,0.135,0.207,0.135,0.342c0,0.128-0.044,0.238-0.135,0.332
		c-0.092,0.091-0.205,0.137-0.34,0.137c-0.133,0-0.242-0.046-0.336-0.137C54.067,24.616,54.023,24.506,54.023,24.378z
		 M54.114,28.163v-2.853h0.771v2.853H54.114z"/>
	<path fill="#222222" d="M55.535,27.387c0-0.128,0.021-0.24,0.065-0.339c0.044-0.101,0.104-0.184,0.183-0.258
		c0.078-0.073,0.166-0.133,0.271-0.175c0.103-0.041,0.214-0.073,0.334-0.094l0.7-0.104c0.08-0.012,0.138-0.036,0.168-0.073
		c0.029-0.037,0.048-0.079,0.048-0.131c0-0.102-0.042-0.188-0.12-0.26c-0.079-0.074-0.199-0.11-0.361-0.11
		c-0.169,0-0.302,0.046-0.393,0.14c-0.09,0.092-0.141,0.199-0.152,0.324l-0.684-0.145c0.01-0.113,0.045-0.225,0.104-0.337
		c0.059-0.113,0.139-0.215,0.238-0.303c0.102-0.089,0.225-0.159,0.371-0.217c0.146-0.057,0.316-0.083,0.509-0.083
		c0.226,0,0.415,0.029,0.574,0.088c0.157,0.062,0.286,0.142,0.386,0.238c0.1,0.099,0.17,0.214,0.214,0.344
		c0.044,0.133,0.066,0.271,0.066,0.413v1.402c0,0.076,0.005,0.16,0.012,0.246c0.009,0.086,0.015,0.153,0.022,0.206h-0.705
		c-0.01-0.039-0.016-0.094-0.022-0.159c-0.005-0.069-0.007-0.128-0.007-0.184c-0.074,0.111-0.18,0.209-0.316,0.296
		c-0.138,0.084-0.312,0.128-0.522,0.128c-0.152,0-0.288-0.024-0.41-0.073c-0.121-0.047-0.224-0.111-0.31-0.192
		c-0.084-0.078-0.15-0.169-0.194-0.27C55.556,27.606,55.535,27.497,55.535,27.387z M56.675,27.67c0.082,0,0.16-0.011,0.234-0.032
		c0.075-0.02,0.143-0.057,0.2-0.11c0.058-0.052,0.104-0.117,0.138-0.201c0.035-0.083,0.055-0.188,0.055-0.316v-0.128l-0.645,0.099
		c-0.101,0.018-0.185,0.053-0.253,0.107c-0.065,0.057-0.101,0.141-0.101,0.253c0,0.084,0.029,0.16,0.093,0.229
		C56.458,27.635,56.55,27.67,56.675,27.67z"/>
	<path fill="#222222" d="M59.601,28.163H58.83v-2.853h0.75v0.354c0.088-0.147,0.209-0.256,0.36-0.324
		c0.151-0.071,0.308-0.105,0.461-0.105c0.179,0,0.329,0.032,0.46,0.092c0.131,0.059,0.235,0.14,0.321,0.239
		c0.086,0.103,0.147,0.22,0.188,0.359c0.039,0.14,0.062,0.284,0.062,0.439v1.798h-0.771V26.5c0-0.162-0.041-0.297-0.125-0.407
		c-0.084-0.108-0.217-0.162-0.402-0.162c-0.17,0-0.303,0.06-0.393,0.172c-0.095,0.112-0.142,0.253-0.142,0.42L59.601,28.163
		L59.601,28.163z"/>
</g>
<g>
	<path fill="#222222" d="M24.741,6.126v4.254h-0.002v1.422h0.002v4.125c0,1.292,4.525,3.288,5.677,3.288s5.677-1.993,5.677-3.288
		V6.126H24.741z M31.626,10.325V8.959h-1.422v1.421h1.358l-2.444,2.109v-0.53h-1.422v1.422h0.388l-2.162,1.865v-3.444h0.015h0.793
		h0.629V10.38H26.73h-0.793h-0.015V8.909h1.422h0.015V7.49h1.422v1.419h1.422V7.49h4.707L31.626,10.325z"/>
	<rect x="27.359" y="8.909" fill="#222222" width="1.422" height="1.423"/>
</g>
</svg>
