<?xml version="1.0" encoding="UTF-8" standalone="no"?>
<svg width="59px" height="32px" viewBox="0 0 59 32" version="1.1" xmlns="http://www.w3.org/2000/svg" xmlns:xlink="http://www.w3.org/1999/xlink">
    <!-- Generator: Sketch 40.3 (33839) - http://www.bohemiancoding.com/sketch -->
    <title>quickrent_logo</title>
    <desc>Created with Sketch.</desc>
    <defs></defs>
    <g id="Page-1" stroke="none" stroke-width="1" fill="none" fill-rule="evenodd">
        <g id="quickrent_logo" fill="#000000">
            <g id="Page-1">
                <g id="quickrent_logo">
                    <path d="M39.253,0.443 C36.532,0.443 34.327,2.648 34.327,5.368 C34.327,8.088 39.253,16.006 39.253,16.006 C39.253,16.006 44.178,8.088 44.178,5.368 C44.178,2.648 41.973,0.443 39.253,0.443 L39.253,0.443 L39.253,0.443 Z M41.889,5.54 L41.889,7.495 C41.889,7.637 41.776,7.749 41.637,7.749 L40.005,7.749 C39.962,7.749 39.928,7.717 39.928,7.674 L39.928,6.428 C39.928,6.065 39.634,5.77 39.274,5.77 C38.916,5.77 38.623,6.065 38.623,6.428 L38.623,7.674 C38.623,7.717 38.586,7.749 38.545,7.749 L36.873,7.749 C36.731,7.749 36.619,7.637 36.619,7.495 L36.619,4.719 C36.619,4.6 36.692,4.448 36.787,4.372 L39.069,2.565 C39.17,2.486 39.34,2.486 39.44,2.565 L41.721,4.372 C41.815,4.445 41.889,4.6 41.889,4.719 L41.889,5.54 L41.889,5.54 L41.889,5.54 Z" id="Shape"></path>
                    <path d="M27.354,7.292 L8.635,7.292 C8.304,7.292 8.035,7.022 8.035,6.691 C8.035,6.36 8.304,6.091 8.635,6.091 L27.354,6.091 C27.685,6.091 27.954,6.36 27.954,6.691 C27.954,7.022 27.685,7.292 27.354,7.292 L27.354,7.292 L27.354,7.292 Z" id="Shape"></path>
                    <path d="M30.337,3.406 L18.241,3.406 C17.91,3.406 17.641,3.136 17.641,2.805 C17.641,2.474 17.91,2.204 18.241,2.204 L30.338,2.204 C30.668,2.204 30.937,2.474 30.937,2.805 C30.937,3.136 30.667,3.406 30.337,3.406 L30.337,3.406 L30.337,3.406 Z" id="Shape"></path>
                    <path d="M32.971,14.817 L30.682,14.817 C30.351,14.817 30.082,14.549 30.082,14.217 C30.082,13.887 30.351,13.616 30.682,13.616 L32.971,13.616 C33.3,13.616 33.571,13.887 33.571,14.217 C33.57,14.549 33.3,14.817 32.971,14.817 L32.971,14.817 L32.971,14.817 Z" id="Shape"></path>
                    <path d="M0.74,26.543 C0.74,25.855 0.86,25.236 1.1,24.689 C1.34,24.141 1.66,23.673 2.06,23.292 C2.46,22.908 2.924,22.613 3.452,22.41 C3.98,22.206 4.532,22.102 5.108,22.102 C5.684,22.102 6.238,22.206 6.77,22.41 C7.301,22.613 7.768,22.908 8.168,23.292 C8.567,23.676 8.888,24.144 9.127,24.689 C9.367,25.237 9.487,25.855 9.487,26.543 C9.487,27.144 9.395,27.689 9.211,28.181 C9.027,28.673 8.772,29.109 8.443,29.485 L9.463,30.613 L8.371,31.55 L7.328,30.399 C6.992,30.585 6.638,30.724 6.266,30.827 C5.894,30.927 5.508,30.974 5.108,30.974 C4.532,30.974 3.98,30.872 3.452,30.668 C2.924,30.464 2.46,30.17 2.06,29.786 C1.66,29.401 1.34,28.937 1.1,28.392 C0.859,27.846 0.74,27.232 0.74,26.543 L0.74,26.543 L0.74,26.543 Z M2.456,26.531 C2.456,27.01 2.532,27.427 2.684,27.785 C2.836,28.139 3.038,28.434 3.29,28.667 C3.542,28.898 3.826,29.073 4.142,29.188 C4.458,29.302 4.78,29.362 5.108,29.362 C5.501,29.362 5.864,29.291 6.2,29.146 L4.868,27.68 L5.972,26.734 L7.304,28.22 C7.448,28.004 7.562,27.756 7.646,27.478 C7.73,27.199 7.772,26.88 7.772,26.531 C7.772,26.051 7.696,25.633 7.543,25.276 C7.392,24.921 7.189,24.627 6.938,24.393 C6.686,24.163 6.4,23.989 6.081,23.872 C5.761,23.756 5.436,23.698 5.108,23.698 C4.78,23.698 4.458,23.756 4.142,23.872 C3.826,23.988 3.542,24.162 3.29,24.393 C3.038,24.624 2.836,24.918 2.684,25.276 C2.532,25.632 2.456,26.05 2.456,26.531 L2.456,26.531 L2.456,26.531 Z" id="Shape"></path>
                    <path d="M14.636,30.791 C14.62,30.729 14.609,30.635 14.601,30.515 C14.593,30.396 14.589,30.277 14.589,30.158 C14.429,30.437 14.194,30.637 13.886,30.762 C13.578,30.886 13.269,30.95 12.956,30.95 C12.597,30.95 12.278,30.888 12.003,30.762 C11.727,30.638 11.492,30.472 11.3,30.264 C11.109,30.056 10.962,29.811 10.862,29.528 C10.762,29.245 10.712,28.942 10.712,28.623 L10.712,24.891 L12.309,24.891 L12.309,28.299 C12.309,28.635 12.394,28.917 12.567,29.146 C12.739,29.375 13.013,29.489 13.388,29.489 C13.749,29.489 14.025,29.382 14.216,29.166 C14.408,28.95 14.505,28.67 14.505,28.326 L14.505,24.891 L16.101,24.891 L16.101,29.728 C16.101,29.959 16.107,30.169 16.119,30.358 C16.131,30.546 16.144,30.693 16.162,30.796 L14.636,30.791 L14.636,30.791 L14.636,30.791 L14.636,30.791 Z" id="Shape"></path>
                    <path d="M17.611,22.955 C17.611,22.675 17.707,22.438 17.9,22.247 C18.091,22.055 18.324,21.959 18.595,21.959 C18.874,21.959 19.109,22.055 19.297,22.247 C19.485,22.438 19.579,22.675 19.579,22.955 C19.579,23.219 19.484,23.447 19.297,23.639 C19.109,23.831 18.874,23.927 18.595,23.927 C18.324,23.927 18.091,23.831 17.9,23.639 C17.708,23.448 17.611,23.218 17.611,22.955 L17.611,22.955 L17.611,22.955 Z M17.805,30.791 L17.805,24.887 L19.402,24.887 L19.402,30.791 L17.805,30.791 L17.805,30.791 L17.805,30.791 Z" id="Shape"></path>
                    <path d="M23.756,26.182 C23.547,26.182 23.354,26.218 23.174,26.29 C22.994,26.361 22.836,26.468 22.699,26.607 C22.562,26.748 22.455,26.919 22.375,27.128 C22.295,27.337 22.256,27.572 22.256,27.836 C22.256,28.101 22.295,28.336 22.375,28.544 C22.455,28.752 22.564,28.928 22.705,29.072 C22.846,29.216 23.006,29.324 23.185,29.395 C23.365,29.465 23.558,29.501 23.767,29.501 C23.966,29.501 24.144,29.472 24.3,29.411 C24.456,29.35 24.591,29.272 24.702,29.177 C24.813,29.081 24.905,28.975 24.972,28.855 C25.04,28.735 25.091,28.62 25.122,28.505 L26.526,28.975 C26.462,29.223 26.356,29.463 26.208,29.702 C26.06,29.939 25.87,30.149 25.638,30.338 C25.408,30.526 25.134,30.678 24.824,30.794 C24.512,30.91 24.16,30.968 23.767,30.968 C23.335,30.968 22.929,30.891 22.548,30.736 C22.169,30.581 21.839,30.362 21.558,30.083 C21.279,29.803 21.059,29.473 20.899,29.093 C20.739,28.713 20.66,28.295 20.66,27.839 C20.66,27.383 20.737,26.963 20.893,26.579 C21.048,26.194 21.265,25.865 21.54,25.589 C21.817,25.315 22.14,25.097 22.513,24.943 C22.884,24.788 23.286,24.71 23.718,24.71 C24.118,24.71 24.476,24.77 24.792,24.884 C25.108,25 25.382,25.152 25.614,25.334 C25.846,25.52 26.034,25.73 26.178,25.97 C26.322,26.21 26.426,26.454 26.49,26.702 L25.06,27.181 C24.99,26.933 24.851,26.705 24.648,26.497 C24.445,26.287 24.146,26.182 23.756,26.182 L23.756,26.182 L23.756,26.182 Z" id="Shape"></path>
                    <polygon id="Shape" points="30.77 27.371 33.182 30.791 31.227 30.791 29.665 28.535 29.005 29.23 29.005 30.791 27.41 30.791 27.41 22.103 29.006 22.103 29.006 27.082 31.048 24.886 33.136 24.886"></polygon>
                    <g id="Group" transform="translate(34.000000, 22.000000)">
                        <path d="M3.029,5.514 L2.164,5.514 L2.164,8.79 L0.496,8.79 L0.496,0.282 L3.82,0.282 C4.236,0.282 4.611,0.349 4.943,0.485 C5.275,0.622 5.558,0.803 5.795,1.038 C6.033,1.27 6.213,1.546 6.342,1.866 C6.47,2.185 6.533,2.53 6.533,2.897 C6.533,3.498 6.371,4.007 6.047,4.432 C5.724,4.857 5.281,5.149 4.722,5.308 L6.545,8.787 L4.697,8.787 L3.029,5.514 L3.029,5.514 L3.029,5.514 Z M3.509,4.087 C3.933,4.087 4.261,3.981 4.489,3.763 C4.72,3.547 4.839,3.263 4.839,2.911 C4.839,2.551 4.724,2.263 4.489,2.047 C4.26,1.831 3.929,1.723 3.509,1.723 L2.161,1.723 L2.161,4.087 L3.509,4.087 L3.509,4.087 L3.509,4.087 Z" id="Shape"></path>
                        <path d="M13,7.098 C12.931,7.356 12.812,7.596 12.658,7.827 C12.504,8.055 12.31,8.253 12.09,8.421 C11.864,8.589 11.605,8.723 11.304,8.823 C11.004,8.923 10.674,8.97 10.314,8.97 C9.906,8.97 9.519,8.902 9.15,8.76 C8.784,8.62 8.46,8.414 8.179,8.143 C7.898,7.872 7.676,7.539 7.513,7.148 C7.349,6.754 7.267,6.312 7.267,5.816 C7.267,5.342 7.347,4.917 7.506,4.533 C7.664,4.148 7.879,3.823 8.148,3.554 C8.417,3.286 8.726,3.078 9.079,2.93 C9.433,2.784 9.796,2.708 10.171,2.708 C11.091,2.708 11.808,2.979 12.318,3.523 C12.828,4.067 13.087,4.815 13.087,5.765 C13.087,5.877 13.083,5.985 13.074,6.083 C13.066,6.185 13.062,6.241 13.062,6.257 L8.838,6.257 C8.847,6.449 8.892,6.627 8.976,6.791 C9.06,6.955 9.166,7.097 9.299,7.217 C9.433,7.337 9.584,7.432 9.763,7.499 C9.939,7.566 10.125,7.602 10.325,7.602 C10.702,7.602 10.995,7.518 11.208,7.35 C11.419,7.181 11.573,6.965 11.669,6.704 L13,7.098 L13,7.098 L13,7.098 Z M11.513,5.167 C11.501,5.022 11.474,4.881 11.421,4.741 C11.368,4.6 11.288,4.475 11.183,4.369 C11.074,4.261 10.939,4.173 10.775,4.104 C10.611,4.037 10.416,4 10.193,4 C9.984,4 9.8,4.036 9.64,4.107 C9.48,4.177 9.345,4.271 9.232,4.381 C9.121,4.493 9.035,4.617 8.974,4.753 C8.912,4.891 8.878,5.024 8.87,5.161 L11.513,5.161 L11.513,5.167 L11.513,5.167 L11.513,5.167 Z" id="Shape"></path>
                        <path d="M15.941,8.791 L14.343,8.791 L14.343,2.887 L15.892,2.887 L15.892,3.619 C16.076,3.314 16.326,3.091 16.642,2.947 C16.956,2.801 17.277,2.73 17.595,2.73 C17.962,2.73 18.283,2.792 18.55,2.917 C18.816,3.041 19.038,3.207 19.214,3.415 C19.392,3.623 19.523,3.871 19.607,4.159 C19.691,4.447 19.732,4.751 19.732,5.07 L19.732,8.791 L18.136,8.791 L18.136,5.347 C18.136,5.011 18.05,4.733 17.876,4.507 C17.704,4.283 17.427,4.171 17.042,4.171 C16.689,4.171 16.417,4.289 16.228,4.525 C16.037,4.759 15.941,5.049 15.941,5.394 L15.941,8.791 L15.941,8.791 L15.941,8.791 Z" id="Shape"></path>
                        <path d="M23.32,2.886 L24.508,2.886 L24.508,4.302 L23.32,4.302 L23.32,6.776 C23.32,7.033 23.379,7.211 23.494,7.309 C23.611,7.411 23.785,7.458 24.015,7.458 C24.113,7.458 24.206,7.454 24.304,7.445 C24.4,7.437 24.468,7.424 24.505,7.41 L24.505,8.729 C24.435,8.759 24.323,8.791 24.177,8.826 C24.031,8.857 23.837,8.874 23.609,8.874 C23.033,8.874 22.576,8.714 22.24,8.395 C21.904,8.077 21.736,7.626 21.736,7.05 L21.736,4.302 L20.668,4.302 L20.668,2.886 L20.97,2.886 C21.282,2.886 21.51,2.796 21.658,2.616 C21.804,2.435 21.881,2.214 21.881,1.95 L21.881,1.122 L23.319,1.122 L23.319,2.886 L23.32,2.886 L23.32,2.886 L23.32,2.886 Z" id="Shape"></path>
                    </g>
                </g>
            </g>
        </g>
    </g>
</svg>