<?xml version="1.0" encoding="UTF-8" standalone="no"?>
<svg width="59px" height="32px" viewBox="0 0 59 32" version="1.1" xmlns="http://www.w3.org/2000/svg" xmlns:xlink="http://www.w3.org/1999/xlink">
    <!-- Generator: Sketch 40.3 (33839) - http://www.bohemiancoding.com/sketch -->
    <title>quickrent_logo</title>
    <desc>Created with Sketch.</desc>
    <defs></defs>
    <g id="Page-1" stroke="none" stroke-width="1" fill="none" fill-rule="evenodd">
        <g id="quickrent_logo" fill="#000000">
            <path d="M39.254,0.443 C36.532,0.443 34.328,2.648 34.328,5.367 C34.328,8.087 39.254,16.005 39.254,16.005 C39.254,16.005 44.178,8.087 44.178,5.367 C44.178,2.648 41.973,0.443 39.254,0.443 L39.254,0.443 Z M41.889,5.54 L41.889,7.495 C41.889,7.637 41.776,7.749 41.637,7.749 L40.006,7.749 C39.963,7.749 39.928,7.717 39.928,7.674 L39.928,6.428 C39.928,6.065 39.635,5.77 39.274,5.77 C38.915,5.77 38.622,6.065 38.622,6.428 L38.622,7.674 C38.622,7.717 38.585,7.749 38.544,7.749 L36.872,7.749 C36.731,7.749 36.618,7.637 36.618,7.495 L36.618,4.719 C36.618,4.6 36.692,4.448 36.786,4.372 L39.069,2.566 C39.169,2.487 39.339,2.487 39.44,2.566 L41.721,4.372 C41.815,4.446 41.889,4.6 41.889,4.719 L41.889,5.54 L41.889,5.54 Z" id="Shape"></path>
            <path d="M27.354,7.292 L8.635,7.292 C8.304,7.292 8.035,7.023 8.035,6.692 C8.035,6.361 8.304,6.092 8.635,6.092 L27.354,6.092 C27.685,6.092 27.954,6.361 27.954,6.692 C27.954,7.023 27.685,7.292 27.354,7.292 L27.354,7.292 Z" id="Shape"></path>
            <path d="M30.337,3.406 L18.241,3.406 C17.91,3.406 17.641,3.137 17.641,2.806 C17.641,2.475 17.91,2.205 18.241,2.205 L30.338,2.205 C30.668,2.205 30.937,2.475 30.937,2.806 C30.937,3.137 30.667,3.406 30.337,3.406 L30.337,3.406 Z" id="Shape"></path>
            <path d="M32.971,14.817 L30.682,14.817 C30.351,14.817 30.082,14.549 30.082,14.217 C30.082,13.887 30.351,13.616 30.682,13.616 L32.971,13.616 C33.301,13.616 33.571,13.887 33.571,14.217 C33.57,14.549 33.301,14.817 32.971,14.817 L32.971,14.817 Z" id="Shape"></path>
            <path d="M0.74,26.543 C0.74,25.855 0.86,25.237 1.1,24.689 C1.34,24.141 1.66,23.673 2.06,23.291 C2.46,22.907 2.924,22.613 3.452,22.409 C3.98,22.205 4.532,22.102 5.108,22.102 C5.684,22.102 6.238,22.205 6.77,22.409 C7.301,22.613 7.768,22.907 8.168,23.291 C8.567,23.675 8.888,24.143 9.127,24.689 C9.367,25.237 9.487,25.855 9.487,26.543 C9.487,27.144 9.395,27.689 9.211,28.181 C9.027,28.673 8.772,29.109 8.443,29.485 L9.463,30.613 L8.371,31.549 L7.328,30.398 C6.992,30.583 6.638,30.723 6.266,30.825 C5.894,30.925 5.508,30.973 5.108,30.973 C4.532,30.973 3.98,30.871 3.452,30.667 C2.924,30.463 2.46,30.169 2.06,29.785 C1.66,29.401 1.34,28.937 1.1,28.392 C0.859,27.846 0.74,27.232 0.74,26.543 L0.74,26.543 Z M2.456,26.531 C2.456,27.01 2.532,27.427 2.684,27.785 C2.836,28.139 3.038,28.435 3.29,28.667 C3.542,28.899 3.826,29.073 4.142,29.189 C4.458,29.303 4.78,29.363 5.108,29.363 C5.501,29.363 5.864,29.291 6.2,29.147 L4.868,27.681 L5.972,26.735 L7.304,28.221 C7.448,28.005 7.562,27.757 7.646,27.479 C7.73,27.199 7.772,26.881 7.772,26.531 C7.772,26.051 7.696,25.633 7.543,25.277 C7.392,24.921 7.189,24.627 6.938,24.394 C6.686,24.163 6.4,23.989 6.081,23.873 C5.761,23.757 5.436,23.699 5.108,23.699 C4.78,23.699 4.458,23.757 4.142,23.873 C3.826,23.989 3.542,24.163 3.29,24.394 C3.038,24.625 2.836,24.919 2.684,25.277 C2.532,25.632 2.456,26.05 2.456,26.531 L2.456,26.531 Z" id="Shape"></path>
            <path d="M14.636,30.791 C14.62,30.729 14.609,30.635 14.601,30.515 C14.593,30.396 14.589,30.277 14.589,30.157 C14.429,30.437 14.194,30.637 13.886,30.761 C13.578,30.885 13.269,30.949 12.956,30.949 C12.597,30.949 12.278,30.887 12.003,30.761 C11.727,30.637 11.492,30.471 11.3,30.263 C11.109,30.055 10.962,29.81 10.862,29.527 C10.762,29.243 10.712,28.941 10.712,28.621 L10.712,24.889 L12.309,24.889 L12.309,28.297 C12.309,28.633 12.394,28.915 12.567,29.144 C12.739,29.373 13.013,29.487 13.388,29.487 C13.749,29.487 14.025,29.379 14.216,29.163 C14.408,28.947 14.505,28.667 14.505,28.323 L14.505,24.889 L16.101,24.889 L16.101,29.726 C16.101,29.957 16.107,30.167 16.119,30.356 C16.131,30.544 16.144,30.691 16.162,30.794 L14.636,30.791 L14.636,30.791 L14.636,30.791 Z" id="Shape"></path>
            <path d="M17.611,22.955 C17.611,22.675 17.707,22.439 17.9,22.247 C18.091,22.055 18.324,21.959 18.595,21.959 C18.874,21.959 19.109,22.055 19.297,22.247 C19.485,22.439 19.579,22.675 19.579,22.955 C19.579,23.219 19.484,23.447 19.297,23.639 C19.109,23.831 18.874,23.927 18.595,23.927 C18.324,23.927 18.091,23.831 17.9,23.639 C17.708,23.448 17.611,23.218 17.611,22.955 L17.611,22.955 Z M17.805,30.791 L17.805,24.887 L19.402,24.887 L19.402,30.791 L17.805,30.791 L17.805,30.791 Z" id="Shape"></path>
            <path d="M23.756,26.182 C23.547,26.182 23.354,26.218 23.174,26.29 C22.994,26.362 22.836,26.468 22.699,26.608 C22.562,26.748 22.455,26.92 22.375,27.129 C22.295,27.338 22.256,27.573 22.256,27.837 C22.256,28.102 22.295,28.337 22.375,28.545 C22.455,28.753 22.564,28.929 22.705,29.073 C22.846,29.217 23.006,29.325 23.185,29.397 C23.365,29.467 23.558,29.503 23.767,29.503 C23.966,29.503 24.144,29.474 24.3,29.413 C24.456,29.353 24.591,29.275 24.702,29.179 C24.813,29.083 24.905,28.977 24.972,28.857 C25.04,28.737 25.091,28.621 25.122,28.507 L26.526,28.977 C26.462,29.225 26.356,29.465 26.208,29.703 C26.06,29.941 25.87,30.151 25.638,30.339 C25.408,30.527 25.134,30.679 24.824,30.795 C24.512,30.911 24.16,30.969 23.767,30.969 C23.335,30.969 22.929,30.892 22.548,30.737 C22.169,30.581 21.839,30.363 21.558,30.083 C21.279,29.803 21.059,29.473 20.899,29.093 C20.739,28.713 20.66,28.295 20.66,27.839 C20.66,27.383 20.737,26.963 20.893,26.579 C21.048,26.195 21.265,25.865 21.54,25.589 C21.817,25.315 22.14,25.097 22.513,24.943 C22.884,24.787 23.286,24.709 23.718,24.709 C24.118,24.709 24.476,24.769 24.792,24.883 C25.108,24.999 25.382,25.151 25.614,25.333 C25.846,25.519 26.034,25.729 26.178,25.969 C26.322,26.209 26.426,26.453 26.49,26.701 L25.06,27.18 C24.99,26.932 24.851,26.704 24.648,26.496 C24.445,26.287 24.146,26.182 23.756,26.182 L23.756,26.182 Z" id="Shape"></path>
            <polygon id="Shape" points="30.77 27.371 33.182 30.791 31.227 30.791 29.665 28.535 29.005 29.231 29.005 30.791 27.41 30.791 27.41 22.103 29.006 22.103 29.006 27.082 31.048 24.886 33.136 24.886"></polygon>
            <g id="Group" transform="translate(34.000000, 22.000000)">
                <path d="M3.029,5.514 L2.164,5.514 L2.164,8.79 L0.496,8.79 L0.496,0.282 L3.82,0.282 C4.236,0.282 4.611,0.35 4.943,0.486 C5.275,0.622 5.558,0.804 5.795,1.038 C6.032,1.271 6.213,1.546 6.342,1.866 C6.469,2.186 6.533,2.53 6.533,2.898 C6.533,3.498 6.371,4.008 6.047,4.433 C5.723,4.858 5.281,5.15 4.721,5.309 L6.545,8.788 L4.697,8.788 L3.029,5.514 L3.029,5.514 Z M3.509,4.087 C3.933,4.087 4.261,3.981 4.49,3.763 C4.721,3.547 4.84,3.263 4.84,2.911 C4.84,2.551 4.724,2.263 4.49,2.047 C4.261,1.831 3.93,1.723 3.509,1.723 L2.162,1.723 L2.162,4.087 L3.509,4.087 L3.509,4.087 Z" id="Shape"></path>
                <path d="M12.999,7.098 C12.93,7.356 12.812,7.596 12.657,7.826 C12.503,8.054 12.31,8.252 12.089,8.42 C11.864,8.588 11.604,8.722 11.303,8.822 C11.003,8.922 10.673,8.97 10.313,8.97 C9.905,8.97 9.518,8.902 9.149,8.76 C8.782,8.62 8.458,8.414 8.178,8.143 C7.897,7.872 7.676,7.539 7.512,7.148 C7.348,6.754 7.266,6.312 7.266,5.816 C7.266,5.342 7.346,4.916 7.505,4.532 C7.663,4.148 7.878,3.822 8.147,3.553 C8.415,3.285 8.725,3.077 9.077,2.929 C9.431,2.783 9.794,2.707 10.169,2.707 C11.089,2.707 11.806,2.979 12.317,3.523 C12.828,4.067 13.085,4.815 13.085,5.765 C13.085,5.877 13.081,5.985 13.073,6.083 C13.065,6.185 13.061,6.241 13.061,6.257 L8.837,6.257 C8.846,6.449 8.891,6.627 8.975,6.791 C9.059,6.955 9.165,7.097 9.298,7.217 C9.432,7.337 9.583,7.432 9.762,7.499 C9.938,7.567 10.124,7.602 10.324,7.602 C10.701,7.602 10.994,7.518 11.207,7.35 C11.418,7.181 11.572,6.965 11.668,6.703 L12.999,7.098 L12.999,7.098 Z M11.513,5.167 C11.502,5.023 11.474,4.881 11.422,4.741 C11.369,4.601 11.289,4.476 11.183,4.369 C11.074,4.261 10.939,4.173 10.775,4.105 C10.611,4.037 10.416,4.001 10.193,4.001 C9.984,4.001 9.8,4.037 9.64,4.109 C9.48,4.179 9.345,4.273 9.232,4.383 C9.121,4.495 9.035,4.619 8.974,4.755 C8.912,4.893 8.879,5.027 8.871,5.163 L11.513,5.163 L11.513,5.167 L11.513,5.167 Z" id="Shape"></path>
                <path d="M15.941,8.791 L14.343,8.791 L14.343,2.887 L15.892,2.887 L15.892,3.619 C16.076,3.315 16.326,3.091 16.642,2.947 C16.957,2.801 17.277,2.731 17.595,2.731 C17.963,2.731 18.283,2.793 18.55,2.917 C18.816,3.041 19.039,3.207 19.215,3.415 C19.392,3.623 19.523,3.871 19.607,4.159 C19.691,4.447 19.732,4.751 19.732,5.071 L19.732,8.791 L18.136,8.791 L18.136,5.347 C18.136,5.011 18.05,4.733 17.877,4.507 C17.705,4.283 17.427,4.171 17.043,4.171 C16.69,4.171 16.418,4.289 16.228,4.525 C16.037,4.759 15.941,5.049 15.941,5.394 L15.941,8.791 L15.941,8.791 Z" id="Shape"></path>
                <path d="M23.32,2.886 L24.508,2.886 L24.508,4.302 L23.32,4.302 L23.32,6.776 C23.32,7.032 23.379,7.21 23.494,7.309 C23.611,7.41 23.785,7.458 24.015,7.458 C24.113,7.458 24.207,7.454 24.304,7.446 C24.4,7.438 24.468,7.425 24.506,7.41 L24.506,8.73 C24.435,8.76 24.324,8.792 24.177,8.826 C24.031,8.858 23.838,8.874 23.609,8.874 C23.033,8.874 22.576,8.714 22.24,8.395 C21.904,8.076 21.736,7.626 21.736,7.05 L21.736,4.302 L20.667,4.302 L20.667,2.886 L20.969,2.886 C21.281,2.886 21.51,2.796 21.657,2.616 C21.804,2.436 21.88,2.214 21.88,1.95 L21.88,1.122 L23.318,1.122 L23.318,2.886 L23.32,2.886 L23.32,2.886 Z" id="Shape"></path>
            </g>
        </g>
    </g>
</svg>