<?xml version="1.0" encoding="utf-8"?>
<!-- Generator: Adobe Illustrator 16.0.0, SVG Export Plug-In . SVG Version: 6.00 Build 0)  -->
<!DOCTYPE svg PUBLIC "-//W3C//DTD SVG 1.1//EN" "http://www.w3.org/Graphics/SVG/1.1/DTD/svg11.dtd">
<svg version="1.1" id="Ebene_1" xmlns="http://www.w3.org/2000/svg" xmlns:xlink="http://www.w3.org/1999/xlink" x="0px" y="0px"
	 width="61.468px" height="32.6px" viewBox="2.218 13.258 61.468 32.6" enable-background="new 2.218 13.258 61.468 32.6"
	 xml:space="preserve">
<g>
	<path fill="#FFFFFF" d="M38.603,15.971c-0.102-0.079-0.271-0.079-0.371,0l-2.283,1.806c-0.094,0.074-0.168,0.227-0.168,0.346V20.9
		c0,0.141,0.113,0.254,0.254,0.254h1.672c0.041,0,0.078-0.033,0.078-0.076v-1.246c0-0.363,0.293-0.658,0.652-0.658
		c0.361,0,0.654,0.295,0.654,0.658v1.246c0,0.043,0.035,0.076,0.078,0.076H40.8c0.139,0,0.252-0.113,0.252-0.254v-1.955v-0.822
		c0-0.119-0.074-0.271-0.168-0.346L38.603,15.971z"/>
	<path fill="#FFFFFF" d="M38.417,13.847c-2.721,0-4.926,2.205-4.926,4.924c0,2.719,4.926,10.637,4.926,10.637
		s4.924-7.918,4.924-10.637C43.341,16.052,41.136,13.847,38.417,13.847z M41.052,18.945V20.9c0,0.141-0.113,0.254-0.252,0.254
		h-1.631c-0.043,0-0.078-0.033-0.078-0.076v-1.246c0-0.363-0.293-0.658-0.654-0.658c-0.359,0-0.652,0.295-0.652,0.658v1.246
		c0,0.043-0.037,0.076-0.078,0.076h-1.672c-0.141,0-0.254-0.113-0.254-0.254v-2.777c0-0.119,0.074-0.271,0.168-0.346l2.283-1.806
		c0.1-0.079,0.27-0.079,0.371,0l2.281,1.806c0.094,0.074,0.168,0.227,0.168,0.346V18.945z"/>
</g>
<path fill="#FFFFFF" d="M26.517,20.697H7.798c-0.331,0-0.6-0.269-0.6-0.6s0.269-0.6,0.6-0.6h18.719c0.331,0,0.6,0.269,0.6,0.6
	S26.848,20.697,26.517,20.697z"/>
<path fill="#FFFFFF" d="M29.5,16.811H17.404c-0.331,0-0.6-0.269-0.6-0.6s0.269-0.6,0.6-0.6H29.5c0.331,0,0.599,0.269,0.599,0.6
	S29.831,16.811,29.5,16.811z"/>
<path fill="#FFFFFF" d="M32.134,28.221h-2.289c-0.331,0-0.6-0.268-0.6-0.6c0-0.33,0.269-0.6,0.6-0.6h2.289c0.33,0,0.6,0.27,0.6,0.6
	C32.733,27.953,32.464,28.221,32.134,28.221z"/>
<g>
	<path fill="#FFFFFF" d="M2.513,40.558c0-0.688,0.12-1.306,0.36-1.854c0.24-0.548,0.56-1.015,0.96-1.398
		c0.4-0.384,0.864-0.678,1.392-0.882c0.528-0.204,1.08-0.307,1.656-0.307s1.13,0.103,1.662,0.307
		c0.531,0.204,0.998,0.498,1.398,0.882c0.399,0.384,0.72,0.851,0.959,1.398c0.24,0.548,0.36,1.166,0.36,1.854
		c0,0.6-0.092,1.146-0.276,1.638c-0.184,0.492-0.439,0.927-0.768,1.303l1.02,1.128l-1.092,0.936l-1.043-1.152
		c-0.336,0.185-0.69,0.326-1.062,0.427c-0.372,0.1-0.758,0.149-1.158,0.149c-0.576,0-1.128-0.102-1.656-0.306
		c-0.528-0.204-0.992-0.498-1.392-0.882c-0.4-0.384-0.72-0.848-0.96-1.393C2.633,41.861,2.513,41.246,2.513,40.558z M4.229,40.546
		c0,0.479,0.076,0.897,0.228,1.254c0.152,0.355,0.354,0.65,0.606,0.882c0.252,0.232,0.536,0.406,0.852,0.522
		c0.316,0.115,0.638,0.174,0.966,0.174c0.393,0,0.756-0.072,1.092-0.216l-1.332-1.465l1.104-0.947l1.332,1.487
		c0.144-0.216,0.258-0.464,0.342-0.743c0.084-0.28,0.126-0.597,0.126-0.948c0-0.48-0.076-0.898-0.229-1.254
		c-0.151-0.356-0.354-0.65-0.605-0.883c-0.252-0.231-0.538-0.405-0.857-0.521c-0.32-0.116-0.645-0.174-0.973-0.174
		s-0.65,0.058-0.966,0.174c-0.316,0.116-0.6,0.29-0.852,0.521c-0.252,0.232-0.454,0.526-0.606,0.883
		C4.305,39.647,4.229,40.065,4.229,40.546z"/>
	<path fill="#FFFFFF" d="M16.409,44.806c-0.016-0.063-0.027-0.156-0.035-0.276s-0.012-0.239-0.012-0.359
		c-0.16,0.28-0.395,0.481-0.703,0.605c-0.308,0.124-0.617,0.187-0.93,0.187c-0.359,0-0.678-0.062-0.953-0.187
		c-0.276-0.124-0.511-0.29-0.703-0.498c-0.191-0.208-0.338-0.454-0.438-0.737c-0.1-0.284-0.15-0.586-0.15-0.906v-3.732h1.597v3.408
		c0,0.336,0.085,0.618,0.258,0.846c0.172,0.229,0.446,0.343,0.821,0.343c0.361,0,0.637-0.108,0.828-0.324
		c0.192-0.216,0.289-0.496,0.289-0.84v-3.433h1.596v4.836c0,0.232,0.006,0.442,0.018,0.63c0.012,0.188,0.025,0.335,0.043,0.438
		H16.409z"/>
	<path fill="#FFFFFF" d="M19.385,36.97c0-0.28,0.096-0.516,0.289-0.708c0.191-0.192,0.424-0.288,0.695-0.288
		c0.279,0,0.514,0.096,0.702,0.288c0.188,0.192,0.282,0.428,0.282,0.708c0,0.264-0.095,0.492-0.282,0.684
		c-0.188,0.192-0.423,0.288-0.702,0.288c-0.271,0-0.504-0.096-0.695-0.288C19.481,37.462,19.385,37.233,19.385,36.97z
		 M19.578,44.806v-5.904h1.597v5.904H19.578z"/>
	<path fill="#FFFFFF" d="M25.53,40.197c-0.209,0-0.402,0.036-0.582,0.108s-0.338,0.178-0.475,0.318
		c-0.137,0.14-0.244,0.313-0.324,0.521s-0.119,0.444-0.119,0.708s0.039,0.5,0.119,0.708s0.189,0.384,0.33,0.528
		c0.141,0.144,0.301,0.252,0.48,0.324c0.18,0.071,0.373,0.107,0.582,0.107c0.199,0,0.377-0.03,0.533-0.09s0.291-0.138,0.402-0.234
		c0.111-0.096,0.203-0.203,0.27-0.323c0.068-0.12,0.119-0.236,0.15-0.349l1.404,0.469c-0.064,0.248-0.17,0.489-0.318,0.726
		s-0.338,0.448-0.57,0.636c-0.23,0.188-0.504,0.34-0.814,0.456c-0.312,0.116-0.664,0.174-1.057,0.174
		c-0.432,0-0.838-0.078-1.219-0.233c-0.379-0.156-0.709-0.374-0.99-0.654c-0.279-0.28-0.499-0.61-0.659-0.99
		s-0.239-0.798-0.239-1.254s0.077-0.876,0.233-1.26c0.155-0.384,0.372-0.714,0.647-0.99c0.277-0.275,0.6-0.492,0.973-0.647
		c0.371-0.156,0.773-0.234,1.205-0.234c0.4,0,0.758,0.059,1.074,0.174c0.316,0.116,0.59,0.267,0.822,0.45
		c0.232,0.185,0.42,0.396,0.564,0.636s0.248,0.484,0.312,0.732l-1.43,0.479c-0.07-0.248-0.209-0.476-0.412-0.684
		C26.219,40.302,25.92,40.197,25.53,40.197z"/>
	<path fill="#FFFFFF" d="M32.837,41.386l2.412,3.42h-1.955l-1.561-2.256l-0.66,0.696v1.56h-1.596v-8.688h1.596v4.98l2.041-2.196
		h2.088L32.837,41.386z"/>
	<path fill="#FFFFFF" d="M41.802,41.529h-0.865v3.276h-1.668v-8.508h3.324c0.416,0,0.791,0.068,1.123,0.204s0.615,0.319,0.852,0.552
		s0.418,0.508,0.547,0.828c0.127,0.32,0.191,0.664,0.191,1.032c0,0.6-0.162,1.111-0.486,1.535c-0.324,0.425-0.766,0.717-1.326,0.876
		l1.824,3.48H43.47L41.802,41.529z M42.282,40.102c0.424,0,0.752-0.107,0.982-0.324c0.232-0.216,0.35-0.5,0.35-0.852
		c0-0.36-0.117-0.648-0.35-0.864c-0.23-0.216-0.559-0.324-0.982-0.324h-1.346v2.364H42.282z"/>
	<path fill="#FFFFFF" d="M51.772,43.113c-0.07,0.257-0.186,0.498-0.342,0.727c-0.154,0.228-0.346,0.426-0.568,0.594
		c-0.225,0.168-0.486,0.302-0.787,0.402c-0.299,0.1-0.629,0.149-0.99,0.149c-0.408,0-0.795-0.069-1.164-0.21
		c-0.367-0.14-0.691-0.346-0.971-0.618c-0.281-0.271-0.502-0.604-0.666-0.995c-0.164-0.393-0.246-0.836-0.246-1.332
		c0-0.473,0.08-0.9,0.24-1.284c0.158-0.384,0.373-0.71,0.641-0.979c0.268-0.268,0.578-0.476,0.93-0.624
		c0.354-0.147,0.717-0.222,1.092-0.222c0.92,0,1.637,0.272,2.148,0.816s0.768,1.292,0.768,2.243c0,0.112-0.004,0.219-0.012,0.318
		c-0.008,0.101-0.012,0.158-0.012,0.174H47.61c0.008,0.192,0.053,0.37,0.137,0.534s0.191,0.306,0.324,0.426s0.285,0.215,0.463,0.282
		c0.176,0.068,0.363,0.102,0.562,0.102c0.377,0,0.67-0.084,0.883-0.252c0.211-0.168,0.365-0.384,0.461-0.647L51.772,43.113z
		 M50.286,41.182c-0.01-0.144-0.039-0.286-0.09-0.426c-0.053-0.14-0.133-0.265-0.24-0.372c-0.109-0.108-0.244-0.196-0.408-0.264
		c-0.164-0.068-0.359-0.103-0.582-0.103c-0.209,0-0.393,0.036-0.553,0.108c-0.16,0.071-0.295,0.164-0.408,0.275
		c-0.111,0.112-0.197,0.236-0.258,0.372c-0.061,0.137-0.094,0.272-0.102,0.408H50.286z"/>
	<path fill="#FFFFFF" d="M54.714,44.806h-1.598v-5.904h1.549v0.732c0.184-0.304,0.434-0.528,0.75-0.672
		c0.316-0.145,0.635-0.216,0.953-0.216c0.369,0,0.688,0.062,0.955,0.186s0.49,0.29,0.666,0.498s0.307,0.456,0.391,0.744
		s0.125,0.592,0.125,0.912v3.72h-1.596v-3.444c0-0.336-0.086-0.615-0.258-0.84c-0.172-0.224-0.451-0.336-0.834-0.336
		c-0.352,0-0.625,0.118-0.816,0.354c-0.191,0.235-0.287,0.525-0.287,0.869V44.806z"/>
	<path fill="#FFFFFF" d="M62.093,38.901h1.188v1.416h-1.188v2.473c0,0.256,0.059,0.434,0.174,0.533
		c0.117,0.101,0.291,0.15,0.521,0.15c0.098,0,0.193-0.004,0.289-0.012s0.164-0.021,0.203-0.036v1.32
		c-0.072,0.031-0.182,0.063-0.33,0.096c-0.146,0.032-0.338,0.048-0.568,0.048c-0.576,0-1.033-0.16-1.369-0.48
		c-0.336-0.319-0.504-0.768-0.504-1.344v-2.748H59.44v-1.416h0.301c0.312,0,0.541-0.09,0.689-0.27s0.223-0.402,0.223-0.666v-0.828
		h1.439V38.901z"/>
</g>
</svg>
