<?xml version="1.0" encoding="utf-8"?>
<!-- Generator: Adobe Illustrator 16.0.4, SVG Export Plug-In . SVG Version: 6.00 Build 0)  -->
<!DOCTYPE svg PUBLIC "-//W3C//DTD SVG 1.1//EN" "http://www.w3.org/Graphics/SVG/1.1/DTD/svg11.dtd">
<svg version="1.1" id="Ebene_1" xmlns="http://www.w3.org/2000/svg" xmlns:xlink="http://www.w3.org/1999/xlink" x="0px" y="0px"
	 width="61.468px" height="32.6px" viewBox="0 0 61.468 32.6" enable-background="new 0 0 61.468 32.6" xml:space="preserve">
<path fill="#212121" d="M39.253,1.443c-2.721,0-4.926,2.205-4.926,4.925s4.926,10.638,4.926,10.638s4.925-7.918,4.925-10.638
	S41.973,1.443,39.253,1.443z M41.889,6.54v1.955c0,0.142-0.113,0.254-0.252,0.254h-1.632c-0.043,0-0.077-0.032-0.077-0.075V7.428
	c0-0.363-0.294-0.658-0.654-0.658c-0.358,0-0.651,0.295-0.651,0.658v1.246c0,0.043-0.037,0.075-0.078,0.075h-1.672
	c-0.142,0-0.254-0.112-0.254-0.254V5.719c0-0.119,0.073-0.271,0.168-0.347l2.282-1.807c0.101-0.079,0.271-0.079,0.371,0l2.281,1.807
	c0.094,0.073,0.168,0.228,0.168,0.347V6.54z"/>
<path fill="#212121" d="M27.354,8.292H8.635c-0.331,0-0.6-0.27-0.6-0.601s0.269-0.6,0.6-0.6h18.719c0.331,0,0.6,0.269,0.6,0.6
	S27.685,8.292,27.354,8.292z"/>
<path fill="#212121" d="M30.337,4.406H18.241c-0.331,0-0.6-0.27-0.6-0.601s0.269-0.601,0.6-0.601h12.097
	c0.33,0,0.599,0.27,0.599,0.601S30.667,4.406,30.337,4.406z"/>
<path fill="#212121" d="M32.971,15.817h-2.289c-0.331,0-0.6-0.268-0.6-0.6c0-0.33,0.269-0.601,0.6-0.601h2.289
	c0.329,0,0.6,0.271,0.6,0.601C33.57,15.549,33.3,15.817,32.971,15.817z"/>
<path fill="#212121" d="M0.74,27.543c0-0.688,0.12-1.307,0.36-1.854c0.24-0.548,0.56-1.016,0.96-1.397
	c0.4-0.384,0.864-0.679,1.392-0.882c0.528-0.204,1.08-0.308,1.656-0.308c0.576,0,1.13,0.104,1.662,0.308
	c0.531,0.203,0.998,0.498,1.398,0.882c0.399,0.384,0.72,0.852,0.959,1.397c0.24,0.548,0.36,1.166,0.36,1.854
	c0,0.601-0.092,1.146-0.276,1.638s-0.439,0.928-0.768,1.304l1.02,1.128l-1.092,0.937l-1.043-1.151
	c-0.336,0.186-0.69,0.325-1.062,0.428c-0.372,0.1-0.758,0.147-1.158,0.147c-0.576,0-1.128-0.102-1.656-0.306
	c-0.528-0.204-0.992-0.498-1.392-0.882c-0.4-0.385-0.72-0.849-0.96-1.394C0.859,28.846,0.74,28.232,0.74,27.543z M2.456,27.531
	c0,0.479,0.076,0.896,0.228,1.254c0.152,0.354,0.354,0.649,0.606,0.882c0.252,0.231,0.536,0.406,0.852,0.521
	c0.316,0.114,0.638,0.174,0.966,0.174c0.393,0,0.756-0.071,1.092-0.216l-1.332-1.466l1.104-0.946l1.332,1.486
	c0.144-0.216,0.258-0.464,0.342-0.742c0.084-0.279,0.126-0.598,0.126-0.947c0-0.48-0.076-0.898-0.229-1.255
	c-0.151-0.355-0.354-0.649-0.605-0.883c-0.252-0.23-0.538-0.404-0.857-0.521c-0.32-0.116-0.645-0.174-0.973-0.174
	s-0.65,0.058-0.966,0.174s-0.6,0.29-0.852,0.521c-0.252,0.231-0.454,0.525-0.606,0.883C2.532,26.632,2.456,27.05,2.456,27.531z"/>
<path fill="#212121" d="M14.636,31.791c-0.016-0.062-0.027-0.156-0.035-0.276c-0.008-0.119-0.012-0.238-0.012-0.357
	c-0.16,0.279-0.395,0.479-0.703,0.604c-0.308,0.124-0.617,0.188-0.93,0.188c-0.359,0-0.678-0.062-0.953-0.188
	c-0.276-0.124-0.511-0.29-0.703-0.498c-0.191-0.208-0.338-0.453-0.438-0.736c-0.1-0.283-0.15-0.586-0.15-0.905v-3.732h1.597v3.408
	c0,0.336,0.085,0.618,0.258,0.847c0.172,0.229,0.446,0.343,0.821,0.343c0.361,0,0.637-0.107,0.828-0.323
	c0.192-0.216,0.289-0.496,0.289-0.84v-3.435h1.596v4.837c0,0.231,0.006,0.441,0.018,0.63c0.012,0.188,0.025,0.335,0.043,0.438
	L14.636,31.791L14.636,31.791z"/>
<path fill="#212121" d="M17.611,23.955c0-0.28,0.096-0.517,0.289-0.708c0.191-0.192,0.424-0.288,0.695-0.288
	c0.279,0,0.514,0.096,0.702,0.288c0.188,0.191,0.282,0.428,0.282,0.708c0,0.264-0.095,0.492-0.282,0.684
	c-0.188,0.192-0.423,0.288-0.702,0.288c-0.271,0-0.504-0.096-0.695-0.288C17.708,24.448,17.611,24.218,17.611,23.955z
	 M17.805,31.791v-5.904h1.597v5.904H17.805z"/>
<path fill="#212121" d="M23.756,27.182c-0.209,0-0.402,0.036-0.582,0.108c-0.18,0.071-0.338,0.178-0.475,0.317
	c-0.137,0.141-0.244,0.312-0.324,0.521s-0.119,0.444-0.119,0.708c0,0.265,0.039,0.5,0.119,0.708s0.189,0.384,0.33,0.528
	c0.141,0.144,0.301,0.252,0.48,0.323c0.18,0.07,0.373,0.106,0.582,0.106c0.199,0,0.377-0.029,0.533-0.09
	c0.156-0.061,0.291-0.139,0.402-0.234c0.111-0.096,0.203-0.202,0.27-0.322c0.068-0.12,0.119-0.235,0.15-0.35l1.404,0.47
	c-0.064,0.248-0.17,0.488-0.318,0.727c-0.148,0.237-0.338,0.447-0.57,0.636c-0.23,0.188-0.504,0.34-0.814,0.456
	c-0.312,0.116-0.664,0.174-1.057,0.174c-0.432,0-0.838-0.077-1.219-0.232c-0.379-0.155-0.709-0.374-0.99-0.653
	c-0.279-0.28-0.499-0.61-0.659-0.99s-0.239-0.798-0.239-1.254s0.077-0.876,0.233-1.26c0.155-0.385,0.372-0.714,0.647-0.99
	c0.277-0.274,0.6-0.492,0.973-0.646c0.371-0.155,0.773-0.233,1.205-0.233c0.4,0,0.758,0.06,1.074,0.174
	c0.316,0.116,0.59,0.268,0.822,0.45c0.232,0.186,0.42,0.396,0.564,0.636c0.144,0.24,0.248,0.484,0.312,0.732l-1.43,0.479
	c-0.07-0.248-0.209-0.476-0.412-0.684C24.445,27.287,24.146,27.182,23.756,27.182z"/>
<path fill="#212121" d="M30.77,28.371l2.412,3.42h-1.955l-1.562-2.256l-0.66,0.695v1.561H27.41v-8.688h1.596v4.979l2.042-2.196
	h2.088L30.77,28.371z"/>
<g>
	<path fill="#212121" d="M37.029,28.514h-0.865v3.276h-1.668v-8.508h3.324c0.416,0,0.791,0.067,1.123,0.203
		c0.332,0.137,0.615,0.318,0.852,0.553c0.238,0.232,0.418,0.508,0.547,0.828c0.128,0.319,0.191,0.664,0.191,1.031
		c0,0.601-0.162,1.11-0.486,1.535c-0.323,0.425-0.766,0.717-1.325,0.876l1.823,3.479h-1.848L37.029,28.514z M37.509,27.087
		c0.424,0,0.752-0.106,0.98-0.324c0.231-0.216,0.35-0.5,0.35-0.852c0-0.36-0.115-0.648-0.35-0.864
		c-0.229-0.216-0.56-0.324-0.98-0.324h-1.348v2.364H37.509z"/>
	<path fill="#212121" d="M47,30.098c-0.069,0.258-0.188,0.498-0.342,0.729c-0.154,0.228-0.348,0.426-0.568,0.594
		c-0.226,0.168-0.485,0.302-0.786,0.402c-0.3,0.1-0.63,0.147-0.99,0.147c-0.408,0-0.795-0.068-1.164-0.21
		c-0.366-0.14-0.69-0.346-0.971-0.617c-0.281-0.271-0.503-0.604-0.666-0.995c-0.164-0.394-0.246-0.836-0.246-1.332
		c0-0.474,0.08-0.899,0.239-1.283c0.158-0.385,0.373-0.71,0.642-0.979c0.269-0.268,0.578-0.476,0.931-0.624
		c0.354-0.146,0.717-0.222,1.092-0.222c0.92,0,1.637,0.271,2.147,0.815s0.769,1.292,0.769,2.242c0,0.112-0.004,0.22-0.013,0.318
		c-0.008,0.102-0.012,0.158-0.012,0.174h-4.224c0.009,0.192,0.054,0.37,0.138,0.534s0.19,0.306,0.323,0.426
		c0.134,0.12,0.285,0.215,0.464,0.282c0.176,0.067,0.362,0.103,0.562,0.103c0.377,0,0.67-0.084,0.883-0.252
		c0.211-0.169,0.365-0.385,0.461-0.646L47,30.098z M45.513,28.167c-0.012-0.145-0.039-0.286-0.092-0.426
		c-0.053-0.141-0.133-0.266-0.238-0.372c-0.109-0.108-0.244-0.196-0.408-0.265c-0.164-0.067-0.359-0.104-0.582-0.104
		c-0.209,0-0.393,0.036-0.553,0.107c-0.16,0.07-0.295,0.164-0.408,0.274c-0.111,0.112-0.197,0.236-0.258,0.372
		c-0.062,0.138-0.096,0.271-0.104,0.408h2.643V28.167z"/>
	<path fill="#212121" d="M49.941,31.791h-1.598v-5.904h1.549v0.732c0.184-0.305,0.434-0.528,0.75-0.672
		c0.314-0.146,0.635-0.217,0.953-0.217c0.367,0,0.688,0.062,0.955,0.187c0.266,0.124,0.488,0.29,0.664,0.498
		c0.178,0.208,0.309,0.456,0.393,0.744s0.125,0.592,0.125,0.911v3.721h-1.596v-3.444c0-0.336-0.086-0.614-0.26-0.84
		c-0.172-0.224-0.449-0.336-0.834-0.336c-0.353,0-0.625,0.118-0.814,0.354c-0.191,0.234-0.287,0.524-0.287,0.869V31.791z"/>
	<path fill="#212121" d="M57.32,25.886h1.188v1.416H57.32v2.474c0,0.257,0.059,0.435,0.174,0.533
		c0.117,0.102,0.291,0.149,0.521,0.149c0.098,0,0.191-0.004,0.289-0.013c0.096-0.008,0.164-0.021,0.201-0.035v1.319
		c-0.07,0.03-0.182,0.062-0.328,0.097c-0.146,0.031-0.34,0.048-0.568,0.048c-0.576,0-1.033-0.16-1.369-0.479
		c-0.336-0.318-0.504-0.769-0.504-1.345v-2.748h-1.068v-1.416h0.302c0.312,0,0.54-0.09,0.688-0.27
		c0.146-0.181,0.223-0.402,0.223-0.666v-0.828h1.438v1.764H57.32z"/>
</g>
</svg>
