<?xml version="1.0" encoding="UTF-8" standalone="no"?>
<svg width="476px" height="250px" viewBox="0 0 476 250" version="1.1" xmlns="http://www.w3.org/2000/svg" xmlns:xlink="http://www.w3.org/1999/xlink">
    <!-- Generator: Sketch 40.3 (33839) - http://www.bohemiancoding.com/sketch -->
    <title>sample</title>
    <desc>Created with Sketch.</desc>
    <defs></defs>
    <g id="Page-1" stroke="none" stroke-width="1" fill="none" fill-rule="evenodd">
        <g id="sample">
            <rect id="Rectangle-path" fill="#FFFFFF" x="0" y="0" width="476" height="250"></rect>
            <rect id="Rectangle-path" fill="#DADADA" x="0" y="0" width="271.553" height="250"></rect>
            <rect id="Rectangle-path" fill="#000000" x="285" y="86" width="119.128" height="26.673"></rect>
            <g id="Group" transform="translate(292.217800, 89.129900)" font-family="Helvetica" fill="#FFFFFF" font-weight="normal">
                <text id="ONLY" font-size="13.5309">
                    <tspan x="0" y="16">ONLY</tspan>
                </text>
                <text id="£9,999" font-size="17.0199">
                    <tspan x="43.785" y="16">£9,999</tspan>
                </text>
            </g>
            <path d="M138.309,165.961 C139.083,165.961 139.751,165.333 139.751,164.557 L139.751,150.178 C139.751,149.433 139.114,148.784 138.309,148.784 C137.535,148.784 136.867,149.412 136.867,150.178 L136.867,164.557 C136.867,165.312 137.513,165.961 138.309,165.961 L138.309,165.961 Z" id="Shape" fill="#000000"></path>
            <path d="M132.125,165.961 C132.891,165.961 133.568,165.333 133.568,164.557 L133.568,150.178 C133.568,149.433 132.92,148.784 132.125,148.784 C131.35,148.784 130.674,149.412 130.674,150.178 L130.674,164.557 C130.674,165.312 131.32,165.961 132.125,165.961 L132.125,165.961 Z" id="Shape" fill="#000000"></path>
            <path d="M125.941,165.961 C126.708,165.961 127.375,165.333 127.375,164.557 L127.375,150.178 C127.375,149.433 126.727,148.784 125.941,148.784 C125.155,148.784 124.488,149.412 124.488,150.178 L124.488,164.557 C124.488,165.312 125.138,165.961 125.941,165.961 L125.941,165.961 Z" id="Shape" fill="#000000"></path>
            <path d="M119.748,165.961 C120.523,165.961 121.191,165.333 121.191,164.557 L121.191,150.178 C121.191,149.433 120.544,148.784 119.748,148.784 C118.974,148.784 118.307,149.412 118.307,150.178 L118.307,164.557 C118.307,165.312 118.953,165.961 119.748,165.961 L119.748,165.961 Z" id="Shape" fill="#000000"></path>
            <path d="M113.555,165.961 C114.34,165.961 115.008,165.333 115.008,164.557 L115.008,150.178 C115.008,149.433 114.36,148.784 113.555,148.784 C112.789,148.784 112.121,149.412 112.121,150.178 L112.121,164.557 C112.121,165.312 112.77,165.961 113.555,165.961 L113.555,165.961 Z" id="Shape" fill="#000000"></path>
            <path d="M156.87,165.961 C157.645,165.961 158.312,165.333 158.312,164.557 L158.312,150.178 C158.312,149.433 157.666,148.784 156.87,148.784 C156.096,148.784 155.428,149.412 155.428,150.178 L155.428,164.557 C155.427,165.312 156.075,165.961 156.87,165.961 L156.87,165.961 Z" id="Shape" fill="#000000"></path>
            <path d="M144.494,165.961 C145.279,165.961 145.947,165.333 145.947,164.557 L145.947,150.178 C145.947,149.433 145.298,148.784 144.494,148.784 C143.728,148.784 143.06,149.412 143.06,150.178 L143.06,164.557 C143.06,165.312 143.698,165.961 144.494,165.961 L144.494,165.961 Z" id="Shape" fill="#000000"></path>
            <path d="M150.687,165.961 C151.461,165.961 152.129,165.333 152.129,164.557 L152.129,150.178 C152.129,149.433 151.481,148.784 150.687,148.784 C149.911,148.784 149.243,149.412 149.243,150.178 L149.243,164.557 C149.243,165.312 149.891,165.961 150.687,165.961 L150.687,165.961 Z" id="Shape" fill="#000000"></path>
            <path d="M104.643,163.251 C105.584,167.943 110.217,171.692 114.987,171.692 L155.447,171.692 C160.218,171.692 164.85,167.914 165.793,163.251 L168.169,151.492 C169.111,146.792 165.999,143.051 161.229,143.051 L109.206,143.051 C104.446,143.051 101.325,146.822 102.268,151.492 L104.643,163.251 L104.643,163.251 Z M109.256,146.046 L160.972,146.046 C163.917,146.046 165.635,148.156 165.057,151.07 L162.691,162.86 C162.034,166.187 158.597,169.004 155.23,169.004 L115.008,169.004 C111.612,169.004 108.205,166.216 107.528,162.86 L105.173,151.07 C104.593,148.175 106.331,146.046 109.256,146.046 L109.256,146.046 Z" id="Shape" fill="#000000"></path>
            <path d="M96.318,90.126 C92.43,90.637 88.523,93.679 84.637,98.392 C83.185,100.158 81.849,102.033 80.633,103.908 C80.2,104.565 79.827,105.174 79.503,105.723 C79.298,106.057 79.159,106.302 79.091,106.43 C79.091,106.43 78.551,107.617 79.691,108.246 C80.83,108.892 81.615,107.813 81.615,107.813 C81.869,107.351 82.371,106.518 83.067,105.458 C84.215,103.661 85.501,101.875 86.876,100.216 C90.331,96.015 93.747,93.365 96.69,92.972 C96.947,92.934 97.192,92.912 97.437,92.912 C97.437,92.912 98.673,92.757 98.673,91.44 C98.673,90.126 97.437,90.046 97.437,90.046 C97.064,90.047 96.69,90.076 96.318,90.126 L96.318,90.126 Z" id="Shape" fill="#000000"></path>
            <path d="M39.938,185.14 L39.938,184.699 C39.937,184.978 39.938,185.14 39.938,185.14 L39.938,185.14 Z" id="Shape" fill="#000000"></path>
            <path d="M39.938,183.393 L39.938,184.699 C39.938,184.377 39.941,183.891 39.949,183.24 C39.947,183.291 39.938,183.34 39.938,183.393 L39.938,183.393 Z" id="Shape" fill="#000000"></path>
            <g id="Group" transform="translate(39.000000, 82.000000)" fill="#000000">
                <path d="M191.301,99.312 C191.113,90.979 190.211,70.867 185.725,57.468 C182.133,46.7 180.474,43.442 179.738,42.51 C180.052,41.212 179.954,39.829 181.879,39.495 C186.118,38.749 191.733,39.26 190.733,33.636 C189.732,28.011 184.834,24.536 178.267,25.675 C174.595,26.323 171.494,27.883 169.589,29.699 L168.666,30.72 C168.294,31.201 168.019,31.693 167.832,32.182 L166.939,30.946 L165.957,29.572 L150.331,7.87 C147.554,4.022 141.398,0.891 136.647,0.891 L96.217,0.891 L96.217,3.757 L136.647,3.757 C140.476,3.757 145.756,6.436 147.984,9.538 L165.487,33.841 L166.585,35.373 C157.556,35.884 117.184,38.13 94.795,38.13 C72.376,38.13 34.114,35.884 25.691,35.373 L26.791,33.841 L44.294,9.538 C46.522,6.435 51.802,3.757 55.629,3.757 L96.062,3.757 L96.062,0.891 L55.629,0.891 C50.88,0.891 44.716,4.022 41.947,7.87 L26.32,29.573 L25.339,30.947 L24.436,32.183 C24.26,31.694 23.976,31.203 23.614,30.721 L22.69,29.7 C20.786,27.884 17.674,26.324 14.002,25.676 C7.436,24.537 2.547,28.012 1.546,33.637 C0.545,39.261 6.158,38.75 10.4,39.496 C12.325,39.83 12.226,41.213 12.542,42.511 C11.805,43.443 10.146,46.701 6.554,57.469 C1.675,72.06 1.033,94.604 0.95,101.24 C0.98,99.515 1.497,97.919 2.392,96.575 L2.255,102.985 L3.804,108.854 L26.774,122.251 L29.64,122.595 L29.64,123.79 C32.24,123.966 35.122,124.066 38.316,124.066 C38.316,124.066 75.283,127.179 95.011,126.953 L95.011,126.973 L97.524,126.973 L97.524,126.953 C117.173,127.209 153.963,124.066 153.963,124.066 C157.152,124.066 160.028,123.969 162.63,123.793 L162.63,129.771 C162.63,134.531 166.526,138.398 171.298,138.398 L182.841,138.398 C187.621,138.398 191.499,134.562 191.499,129.771 L191.499,101.179 C191.499,100.538 191.429,99.912 191.301,99.312 L191.301,99.312 Z M149.634,65.351 C156.014,65.351 161.187,70.475 161.187,76.796 C161.187,83.137 156.014,88.261 149.634,88.261 C143.253,88.261 138.08,83.137 138.08,76.796 C138.081,70.475 143.253,65.351 149.634,65.351 L149.634,65.351 Z M70.205,61.051 L122.228,61.051 C126.999,61.051 130.111,64.792 129.168,69.492 L126.792,81.251 C125.85,85.914 121.218,89.692 116.446,89.692 L75.986,89.692 C71.216,89.692 66.584,85.943 65.642,81.251 L63.266,69.492 C62.324,64.821 65.445,61.051 70.205,61.051 L70.205,61.051 Z M45.688,65.351 C52.067,65.351 57.24,70.475 57.24,76.796 C57.24,83.137 52.067,88.261 45.688,88.261 C39.307,88.261 34.135,83.137 34.135,76.796 C34.135,70.475 39.307,65.351 45.688,65.351 L45.688,65.351 Z M22.59,65.351 C27.371,65.351 31.248,69.199 31.248,73.939 C31.248,78.681 27.371,82.528 22.59,82.528 C17.801,82.528 13.924,78.681 13.924,73.939 C13.924,69.198 17.801,65.351 22.59,65.351 L22.59,65.351 Z M175.654,112.583 C175.654,112.583 127.98,115.99 96.217,115.782 C64.455,115.587 19.705,112.563 19.705,112.563 C15.719,112.309 14.816,109.874 17.684,107.125 L18.832,106.035 C21.707,103.287 27.234,101.333 31.219,101.647 C31.219,101.647 65.652,104.74 96.217,104.74 C126.773,104.74 164.131,101.608 164.131,101.608 C168.078,101.314 173.633,103.297 176.49,106.035 L177.638,107.125 C180.503,109.874 179.64,112.328 175.654,112.583 L175.654,112.583 Z M172.73,82.527 C167.949,82.527 164.072,78.68 164.072,73.938 C164.072,69.198 167.949,65.35 172.73,65.35 C177.52,65.35 181.398,69.198 181.398,73.938 C181.398,78.681 177.52,82.527 172.73,82.527 L172.73,82.527 Z" id="Shape"></path>
                <path d="M7.013,117.55 C3.569,114.34 0.82,107.893 0.938,103.14 L0.938,130.036 C0.938,134.846 4.786,138.683 9.545,138.683 L21.02,138.683 C25.772,138.683 29.639,134.807 29.639,130.036 L29.639,123.791 C11.257,122.551 7.013,117.55 7.013,117.55 L7.013,117.55 Z" id="Shape"></path>
            </g>
            <path d="M65.772,204.251 L42.802,190.854 L41.253,184.985 L41.39,178.575 C40.494,179.919 39.978,181.515 39.948,183.24 C39.94,183.891 39.937,184.377 39.937,184.699 L39.937,185.14 C39.819,189.893 42.568,196.34 46.012,199.55 C46.012,199.55 50.256,204.551 68.638,205.79 L68.638,204.595 L65.772,204.251 L65.772,204.251 Z" id="Shape" fill="#000000"></path>
        </g>
        <path d="M292.827203,30.6250453 C293.755859,30.6250453 294.478136,30.4960673 294.994055,30.2381073 C295.804787,29.8327417 296.210146,29.1030945 296.210146,28.0491438 C296.210146,26.9878229 295.778991,26.2729161 294.916668,25.9044019 C294.430229,25.6980339 293.707952,25.5948515 292.749815,25.5948515 L288.825158,25.5948515 L288.825158,30.6250453 L292.827203,30.6250453 Z M293.567913,38.1205869 C294.916675,38.1205869 295.878482,37.7299677 296.453364,36.9487176 C296.814508,36.4549085 296.995078,35.8579245 296.995078,35.1577475 C296.995078,33.978502 296.46811,33.175153 295.41416,32.7476766 C294.854018,32.5191978 294.113316,32.4049601 293.19203,32.4049601 L288.825158,32.4049601 L288.825158,38.1205869 L293.567913,38.1205869 Z M286.669361,23.7596599 L293.6453,23.7596599 C295.546834,23.7596599 296.89926,24.3271632 297.702621,25.462187 C298.17432,26.1328829 298.410165,26.9067511 298.410165,27.7838149 C298.410165,28.8082845 298.119043,29.6484843 297.536791,30.3044396 C297.234609,30.6508429 296.799769,30.9677604 296.232257,31.2552015 C297.065099,31.5721237 297.687879,31.9295771 298.100615,32.3275725 C298.830273,33.0351197 299.195096,34.0116678 299.195096,35.2572458 C299.195096,36.3038262 298.867124,37.2508935 298.211168,38.0984762 C297.230921,39.3661651 295.672129,40 293.534746,40 L286.669361,40 L286.669361,23.7596599 Z M308.934878,28.485831 C309.723499,28.8801412 310.324168,29.3905257 310.736904,30.0169999 C311.134899,30.6139929 311.400226,31.3104743 311.532891,32.106465 C311.650815,32.6518661 311.709777,33.5215466 311.709777,34.7155326 L303.03131,34.7155326 C303.068162,35.9168889 303.351913,36.8805392 303.882574,37.6065122 C304.413234,38.3324852 305.235009,38.6954662 306.347922,38.6954662 C307.387132,38.6954662 308.216276,38.3527531 308.83538,37.6673167 C309.189154,37.2693213 309.43974,36.8086855 309.587145,36.2853953 L311.543946,36.2853953 C311.492354,36.7202421 311.320997,37.204831 311.029871,37.7391766 C310.738745,38.2735222 310.412615,38.710205 310.051471,39.0492381 C309.447108,39.6388608 308.699035,40.0368502 307.807231,40.2432182 C307.328162,40.3611427 306.786454,40.4201041 306.182091,40.4201041 C304.708034,40.4201041 303.45879,39.883924 302.43432,38.8115476 C301.409851,37.7391712 300.897624,36.2374984 300.897624,34.3064839 C300.897624,32.4049506 301.413536,30.8608992 302.445376,29.6742834 C303.477215,28.4876676 304.825957,27.8943687 306.491641,27.8943687 C307.331854,27.8943687 308.146258,28.0915208 308.934878,28.485831 L308.934878,28.485831 Z M309.664533,33.1346146 C309.58346,32.2722913 309.39552,31.5831801 309.100709,31.0672602 C308.555308,30.1091232 307.645091,29.6300619 306.370032,29.6300619 C305.456117,29.6300619 304.689619,29.9598772 304.070515,30.6195176 C303.451411,31.2791581 303.123439,32.1175153 303.086587,33.1346146 L309.664533,33.1346146 Z M315.335938,36.2853953 C315.394901,36.9487209 315.560729,37.4572629 315.83343,37.8110365 C316.334609,38.4522513 317.20429,38.7728538 318.442498,38.7728538 C319.179526,38.7728538 319.828101,38.6125525 320.388243,38.2919452 C320.948384,37.9713378 321.228451,37.4756936 321.228451,36.8049978 C321.228451,36.2964481 321.003661,35.909514 320.554073,35.6441838 C320.266632,35.4820375 319.699129,35.2940981 318.851546,35.0803599 L317.270628,34.6823665 C316.260899,34.4317768 315.516512,34.1517102 315.037443,33.8421583 C314.18249,33.3041276 313.75502,32.55974 313.75502,31.6089733 C313.75502,30.4886901 314.158537,29.5821588 314.965583,28.8893521 C315.772629,28.1965453 316.857888,27.8501472 318.22139,27.8501472 C320.004999,27.8501472 321.291094,28.3734295 322.079715,29.4200099 C322.573524,30.0833354 322.813054,30.7982423 322.798314,31.5647519 L320.918901,31.5647519 C320.882049,31.1151645 320.723591,30.7061199 320.44352,30.3376057 C319.986562,29.8143155 319.194268,29.5526743 318.066615,29.5526743 C317.314846,29.5526743 316.7455,29.6963927 316.35856,29.9838338 C315.97162,30.2712749 315.778153,30.6508388 315.778153,31.122537 C315.778153,31.6384569 316.032424,32.0511866 316.540974,32.3607386 C316.835785,32.5449957 317.270625,32.7071395 317.845508,32.8471749 L319.161097,33.1677807 C320.590932,33.514184 321.549054,33.8495269 322.035493,34.1738194 C322.809373,34.682369 323.196307,35.4820329 323.196307,36.572835 C323.196307,37.6267856 322.796475,38.5370021 321.996799,39.3035116 C321.197124,40.0700212 319.979202,40.4532702 318.342999,40.4532702 C316.581501,40.4532702 315.334099,40.0534383 314.600756,39.2537625 C313.867413,38.4540866 313.474951,37.4646408 313.423359,36.2853953 L315.335938,36.2853953 Z M325.871707,24.8541416 L327.883784,24.8541416 L327.883784,28.1596976 L329.774253,28.1596976 L329.774253,29.7848371 L327.883784,29.7848371 L327.883784,37.5125415 C327.883784,37.9252774 328.023818,38.2016589 328.303889,38.3416943 C328.458665,38.4227675 328.716621,38.4633034 329.077765,38.4633034 C329.173578,38.4633034 329.276761,38.4614609 329.387315,38.4577757 C329.497869,38.4540906 329.626847,38.4448779 329.774253,38.4301373 L329.774253,40 C329.545774,40.0663326 329.308086,40.1142387 329.061181,40.1437198 C328.814277,40.173201 328.547108,40.1879413 328.259667,40.1879413 C327.331011,40.1879413 326.700861,39.9502532 326.369199,39.4748699 C326.037536,38.9994865 325.871707,38.3822345 325.871707,37.6230952 L325.871707,29.7848371 L324.268678,29.7848371 L324.268678,28.1596976 L325.871707,28.1596976 L325.871707,24.8541416 Z M338.054726,28.2149744 L340.077859,28.2149744 L340.077859,40 L338.054726,40 L338.054726,28.2149744 Z M338.054726,23.7596599 L340.077859,23.7596599 L340.077859,26.0149556 L338.054726,26.0149556 L338.054726,23.7596599 Z M343.08492,28.1596976 L344.975388,28.1596976 L344.975388,29.840114 C345.53553,29.1473072 346.128829,28.6498205 346.755303,28.3476389 C347.381777,28.0454572 348.078259,27.8943687 348.844768,27.8943687 C350.525193,27.8943687 351.6602,28.4802975 352.249822,29.6521727 C352.574115,30.2933874 352.736259,31.210974 352.736259,32.4049601 L352.736259,40 L350.713126,40 L350.713126,32.5376245 C350.713126,31.8153367 350.606258,31.2330929 350.39252,30.7908759 C350.038746,30.0538475 349.397541,29.6853388 348.468885,29.6853388 C347.997187,29.6853388 347.610253,29.7332449 347.308071,29.8290586 C346.76267,29.9912048 346.283609,30.3154925 345.870873,30.8019312 C345.53921,31.1925563 345.323633,31.5960733 345.224134,32.0124944 C345.124635,32.4289154 345.074887,33.024057 345.074887,33.7979368 L345.074887,40 L343.08492,40 L343.08492,28.1596976 Z M369.789169,28.7898537 C370.625696,29.4384387 371.12871,30.55502 371.298227,32.1396312 L369.363537,32.1396312 C369.245612,31.409973 368.976601,30.8037762 368.556495,30.3210226 C368.136389,29.838269 367.462018,29.5968958 366.533362,29.5968958 C365.265673,29.5968958 364.359142,30.2159904 363.813741,31.4541981 C363.459967,32.2575591 363.283083,33.2488475 363.283083,34.428093 C363.283083,35.6147087 363.533669,36.6133673 364.034848,37.4240985 C364.536027,38.2348298 365.324636,38.6401894 366.400697,38.6401894 C367.226169,38.6401894 367.880272,38.3877609 368.363026,37.8828964 C368.845779,37.378032 369.17928,36.6870782 369.363537,35.8100144 L371.298227,35.8100144 C371.077118,37.3798849 370.524355,38.5277895 369.639921,39.2537625 C368.755487,39.9797354 367.624165,40.3427165 366.245922,40.3427165 C364.698162,40.3427165 363.463658,39.7770557 362.542373,38.645717 C361.621087,37.5143784 361.160451,36.1011476 361.160451,34.4059822 C361.160451,32.3275621 361.665308,30.7098089 362.675037,29.5526743 C363.684766,28.3955397 364.970862,27.8169811 366.533362,27.8169811 C367.867383,27.8169811 368.952641,28.1412687 369.789169,28.7898537 L369.789169,28.7898537 Z M373.34347,23.7596599 L375.333437,23.7596599 L375.333437,40 L373.34347,40 L373.34347,23.7596599 Z M380.474185,38.2090299 C380.894291,38.5406927 381.391778,38.7065216 381.96666,38.7065216 C382.666837,38.7065216 383.344893,38.5443778 384.000848,38.2200853 C385.106391,37.6820545 385.659154,36.8013187 385.659154,35.5778516 L385.659154,33.9748228 C385.415934,34.1295987 385.102702,34.2585768 384.719447,34.3617607 C384.336192,34.4649447 383.960314,34.5386465 383.591799,34.5828682 L382.386764,34.7376434 C381.664476,34.8334571 381.122768,34.9845456 380.761624,35.1909136 C380.149891,35.5373169 379.844029,36.09008 379.844029,36.8492192 C379.844029,37.4241014 380.054079,37.8773671 380.474185,38.2090299 L380.474185,38.2090299 Z M384.66417,32.8250642 C385.121128,32.7661019 385.42699,32.5744774 385.581766,32.2501849 C385.67021,32.073298 385.714431,31.819027 385.714431,31.4873643 C385.714431,30.8092981 385.473057,30.317339 384.990304,30.0114722 C384.50755,29.7056054 383.816596,29.5526743 382.917422,29.5526743 C381.878212,29.5526743 381.141194,29.8327409 380.706348,30.3928825 C380.463128,30.7024345 380.304669,31.1630703 380.230967,31.7748039 L378.373664,31.7748039 C378.410516,30.3154876 378.884049,29.3002462 379.794279,28.7290492 C380.70451,28.1578521 381.760287,27.8722579 382.961643,27.8722579 C384.354627,27.8722579 385.485949,28.1375842 386.355642,28.6682446 C387.217965,29.1989051 387.649121,30.0243645 387.649121,31.1446478 L387.649121,37.9658117 C387.649121,38.1721797 387.691499,38.3380086 387.776257,38.4633034 C387.861016,38.5885983 388.039742,38.6512447 388.312443,38.6512447 C388.400886,38.6512447 388.500384,38.6457171 388.610938,38.6346617 C388.721492,38.6236062 388.839415,38.6070234 388.96471,38.5849125 L388.96471,40.0552769 C388.655158,40.1437203 388.419312,40.1989966 388.257166,40.2211074 C388.09502,40.2432183 387.873915,40.2542735 387.593844,40.2542735 C386.908407,40.2542735 386.410921,40.0110578 386.101369,39.524619 C385.939222,39.2666591 385.824985,38.9018355 385.758652,38.4301373 C385.353287,38.9607978 384.771043,39.4214336 384.011904,39.8120587 C383.252764,40.2026838 382.41625,40.3979934 381.502334,40.3979934 C380.404162,40.3979934 379.506843,40.064493 378.810351,39.3974823 C378.11386,38.7304716 377.765619,37.8957994 377.765619,36.8934407 C377.765619,35.7952684 378.108332,34.9440133 378.793768,34.33965 C379.479205,33.7352867 380.378366,33.3630929 381.491279,33.2230575 L384.66417,32.8250642 Z M392.09338,36.2853953 C392.152342,36.9487209 392.318171,37.4572629 392.590871,37.8110365 C393.092051,38.4522513 393.961731,38.7728538 395.199939,38.7728538 C395.936967,38.7728538 396.585543,38.6125525 397.145684,38.2919452 C397.705826,37.9713378 397.985893,37.4756936 397.985893,36.8049978 C397.985893,36.2964481 397.761102,35.909514 397.311515,35.6441838 C397.024074,35.4820375 396.45657,35.2940981 395.608988,35.0803599 L394.02807,34.6823665 C393.018341,34.4317768 392.273953,34.1517102 391.794885,33.8421583 C390.939932,33.3041276 390.512462,32.55974 390.512462,31.6089733 C390.512462,30.4886901 390.915979,29.5821588 391.723025,28.8893521 C392.530071,28.1965453 393.615329,27.8501472 394.978832,27.8501472 C396.76244,27.8501472 398.048536,28.3734295 398.837156,29.4200099 C399.330965,30.0833354 399.570496,30.7982423 399.555755,31.5647519 L397.676342,31.5647519 C397.639491,31.1151645 397.481032,30.7061199 397.200961,30.3376057 C396.744004,29.8143155 395.95171,29.5526743 394.824056,29.5526743 C394.072287,29.5526743 393.502942,29.6963927 393.116002,29.9838338 C392.729062,30.2712749 392.535595,30.6508388 392.535595,31.122537 C392.535595,31.6384569 392.789866,32.0511866 393.298415,32.3607386 C393.593227,32.5449957 394.028067,32.7071395 394.602949,32.8471749 L395.918538,33.1677807 C397.348373,33.514184 398.306496,33.8495269 398.792935,34.1738194 C399.566815,34.682369 399.953749,35.4820329 399.953749,36.572835 C399.953749,37.6267856 399.553917,38.5370021 398.754241,39.3035116 C397.954565,40.0700212 396.736644,40.4532702 395.100441,40.4532702 C393.338943,40.4532702 392.091541,40.0534383 391.358198,39.2537625 C390.624854,38.4540866 390.232393,37.4646408 390.180801,36.2853953 L392.09338,36.2853953 Z M403.41408,36.2853953 C403.473042,36.9487209 403.638871,37.4572629 403.911571,37.8110365 C404.412751,38.4522513 405.282431,38.7728538 406.520639,38.7728538 C407.257667,38.7728538 407.906243,38.6125525 408.466384,38.2919452 C409.026526,37.9713378 409.306593,37.4756936 409.306593,36.8049978 C409.306593,36.2964481 409.081802,35.909514 408.632215,35.6441838 C408.344774,35.4820375 407.77727,35.2940981 406.929688,35.0803599 L405.34877,34.6823665 C404.339041,34.4317768 403.594653,34.1517102 403.115585,33.8421583 C402.260632,33.3041276 401.833162,32.55974 401.833162,31.6089733 C401.833162,30.4886901 402.236679,29.5821588 403.043725,28.8893521 C403.850771,28.1965453 404.936029,27.8501472 406.299532,27.8501472 C408.08314,27.8501472 409.369236,28.3734295 410.157856,29.4200099 C410.651665,30.0833354 410.891196,30.7982423 410.876455,31.5647519 L408.997042,31.5647519 C408.960191,31.1151645 408.801732,30.7061199 408.521661,30.3376057 C408.064704,29.8143155 407.27241,29.5526743 406.144756,29.5526743 C405.392987,29.5526743 404.823642,29.6963927 404.436702,29.9838338 C404.049762,30.2712749 403.856295,30.6508388 403.856295,31.122537 C403.856295,31.6384569 404.110566,32.0511866 404.619115,32.3607386 C404.913927,32.5449957 405.348767,32.7071395 405.923649,32.8471749 L407.239238,33.1677807 C408.669073,33.514184 409.627196,33.8495269 410.113635,34.1738194 C410.887515,34.682369 411.274449,35.4820329 411.274449,36.572835 C411.274449,37.6267856 410.874617,38.5370021 410.074941,39.3035116 C409.275265,40.0700212 408.057344,40.4532702 406.421141,40.4532702 C404.659643,40.4532702 403.412241,40.0534383 402.678898,39.2537625 C401.945554,38.4540866 401.553093,37.4646408 401.501501,36.2853953 L403.41408,36.2853953 Z M287.38796,50.5445912 C287.852288,49.8665251 288.747764,49.5274971 290.074415,49.5274971 C290.19971,49.5274971 290.328688,49.5311822 290.461353,49.5385524 C290.594018,49.5459227 290.745107,49.556978 290.914624,49.5717186 L290.914624,51.3847994 C290.708256,51.3700588 290.55901,51.3608461 290.466881,51.357161 C290.374752,51.3534758 290.288153,51.3516333 290.20708,51.3516333 C289.602716,51.3516333 289.241578,51.5082495 289.123653,51.8214866 C289.005729,52.1347237 288.946767,52.932545 288.946767,54.2149744 L290.914624,54.2149744 L290.914624,55.7848371 L288.924657,55.7848371 L288.924657,66 L286.956801,66 L286.956801,55.7848371 L285.30955,55.7848371 L285.30955,54.2149744 L286.956801,54.2149744 L286.956801,52.3576721 C286.986282,51.5322002 287.13,50.927846 287.38796,50.5445912 L287.38796,50.5445912 Z M300.162441,63.2195742 C300.652565,62.2209007 300.897624,61.109847 300.897624,59.8863798 C300.897624,58.7808371 300.720739,57.881676 300.366966,57.1888692 C299.806824,56.0980672 298.841331,55.5526743 297.470459,55.5526743 C296.254362,55.5526743 295.369941,56.0169953 294.81717,56.9456511 C294.264398,57.8743069 293.988017,58.9945733 293.988017,60.3064839 C293.988017,61.5668025 294.264398,62.6170522 294.81717,63.4572646 C295.369941,64.2974771 296.246992,64.717577 297.448348,64.717577 C298.767629,64.717577 299.672318,64.2182477 300.162441,63.2195742 L300.162441,63.2195742 Z M301.395115,55.3426223 C302.449066,56.3597215 302.976033,57.8558668 302.976033,59.8311029 C302.976033,61.7400065 302.511712,63.3172237 301.583057,64.5628018 C300.654401,65.8083798 299.213532,66.4311595 297.260407,66.4311595 C295.631574,66.4311595 294.338108,65.880239 293.379971,64.7783815 C292.421834,63.676524 291.942773,62.1969616 291.942773,60.33965 C291.942773,58.3496733 292.44763,56.7650859 293.457359,55.5858404 C294.467088,54.406595 295.8232,53.8169811 297.525735,53.8169811 C299.051384,53.8169811 300.341165,54.325523 301.395115,55.3426223 L301.395115,55.3426223 Z M305.39716,54.1596976 L307.287628,54.1596976 L307.287628,56.2049412 C307.442404,55.8069459 307.821968,55.3223569 308.426331,54.7511599 C309.030695,54.1799629 309.727176,53.8943687 310.515796,53.8943687 C310.552648,53.8943687 310.615294,53.8980537 310.703738,53.905424 C310.792181,53.9127943 310.94327,53.9275347 311.157008,53.9496455 L311.157008,56.050166 C311.039083,56.0280552 310.930373,56.0133148 310.830875,56.0059445 C310.731376,55.9985742 310.622666,55.9948892 310.504741,55.9948892 C309.502382,55.9948892 308.732199,56.3173343 308.194169,56.9622341 C307.656138,57.607134 307.387126,58.349679 307.387126,59.1898914 L307.387126,66 L305.39716,66 L305.39716,54.1596976 Z M326.546085,54.485831 C327.334705,54.8801412 327.935374,55.3905257 328.34811,56.0169999 C328.746105,56.6139929 329.011432,57.3104743 329.144097,58.106465 C329.262021,58.6518661 329.320983,59.5215466 329.320983,60.7155326 L320.642516,60.7155326 C320.679368,61.9168889 320.96312,62.8805392 321.49378,63.6065122 C322.02444,64.3324852 322.846215,64.6954662 323.959128,64.6954662 C324.998338,64.6954662 325.827482,64.3527531 326.446586,63.6673167 C326.80036,63.2693213 327.050946,62.8086855 327.198351,62.2853953 L329.155152,62.2853953 C329.10356,62.7202421 328.932204,63.204831 328.641077,63.7391766 C328.349951,64.2735222 328.023821,64.710205 327.662677,65.0492381 C327.058314,65.6388608 326.310241,66.0368502 325.418437,66.2432182 C324.939368,66.3611427 324.39766,66.4201041 323.793297,66.4201041 C322.31924,66.4201041 321.069996,65.883924 320.045526,64.8115476 C319.021057,63.7391712 318.50883,62.2374984 318.50883,60.3064839 C318.50883,58.4049506 319.024742,56.8608992 320.056582,55.6742834 C321.088422,54.4876676 322.437163,53.8943687 324.102848,53.8943687 C324.94306,53.8943687 325.757464,54.0915208 326.546085,54.485831 L326.546085,54.485831 Z M327.275739,59.1346146 C327.194666,58.2722913 327.006727,57.5831801 326.711915,57.0672602 C326.166514,56.1091232 325.256298,55.6300619 323.981238,55.6300619 C323.067323,55.6300619 322.300825,55.9598772 321.681721,56.6195176 C321.062617,57.2791581 320.734645,58.1175153 320.697793,59.1346146 L327.275739,59.1346146 Z M332.692871,50.5445912 C333.157199,49.8665251 334.052675,49.5274971 335.379326,49.5274971 C335.504621,49.5274971 335.633599,49.5311822 335.766264,49.5385524 C335.898929,49.5459227 336.050018,49.556978 336.219534,49.5717186 L336.219534,51.3847994 C336.013166,51.3700588 335.86392,51.3608461 335.771792,51.357161 C335.679663,51.3534758 335.593064,51.3516333 335.511991,51.3516333 C334.907627,51.3516333 334.546489,51.5082495 334.428564,51.8214866 C334.31064,52.1347237 334.251678,52.932545 334.251678,54.2149744 L336.219534,54.2149744 L336.219534,55.7848371 L334.229567,55.7848371 L334.229567,66 L332.261711,66 L332.261711,55.7848371 L330.614461,55.7848371 L330.614461,54.2149744 L332.261711,54.2149744 L332.261711,52.3576721 C332.291193,51.5322002 332.434911,50.927846 332.692871,50.5445912 L332.692871,50.5445912 Z M338.983377,50.5445912 C339.447705,49.8665251 340.343181,49.5274971 341.669832,49.5274971 C341.795127,49.5274971 341.924105,49.5311822 342.05677,49.5385524 C342.189435,49.5459227 342.340524,49.556978 342.51004,49.5717186 L342.51004,51.3847994 C342.303672,51.3700588 342.154426,51.3608461 342.062298,51.357161 C341.970169,51.3534758 341.88357,51.3516333 341.802497,51.3516333 C341.198133,51.3516333 340.836995,51.5082495 340.71907,51.8214866 C340.601146,52.1347237 340.542184,52.932545 340.542184,54.2149744 L342.51004,54.2149744 L342.51004,55.7848371 L340.520074,55.7848371 L340.520074,66 L338.552218,66 L338.552218,55.7848371 L336.904967,55.7848371 L336.904967,54.2149744 L338.552218,54.2149744 L338.552218,52.3576721 C338.581699,51.5322002 338.725417,50.927846 338.983377,50.5445912 L338.983377,50.5445912 Z M344.42262,52.0149556 L344.42262,49.7596599 L346.412586,49.7596599 L346.412586,52.0149556 L344.42262,52.0149556 Z M344.42262,54.2149744 L346.412586,54.2149744 L346.412586,66 L344.42262,66 L344.42262,54.2149744 Z M357.197101,54.7898537 C358.033628,55.4384387 358.536643,56.55502 358.706159,58.1396312 L356.771469,58.1396312 C356.653545,57.409973 356.384533,56.8037762 355.964427,56.3210226 C355.544321,55.838269 354.86995,55.5968958 353.941294,55.5968958 C352.673605,55.5968958 351.767074,56.2159904 351.221673,57.4541981 C350.867899,58.2575591 350.691015,59.2488475 350.691015,60.428093 C350.691015,61.6147087 350.941601,62.6133673 351.44278,63.4240985 C351.94396,64.2348298 352.732568,64.6401894 353.80863,64.6401894 C354.634102,64.6401894 355.288204,64.3877609 355.770958,63.8828964 C356.253712,63.378032 356.587212,62.6870782 356.771469,61.8100144 L358.706159,61.8100144 C358.485051,63.3798849 357.932288,64.5277895 357.047853,65.2537625 C356.163419,65.9797354 355.032098,66.3427165 353.653854,66.3427165 C352.106095,66.3427165 350.871591,65.7770557 349.950305,64.645717 C349.02902,63.5143784 348.568384,62.1011476 348.568384,60.4059822 C348.568384,58.3275621 349.073241,56.7098089 350.08297,55.5526743 C351.092699,54.3955397 352.378794,53.8169811 353.941294,53.8169811 C355.275316,53.8169811 356.360574,54.1412687 357.197101,54.7898537 L357.197101,54.7898537 Z M360.696126,54.2149744 L362.719259,54.2149744 L362.719259,66 L360.696126,66 L360.696126,54.2149744 Z M360.696126,49.7596599 L362.719259,49.7596599 L362.719259,52.0149556 L360.696126,52.0149556 L360.696126,49.7596599 Z M373.100252,54.485831 C373.888873,54.8801412 374.489542,55.3905257 374.902278,56.0169999 C375.300273,56.6139929 375.565599,57.3104743 375.698264,58.106465 C375.816189,58.6518661 375.87515,59.5215466 375.87515,60.7155326 L367.196684,60.7155326 C367.233536,61.9168889 367.517287,62.8805392 368.047948,63.6065122 C368.578608,64.3324852 369.400382,64.6954662 370.513295,64.6954662 C371.552505,64.6954662 372.38165,64.3527531 373.000754,63.6673167 C373.354528,63.2693213 373.605113,62.8086855 373.752519,62.2853953 L375.70932,62.2853953 C375.657728,62.7202421 375.486371,63.204831 375.195245,63.7391766 C374.904119,64.2735222 374.577989,64.710205 374.216845,65.0492381 C373.612481,65.6388608 372.864409,66.0368502 371.972604,66.2432182 C371.493536,66.3611427 370.951828,66.4201041 370.347465,66.4201041 C368.873408,66.4201041 367.624164,65.883924 366.599694,64.8115476 C365.575225,63.7391712 365.062997,62.2374984 365.062997,60.3064839 C365.062997,58.4049506 365.57891,56.8608992 366.610749,55.6742834 C367.642589,54.4876676 368.991331,53.8943687 370.657015,53.8943687 C371.497228,53.8943687 372.311632,54.0915208 373.100252,54.485831 L373.100252,54.485831 Z M373.829907,59.1346146 C373.748834,58.2722913 373.560894,57.5831801 373.266083,57.0672602 C372.720682,56.1091232 371.810465,55.6300619 370.535406,55.6300619 C369.621491,55.6300619 368.854993,55.9598772 368.235889,56.6195176 C367.616785,57.2791581 367.288812,58.1175153 367.251961,59.1346146 L373.829907,59.1346146 Z M378.318387,54.1596976 L380.208856,54.1596976 L380.208856,55.840114 C380.768997,55.1473072 381.362296,54.6498205 381.988771,54.3476389 C382.615245,54.0454572 383.311726,53.8943687 384.078236,53.8943687 C385.758661,53.8943687 386.893667,54.4802975 387.48329,55.6521727 C387.807583,56.2933874 387.969726,57.210974 387.969726,58.4049601 L387.969726,66 L385.946593,66 L385.946593,58.5376245 C385.946593,57.8153367 385.839726,57.2330929 385.625988,56.7908759 C385.272214,56.0538475 384.631009,55.6853388 383.702353,55.6853388 C383.230655,55.6853388 382.843721,55.7332449 382.541539,55.8290586 C381.996138,55.9912048 381.517077,56.3154925 381.104341,56.8019312 C380.772678,57.1925563 380.557101,57.5960733 380.457602,58.0124944 C380.358103,58.4289154 380.308354,59.024057 380.308354,59.7979368 L380.308354,66 L378.318387,66 L378.318387,54.1596976 Z M398.73213,54.7898537 C399.568657,55.4384387 400.071672,56.55502 400.241188,58.1396312 L398.306498,58.1396312 C398.188574,57.409973 397.919562,56.8037762 397.499456,56.3210226 C397.07935,55.838269 396.404979,55.5968958 395.476323,55.5968958 C394.208634,55.5968958 393.302103,56.2159904 392.756702,57.4541981 C392.402928,58.2575591 392.226044,59.2488475 392.226044,60.428093 C392.226044,61.6147087 392.47663,62.6133673 392.977809,63.4240985 C393.478989,64.2348298 394.267597,64.6401894 395.343659,64.6401894 C396.169131,64.6401894 396.823234,64.3877609 397.305987,63.8828964 C397.788741,63.378032 398.122241,62.6870782 398.306498,61.8100144 L400.241188,61.8100144 C400.02008,63.3798849 399.467317,64.5277895 398.582883,65.2537625 C397.698449,65.9797354 396.567127,66.3427165 395.188884,66.3427165 C393.641124,66.3427165 392.40662,65.7770557 391.485334,64.645717 C390.564049,63.5143784 390.103413,62.1011476 390.103413,60.4059822 C390.103413,58.3275621 390.60827,56.7098089 391.617999,55.5526743 C392.627728,54.3955397 393.913823,53.8169811 395.476323,53.8169811 C396.810345,53.8169811 397.895603,54.1412687 398.73213,54.7898537 L398.73213,54.7898537 Z M409.627198,54.1596976 L411.827217,54.1596976 C411.547146,54.9188368 410.924367,56.6508277 409.958859,59.355722 C409.236572,61.3899204 408.632217,63.0482095 408.145779,64.330639 C406.996014,67.3524555 406.185295,69.1949989 405.713597,69.8583245 C405.241899,70.5216501 404.43118,70.8533079 403.281415,70.8533079 C403.001345,70.8533079 402.785767,70.8422526 402.634676,70.8201418 C402.483585,70.7980309 402.297488,70.757495 402.07638,70.6985327 L402.07638,68.8854519 C402.422783,68.9812656 402.673369,69.0402269 402.828145,69.0623378 C402.982921,69.0844486 403.119269,69.0955039 403.237194,69.0955039 C403.605708,69.0955039 403.876562,69.0347 404.049764,68.9130903 C404.222965,68.7914806 404.368526,68.6422346 404.486451,68.4653478 C404.523302,68.4063855 404.655965,68.1042084 404.884444,67.5588073 C405.112923,67.0134063 405.278752,66.6080467 405.381936,66.3427165 L401.004009,54.1596976 L403.259305,54.1596976 L406.432196,63.7999812 L409.627198,54.1596976 Z" id="Best-in-class-for-ef" fill="#000000"></path>
    </g>
</svg>