<?xml version="1.0" encoding="utf-8"?>
<!-- Generator: Adobe Illustrator 16.0.4, SVG Export Plug-In . SVG Version: 6.00 Build 0)  -->
<!DOCTYPE svg PUBLIC "-//W3C//DTD SVG 1.1//EN" "http://www.w3.org/Graphics/SVG/1.1/DTD/svg11.dtd">
<svg version="1.1" id="Layer_1" xmlns="http://www.w3.org/2000/svg" xmlns:xlink="http://www.w3.org/1999/xlink" x="0px" y="0px"
	 width="500px" height="500px" viewBox="-218 -218 500 500" enable-background="new -218 -218 500 500" xml:space="preserve">
<rect x="-218" y="-218" fill="#2341C1" width="500" height="500"/>
<title>Advert</title>
<g>
	<path fill="#FFFFFF" d="M329.915,228.554h-12.959c-8.789-1.761-16.234-4.557-22.66-9.716c-8.418-6.541-13.963-16.095-15.446-26.652
		c-46.586-0.563-93.511,0.247-140.282,0.247s-94.079-0.208-140.283,0.996c-3.954,15.817-16.269,28.29-34.383,31.627
		c-9.646,1.753-19.598,0.354-28.391-3.993c-7.283-3.553-13.354-9.19-17.442-16.188c-2.031-0.525-3.966-1.367-5.728-2.503
		c-2.073-1.451-3.286-3.931-5.271-4.727c-1.958-0.463-3.962-0.71-5.974-0.757c-1.95-0.263-14.265-2.116-17.694-3.228
		c-2.826-0.912-4.95-4.302-7.217-4.974c-6.043-1.754-22.733-2.549-24.42-2.981c-2.321-0.618-3.514-6.132-3.514-8.789
		c-0.224-3.151-1.653-6.094-3.989-8.218c-2.336-1.915-8.167-0.139-7.974-3.992c0.193-3.847-1.212-10.998,0.753-14.697
		c1.563-2.935,4.638-2.935,8.225-3.993c0.375-3.359,1.479-6.588,3.232-9.469c4.931-8.464,12.314-15.237,21.169-19.431
		c6.561-3.005,13.407-5.368,20.432-7.028c7.38-2.062,14.863-3.723,22.416-4.989c23.332-3.796,48.436-6.727,72.505-9.716
		c8.241-1.02,16.744-2.707,24.595,0C31.05,82.243,53.644,69.435,76.148,57.772c7.569-3.938,13.547-8.067,22.413-12.458
		c8.874-4.395,28.729-5.954,45.103-6.482c16.373-0.525,33.38-1.495,50.332-1.495s80.158,1.97,92.438,4.483
		c1.915,0.387,3.745,1.44,4.479,0.49c3.05,2.479,6.456,4.476,10.102,5.92c10.982,4.727,21.223,9.997,31.634,15.442
		c9.407,4.938,20.791,11.032,30.383,16.689c3.221,1.9,6.928,4.989,9.963,5.727c2.563,0.286,5.159,0.367,7.738,0.247
		c12.697,0.738,25.046,1.985,37.627,2.985c4.479,0.355,11.646-0.386,15.199,1.251c4.866,2.229,6.147,9.731,7.214,16.195
		c2.131,12.751-0.788,23.688-1.491,34.623c3.932,1.567,7.5,1.444,10.226,3.521c2.07,1.916,3.614,4.341,4.479,7.028
		c0.209,2.649,0.209,5.313,0,7.971c0.154,2.765-0.101,5.529-0.733,8.225c-1.359,3.669-6.21,4.108-8.226,7.222
		c-1.352,2.054-1.753,6.077-2.494,7.027c-2.456,2.843-12.403,2.873-17.934,3.229c-14.056,0.935-27.062,1.761-40.113,2.255
		c-7.028,0.225-13.717-0.548-20.188-0.247C363.967,211.617,350.706,223.333,329.915,228.554z M292.041,82.54
		c-2.425-3.267-4.727-7.201-7.46-10.206c-2.217-2.39-23.563-18.833-39.11-22.347c-5.762-1.352-44.146-4.306-57.553-2.985
		c-1.405,16.196-3.514,34.222-4.942,50.456c38.654-0.757,79.27-2.618,117.963-3.391C298.915,90.657,294.559,85.931,292.041,82.54z
		 M127.338,52.149c-11.925,3.051-23.277,8.017-33.627,14.705C77.238,77.536,61.089,89.059,45.121,99.74
		c-1.178,0.791-3.41,1.37-2.985,2.494c41.157-1.533,82.345-3.027,123.57-4.479c3.151-16.952,7.028-33.167,10.21-50.069
		c-12.773-0.703-43.96,3.302-48.562,4.464H127.338z M-64.752,167.256c-4.8,5.583-7.217,12.835-6.727,20.188
		c0.969,15.269,14.137,26.869,29.409,25.896c15.272-0.973,26.865-14.133,25.896-29.409c-0.934-15.23-13.457-27.727-30.394-25.919
		C-53.604,158.598-60.134,161.919-64.752,167.256z M306.746,167.503c-6.773,4.749-10.921,12.411-11.206,20.675
		c-0.688,10.41,4.51,20.319,13.461,25.671c18.983,11.168,40.593-2.965,41.844-22.173c0.587-15.516-11.507-28.567-27.022-29.154
		C317.744,162.289,311.751,164.035,306.746,167.503z"/>
</g>
<g>
	<path fill="#FFFFFF" d="M-163.237-150.368l-13.846-21.629v21.629h-5.934v-30.487h7.396l12.685,20.167v-20.167h5.934v30.487
		H-163.237z"/>
	<path fill="#FFFFFF" d="M-131.631-156.431c-0.258,0.918-0.667,1.785-1.226,2.602s-1.24,1.526-2.042,2.128
		c-0.803,0.602-1.742,1.083-2.816,1.44c-1.075,0.358-2.258,0.538-3.548,0.538c-1.462,0-2.853-0.251-4.171-0.752
		c-1.319-0.501-2.48-1.24-3.483-2.214c-1.004-0.975-1.799-2.165-2.387-3.569c-0.588-1.404-0.881-2.995-0.881-4.773
		c0-1.691,0.286-3.225,0.86-4.601c0.573-1.376,1.34-2.543,2.301-3.504c0.96-0.96,2.071-1.705,3.333-2.236
		c1.261-0.53,2.565-0.795,3.913-0.795c3.296,0,5.862,0.975,7.697,2.924c1.834,1.95,2.752,4.63,2.752,8.041
		c0,0.402-0.015,0.781-0.043,1.14c-0.029,0.358-0.043,0.566-0.043,0.623h-15.136c0.028,0.688,0.193,1.327,0.494,1.914
		c0.301,0.588,0.688,1.097,1.161,1.527c0.473,0.43,1.024,0.767,1.655,1.01c0.63,0.244,1.304,0.366,2.021,0.366
		c1.347,0,2.401-0.301,3.161-0.903c0.759-0.602,1.312-1.376,1.656-2.322L-131.631-156.431z M-136.963-163.354
		c-0.029-0.516-0.136-1.025-0.323-1.527c-0.187-0.501-0.473-0.946-0.86-1.333c-0.387-0.387-0.875-0.702-1.462-0.946
		c-0.588-0.243-1.283-0.366-2.085-0.366c-0.746,0-1.405,0.129-1.978,0.387c-0.574,0.258-1.061,0.588-1.462,0.989
		c-0.402,0.401-0.709,0.846-0.925,1.333c-0.215,0.488-0.337,0.975-0.365,1.462H-136.963z"/>
	<path fill="#FFFFFF" d="M-109.143-171.524l4.558,13.631l3.913-13.631h5.676l-6.622,21.156h-5.719l-4.945-14.448l-4.859,14.448
		h-5.805l-6.751-21.156h6.02l3.913,13.588l4.601-13.588H-109.143z"/>
	<path fill="#FFFFFF" d="M-80.806-150.368v-21.156h5.461v2.58c0.286-0.516,0.659-0.974,1.118-1.376
		c0.458-0.401,0.968-0.731,1.527-0.989c0.559-0.258,1.146-0.458,1.763-0.602c0.616-0.143,1.211-0.215,1.785-0.215
		c1.462,0,2.737,0.301,3.827,0.903c1.089,0.602,1.906,1.477,2.451,2.623c0.831-1.29,1.806-2.2,2.924-2.73
		c1.118-0.53,2.379-0.795,3.784-0.795c0.974,0,1.92,0.15,2.838,0.451c0.917,0.301,1.734,0.782,2.451,1.44
		c0.716,0.66,1.29,1.499,1.72,2.516c0.43,1.018,0.645,2.229,0.645,3.634v13.717h-5.547v-12.556c0-1.146-0.294-2.1-0.881-2.859
		c-0.588-0.759-1.542-1.14-2.859-1.14c-1.233,0-2.193,0.409-2.881,1.226c-0.688,0.817-1.032,1.799-1.032,2.946v12.384h-5.676
		v-12.556c0-1.146-0.301-2.1-0.903-2.859c-0.602-0.759-1.548-1.14-2.838-1.14c-1.262,0-2.236,0.402-2.924,1.204
		c-0.688,0.803-1.032,1.792-1.032,2.967v12.384H-80.806z"/>
	<path fill="#FFFFFF" d="M-33.206-172.169c1.576,0,3.045,0.279,4.407,0.838c1.361,0.559,2.537,1.333,3.526,2.322
		c0.989,0.989,1.763,2.171,2.322,3.548c0.559,1.376,0.838,2.881,0.838,4.515c0,1.634-0.279,3.132-0.838,4.494
		c-0.559,1.362-1.333,2.544-2.322,3.547c-0.989,1.004-2.165,1.785-3.526,2.344c-1.362,0.559-2.831,0.838-4.407,0.838
		c-1.577,0-3.046-0.279-4.408-0.838c-1.362-0.559-2.537-1.34-3.526-2.344c-0.989-1.003-1.763-2.186-2.322-3.547
		c-0.559-1.361-0.838-2.859-0.838-4.494c0-1.634,0.28-3.139,0.838-4.515c0.559-1.376,1.333-2.559,2.322-3.548
		c0.989-0.989,2.164-1.763,3.526-2.322C-36.252-171.89-34.783-172.169-33.206-172.169z M-33.206-154.926
		c0.688,0,1.361-0.129,2.021-0.387c0.659-0.258,1.232-0.638,1.72-1.14c0.487-0.501,0.882-1.125,1.183-1.871
		c0.301-0.745,0.452-1.619,0.452-2.623c0-1.003-0.151-1.877-0.452-2.623c-0.301-0.745-0.695-1.369-1.183-1.87
		c-0.488-0.501-1.061-0.882-1.72-1.14c-0.66-0.258-1.333-0.387-2.021-0.387s-1.362,0.129-2.021,0.387
		c-0.66,0.258-1.233,0.638-1.72,1.14c-0.488,0.501-0.881,1.125-1.183,1.87c-0.301,0.746-0.451,1.62-0.451,2.623
		c0,1.004,0.15,1.878,0.451,2.623c0.301,0.746,0.695,1.369,1.183,1.871c0.487,0.502,1.06,0.881,1.72,1.14
		C-34.567-155.055-33.894-154.926-33.206-154.926z"/>
	<path fill="#FFFFFF" d="M2.571-154.195c0,0.717,0.014,1.427,0.043,2.128c0.028,0.703,0.071,1.269,0.129,1.699h-5.461
		c-0.058-0.229-0.107-0.573-0.151-1.032c-0.043-0.458-0.064-0.931-0.064-1.419c-0.488,0.832-1.24,1.534-2.257,2.107
		c-1.018,0.573-2.243,0.86-3.676,0.86c-1.52,0-2.91-0.28-4.171-0.838c-1.262-0.559-2.343-1.333-3.247-2.322
		c-0.903-0.989-1.612-2.164-2.128-3.526c-0.516-1.361-0.774-2.845-0.774-4.451c0-1.548,0.25-2.995,0.752-4.343
		c0.501-1.347,1.197-2.516,2.085-3.504c0.888-0.989,1.957-1.77,3.204-2.344c1.247-0.573,2.616-0.86,4.106-0.86
		c0.917,0,1.713,0.086,2.387,0.258c0.673,0.172,1.253,0.387,1.741,0.645c0.487,0.258,0.882,0.538,1.183,0.838
		c0.301,0.301,0.523,0.595,0.667,0.882V-181.5h5.633V-154.195z M-13.425-160.989c0,1.892,0.494,3.369,1.483,4.429
		c0.989,1.061,2.243,1.591,3.763,1.591c1.462,0,2.694-0.53,3.698-1.591c1.003-1.061,1.505-2.551,1.505-4.472
		c0-1.892-0.502-3.347-1.505-4.364c-1.004-1.018-2.236-1.527-3.698-1.527c-1.462,0-2.703,0.516-3.72,1.548
		C-12.917-164.343-13.425-162.881-13.425-160.989z"/>
	<path fill="#FFFFFF" d="M27.725-156.431c-0.258,0.918-0.667,1.785-1.226,2.602s-1.24,1.526-2.042,2.128
		c-0.803,0.602-1.742,1.083-2.816,1.44c-1.075,0.358-2.258,0.538-3.548,0.538c-1.462,0-2.853-0.251-4.171-0.752
		c-1.319-0.501-2.48-1.24-3.483-2.214c-1.004-0.975-1.799-2.165-2.387-3.569c-0.588-1.404-0.881-2.995-0.881-4.773
		c0-1.691,0.286-3.225,0.86-4.601c0.573-1.376,1.34-2.543,2.301-3.504c0.96-0.96,2.071-1.705,3.333-2.236
		c1.261-0.53,2.565-0.795,3.913-0.795c3.296,0,5.862,0.975,7.697,2.924c1.834,1.95,2.752,4.63,2.752,8.041
		c0,0.402-0.015,0.781-0.043,1.14c-0.029,0.358-0.043,0.566-0.043,0.623H12.804c0.028,0.688,0.193,1.327,0.494,1.914
		c0.301,0.588,0.688,1.097,1.161,1.527c0.473,0.43,1.024,0.767,1.655,1.01c0.63,0.244,1.304,0.366,2.021,0.366
		c1.347,0,2.401-0.301,3.161-0.903c0.759-0.602,1.312-1.376,1.656-2.322L27.725-156.431z M22.393-163.354
		c-0.029-0.516-0.136-1.025-0.323-1.527c-0.187-0.501-0.473-0.946-0.86-1.333c-0.387-0.387-0.875-0.702-1.462-0.946
		c-0.588-0.243-1.283-0.366-2.085-0.366c-0.746,0-1.405,0.129-1.978,0.387c-0.574,0.258-1.061,0.588-1.462,0.989
		c-0.402,0.401-0.709,0.846-0.925,1.333c-0.215,0.488-0.337,0.975-0.365,1.462H22.393z"/>
	<path fill="#FFFFFF" d="M32.541-150.368V-181.5h5.719v31.132H32.541z"/>
	<path fill="#FFFFFF" d="M64.489-172.169c1.576,0,3.046,0.279,4.408,0.838c1.361,0.559,2.537,1.333,3.525,2.322
		c0.989,0.989,1.764,2.171,2.322,3.548c0.559,1.376,0.839,2.881,0.839,4.515c0,1.634-0.28,3.132-0.839,4.494
		c-0.559,1.362-1.333,2.544-2.322,3.547c-0.988,1.004-2.164,1.785-3.525,2.344c-1.362,0.559-2.832,0.838-4.408,0.838
		s-3.046-0.279-4.407-0.838c-1.362-0.559-2.537-1.34-3.526-2.344c-0.988-1.003-1.763-2.186-2.321-3.547
		c-0.56-1.361-0.839-2.859-0.839-4.494c0-1.634,0.279-3.139,0.839-4.515c0.559-1.376,1.333-2.559,2.321-3.548
		c0.989-0.989,2.164-1.763,3.526-2.322C61.443-171.89,62.913-172.169,64.489-172.169z M64.489-154.926
		c0.688,0,1.361-0.129,2.021-0.387c0.659-0.258,1.232-0.638,1.72-1.14c0.487-0.501,0.882-1.125,1.183-1.871
		c0.301-0.745,0.451-1.619,0.451-2.623c0-1.003-0.15-1.877-0.451-2.623c-0.301-0.745-0.695-1.369-1.183-1.87s-1.061-0.882-1.72-1.14
		c-0.66-0.258-1.333-0.387-2.021-0.387c-0.688,0-1.361,0.129-2.021,0.387c-0.66,0.258-1.233,0.638-1.72,1.14
		c-0.488,0.501-0.882,1.125-1.183,1.87c-0.302,0.746-0.452,1.62-0.452,2.623c0,1.004,0.15,1.878,0.452,2.623
		c0.301,0.746,0.694,1.369,1.183,1.871c0.486,0.502,1.06,0.881,1.72,1.14C63.128-155.055,63.802-154.926,64.489-154.926z"/>
	<path fill="#FFFFFF" d="M93.859-150.368c-0.059-0.229-0.102-0.559-0.13-0.989c-0.028-0.43-0.043-0.86-0.043-1.29
		c-0.573,1.003-1.412,1.727-2.515,2.171c-1.104,0.444-2.215,0.667-3.333,0.667c-1.29,0-2.43-0.223-3.418-0.667
		c-0.989-0.444-1.828-1.039-2.516-1.785c-0.688-0.745-1.212-1.626-1.569-2.645c-0.359-1.017-0.538-2.1-0.538-3.247v-13.373h5.719
		v12.212c0,1.204,0.308,2.214,0.925,3.031c0.616,0.817,1.598,1.226,2.945,1.226c1.29,0,2.279-0.387,2.967-1.161
		c0.688-0.774,1.032-1.777,1.032-3.01v-12.298h5.719v17.329c0,0.832,0.021,1.584,0.065,2.258c0.043,0.674,0.092,1.197,0.15,1.569
		H93.859z"/>
	<path fill="#FFFFFF" d="M112.264-171.524h4.257v5.074h-4.257v8.858c0,0.918,0.207,1.556,0.623,1.914
		c0.415,0.359,1.039,0.538,1.87,0.538c0.345,0,0.688-0.014,1.032-0.043c0.344-0.028,0.587-0.071,0.731-0.129v4.73
		c-0.259,0.115-0.652,0.229-1.183,0.344c-0.531,0.114-1.212,0.172-2.043,0.172c-2.063,0-3.697-0.573-4.901-1.72
		c-1.204-1.146-1.807-2.752-1.807-4.816v-9.847h-3.827v-5.074h1.075c1.118,0,1.942-0.323,2.473-0.968s0.796-1.44,0.796-2.386v-2.967
		h5.16V-171.524z"/>
	<path fill="#FFFFFF" d="M137.59-150.368h-5.72v-21.156h5.547v2.623c0.659-1.089,1.555-1.892,2.688-2.408s2.272-0.774,3.419-0.774
		c1.318,0,2.458,0.222,3.418,0.667c0.961,0.445,1.756,1.039,2.387,1.784c0.631,0.746,1.097,1.634,1.397,2.666
		c0.302,1.032,0.452,2.122,0.452,3.268v13.33h-5.72v-12.341c0-1.204-0.308-2.208-0.924-3.01c-0.617-0.802-1.613-1.204-2.989-1.204
		c-1.262,0-2.235,0.423-2.924,1.269c-0.688,0.846-1.031,1.885-1.031,3.118V-150.368z"/>
	<path fill="#FFFFFF" d="M166.485-172.169c1.576,0,3.046,0.279,4.408,0.838c1.361,0.559,2.537,1.333,3.525,2.322
		c0.989,0.989,1.764,2.171,2.322,3.548c0.559,1.376,0.839,2.881,0.839,4.515c0,1.634-0.28,3.132-0.839,4.494
		c-0.559,1.362-1.333,2.544-2.322,3.547c-0.988,1.004-2.164,1.785-3.525,2.344c-1.362,0.559-2.832,0.838-4.408,0.838
		s-3.046-0.279-4.407-0.838c-1.362-0.559-2.537-1.34-3.526-2.344c-0.988-1.003-1.763-2.186-2.321-3.547
		c-0.56-1.361-0.839-2.859-0.839-4.494c0-1.634,0.279-3.139,0.839-4.515c0.559-1.376,1.333-2.559,2.321-3.548
		c0.989-0.989,2.164-1.763,3.526-2.322C163.439-171.89,164.909-172.169,166.485-172.169z M166.485-154.926
		c0.688,0,1.361-0.129,2.021-0.387c0.659-0.258,1.232-0.638,1.72-1.14c0.487-0.501,0.882-1.125,1.183-1.871
		c0.301-0.745,0.451-1.619,0.451-2.623c0-1.003-0.15-1.877-0.451-2.623c-0.301-0.745-0.695-1.369-1.183-1.87s-1.061-0.882-1.72-1.14
		c-0.66-0.258-1.333-0.387-2.021-0.387c-0.688,0-1.361,0.129-2.021,0.387c-0.66,0.258-1.233,0.638-1.72,1.14
		c-0.488,0.501-0.882,1.125-1.183,1.87c-0.302,0.746-0.452,1.62-0.452,2.623c0,1.004,0.15,1.878,0.452,2.623
		c0.301,0.746,0.694,1.369,1.183,1.871c0.486,0.502,1.06,0.881,1.72,1.14C165.124-155.055,165.798-154.926,166.485-154.926z"/>
	<path fill="#FFFFFF" d="M199.554-171.524l4.558,13.631l3.913-13.631h5.676l-6.622,21.156h-5.719l-4.945-14.448l-4.858,14.448
		h-5.806l-6.751-21.156h6.021l3.913,13.588l4.601-13.588H199.554z"/>
	<path fill="#FFFFFF" d="M214.99-153.98c0-1.089,0.38-2.014,1.14-2.774c0.759-0.759,1.684-1.139,2.773-1.139
		c0.544,0,1.061,0.101,1.548,0.301c0.487,0.201,0.91,0.48,1.269,0.838c0.358,0.359,0.638,0.774,0.839,1.247
		c0.2,0.473,0.301,0.982,0.301,1.527c0,0.545-0.101,1.053-0.301,1.526c-0.201,0.473-0.48,0.889-0.839,1.247
		c-0.358,0.359-0.781,0.638-1.269,0.838s-1.004,0.301-1.548,0.301c-1.09,0-2.015-0.379-2.773-1.139
		C215.37-151.966,214.99-152.891,214.99-153.98z"/>
	<path fill="#FFFFFF" d="M-184.823-113.99c0-2.465,0.43-4.679,1.29-6.644c0.86-1.963,2.006-3.633,3.44-5.009
		c1.433-1.376,3.096-2.43,4.988-3.161s3.87-1.096,5.934-1.096s4.049,0.365,5.956,1.096c1.906,0.731,3.576,1.785,5.009,3.161
		c1.433,1.376,2.58,3.046,3.44,5.009c0.86,1.964,1.29,4.179,1.29,6.644c0,2.466-0.43,4.673-1.29,6.622
		c-0.86,1.95-2.007,3.612-3.44,4.988c-1.434,1.376-3.104,2.429-5.009,3.16c-1.907,0.731-3.892,1.097-5.956,1.097
		s-4.042-0.366-5.934-1.097s-3.555-1.784-4.988-3.16c-1.434-1.376-2.58-3.039-3.44-4.988
		C-184.393-109.317-184.823-111.524-184.823-113.99z M-178.674-114.033c0,1.72,0.272,3.218,0.817,4.494
		c0.544,1.276,1.269,2.33,2.171,3.161c0.903,0.832,1.92,1.455,3.053,1.87c1.132,0.416,2.286,0.624,3.461,0.624
		c1.175,0,2.336-0.208,3.483-0.624c1.146-0.415,2.171-1.039,3.075-1.87c0.903-0.831,1.626-1.885,2.171-3.161
		c0.544-1.275,0.817-2.773,0.817-4.494c0-1.72-0.273-3.217-0.817-4.493c-0.545-1.275-1.269-2.329-2.171-3.161
		c-0.903-0.831-1.929-1.455-3.075-1.871c-1.147-0.415-2.308-0.624-3.483-0.624c-1.176,0-2.33,0.208-3.461,0.624
		c-1.133,0.416-2.15,1.04-3.053,1.871c-0.903,0.832-1.627,1.885-2.171,3.161C-178.402-117.25-178.674-115.753-178.674-114.033z"/>
	<path fill="#FFFFFF" d="M-143.027-98.768h-5.719v-21.156h5.547v2.623c0.659-1.089,1.555-1.892,2.688-2.408
		c1.132-0.516,2.271-0.774,3.418-0.774c1.318,0,2.458,0.222,3.418,0.667c0.96,0.445,1.755,1.039,2.387,1.784
		c0.63,0.746,1.096,1.634,1.397,2.666c0.301,1.032,0.451,2.122,0.451,3.268v13.33h-5.719v-12.341c0-1.204-0.309-2.208-0.925-3.01
		c-0.617-0.802-1.612-1.204-2.988-1.204c-1.262,0-2.236,0.423-2.924,1.269c-0.688,0.846-1.032,1.885-1.032,3.118V-98.768z"/>
	<path fill="#FFFFFF" d="M-123.634-98.768V-129.9h5.719v31.132H-123.634z"/>
	<path fill="#FFFFFF" d="M-110.563-90.426l4.988-11.008l-8.987-18.49h6.407l5.633,12.384l5.203-12.384h6.106L-104.5-90.426H-110.563
		z"/>
	<path fill="#FFFFFF" d="M-74.142-116.14c-0.258-0.688-0.488-1.419-0.688-2.193c-0.201-0.774-0.301-1.634-0.301-2.58
		c0-1.204,0.237-2.35,0.71-3.44c0.473-1.089,1.132-2.042,1.978-2.859c0.845-0.817,1.871-1.469,3.075-1.957
		c1.204-0.487,2.537-0.731,3.999-0.731c1.834,0,3.375,0.272,4.623,0.817c1.247,0.545,2.25,1.24,3.01,2.085
		c0.759,0.846,1.312,1.785,1.656,2.816c0.344,1.032,0.53,2.021,0.559,2.967l-5.375,0.86c-0.029-1.519-0.43-2.673-1.204-3.461
		c-0.774-0.788-1.835-1.183-3.182-1.183c-0.545,0-1.068,0.086-1.569,0.258c-0.502,0.172-0.946,0.438-1.333,0.796
		c-0.387,0.358-0.703,0.795-0.946,1.311c-0.244,0.516-0.365,1.118-0.365,1.806c0,0.86,0.122,1.663,0.365,2.408
		c0.244,0.746,0.523,1.505,0.839,2.279h8.686v4.558h-7.267c0.028,0.201,0.043,0.387,0.043,0.559s0,0.344,0,0.516
		c0,1.376-0.301,2.652-0.903,3.827c-0.602,1.176-1.52,2.122-2.752,2.838h7.869c1.29,0,2.279-0.401,2.967-1.204
		c0.688-0.802,1.032-1.806,1.032-3.01l5.246,0.516c0,1.262-0.193,2.43-0.581,3.504c-0.387,1.075-0.932,2-1.634,2.773
		c-0.703,0.774-1.563,1.383-2.58,1.828c-1.018,0.445-2.158,0.667-3.418,0.667h-15.738v-4.988c1.548-0.573,2.773-1.398,3.677-2.473
		c0.903-1.075,1.354-2.301,1.354-3.677c0-0.487-0.072-1.046-0.215-1.677h-4.601v-4.558H-74.142z"/>
	<path fill="#FFFFFF" d="M-48.299-104.616c0.573,0.316,1.369,0.609,2.387,0.882c1.017,0.272,2.042,0.408,3.074,0.408
		c3.038,0,5.411-0.81,7.117-2.429c1.705-1.62,2.629-3.849,2.773-6.687c-0.574,0.975-1.499,1.784-2.773,2.429
		c-1.276,0.645-2.773,0.968-4.494,0.968c-1.376,0-2.702-0.229-3.978-0.688c-1.276-0.458-2.394-1.132-3.354-2.021
		c-0.96-0.888-1.727-1.963-2.3-3.225c-0.574-1.261-0.86-2.694-0.86-4.3c0-1.548,0.294-2.974,0.882-4.278
		c0.587-1.304,1.397-2.43,2.429-3.375c1.032-0.946,2.25-1.677,3.655-2.193c1.404-0.516,2.924-0.774,4.558-0.774
		c1.605,0,3.139,0.287,4.601,0.86c1.462,0.574,2.745,1.455,3.849,2.645c1.104,1.19,1.985,2.681,2.645,4.472
		c0.659,1.792,0.989,3.891,0.989,6.299c0,2.752-0.337,5.21-1.011,7.375c-0.674,2.165-1.663,3.999-2.967,5.504
		c-1.305,1.505-2.939,2.652-4.902,3.44c-1.964,0.788-4.235,1.183-6.815,1.183c-0.631,0-1.283-0.043-1.957-0.129
		c-0.674-0.086-1.319-0.201-1.935-0.344c-0.617-0.144-1.204-0.315-1.763-0.516c-0.559-0.2-1.025-0.43-1.397-0.688L-48.299-104.616z
		 M-33.722-119.451c0-0.802-0.15-1.533-0.452-2.193c-0.301-0.659-0.709-1.226-1.226-1.699c-0.516-0.473-1.111-0.838-1.784-1.096
		c-0.674-0.258-1.384-0.387-2.129-0.387c-0.746,0-1.455,0.129-2.128,0.387c-0.674,0.258-1.269,0.617-1.784,1.075
		c-0.516,0.459-0.925,1.025-1.226,1.699c-0.301,0.674-0.452,1.412-0.452,2.214c0,0.832,0.15,1.584,0.452,2.258
		c0.301,0.674,0.702,1.247,1.204,1.72c0.501,0.473,1.089,0.832,1.763,1.075c0.673,0.244,1.397,0.365,2.171,0.365
		c0.745,0,1.455-0.129,2.129-0.387c0.673-0.258,1.269-0.624,1.784-1.097c0.516-0.473,0.925-1.039,1.226-1.698
		C-33.873-117.874-33.722-118.619-33.722-119.451z"/>
	<path fill="#FFFFFF" d="M-24.176-102.208c0-1.032,0.372-1.892,1.118-2.58c0.745-0.688,1.677-1.032,2.795-1.032
		c1.347,0,2.393,0.473,3.139,1.419c0.745,0.946,1.118,2.122,1.118,3.526c0,1.577-0.244,2.938-0.731,4.085
		c-0.488,1.146-1.104,2.092-1.849,2.838c-0.746,0.745-1.562,1.318-2.451,1.72c-0.889,0.401-1.735,0.645-2.537,0.731v-2.752
		c0.487-0.115,0.967-0.309,1.44-0.581c0.473-0.273,0.903-0.609,1.29-1.011c0.387-0.401,0.702-0.86,0.946-1.376
		c0.243-0.516,0.38-1.075,0.409-1.677c-0.23,0.172-0.602,0.258-1.118,0.258c-1.061,0-1.921-0.336-2.58-1.01
		C-23.847-100.323-24.176-101.176-24.176-102.208z"/>
	<path fill="#FFFFFF" d="M-9.814-104.616c0.573,0.316,1.369,0.609,2.387,0.882c1.017,0.272,2.042,0.408,3.074,0.408
		c3.038,0,5.411-0.81,7.117-2.429c1.705-1.62,2.629-3.849,2.773-6.687c-0.574,0.975-1.499,1.784-2.773,2.429
		c-1.276,0.645-2.773,0.968-4.494,0.968c-1.376,0-2.702-0.229-3.978-0.688c-1.276-0.458-2.394-1.132-3.354-2.021
		c-0.96-0.888-1.727-1.963-2.3-3.225c-0.574-1.261-0.86-2.694-0.86-4.3c0-1.548,0.294-2.974,0.882-4.278
		c0.587-1.304,1.397-2.43,2.429-3.375c1.032-0.946,2.25-1.677,3.655-2.193c1.404-0.516,2.924-0.774,4.558-0.774
		c1.605,0,3.139,0.287,4.601,0.86c1.462,0.574,2.745,1.455,3.849,2.645c1.104,1.19,1.985,2.681,2.645,4.472
		c0.659,1.792,0.989,3.891,0.989,6.299c0,2.752-0.337,5.21-1.011,7.375c-0.674,2.165-1.663,3.999-2.967,5.504
		c-1.305,1.505-2.939,2.652-4.902,3.44c-1.964,0.788-4.235,1.183-6.815,1.183c-0.631,0-1.283-0.043-1.957-0.129
		c-0.674-0.086-1.319-0.201-1.935-0.344c-0.617-0.144-1.204-0.315-1.763-0.516c-0.559-0.2-1.025-0.43-1.397-0.688L-9.814-104.616z
		 M4.763-119.451c0-0.802-0.15-1.533-0.452-2.193c-0.301-0.659-0.709-1.226-1.226-1.699c-0.516-0.473-1.111-0.838-1.784-1.096
		c-0.674-0.258-1.384-0.387-2.129-0.387c-0.746,0-1.455,0.129-2.128,0.387c-0.674,0.258-1.269,0.617-1.784,1.075
		c-0.516,0.459-0.925,1.025-1.226,1.699c-0.301,0.674-0.452,1.412-0.452,2.214c0,0.832,0.15,1.584,0.452,2.258
		c0.301,0.674,0.702,1.247,1.204,1.72c0.501,0.473,1.089,0.832,1.763,1.075c0.673,0.244,1.397,0.365,2.171,0.365
		c0.745,0,1.455-0.129,2.129-0.387c0.673-0.258,1.269-0.624,1.784-1.097c0.516-0.473,0.925-1.039,1.226-1.698
		C4.613-117.874,4.763-118.619,4.763-119.451z"/>
	<path fill="#FFFFFF" d="M17.491-104.616c0.573,0.316,1.369,0.609,2.387,0.882c1.017,0.272,2.042,0.408,3.074,0.408
		c3.038,0,5.411-0.81,7.117-2.429c1.705-1.62,2.629-3.849,2.773-6.687c-0.574,0.975-1.499,1.784-2.773,2.429
		c-1.276,0.645-2.773,0.968-4.494,0.968c-1.376,0-2.702-0.229-3.978-0.688c-1.276-0.458-2.394-1.132-3.354-2.021
		c-0.96-0.888-1.727-1.963-2.3-3.225c-0.574-1.261-0.86-2.694-0.86-4.3c0-1.548,0.294-2.974,0.882-4.278
		c0.587-1.304,1.397-2.43,2.429-3.375c1.032-0.946,2.25-1.677,3.655-2.193c1.404-0.516,2.924-0.774,4.558-0.774
		c1.605,0,3.139,0.287,4.601,0.86c1.462,0.574,2.746,1.455,3.849,2.645c1.104,1.19,1.984,2.681,2.645,4.472
		c0.658,1.792,0.988,3.891,0.988,6.299c0,2.752-0.338,5.21-1.01,7.375c-0.674,2.165-1.664,3.999-2.967,5.504
		c-1.305,1.505-2.939,2.652-4.903,3.44c-1.964,0.788-4.235,1.183-6.815,1.183c-0.631,0-1.283-0.043-1.957-0.129
		c-0.674-0.086-1.319-0.201-1.935-0.344c-0.617-0.144-1.204-0.315-1.763-0.516c-0.559-0.2-1.025-0.43-1.397-0.688L17.491-104.616z
		 M32.068-119.451c0-0.802-0.15-1.533-0.452-2.193c-0.301-0.659-0.709-1.226-1.226-1.699c-0.516-0.473-1.111-0.838-1.784-1.096
		c-0.674-0.258-1.384-0.387-2.129-0.387c-0.746,0-1.455,0.129-2.128,0.387c-0.674,0.258-1.269,0.617-1.784,1.075
		c-0.516,0.459-0.925,1.025-1.226,1.699c-0.301,0.674-0.452,1.412-0.452,2.214c0,0.832,0.15,1.584,0.452,2.258
		c0.301,0.674,0.702,1.247,1.204,1.72c0.501,0.473,1.089,0.832,1.763,1.075c0.673,0.244,1.397,0.365,2.171,0.365
		c0.745,0,1.455-0.129,2.129-0.387c0.673-0.258,1.269-0.624,1.784-1.097c0.516-0.473,0.925-1.039,1.226-1.698
		C31.917-117.874,32.068-118.619,32.068-119.451z"/>
	<path fill="#FFFFFF" d="M44.796-104.616c0.573,0.316,1.368,0.609,2.387,0.882c1.017,0.272,2.042,0.408,3.074,0.408
		c3.038,0,5.411-0.81,7.116-2.429c1.706-1.62,2.63-3.849,2.773-6.687c-0.573,0.975-1.498,1.784-2.773,2.429
		s-2.773,0.968-4.493,0.968c-1.376,0-2.702-0.229-3.978-0.688s-2.394-1.132-3.354-2.021c-0.961-0.888-1.728-1.963-2.301-3.225
		c-0.574-1.261-0.86-2.694-0.86-4.3c0-1.548,0.294-2.974,0.882-4.278c0.587-1.304,1.397-2.43,2.43-3.375
		c1.031-0.946,2.25-1.677,3.654-2.193s2.925-0.774,4.559-0.774c1.604,0,3.139,0.287,4.601,0.86c1.462,0.574,2.745,1.455,3.849,2.645
		c1.104,1.19,1.984,2.681,2.645,4.472c0.659,1.792,0.989,3.891,0.989,6.299c0,2.752-0.338,5.21-1.011,7.375
		c-0.674,2.165-1.663,3.999-2.967,5.504c-1.305,1.505-2.938,2.652-4.902,3.44s-4.235,1.183-6.815,1.183
		c-0.631,0-1.283-0.043-1.956-0.129c-0.674-0.086-1.319-0.201-1.936-0.344c-0.616-0.144-1.204-0.315-1.763-0.516
		c-0.559-0.2-1.025-0.43-1.397-0.688L44.796-104.616z M59.373-119.451c0-0.802-0.15-1.533-0.451-2.193
		c-0.302-0.659-0.71-1.226-1.226-1.699c-0.517-0.473-1.111-0.838-1.785-1.096c-0.674-0.258-1.383-0.387-2.128-0.387
		c-0.746,0-1.455,0.129-2.129,0.387c-0.674,0.258-1.269,0.617-1.784,1.075c-0.517,0.459-0.925,1.025-1.226,1.699
		c-0.301,0.674-0.451,1.412-0.451,2.214c0,0.832,0.15,1.584,0.451,2.258c0.301,0.674,0.702,1.247,1.204,1.72
		c0.501,0.473,1.089,0.832,1.763,1.075c0.673,0.244,1.397,0.365,2.172,0.365c0.745,0,1.454-0.129,2.128-0.387
		c0.674-0.258,1.269-0.624,1.785-1.097c0.516-0.473,0.924-1.039,1.226-1.698C59.223-117.874,59.373-118.619,59.373-119.451z"/>
</g>
</svg>
