<?xml version="1.0" encoding="utf-8"?>
<!-- Generator: Adobe Illustrator 16.0.4, SVG Export Plug-In . SVG Version: 6.00 Build 0)  -->
<!DOCTYPE svg PUBLIC "-//W3C//DTD SVG 1.1//EN" "http://www.w3.org/Graphics/SVG/1.1/DTD/svg11.dtd">
<svg version="1.1" id="Layer_1" xmlns="http://www.w3.org/2000/svg" xmlns:xlink="http://www.w3.org/1999/xlink" x="0px" y="0px"
	 width="476px" height="250px" viewBox="0 0 476 250" enable-background="new 0 0 476 250" xml:space="preserve">
<rect id="Rectangle-path" fill="#FFFFFF" width="476" height="250"/>
<g>
	<path d="M292.728,23.693c0.798,0,1.503,0.111,2.116,0.333c0.613,0.223,1.131,0.529,1.553,0.92c0.422,0.392,0.743,0.855,0.966,1.392
		c0.223,0.537,0.334,1.119,0.334,1.748c0,0.844-0.223,1.579-0.667,2.208c-0.445,0.629-1.013,1.058-1.702,1.288
		c0.398,0.092,0.771,0.253,1.115,0.483c0.345,0.229,0.647,0.51,0.908,0.839c0.261,0.33,0.468,0.71,0.621,1.139
		c0.153,0.43,0.23,0.897,0.23,1.403c0,0.659-0.119,1.269-0.356,1.828c-0.238,0.56-0.575,1.039-1.012,1.438
		c-0.438,0.399-0.967,0.713-1.588,0.943c-0.62,0.229-1.314,0.345-2.081,0.345h-6.302V23.693H292.728z M292.245,30.432
		c0.736,0,1.307-0.184,1.714-0.552c0.405-0.368,0.609-0.866,0.609-1.495c0-0.628-0.196-1.123-0.587-1.483s-0.978-0.54-1.76-0.54
		h-2.23v4.07H292.245z M292.567,37.355c0.781,0,1.387-0.188,1.816-0.564c0.43-0.375,0.645-0.893,0.645-1.552
		c0-0.645-0.204-1.169-0.609-1.576c-0.407-0.405-1.009-0.609-1.806-0.609h-2.622v4.302H292.567z"/>
	<path d="M310.921,36.757c-0.139,0.491-0.356,0.955-0.656,1.392c-0.299,0.438-0.663,0.816-1.092,1.139
		c-0.43,0.322-0.932,0.579-1.507,0.771s-1.207,0.287-1.897,0.287c-0.782,0-1.526-0.134-2.231-0.402
		c-0.705-0.268-1.326-0.663-1.862-1.185c-0.537-0.521-0.963-1.157-1.276-1.909c-0.314-0.751-0.472-1.602-0.472-2.553
		c0-0.904,0.153-1.725,0.46-2.461s0.717-1.36,1.23-1.874s1.107-0.912,1.782-1.196s1.372-0.426,2.093-0.426
		c1.764,0,3.136,0.521,4.117,1.564s1.472,2.477,1.472,4.301c0,0.215-0.008,0.418-0.022,0.609c-0.016,0.192-0.023,0.303-0.023,0.334
		h-8.096c0.016,0.367,0.104,0.709,0.265,1.023s0.368,0.586,0.621,0.816c0.253,0.229,0.548,0.41,0.886,0.54
		c0.337,0.131,0.697,0.195,1.081,0.195c0.72,0,1.283-0.161,1.69-0.482c0.405-0.322,0.701-0.736,0.885-1.242L310.921,36.757z
		 M308.068,33.054c-0.016-0.275-0.073-0.548-0.172-0.816c-0.101-0.268-0.254-0.506-0.461-0.713
		c-0.206-0.207-0.468-0.375-0.781-0.506c-0.314-0.13-0.687-0.195-1.116-0.195c-0.398,0-0.751,0.068-1.058,0.207
		c-0.307,0.138-0.567,0.314-0.782,0.528c-0.215,0.215-0.379,0.453-0.494,0.714s-0.181,0.521-0.195,0.781H308.068z"/>
	<path d="M315.152,36.274c0.03,0.444,0.215,0.843,0.552,1.195c0.337,0.354,0.844,0.529,1.519,0.529c0.506,0,0.881-0.111,1.127-0.334
		c0.245-0.222,0.367-0.486,0.367-0.793c0-0.261-0.092-0.486-0.275-0.679c-0.185-0.191-0.499-0.333-0.943-0.426l-1.495-0.345
		c-1.104-0.245-1.908-0.671-2.415-1.276c-0.506-0.605-0.759-1.307-0.759-2.104c0-0.506,0.107-0.985,0.322-1.438
		s0.51-0.843,0.886-1.173c0.375-0.33,0.819-0.594,1.334-0.794c0.514-0.199,1.077-0.299,1.69-0.299c0.797,0,1.472,0.111,2.023,0.334
		c0.553,0.222,1.001,0.502,1.346,0.839c0.345,0.338,0.602,0.694,0.771,1.069c0.169,0.376,0.269,0.718,0.299,1.024l-2.553,0.574
		c-0.031-0.168-0.08-0.341-0.149-0.518c-0.069-0.176-0.181-0.341-0.334-0.494s-0.341-0.276-0.563-0.368
		c-0.222-0.092-0.494-0.138-0.816-0.138c-0.398,0-0.739,0.107-1.023,0.322c-0.283,0.215-0.425,0.482-0.425,0.805
		c0,0.276,0.095,0.498,0.287,0.667c0.191,0.169,0.44,0.284,0.747,0.345l1.61,0.346c1.119,0.229,1.959,0.659,2.519,1.287
		c0.56,0.629,0.84,1.357,0.84,2.186c0,0.46-0.089,0.912-0.265,1.356c-0.177,0.445-0.449,0.844-0.816,1.196
		c-0.368,0.354-0.828,0.637-1.38,0.852c-0.553,0.214-1.196,0.321-1.933,0.321c-0.858,0-1.579-0.123-2.162-0.368
		s-1.058-0.544-1.426-0.896s-0.641-0.732-0.816-1.139c-0.177-0.406-0.28-0.771-0.311-1.093L315.152,36.274z"/>
	<path d="M327.871,28.684h2.276v2.715h-2.276v4.737c0,0.491,0.11,0.832,0.333,1.023c0.223,0.192,0.556,0.288,1.001,0.288
		c0.184,0,0.368-0.008,0.552-0.023c0.184-0.015,0.314-0.038,0.391-0.068v2.529c-0.138,0.062-0.349,0.123-0.632,0.185
		c-0.284,0.061-0.648,0.092-1.093,0.092c-1.104,0-1.979-0.307-2.622-0.92s-0.966-1.473-0.966-2.576v-5.267h-2.047v-2.715h0.575
		c0.598,0,1.038-0.172,1.322-0.518c0.283-0.345,0.425-0.77,0.425-1.276v-1.587h2.761V28.684z"/>
	<path d="M337.99,24.981c0-0.537,0.185-0.989,0.553-1.357c0.367-0.368,0.812-0.552,1.334-0.552c0.536,0,0.984,0.184,1.345,0.552
		s0.541,0.82,0.541,1.357c0,0.506-0.181,0.942-0.541,1.311s-0.809,0.552-1.345,0.552c-0.521,0-0.967-0.184-1.334-0.552
		C338.175,25.924,337.99,25.487,337.99,24.981z M338.358,40V28.684h3.06V40H338.358z"/>
	<path d="M347.743,40h-3.06V28.684h2.967v1.403c0.353-0.582,0.832-1.012,1.438-1.288c0.605-0.275,1.216-0.414,1.829-0.414
		c0.705,0,1.314,0.119,1.828,0.356c0.514,0.238,0.939,0.557,1.276,0.955s0.587,0.874,0.748,1.426s0.241,1.135,0.241,1.748V40h-3.059
		v-6.601c0-0.645-0.165-1.181-0.495-1.61c-0.33-0.429-0.862-0.645-1.599-0.645c-0.675,0-1.195,0.227-1.563,0.679
		c-0.368,0.453-0.552,1.009-0.552,1.668V40z"/>
	<path d="M368.879,31.168c-0.398,0-0.771,0.069-1.115,0.207s-0.648,0.342-0.908,0.609c-0.262,0.269-0.469,0.603-0.621,1.001
		c-0.153,0.398-0.23,0.851-0.23,1.356s0.077,0.959,0.23,1.357c0.152,0.398,0.363,0.735,0.632,1.012s0.575,0.483,0.92,0.621
		c0.346,0.138,0.717,0.207,1.116,0.207c0.383,0,0.725-0.058,1.023-0.173c0.299-0.114,0.556-0.265,0.771-0.448
		c0.214-0.184,0.387-0.391,0.518-0.621c0.13-0.229,0.226-0.452,0.287-0.667l2.691,0.897c-0.123,0.476-0.326,0.939-0.609,1.392
		c-0.284,0.452-0.648,0.858-1.093,1.219c-0.445,0.36-0.966,0.651-1.564,0.874c-0.598,0.222-1.272,0.333-2.023,0.333
		c-0.828,0-1.606-0.149-2.335-0.448s-1.36-0.717-1.897-1.254c-0.537-0.536-0.958-1.169-1.265-1.897
		c-0.307-0.728-0.46-1.529-0.46-2.403s0.149-1.679,0.448-2.415c0.299-0.735,0.713-1.368,1.242-1.897
		c0.529-0.528,1.149-0.942,1.863-1.242c0.713-0.299,1.483-0.448,2.312-0.448c0.766,0,1.452,0.111,2.058,0.334
		c0.606,0.222,1.131,0.51,1.576,0.862c0.444,0.353,0.805,0.759,1.081,1.219c0.275,0.46,0.475,0.928,0.598,1.403l-2.737,0.92
		c-0.138-0.476-0.402-0.912-0.793-1.312C370.201,31.367,369.63,31.168,368.879,31.168z"/>
	<path d="M376.446,40V23.348h3.06V40H376.446z"/>
	<path d="M382.013,36.918c0-0.506,0.088-0.954,0.264-1.346c0.177-0.391,0.418-0.731,0.725-1.023c0.307-0.291,0.663-0.521,1.07-0.689
		c0.405-0.169,0.847-0.291,1.322-0.368l2.783-0.414c0.321-0.046,0.544-0.142,0.667-0.288c0.122-0.146,0.184-0.317,0.184-0.517
		c0-0.399-0.157-0.744-0.472-1.035s-0.793-0.438-1.438-0.438c-0.675,0-1.192,0.185-1.553,0.552c-0.36,0.368-0.563,0.798-0.609,1.288
		l-2.714-0.574c0.046-0.445,0.185-0.89,0.414-1.334c0.23-0.445,0.544-0.844,0.943-1.196c0.398-0.353,0.889-0.641,1.472-0.862
		c0.583-0.223,1.257-0.334,2.024-0.334c0.889,0,1.647,0.119,2.276,0.356c0.629,0.238,1.139,0.552,1.529,0.943
		c0.392,0.391,0.675,0.848,0.852,1.368c0.176,0.521,0.265,1.066,0.265,1.633v5.566c0,0.307,0.015,0.633,0.046,0.978
		c0.03,0.345,0.061,0.617,0.092,0.816h-2.806c-0.031-0.153-0.058-0.364-0.081-0.633c-0.022-0.268-0.034-0.51-0.034-0.725
		c-0.291,0.445-0.709,0.836-1.254,1.174c-0.544,0.337-1.238,0.506-2.081,0.506c-0.598,0-1.139-0.097-1.621-0.288
		c-0.483-0.191-0.894-0.444-1.231-0.759c-0.337-0.314-0.594-0.675-0.771-1.081C382.101,37.788,382.013,37.363,382.013,36.918z
		 M386.543,38.045c0.322,0,0.633-0.042,0.932-0.126c0.299-0.085,0.563-0.23,0.794-0.438c0.229-0.207,0.414-0.475,0.552-0.805
		s0.207-0.748,0.207-1.254v-0.506l-2.553,0.391c-0.399,0.062-0.732,0.204-1.001,0.426c-0.269,0.223-0.402,0.556-0.402,1.001
		c0,0.337,0.123,0.64,0.368,0.908S386.053,38.045,386.543,38.045z"/>
	<path d="M396.755,36.274c0.03,0.444,0.215,0.843,0.552,1.195c0.337,0.354,0.844,0.529,1.519,0.529c0.506,0,0.881-0.111,1.127-0.334
		c0.245-0.222,0.367-0.486,0.367-0.793c0-0.261-0.092-0.486-0.275-0.679c-0.185-0.191-0.499-0.333-0.943-0.426l-1.495-0.345
		c-1.104-0.245-1.908-0.671-2.415-1.276c-0.506-0.605-0.759-1.307-0.759-2.104c0-0.506,0.107-0.985,0.322-1.438
		s0.51-0.843,0.886-1.173c0.375-0.33,0.819-0.594,1.334-0.794c0.514-0.199,1.077-0.299,1.69-0.299c0.797,0,1.472,0.111,2.023,0.334
		c0.553,0.222,1.001,0.502,1.346,0.839c0.345,0.338,0.602,0.694,0.771,1.069c0.169,0.376,0.269,0.718,0.299,1.024l-2.553,0.574
		c-0.031-0.168-0.08-0.341-0.149-0.518c-0.069-0.176-0.181-0.341-0.334-0.494s-0.341-0.276-0.563-0.368
		c-0.222-0.092-0.494-0.138-0.816-0.138c-0.398,0-0.739,0.107-1.023,0.322c-0.283,0.215-0.425,0.482-0.425,0.805
		c0,0.276,0.095,0.498,0.287,0.667c0.191,0.169,0.44,0.284,0.747,0.345l1.61,0.346c1.119,0.229,1.959,0.659,2.519,1.287
		c0.56,0.629,0.84,1.357,0.84,2.186c0,0.46-0.089,0.912-0.265,1.356c-0.177,0.445-0.449,0.844-0.816,1.196
		c-0.368,0.354-0.828,0.637-1.38,0.852c-0.553,0.214-1.196,0.321-1.933,0.321c-0.858,0-1.579-0.123-2.162-0.368
		s-1.058-0.544-1.426-0.896s-0.641-0.732-0.816-1.139c-0.177-0.406-0.28-0.771-0.311-1.093L396.755,36.274z"/>
	<path d="M407.358,36.274c0.03,0.444,0.215,0.843,0.552,1.195c0.337,0.354,0.844,0.529,1.519,0.529c0.506,0,0.881-0.111,1.127-0.334
		c0.245-0.222,0.367-0.486,0.367-0.793c0-0.261-0.092-0.486-0.275-0.679c-0.185-0.191-0.499-0.333-0.943-0.426l-1.495-0.345
		c-1.104-0.245-1.908-0.671-2.415-1.276c-0.506-0.605-0.759-1.307-0.759-2.104c0-0.506,0.107-0.985,0.322-1.438
		s0.51-0.843,0.886-1.173c0.375-0.33,0.819-0.594,1.334-0.794c0.514-0.199,1.077-0.299,1.69-0.299c0.797,0,1.472,0.111,2.023,0.334
		c0.553,0.222,1.001,0.502,1.346,0.839c0.345,0.338,0.602,0.694,0.771,1.069c0.169,0.376,0.269,0.718,0.299,1.024l-2.553,0.574
		c-0.031-0.168-0.08-0.341-0.149-0.518c-0.069-0.176-0.181-0.341-0.334-0.494s-0.341-0.276-0.563-0.368
		c-0.222-0.092-0.494-0.138-0.816-0.138c-0.398,0-0.739,0.107-1.023,0.322c-0.283,0.215-0.425,0.482-0.425,0.805
		c0,0.276,0.095,0.498,0.287,0.667c0.191,0.169,0.44,0.284,0.747,0.345l1.61,0.346c1.119,0.229,1.959,0.659,2.519,1.287
		c0.56,0.629,0.84,1.357,0.84,2.186c0,0.46-0.089,0.912-0.265,1.356c-0.177,0.445-0.449,0.844-0.816,1.196
		c-0.368,0.354-0.828,0.637-1.38,0.852c-0.553,0.214-1.196,0.321-1.933,0.321c-0.858,0-1.579-0.123-2.162-0.368
		s-1.058-0.544-1.426-0.896s-0.641-0.732-0.816-1.139c-0.177-0.406-0.28-0.771-0.311-1.093L407.358,36.274z"/>
	<path d="M291.877,53.478c-0.169,0-0.349,0.023-0.54,0.069c-0.192,0.046-0.365,0.126-0.518,0.241
		c-0.153,0.115-0.28,0.272-0.38,0.472s-0.149,0.46-0.149,0.782v1.241h2.553v2.622h-2.553V67.6h-3.082v-8.694h-1.886v-2.622h1.886
		v-1.287c0-0.645,0.096-1.223,0.287-1.737c0.192-0.514,0.468-0.954,0.828-1.322s0.794-0.651,1.3-0.851s1.073-0.3,1.702-0.3
		c0.322,0,0.624,0.023,0.908,0.069c0.283,0.046,0.486,0.1,0.609,0.161v2.576c-0.077-0.03-0.191-0.058-0.345-0.081
		C292.345,53.489,292.138,53.478,291.877,53.478z"/>
	<path d="M299.65,55.938c0.844,0,1.629,0.149,2.357,0.448c0.729,0.3,1.357,0.714,1.887,1.242c0.528,0.529,0.942,1.162,1.241,1.897
		c0.3,0.736,0.449,1.541,0.449,2.415s-0.149,1.676-0.449,2.403c-0.299,0.729-0.713,1.361-1.241,1.897
		c-0.529,0.537-1.158,0.955-1.887,1.254s-1.514,0.448-2.357,0.448s-1.629-0.149-2.357-0.448s-1.356-0.717-1.886-1.254
		c-0.529-0.536-0.943-1.169-1.242-1.897c-0.299-0.728-0.448-1.529-0.448-2.403s0.149-1.679,0.448-2.415
		c0.299-0.735,0.713-1.368,1.242-1.897c0.529-0.528,1.157-0.942,1.886-1.242C298.021,56.088,298.807,55.938,299.65,55.938z
		 M299.65,65.161c0.368,0,0.729-0.068,1.081-0.206c0.353-0.139,0.659-0.342,0.92-0.61c0.261-0.268,0.472-0.602,0.633-1
		s0.241-0.866,0.241-1.403c0-0.536-0.08-1.004-0.241-1.402c-0.161-0.399-0.372-0.732-0.633-1.001s-0.567-0.472-0.92-0.609
		s-0.713-0.207-1.081-0.207s-0.729,0.069-1.081,0.207s-0.659,0.341-0.92,0.609s-0.472,0.602-0.633,1.001
		c-0.16,0.398-0.241,0.866-0.241,1.402c0,0.537,0.081,1.005,0.241,1.403c0.161,0.398,0.372,0.732,0.633,1
		c0.261,0.269,0.567,0.472,0.92,0.61C298.922,65.093,299.282,65.161,299.65,65.161z"/>
	<path d="M314.9,59.319c-0.307-0.061-0.613-0.092-0.92-0.092c-0.399,0-0.774,0.054-1.127,0.161c-0.354,0.107-0.66,0.284-0.92,0.529
		c-0.262,0.245-0.472,0.571-0.633,0.978s-0.241,0.916-0.241,1.529V67.6H308V56.283h2.967v1.68c0.169-0.368,0.388-0.671,0.656-0.909
		c0.268-0.237,0.552-0.417,0.851-0.54s0.598-0.207,0.897-0.253c0.299-0.046,0.57-0.069,0.816-0.069c0.122,0,0.241,0.004,0.356,0.012
		c0.114,0.008,0.233,0.02,0.356,0.034V59.319z"/>
	<path d="M332.817,64.356c-0.139,0.491-0.356,0.955-0.656,1.392c-0.299,0.438-0.663,0.816-1.092,1.139
		c-0.43,0.322-0.932,0.579-1.507,0.771s-1.207,0.287-1.897,0.287c-0.782,0-1.526-0.134-2.231-0.402
		c-0.705-0.268-1.326-0.663-1.862-1.185c-0.537-0.521-0.963-1.157-1.276-1.909c-0.314-0.751-0.472-1.602-0.472-2.553
		c0-0.904,0.153-1.725,0.46-2.461s0.717-1.36,1.23-1.874s1.107-0.912,1.782-1.196s1.372-0.426,2.093-0.426
		c1.764,0,3.136,0.521,4.117,1.564s1.472,2.477,1.472,4.301c0,0.215-0.008,0.418-0.022,0.609c-0.016,0.192-0.023,0.303-0.023,0.334
		h-8.096c0.016,0.367,0.104,0.709,0.265,1.023s0.368,0.586,0.621,0.816c0.253,0.229,0.548,0.41,0.886,0.54
		c0.337,0.131,0.697,0.195,1.081,0.195c0.72,0,1.283-0.161,1.69-0.482c0.405-0.322,0.701-0.736,0.885-1.242L332.817,64.356z
		 M329.965,60.653c-0.016-0.275-0.073-0.548-0.172-0.816c-0.101-0.268-0.254-0.506-0.461-0.713
		c-0.206-0.207-0.468-0.375-0.781-0.506c-0.314-0.13-0.687-0.195-1.116-0.195c-0.398,0-0.751,0.068-1.058,0.207
		c-0.307,0.138-0.567,0.314-0.782,0.528c-0.215,0.215-0.379,0.453-0.494,0.714s-0.181,0.521-0.195,0.781H329.965z"/>
	<path d="M343.42,54.949c0-0.628,0.096-1.199,0.287-1.713s0.468-0.951,0.828-1.312c0.36-0.359,0.79-0.64,1.288-0.839
		s1.062-0.3,1.69-0.3c0.322,0,0.625,0.023,0.908,0.069c0.284,0.046,0.487,0.1,0.61,0.161v2.576c-0.077-0.03-0.192-0.058-0.346-0.081
		c-0.153-0.022-0.36-0.034-0.621-0.034c-0.169,0-0.345,0.023-0.528,0.069c-0.185,0.046-0.356,0.126-0.518,0.241
		s-0.292,0.272-0.392,0.472s-0.149,0.46-0.149,0.782v1.241h7.637V67.6h-3.06v-8.694h-4.577V67.6h-3.059v-8.694h-4.37V67.6h-3.082
		v-8.694h-1.886v-2.622h1.886v-1.287c0-0.645,0.096-1.223,0.287-1.737c0.192-0.514,0.468-0.954,0.828-1.322s0.794-0.651,1.3-0.851
		s1.073-0.3,1.702-0.3c0.322,0,0.624,0.023,0.908,0.069c0.283,0.046,0.486,0.1,0.609,0.161v2.576
		c-0.077-0.03-0.191-0.058-0.345-0.081c-0.153-0.022-0.36-0.034-0.621-0.034c-0.169,0-0.345,0.023-0.529,0.069
		c-0.184,0.046-0.356,0.126-0.518,0.241c-0.16,0.115-0.291,0.272-0.391,0.472s-0.149,0.46-0.149,0.782v1.241h4.37V54.949z
		 M350.711,52.558c0-0.536,0.18-0.989,0.54-1.357c0.36-0.367,0.802-0.552,1.323-0.552c0.536,0,0.988,0.185,1.356,0.552
		c0.368,0.368,0.552,0.821,0.552,1.357c0,0.521-0.184,0.962-0.552,1.322s-0.82,0.541-1.356,0.541c-0.521,0-0.963-0.181-1.323-0.541
		S350.711,53.079,350.711,52.558z"/>
	<path d="M362.486,58.768c-0.398,0-0.771,0.069-1.115,0.207s-0.648,0.342-0.908,0.609c-0.262,0.269-0.469,0.603-0.621,1.001
		c-0.153,0.398-0.23,0.851-0.23,1.356s0.077,0.959,0.23,1.357c0.152,0.398,0.363,0.735,0.632,1.012s0.575,0.483,0.92,0.621
		c0.346,0.138,0.717,0.207,1.116,0.207c0.383,0,0.725-0.058,1.023-0.173c0.299-0.114,0.556-0.265,0.771-0.448
		c0.214-0.184,0.387-0.391,0.518-0.621c0.13-0.229,0.226-0.452,0.287-0.667l2.691,0.897c-0.123,0.476-0.326,0.939-0.609,1.392
		c-0.284,0.452-0.648,0.858-1.093,1.219c-0.445,0.36-0.966,0.651-1.564,0.874c-0.598,0.222-1.272,0.333-2.023,0.333
		c-0.828,0-1.606-0.149-2.335-0.448s-1.36-0.717-1.897-1.254c-0.537-0.536-0.958-1.169-1.265-1.897
		c-0.307-0.728-0.46-1.529-0.46-2.403s0.149-1.679,0.448-2.415c0.299-0.735,0.713-1.368,1.242-1.897
		c0.529-0.528,1.149-0.942,1.863-1.242c0.713-0.299,1.483-0.448,2.312-0.448c0.766,0,1.452,0.111,2.058,0.334
		c0.606,0.222,1.131,0.51,1.576,0.862c0.444,0.353,0.805,0.759,1.081,1.219c0.275,0.46,0.475,0.928,0.598,1.403l-2.737,0.92
		c-0.138-0.476-0.402-0.912-0.793-1.312C363.809,58.967,363.237,58.768,362.486,58.768z"/>
	<path d="M369.685,52.581c0-0.537,0.185-0.989,0.553-1.357c0.367-0.368,0.812-0.552,1.334-0.552c0.536,0,0.984,0.184,1.345,0.552
		s0.541,0.82,0.541,1.357c0,0.506-0.181,0.942-0.541,1.311s-0.809,0.552-1.345,0.552c-0.521,0-0.967-0.184-1.334-0.552
		C369.869,53.523,369.685,53.087,369.685,52.581z M370.053,67.6V56.283h3.06V67.6H370.053z"/>
	<path d="M386.521,64.356c-0.139,0.491-0.356,0.955-0.656,1.392c-0.299,0.438-0.663,0.816-1.092,1.139
		c-0.43,0.322-0.932,0.579-1.507,0.771s-1.207,0.287-1.897,0.287c-0.782,0-1.526-0.134-2.231-0.402
		c-0.705-0.268-1.326-0.663-1.862-1.185c-0.537-0.521-0.963-1.157-1.276-1.909c-0.314-0.751-0.472-1.602-0.472-2.553
		c0-0.904,0.153-1.725,0.46-2.461s0.717-1.36,1.23-1.874s1.107-0.912,1.782-1.196s1.372-0.426,2.093-0.426
		c1.764,0,3.136,0.521,4.117,1.564s1.472,2.477,1.472,4.301c0,0.215-0.008,0.418-0.022,0.609c-0.016,0.192-0.023,0.303-0.023,0.334
		h-8.096c0.016,0.367,0.104,0.709,0.265,1.023s0.368,0.586,0.621,0.816c0.253,0.229,0.548,0.41,0.886,0.54
		c0.337,0.131,0.697,0.195,1.081,0.195c0.72,0,1.283-0.161,1.69-0.482c0.405-0.322,0.701-0.736,0.885-1.242L386.521,64.356z
		 M383.669,60.653c-0.016-0.275-0.073-0.548-0.172-0.816c-0.101-0.268-0.254-0.506-0.461-0.713
		c-0.206-0.207-0.468-0.375-0.781-0.506c-0.314-0.13-0.687-0.195-1.116-0.195c-0.398,0-0.751,0.068-1.058,0.207
		c-0.307,0.138-0.567,0.314-0.782,0.528c-0.215,0.215-0.379,0.453-0.494,0.714s-0.181,0.521-0.195,0.781H383.669z"/>
	<path d="M392.156,67.6h-3.06V56.283h2.967v1.403c0.353-0.582,0.832-1.012,1.438-1.288c0.605-0.275,1.216-0.414,1.829-0.414
		c0.705,0,1.314,0.119,1.828,0.356c0.514,0.238,0.939,0.557,1.276,0.955s0.587,0.874,0.748,1.426s0.241,1.135,0.241,1.748v7.13
		h-3.059v-6.601c0-0.645-0.165-1.181-0.495-1.61c-0.33-0.429-0.862-0.645-1.599-0.645c-0.675,0-1.195,0.227-1.563,0.679
		c-0.368,0.453-0.552,1.009-0.552,1.668V67.6z"/>
	<path d="M407.611,58.768c-0.398,0-0.771,0.069-1.115,0.207s-0.648,0.342-0.908,0.609c-0.262,0.269-0.469,0.603-0.621,1.001
		c-0.153,0.398-0.23,0.851-0.23,1.356s0.077,0.959,0.23,1.357c0.152,0.398,0.363,0.735,0.632,1.012s0.575,0.483,0.92,0.621
		c0.346,0.138,0.717,0.207,1.116,0.207c0.383,0,0.725-0.058,1.023-0.173c0.299-0.114,0.556-0.265,0.771-0.448
		c0.214-0.184,0.387-0.391,0.518-0.621c0.13-0.229,0.226-0.452,0.287-0.667l2.691,0.897c-0.123,0.476-0.326,0.939-0.609,1.392
		c-0.284,0.452-0.648,0.858-1.093,1.219c-0.445,0.36-0.966,0.651-1.564,0.874c-0.598,0.222-1.272,0.333-2.023,0.333
		c-0.828,0-1.606-0.149-2.335-0.448s-1.36-0.717-1.897-1.254c-0.537-0.536-0.958-1.169-1.265-1.897
		c-0.307-0.728-0.46-1.529-0.46-2.403s0.149-1.679,0.448-2.415c0.299-0.735,0.713-1.368,1.242-1.897
		c0.529-0.528,1.149-0.942,1.863-1.242c0.713-0.299,1.483-0.448,2.312-0.448c0.766,0,1.452,0.111,2.058,0.334
		c0.606,0.222,1.131,0.51,1.576,0.862c0.444,0.353,0.805,0.759,1.081,1.219c0.275,0.46,0.475,0.928,0.598,1.403l-2.737,0.92
		c-0.138-0.476-0.402-0.912-0.793-1.312C408.934,58.967,408.362,58.768,407.611,58.768z"/>
	<path d="M415.593,72.062l2.668-5.888l-4.807-9.891h3.427l3.013,6.624l2.783-6.624h3.267l-7.107,15.778H415.593z"/>
	<path d="M425.391,65.668c0-0.583,0.203-1.077,0.609-1.483s0.901-0.61,1.484-0.61c0.291,0,0.566,0.055,0.827,0.161
		c0.261,0.107,0.487,0.257,0.679,0.449c0.191,0.191,0.341,0.413,0.448,0.667c0.107,0.253,0.161,0.525,0.161,0.816
		s-0.054,0.563-0.161,0.816s-0.257,0.476-0.448,0.667s-0.418,0.341-0.679,0.448s-0.536,0.161-0.827,0.161
		c-0.583,0-1.078-0.203-1.484-0.609S425.391,66.251,425.391,65.668z"/>
</g>
<g>
	<path d="M291.064,84.752V94h-2.225v-9.248h-3.584v-2.096h9.393v2.096H291.064z"/>
	<path d="M298.215,94h-2.128V82.416h2.128v4.368c0.256-0.31,0.582-0.53,0.977-0.664s0.778-0.2,1.151-0.2
		c0.502,0,0.937,0.083,1.305,0.248c0.368,0.166,0.672,0.387,0.912,0.664c0.239,0.277,0.418,0.608,0.535,0.992
		c0.118,0.384,0.177,0.789,0.177,1.216V94h-2.128v-4.592c0-0.448-0.115-0.821-0.345-1.12s-0.6-0.448-1.111-0.448
		c-0.448,0-0.801,0.146-1.057,0.44c-0.256,0.293-0.395,0.658-0.416,1.096V94z"/>
	<path d="M312.488,91.744c-0.097,0.342-0.248,0.664-0.456,0.968s-0.462,0.568-0.761,0.792c-0.298,0.224-0.647,0.403-1.048,0.536
		c-0.399,0.133-0.84,0.2-1.319,0.2c-0.544,0-1.062-0.094-1.553-0.28c-0.49-0.187-0.923-0.461-1.296-0.824
		c-0.373-0.362-0.669-0.805-0.888-1.328c-0.219-0.522-0.328-1.114-0.328-1.775c0-0.63,0.106-1.2,0.32-1.712
		c0.213-0.513,0.498-0.947,0.855-1.305c0.357-0.356,0.771-0.634,1.24-0.832c0.47-0.197,0.954-0.296,1.456-0.296
		c1.227,0,2.182,0.363,2.864,1.088c0.683,0.726,1.023,1.724,1.023,2.992c0,0.149-0.005,0.291-0.016,0.424
		c-0.011,0.134-0.016,0.211-0.016,0.232h-5.633c0.011,0.256,0.072,0.493,0.185,0.712c0.111,0.219,0.256,0.408,0.432,0.568
		s0.382,0.285,0.616,0.376s0.485,0.136,0.752,0.136c0.501,0,0.894-0.112,1.176-0.336s0.488-0.512,0.616-0.864L312.488,91.744z
		 M310.504,89.168c-0.011-0.192-0.051-0.381-0.12-0.568c-0.069-0.187-0.176-0.352-0.32-0.496c-0.144-0.144-0.325-0.261-0.544-0.352
		s-0.478-0.136-0.775-0.136c-0.277,0-0.523,0.048-0.736,0.144c-0.214,0.097-0.395,0.219-0.544,0.368s-0.264,0.314-0.344,0.496
		s-0.126,0.362-0.136,0.544H310.504z"/>
	<path d="M320.359,94h-2.128v-7.872h2.064v0.976c0.245-0.404,0.578-0.703,1-0.896c0.421-0.192,0.845-0.288,1.271-0.288
		c0.491,0,0.915,0.083,1.272,0.248c0.357,0.166,0.653,0.387,0.888,0.664s0.408,0.608,0.521,0.992
		c0.111,0.384,0.168,0.789,0.168,1.216V94h-2.128v-4.592c0-0.448-0.115-0.821-0.345-1.12s-0.6-0.448-1.111-0.448
		c-0.47,0-0.832,0.157-1.088,0.472c-0.257,0.315-0.385,0.702-0.385,1.16V94z"/>
	<path d="M334.632,91.744c-0.097,0.342-0.248,0.664-0.456,0.968s-0.462,0.568-0.761,0.792c-0.298,0.224-0.647,0.403-1.048,0.536
		c-0.399,0.133-0.84,0.2-1.319,0.2c-0.544,0-1.062-0.094-1.553-0.28c-0.49-0.187-0.923-0.461-1.296-0.824
		c-0.373-0.362-0.669-0.805-0.888-1.328c-0.219-0.522-0.328-1.114-0.328-1.775c0-0.63,0.106-1.2,0.32-1.712
		c0.213-0.513,0.498-0.947,0.855-1.305c0.357-0.356,0.771-0.634,1.24-0.832c0.47-0.197,0.954-0.296,1.456-0.296
		c1.227,0,2.182,0.363,2.864,1.088c0.683,0.726,1.023,1.724,1.023,2.992c0,0.149-0.005,0.291-0.016,0.424
		c-0.011,0.134-0.016,0.211-0.016,0.232h-5.633c0.011,0.256,0.072,0.493,0.185,0.712c0.111,0.219,0.256,0.408,0.432,0.568
		s0.382,0.285,0.616,0.376s0.485,0.136,0.752,0.136c0.501,0,0.894-0.112,1.176-0.336s0.488-0.512,0.616-0.864L334.632,91.744z
		 M332.647,89.168c-0.011-0.192-0.051-0.381-0.12-0.568c-0.069-0.187-0.176-0.352-0.32-0.496c-0.144-0.144-0.325-0.261-0.544-0.352
		s-0.478-0.136-0.775-0.136c-0.277,0-0.523,0.048-0.736,0.144c-0.214,0.097-0.395,0.219-0.544,0.368s-0.264,0.314-0.344,0.496
		s-0.126,0.362-0.136,0.544H332.647z"/>
	<path d="M342.999,86.128l1.696,5.072l1.456-5.072h2.111L345.799,94h-2.128l-1.84-5.376L340.023,94h-2.16l-2.512-7.872h2.239
		l1.456,5.056l1.712-5.056H342.999z"/>
	<path d="M359.352,85.968c-0.032-0.16-0.088-0.333-0.168-0.52s-0.2-0.36-0.36-0.521s-0.365-0.293-0.616-0.399s-0.558-0.16-0.92-0.16
		c-0.267,0-0.51,0.04-0.728,0.12c-0.219,0.08-0.406,0.187-0.561,0.319c-0.154,0.134-0.274,0.286-0.359,0.456
		c-0.086,0.171-0.129,0.353-0.129,0.544c0,0.31,0.102,0.579,0.305,0.809c0.202,0.229,0.512,0.387,0.928,0.472l1.584,0.304
		c0.512,0.097,0.965,0.251,1.36,0.465c0.395,0.213,0.725,0.466,0.992,0.76c0.266,0.293,0.469,0.621,0.607,0.983
		c0.139,0.363,0.208,0.742,0.208,1.137c0,0.438-0.091,0.866-0.271,1.288c-0.182,0.421-0.446,0.794-0.792,1.119
		c-0.347,0.326-0.773,0.59-1.28,0.792c-0.507,0.203-1.091,0.305-1.752,0.305c-0.758,0-1.408-0.109-1.952-0.328s-1-0.499-1.368-0.84
		c-0.368-0.342-0.647-0.723-0.84-1.145c-0.192-0.421-0.31-0.834-0.352-1.239l2.048-0.545c0.021,0.278,0.088,0.545,0.199,0.801
		c0.112,0.256,0.27,0.482,0.473,0.68c0.202,0.197,0.453,0.354,0.752,0.472c0.299,0.118,0.65,0.177,1.056,0.177
		c0.598,0,1.054-0.131,1.368-0.393c0.314-0.261,0.472-0.595,0.472-1c0-0.33-0.117-0.616-0.352-0.855
		c-0.234-0.24-0.576-0.403-1.024-0.488l-1.584-0.32c-0.906-0.181-1.629-0.552-2.168-1.112c-0.538-0.56-0.808-1.271-0.808-2.136
		c0-0.501,0.104-0.968,0.312-1.399c0.208-0.433,0.493-0.809,0.856-1.128c0.362-0.32,0.784-0.571,1.264-0.752
		c0.48-0.182,0.986-0.272,1.521-0.272c0.683,0,1.267,0.094,1.752,0.28s0.888,0.424,1.208,0.712c0.319,0.288,0.567,0.605,0.744,0.952
		c0.176,0.347,0.296,0.68,0.359,1L359.352,85.968z"/>
	<path d="M365.91,86.128h1.584v1.888h-1.584v3.296c0,0.342,0.077,0.579,0.232,0.713c0.154,0.133,0.387,0.199,0.696,0.199
		c0.128,0,0.256-0.005,0.384-0.016s0.218-0.026,0.271-0.048v1.76c-0.096,0.043-0.242,0.085-0.439,0.128
		c-0.198,0.043-0.451,0.064-0.761,0.064c-0.768,0-1.376-0.214-1.823-0.641c-0.448-0.426-0.672-1.023-0.672-1.792v-3.664h-1.425
		v-1.888h0.4c0.416,0,0.723-0.12,0.92-0.36c0.197-0.239,0.296-0.535,0.296-0.888v-1.104h1.92V86.128z"/>
	<path d="M369.942,97.104l1.856-4.096l-3.344-6.88h2.384l2.096,4.608l1.937-4.608h2.271l-4.943,10.976H369.942z"/>
	<path d="M378.438,94V82.416h2.128V94H378.438z"/>
	<path d="M382.582,83.552c0-0.373,0.128-0.688,0.384-0.943c0.256-0.257,0.565-0.385,0.929-0.385c0.373,0,0.685,0.128,0.936,0.385
		c0.251,0.256,0.376,0.57,0.376,0.943c0,0.353-0.125,0.656-0.376,0.912s-0.562,0.384-0.936,0.384c-0.363,0-0.673-0.128-0.929-0.384
		S382.582,83.904,382.582,83.552z M382.838,94v-7.872h2.128V94H382.838z"/>
	<path d="M389.366,94h-2.128v-7.872h2.064v0.976c0.245-0.404,0.578-0.703,1-0.896c0.421-0.192,0.845-0.288,1.271-0.288
		c0.491,0,0.915,0.083,1.272,0.248c0.357,0.166,0.653,0.387,0.888,0.664s0.408,0.608,0.521,0.992
		c0.111,0.384,0.168,0.789,0.168,1.216V94h-2.128v-4.592c0-0.448-0.115-0.821-0.345-1.12s-0.6-0.448-1.111-0.448
		c-0.47,0-0.832,0.157-1.088,0.472c-0.257,0.315-0.385,0.702-0.385,1.16V94z"/>
	<path d="M403.639,91.744c-0.097,0.342-0.248,0.664-0.456,0.968s-0.462,0.568-0.761,0.792c-0.298,0.224-0.647,0.403-1.048,0.536
		c-0.399,0.133-0.84,0.2-1.319,0.2c-0.544,0-1.062-0.094-1.553-0.28c-0.49-0.187-0.923-0.461-1.296-0.824
		c-0.373-0.362-0.669-0.805-0.888-1.328c-0.219-0.522-0.328-1.114-0.328-1.775c0-0.63,0.106-1.2,0.32-1.712
		c0.213-0.513,0.498-0.947,0.855-1.305c0.357-0.356,0.771-0.634,1.24-0.832c0.47-0.197,0.954-0.296,1.456-0.296
		c1.227,0,2.182,0.363,2.864,1.088c0.683,0.726,1.023,1.724,1.023,2.992c0,0.149-0.005,0.291-0.016,0.424
		c-0.011,0.134-0.016,0.211-0.016,0.232h-5.633c0.011,0.256,0.072,0.493,0.185,0.712c0.111,0.219,0.256,0.408,0.432,0.568
		s0.382,0.285,0.616,0.376s0.485,0.136,0.752,0.136c0.501,0,0.894-0.112,1.176-0.336s0.488-0.512,0.616-0.864L403.639,91.744z
		 M401.654,89.168c-0.011-0.192-0.051-0.381-0.12-0.568c-0.069-0.187-0.176-0.352-0.32-0.496c-0.144-0.144-0.325-0.261-0.544-0.352
		s-0.478-0.136-0.775-0.136c-0.277,0-0.523,0.048-0.736,0.144c-0.214,0.097-0.395,0.219-0.544,0.368s-0.264,0.314-0.344,0.496
		s-0.126,0.362-0.136,0.544H401.654z"/>
	<path d="M291.704,107.536l3.728,5.664h-2.672l-2.448-3.92l-2.464,3.92h-2.592l3.729-5.68l-3.712-5.664h2.655l2.433,3.92l2.479-3.92
		h2.576L291.704,107.536z"/>
	<path d="M297,113.2v-11.344h2.208v9.231h5.056v2.112H297z"/>
	<path d="M317.063,113.2v-4.704h-4.944v4.704h-2.208v-11.344h2.208v4.56h4.944v-4.56h2.224V113.2H317.063z"/>
	<path d="M322.184,116.304l1.856-4.096l-3.344-6.88h2.384l2.096,4.608l1.937-4.608h2.271l-4.943,10.976H322.184z"/>
	<path d="M330.679,113.2v-11.584h2.097v4.576c0.181-0.277,0.477-0.525,0.888-0.744c0.41-0.219,0.909-0.328,1.496-0.328
		c0.576,0,1.088,0.104,1.536,0.312c0.447,0.208,0.829,0.495,1.144,0.863s0.552,0.803,0.712,1.305c0.16,0.501,0.24,1.045,0.24,1.632
		c0,0.598-0.088,1.149-0.264,1.656c-0.177,0.506-0.427,0.946-0.752,1.319c-0.326,0.374-0.718,0.664-1.177,0.872
		c-0.458,0.208-0.965,0.312-1.52,0.312c-0.544,0-1.017-0.107-1.416-0.32c-0.4-0.213-0.707-0.49-0.92-0.832v0.96H330.679z
		 M336.663,109.248c0-0.726-0.189-1.277-0.568-1.656c-0.379-0.378-0.84-0.567-1.384-0.567c-0.267,0-0.52,0.048-0.76,0.144
		c-0.24,0.097-0.448,0.237-0.624,0.424c-0.176,0.188-0.317,0.419-0.424,0.696c-0.107,0.277-0.16,0.598-0.16,0.96
		c0,0.353,0.053,0.667,0.16,0.944c0.106,0.277,0.248,0.512,0.424,0.704c0.176,0.191,0.384,0.339,0.624,0.439
		c0.24,0.102,0.493,0.152,0.76,0.152c0.544,0,1.005-0.192,1.384-0.576S336.663,109.974,336.663,109.248z"/>
	<path d="M345.271,107.44c-0.213-0.043-0.427-0.064-0.64-0.064c-0.277,0-0.539,0.038-0.784,0.112s-0.458,0.197-0.64,0.368
		s-0.328,0.397-0.44,0.68c-0.111,0.283-0.168,0.638-0.168,1.064v3.6h-2.128v-7.872h2.064v1.168c0.117-0.256,0.27-0.467,0.456-0.632
		s0.384-0.291,0.592-0.376s0.416-0.145,0.624-0.176c0.208-0.032,0.397-0.048,0.568-0.048c0.085,0,0.168,0.002,0.248,0.008
		c0.079,0.005,0.162,0.014,0.247,0.023V107.44z"/>
	<path d="M346.519,102.752c0-0.373,0.128-0.688,0.384-0.943c0.256-0.257,0.565-0.385,0.929-0.385c0.373,0,0.685,0.128,0.936,0.385
		c0.251,0.256,0.376,0.57,0.376,0.943c0,0.353-0.125,0.656-0.376,0.912s-0.562,0.384-0.936,0.384c-0.363,0-0.673-0.128-0.929-0.384
		S346.519,103.104,346.519,102.752z M346.774,113.2v-7.872h2.128v7.872H346.774z"/>
	<path d="M358.679,111.776c0,0.267,0.006,0.53,0.017,0.792c0.01,0.262,0.026,0.472,0.048,0.632h-2.032
		c-0.021-0.085-0.04-0.213-0.056-0.384c-0.017-0.171-0.024-0.347-0.024-0.528c-0.182,0.31-0.461,0.571-0.84,0.784
		s-0.835,0.32-1.368,0.32c-0.565,0-1.083-0.104-1.552-0.312c-0.47-0.208-0.872-0.496-1.208-0.864
		c-0.336-0.367-0.6-0.805-0.792-1.312s-0.288-1.059-0.288-1.656c0-0.576,0.094-1.114,0.28-1.616
		c0.187-0.501,0.445-0.936,0.775-1.304c0.331-0.368,0.729-0.658,1.192-0.872c0.464-0.213,0.974-0.32,1.528-0.32
		c0.341,0,0.637,0.032,0.888,0.097c0.251,0.063,0.467,0.144,0.648,0.24c0.181,0.096,0.327,0.199,0.439,0.312
		s0.194,0.222,0.248,0.328v-4.496h2.096V111.776z M352.728,109.248c0,0.704,0.184,1.254,0.552,1.648s0.834,0.592,1.399,0.592
		c0.544,0,1.003-0.197,1.376-0.592c0.374-0.395,0.561-0.949,0.561-1.664c0-0.704-0.187-1.245-0.561-1.624
		c-0.373-0.379-0.832-0.568-1.376-0.568s-1.005,0.192-1.384,0.576S352.728,108.544,352.728,109.248z"/>
	<path d="M360.775,111.856c0-0.405,0.141-0.749,0.424-1.032c0.282-0.282,0.626-0.424,1.032-0.424c0.202,0,0.394,0.037,0.575,0.111
		c0.182,0.075,0.339,0.18,0.473,0.312c0.133,0.134,0.237,0.288,0.312,0.464s0.112,0.365,0.112,0.568
		c0,0.202-0.038,0.392-0.112,0.567c-0.074,0.177-0.179,0.331-0.312,0.465c-0.134,0.133-0.291,0.237-0.473,0.312
		s-0.373,0.112-0.575,0.112c-0.406,0-0.75-0.142-1.032-0.424C360.916,112.605,360.775,112.262,360.775,111.856z"/>
</g>
<title>sample</title>
<desc>Created with Sketch.</desc>
<rect id="Rectangle-path_1_" fill="#DADADA" width="271.553" height="250"/>
<rect id="Rectangle-path_2_" x="285" y="136" width="114.5" height="26.673"/>
<g enable-background="new    ">
	<path fill="#FFFFFF" d="M292.189,156.13v-8.508h5.377v1.572h-3.721v2.1h3.312v1.524h-3.301v3.312H292.189z"/>
	<path fill="#FFFFFF" d="M301.466,152.854h-0.864v3.276h-1.668v-8.508h3.324c0.416,0,0.79,0.068,1.122,0.204
		s0.616,0.319,0.853,0.552c0.235,0.232,0.418,0.508,0.545,0.828c0.129,0.32,0.192,0.664,0.192,1.032c0,0.6-0.161,1.111-0.485,1.535
		c-0.324,0.425-0.767,0.717-1.326,0.876l1.824,3.48h-1.849L301.466,152.854z M301.945,151.426c0.424,0,0.752-0.107,0.984-0.324
		c0.232-0.216,0.348-0.5,0.348-0.852c0-0.36-0.115-0.648-0.348-0.864s-0.561-0.324-0.984-0.324h-1.344v2.364H301.945z"/>
	<path fill="#FFFFFF" d="M305.869,151.882c0-0.688,0.121-1.306,0.361-1.854c0.239-0.548,0.559-1.015,0.959-1.398
		s0.864-0.678,1.393-0.882c0.527-0.204,1.08-0.307,1.656-0.307s1.129,0.103,1.662,0.307c0.531,0.204,0.998,0.498,1.397,0.882
		s0.72,0.851,0.96,1.398s0.359,1.166,0.359,1.854c0,0.688-0.119,1.304-0.359,1.848c-0.24,0.545-0.561,1.009-0.96,1.393
		s-0.866,0.678-1.397,0.882c-0.533,0.204-1.086,0.306-1.662,0.306s-1.129-0.102-1.656-0.306c-0.528-0.204-0.992-0.498-1.393-0.882
		s-0.72-0.848-0.959-1.393C305.99,153.186,305.869,152.57,305.869,151.882z M307.586,151.87c0,0.479,0.076,0.897,0.229,1.254
		c0.151,0.355,0.354,0.65,0.605,0.882c0.252,0.232,0.535,0.406,0.852,0.522c0.316,0.115,0.639,0.174,0.967,0.174
		s0.651-0.059,0.972-0.174c0.319-0.116,0.606-0.29,0.858-0.522c0.252-0.231,0.453-0.526,0.605-0.882
		c0.152-0.356,0.229-0.774,0.229-1.254c0-0.48-0.076-0.898-0.229-1.254c-0.152-0.356-0.354-0.65-0.605-0.883
		c-0.252-0.231-0.539-0.405-0.858-0.521c-0.32-0.116-0.644-0.174-0.972-0.174s-0.65,0.058-0.967,0.174s-0.6,0.29-0.852,0.521
		c-0.252,0.232-0.454,0.526-0.605,0.883C307.662,150.972,307.586,151.39,307.586,151.87z"/>
	<path fill="#FFFFFF" d="M323.918,156.13v-5.964l-2.448,5.964h-1.38l-2.447-5.916v5.916h-1.584v-8.508h2.184l2.556,6.144
		l2.496-6.144h2.256v8.508H323.918z"/>
</g>
<g enable-background="new    ">
	<path fill="#FFFFFF" d="M334.523,148.857c-0.108-0.287-0.205-0.594-0.289-0.918c-0.084-0.323-0.125-0.684-0.125-1.079
		c0-0.505,0.099-0.984,0.297-1.44c0.197-0.456,0.474-0.855,0.828-1.197c0.354-0.342,0.783-0.614,1.287-0.818
		s1.062-0.307,1.674-0.307c0.768,0,1.412,0.114,1.935,0.342c0.522,0.229,0.942,0.52,1.261,0.873c0.316,0.354,0.549,0.747,0.692,1.18
		c0.144,0.432,0.222,0.846,0.233,1.241l-2.25,0.36c-0.012-0.636-0.18-1.119-0.504-1.449c-0.324-0.329-0.768-0.495-1.332-0.495
		c-0.228,0-0.447,0.036-0.656,0.108c-0.211,0.072-0.396,0.184-0.559,0.333c-0.162,0.15-0.294,0.333-0.396,0.549
		c-0.103,0.216-0.153,0.468-0.153,0.756c0,0.36,0.051,0.696,0.153,1.009c0.102,0.312,0.219,0.63,0.351,0.953h3.637v1.908h-3.043
		c0.012,0.084,0.019,0.162,0.019,0.234s0,0.144,0,0.216c0,0.576-0.126,1.11-0.378,1.603s-0.637,0.888-1.152,1.188h3.295
		c0.539,0,0.953-0.168,1.241-0.504s0.433-0.756,0.433-1.26l2.195,0.216c0,0.528-0.081,1.017-0.242,1.467
		c-0.162,0.45-0.391,0.837-0.685,1.161s-0.654,0.579-1.08,0.765c-0.427,0.187-0.903,0.279-1.431,0.279h-6.588v-2.088
		c0.647-0.24,1.16-0.585,1.539-1.035c0.377-0.45,0.566-0.963,0.566-1.539c0-0.204-0.03-0.438-0.09-0.702h-1.926v-1.908H334.523z"/>
	<path fill="#FFFFFF" d="M345.341,153.682c0.239,0.133,0.573,0.255,0.999,0.369s0.855,0.171,1.287,0.171
		c1.271,0,2.265-0.339,2.979-1.017c0.715-0.678,1.102-1.611,1.162-2.799c-0.24,0.408-0.628,0.747-1.162,1.017
		c-0.533,0.271-1.16,0.405-1.881,0.405c-0.576,0-1.131-0.096-1.664-0.288c-0.535-0.192-1.003-0.474-1.404-0.846
		c-0.402-0.372-0.724-0.822-0.963-1.351c-0.24-0.527-0.36-1.128-0.36-1.8c0-0.648,0.122-1.245,0.368-1.791s0.586-1.017,1.018-1.413
		c0.432-0.396,0.941-0.702,1.53-0.918c0.588-0.216,1.224-0.324,1.907-0.324c0.672,0,1.314,0.12,1.927,0.36s1.149,0.609,1.61,1.106
		c0.463,0.498,0.832,1.123,1.107,1.872c0.275,0.75,0.414,1.629,0.414,2.638c0,1.151-0.141,2.181-0.423,3.087
		s-0.696,1.674-1.242,2.304s-1.229,1.11-2.052,1.44c-0.822,0.329-1.773,0.494-2.854,0.494c-0.264,0-0.537-0.018-0.818-0.054
		c-0.282-0.036-0.553-0.084-0.811-0.144c-0.258-0.061-0.504-0.132-0.738-0.216c-0.233-0.084-0.429-0.181-0.584-0.288
		L345.341,153.682z M351.443,147.472c0-0.336-0.063-0.642-0.189-0.918c-0.126-0.275-0.297-0.513-0.514-0.711
		c-0.215-0.198-0.465-0.351-0.746-0.459c-0.282-0.107-0.58-0.162-0.891-0.162c-0.312,0-0.609,0.055-0.892,0.162
		c-0.282,0.108-0.531,0.258-0.747,0.45s-0.387,0.429-0.514,0.711c-0.125,0.282-0.188,0.591-0.188,0.927
		c0,0.349,0.063,0.663,0.188,0.945c0.127,0.282,0.295,0.521,0.505,0.72s0.456,0.349,0.737,0.45c0.282,0.103,0.586,0.153,0.91,0.153
		c0.311,0,0.608-0.055,0.891-0.162c0.281-0.108,0.531-0.262,0.746-0.459c0.217-0.198,0.388-0.436,0.514-0.711
		C351.38,148.132,351.443,147.82,351.443,147.472z"/>
	<path fill="#FFFFFF" d="M355.439,154.689c0-0.432,0.155-0.792,0.467-1.079c0.312-0.288,0.703-0.433,1.17-0.433
		c0.564,0,1.002,0.198,1.314,0.594c0.312,0.396,0.469,0.889,0.469,1.477c0,0.66-0.103,1.229-0.307,1.71
		c-0.204,0.479-0.462,0.876-0.773,1.188c-0.312,0.312-0.654,0.552-1.026,0.721c-0.372,0.168-0.726,0.27-1.062,0.306v-1.152
		c0.203-0.048,0.404-0.129,0.603-0.242c0.198-0.114,0.378-0.256,0.54-0.424s0.294-0.359,0.396-0.575
		c0.102-0.217,0.158-0.45,0.17-0.702c-0.096,0.071-0.252,0.107-0.468,0.107c-0.444,0-0.804-0.141-1.079-0.423
		C355.576,155.479,355.439,155.122,355.439,154.689z"/>
	<path fill="#FFFFFF" d="M361.451,153.682c0.239,0.133,0.572,0.255,0.998,0.369s0.855,0.171,1.287,0.171
		c1.271,0,2.266-0.339,2.979-1.017s1.101-1.611,1.161-2.799c-0.24,0.408-0.627,0.747-1.161,1.017
		c-0.534,0.271-1.161,0.405-1.881,0.405c-0.576,0-1.132-0.096-1.665-0.288c-0.534-0.192-1.002-0.474-1.404-0.846
		s-0.723-0.822-0.963-1.351c-0.24-0.527-0.359-1.128-0.359-1.8c0-0.648,0.122-1.245,0.368-1.791s0.585-1.017,1.017-1.413
		c0.433-0.396,0.942-0.702,1.531-0.918c0.588-0.216,1.223-0.324,1.907-0.324c0.672,0,1.313,0.12,1.927,0.36
		c0.611,0.24,1.148,0.609,1.61,1.106c0.462,0.498,0.831,1.123,1.106,1.872c0.276,0.75,0.414,1.629,0.414,2.638
		c0,1.151-0.141,2.181-0.422,3.087c-0.283,0.906-0.697,1.674-1.242,2.304c-0.547,0.63-1.23,1.11-2.053,1.44
		c-0.822,0.329-1.772,0.494-2.853,0.494c-0.265,0-0.537-0.018-0.819-0.054c-0.281-0.036-0.552-0.084-0.811-0.144
		c-0.258-0.061-0.504-0.132-0.737-0.216s-0.429-0.181-0.585-0.288L361.451,153.682z M367.553,147.472
		c0-0.336-0.062-0.642-0.189-0.918c-0.125-0.275-0.297-0.513-0.513-0.711s-0.465-0.351-0.747-0.459
		c-0.281-0.107-0.579-0.162-0.891-0.162c-0.312,0-0.609,0.055-0.891,0.162c-0.283,0.108-0.531,0.258-0.748,0.45
		c-0.215,0.192-0.387,0.429-0.513,0.711s-0.188,0.591-0.188,0.927c0,0.349,0.062,0.663,0.188,0.945s0.294,0.521,0.505,0.72
		c0.209,0.198,0.455,0.349,0.737,0.45c0.282,0.103,0.585,0.153,0.909,0.153c0.312,0,0.609-0.055,0.891-0.162
		c0.282-0.108,0.531-0.262,0.747-0.459c0.216-0.198,0.388-0.436,0.513-0.711C367.49,148.132,367.553,147.82,367.553,147.472z"/>
	<path fill="#FFFFFF" d="M372.881,153.682c0.24,0.133,0.572,0.255,0.999,0.369c0.426,0.114,0.854,0.171,1.287,0.171
		c1.271,0,2.265-0.339,2.979-1.017c0.713-0.678,1.1-1.611,1.16-2.799c-0.24,0.408-0.627,0.747-1.16,1.017
		c-0.535,0.271-1.162,0.405-1.881,0.405c-0.576,0-1.132-0.096-1.666-0.288c-0.533-0.192-1.002-0.474-1.404-0.846
		c-0.401-0.372-0.723-0.822-0.963-1.351c-0.24-0.527-0.359-1.128-0.359-1.8c0-0.648,0.123-1.245,0.369-1.791
		s0.584-1.017,1.017-1.413c0.433-0.396,0.942-0.702,1.53-0.918s1.224-0.324,1.908-0.324c0.672,0,1.313,0.12,1.926,0.36
		c0.611,0.24,1.148,0.609,1.611,1.106c0.461,0.498,0.83,1.123,1.106,1.872c0.276,0.75,0.414,1.629,0.414,2.638
		c0,1.151-0.142,2.181-0.423,3.087c-0.282,0.906-0.696,1.674-1.242,2.304s-1.23,1.11-2.052,1.44
		c-0.822,0.329-1.772,0.494-2.853,0.494c-0.265,0-0.537-0.018-0.82-0.054c-0.281-0.036-0.551-0.084-0.81-0.144
		c-0.258-0.061-0.504-0.132-0.737-0.216c-0.234-0.084-0.43-0.181-0.586-0.288L372.881,153.682z M378.982,147.472
		c0-0.336-0.062-0.642-0.188-0.918c-0.126-0.275-0.297-0.513-0.513-0.711c-0.217-0.198-0.465-0.351-0.748-0.459
		c-0.281-0.107-0.578-0.162-0.891-0.162s-0.609,0.055-0.891,0.162c-0.282,0.108-0.531,0.258-0.747,0.45s-0.388,0.429-0.513,0.711
		c-0.127,0.282-0.189,0.591-0.189,0.927c0,0.349,0.062,0.663,0.189,0.945c0.125,0.282,0.293,0.521,0.504,0.72
		c0.209,0.198,0.455,0.349,0.738,0.45c0.281,0.103,0.584,0.153,0.908,0.153c0.312,0,0.609-0.055,0.891-0.162
		c0.283-0.108,0.531-0.262,0.748-0.459c0.216-0.198,0.387-0.436,0.513-0.711C378.92,148.132,378.982,147.82,378.982,147.472z"/>
	<path fill="#FFFFFF" d="M384.311,153.682c0.24,0.133,0.572,0.255,0.999,0.369c0.426,0.114,0.854,0.171,1.287,0.171
		c1.271,0,2.265-0.339,2.979-1.017c0.713-0.678,1.1-1.611,1.16-2.799c-0.24,0.408-0.627,0.747-1.16,1.017
		c-0.535,0.271-1.162,0.405-1.881,0.405c-0.576,0-1.132-0.096-1.666-0.288c-0.533-0.192-1.002-0.474-1.404-0.846
		c-0.401-0.372-0.723-0.822-0.963-1.351c-0.24-0.527-0.359-1.128-0.359-1.8c0-0.648,0.123-1.245,0.369-1.791
		s0.584-1.017,1.017-1.413c0.433-0.396,0.942-0.702,1.53-0.918s1.224-0.324,1.908-0.324c0.672,0,1.313,0.12,1.926,0.36
		c0.611,0.24,1.148,0.609,1.611,1.106c0.461,0.498,0.83,1.123,1.106,1.872c0.276,0.75,0.414,1.629,0.414,2.638
		c0,1.151-0.142,2.181-0.423,3.087c-0.282,0.906-0.696,1.674-1.242,2.304s-1.23,1.11-2.052,1.44
		c-0.822,0.329-1.772,0.494-2.853,0.494c-0.265,0-0.537-0.018-0.82-0.054c-0.281-0.036-0.551-0.084-0.81-0.144
		c-0.258-0.061-0.504-0.132-0.737-0.216c-0.234-0.084-0.43-0.181-0.586-0.288L384.311,153.682z M390.412,147.472
		c0-0.336-0.062-0.642-0.188-0.918c-0.126-0.275-0.297-0.513-0.513-0.711c-0.217-0.198-0.465-0.351-0.748-0.459
		c-0.281-0.107-0.578-0.162-0.891-0.162s-0.609,0.055-0.891,0.162c-0.282,0.108-0.531,0.258-0.747,0.45s-0.388,0.429-0.513,0.711
		c-0.127,0.282-0.189,0.591-0.189,0.927c0,0.349,0.062,0.663,0.189,0.945c0.125,0.282,0.293,0.521,0.504,0.72
		c0.209,0.198,0.455,0.349,0.738,0.45c0.281,0.103,0.584,0.153,0.908,0.153c0.312,0,0.609-0.055,0.891-0.162
		c0.283-0.108,0.531-0.262,0.748-0.459c0.216-0.198,0.387-0.436,0.513-0.711C390.35,148.132,390.412,147.82,390.412,147.472z"/>
</g>
<path id="Shape" d="M138.309,165.961c0.774,0,1.442-0.628,1.442-1.404v-14.379c0-0.744-0.637-1.394-1.442-1.394
	c-0.774,0-1.442,0.628-1.442,1.394v14.379C136.867,165.312,137.513,165.961,138.309,165.961L138.309,165.961z"/>
<path id="Shape_1_" d="M132.125,165.961c0.766,0,1.443-0.628,1.443-1.404v-14.379c0-0.744-0.648-1.394-1.443-1.394
	c-0.775,0-1.451,0.628-1.451,1.394v14.379C130.674,165.312,131.32,165.961,132.125,165.961L132.125,165.961z"/>
<path id="Shape_2_" d="M125.941,165.961c0.767,0,1.434-0.628,1.434-1.404v-14.379c0-0.744-0.648-1.394-1.434-1.394
	s-1.453,0.628-1.453,1.394v14.379C124.488,165.312,125.138,165.961,125.941,165.961L125.941,165.961z"/>
<path id="Shape_3_" d="M119.748,165.961c0.775,0,1.443-0.628,1.443-1.404v-14.379c0-0.744-0.647-1.394-1.443-1.394
	c-0.774,0-1.441,0.628-1.441,1.394v14.379C118.307,165.312,118.953,165.961,119.748,165.961L119.748,165.961z"/>
<path id="Shape_4_" d="M113.555,165.961c0.785,0,1.453-0.628,1.453-1.404v-14.379c0-0.744-0.648-1.394-1.453-1.394
	c-0.766,0-1.434,0.628-1.434,1.394v14.379C112.121,165.312,112.77,165.961,113.555,165.961L113.555,165.961z"/>
<path id="Shape_5_" d="M156.87,165.961c0.775,0,1.442-0.628,1.442-1.404v-14.379c0-0.744-0.646-1.394-1.442-1.394
	c-0.774,0-1.442,0.628-1.442,1.394v14.379C155.427,165.312,156.075,165.961,156.87,165.961L156.87,165.961z"/>
<path id="Shape_6_" d="M144.494,165.961c0.785,0,1.453-0.628,1.453-1.404v-14.379c0-0.744-0.649-1.394-1.453-1.394
	c-0.766,0-1.434,0.628-1.434,1.394v14.379C143.06,165.312,143.698,165.961,144.494,165.961L144.494,165.961z"/>
<path id="Shape_7_" d="M150.687,165.961c0.774,0,1.442-0.628,1.442-1.404v-14.379c0-0.744-0.648-1.394-1.442-1.394
	c-0.776,0-1.444,0.628-1.444,1.394v14.379C149.243,165.312,149.891,165.961,150.687,165.961L150.687,165.961z"/>
<path id="Shape_8_" d="M104.643,163.251c0.941,4.692,5.574,8.44,10.344,8.44h40.46c4.771,0,9.403-3.777,10.346-8.44l2.376-11.759
	c0.942-4.7-2.17-8.441-6.94-8.441h-52.023c-4.76,0-7.881,3.771-6.938,8.441L104.643,163.251L104.643,163.251z M109.256,146.046
	h51.716c2.945,0,4.663,2.11,4.085,5.024l-2.366,11.789c-0.657,3.328-4.094,6.145-7.461,6.145h-40.222
	c-3.396,0-6.803-2.788-7.48-6.145l-2.355-11.789C104.593,148.175,106.331,146.046,109.256,146.046L109.256,146.046z"/>
<path id="Shape_9_" d="M96.318,90.126c-3.888,0.511-7.795,3.553-11.681,8.266c-1.452,1.766-2.788,3.641-4.004,5.516
	c-0.433,0.657-0.806,1.266-1.13,1.815c-0.205,0.334-0.344,0.579-0.412,0.707c0,0-0.54,1.187,0.6,1.816
	c1.139,0.646,1.924-0.433,1.924-0.433c0.254-0.462,0.756-1.295,1.452-2.355c1.148-1.797,2.434-3.583,3.809-5.242
	c3.455-4.201,6.871-6.851,9.814-7.244c0.257-0.038,0.502-0.06,0.747-0.06c0,0,1.236-0.155,1.236-1.472
	c0-1.314-1.236-1.394-1.236-1.394C97.064,90.047,96.69,90.076,96.318,90.126L96.318,90.126z"/>
<path id="Shape_10_" d="M39.938,185.141v-0.441C39.937,184.979,39.938,185.141,39.938,185.141L39.938,185.141z"/>
<path id="Shape_11_" d="M39.938,183.393v1.307c0-0.322,0.003-0.809,0.011-1.459C39.947,183.291,39.938,183.34,39.938,183.393
	L39.938,183.393z"/>
<path id="Shape_12_" d="M230.301,181.312c-0.188-8.334-1.09-28.445-5.576-41.845c-3.592-10.768-5.251-14.026-5.987-14.958
	c0.314-1.298,0.216-2.681,2.141-3.015c4.239-0.746,9.854-0.235,8.854-5.859c-1.001-5.625-5.899-9.1-12.466-7.961
	c-3.672,0.648-6.773,2.208-8.678,4.024l-0.923,1.021c-0.372,0.481-0.647,0.973-0.834,1.462l-0.893-1.236l-0.982-1.374L189.331,89.87
	c-2.777-3.848-8.933-6.979-13.684-6.979h-40.43v2.866h40.43c3.829,0,9.109,2.679,11.337,5.781l17.503,24.303l1.098,1.532
	c-9.029,0.511-49.401,2.757-71.79,2.757c-22.419,0-60.681-2.246-69.104-2.757l1.1-1.532l17.503-24.303
	c2.228-3.103,7.508-5.781,11.335-5.781h40.433v-2.866H94.629c-4.749,0-10.913,3.131-13.682,6.979L65.32,111.573l-0.981,1.374
	l-0.903,1.236c-0.176-0.489-0.46-0.98-0.822-1.462L61.69,111.7c-1.904-1.816-5.016-3.376-8.688-4.024
	c-6.566-1.139-11.455,2.336-12.456,7.961c-1.001,5.624,4.612,5.113,8.854,5.859c1.925,0.334,1.826,1.717,2.142,3.015
	c-0.737,0.932-2.396,4.19-5.988,14.958c-4.879,14.592-5.521,37.135-5.604,43.771c0.03-1.725,0.547-3.321,1.442-4.665l-0.137,6.409
	l1.549,5.869l22.97,13.397l2.866,0.344v1.195c2.6,0.176,5.482,0.276,8.676,0.276c0,0,36.967,3.113,56.695,2.887v0.02h2.513v-0.02
	c19.649,0.256,56.439-2.887,56.439-2.887c3.189,0,6.065-0.098,8.667-0.273v5.979c0,4.76,3.896,8.627,8.668,8.627h11.543
	c4.78,0,8.658-3.836,8.658-8.627V183.18C230.499,182.538,230.429,181.912,230.301,181.312L230.301,181.312z M188.634,147.352
	c6.38,0,11.553,5.123,11.553,11.444c0,6.341-5.173,11.465-11.553,11.465c-6.381,0-11.554-5.124-11.554-11.465
	C177.081,152.475,182.253,147.352,188.634,147.352L188.634,147.352z M109.205,143.051h52.023c4.771,0,7.883,3.741,6.94,8.441
	l-2.376,11.759c-0.942,4.663-5.574,8.44-10.346,8.44h-40.46c-4.77,0-9.402-3.748-10.344-8.44l-2.376-11.759
	C101.324,146.82,104.445,143.051,109.205,143.051L109.205,143.051z M84.688,147.352c6.379,0,11.552,5.123,11.552,11.444
	c0,6.341-5.173,11.465-11.552,11.465c-6.381,0-11.553-5.124-11.553-11.465C73.135,152.475,78.307,147.352,84.688,147.352
	L84.688,147.352z M61.59,147.352c4.781,0,8.658,3.848,8.658,8.588c0,4.742-3.877,8.588-8.658,8.588
	c-4.789,0-8.666-3.846-8.666-8.588C52.924,151.198,56.801,147.352,61.59,147.352L61.59,147.352z M214.654,194.583
	c0,0-47.674,3.407-79.437,3.199c-31.762-0.195-76.512-3.22-76.512-3.22c-3.986-0.254-4.889-2.688-2.021-5.438l1.148-1.09
	c2.875-2.748,8.402-4.702,12.387-4.389c0,0,34.433,3.094,64.998,3.094c30.556,0,67.914-3.133,67.914-3.133
	c3.947-0.293,9.502,1.689,12.359,4.428l1.148,1.09C219.503,191.874,218.64,194.328,214.654,194.583L214.654,194.583z
	 M211.73,164.527c-4.781,0-8.658-3.848-8.658-8.59c0-4.739,3.877-8.588,8.658-8.588c4.79,0,8.668,3.849,8.668,8.588
	C220.398,160.682,216.52,164.527,211.73,164.527L211.73,164.527z"/>
<path id="Shape_13_" d="M46.013,199.55c-3.444-3.21-6.193-9.657-6.075-14.409v26.896c0,4.81,3.848,8.647,8.607,8.647H60.02
	c4.752,0,8.619-3.877,8.619-8.647v-6.245C50.257,204.551,46.013,199.55,46.013,199.55L46.013,199.55z"/>
<path id="Shape_14_" d="M65.772,204.251l-22.97-13.397l-1.549-5.869l0.137-6.409c-0.896,1.344-1.412,2.94-1.442,4.665
	c-0.008,0.65-0.011,1.137-0.011,1.459v0.441c-0.118,4.752,2.631,11.199,6.075,14.409c0,0,4.244,5.001,22.626,6.24v-1.195
	L65.772,204.251L65.772,204.251z"/>
</svg>
