<?xml version="1.0" encoding="UTF-8" standalone="no"?>
<svg width="476px" height="250px" viewBox="0 0 476 250" version="1.1" xmlns="http://www.w3.org/2000/svg" xmlns:xlink="http://www.w3.org/1999/xlink">
    <!-- Generator: Sketch 40.3 (33839) - http://www.bohemiancoding.com/sketch -->
    <title>sample</title>
    <desc>Created with Sketch.</desc>
    <defs></defs>
    <g id="Page-1" stroke="none" stroke-width="1" fill="none" fill-rule="evenodd">
        <g id="sample">
            <rect id="Rectangle-path" fill="#FFFFFF" x="0" y="0" width="476" height="250"></rect>
            <g id="Group" transform="translate(285.000000, 23.000000)" fill="#000000">
                <path d="M7.728,0.693 C8.526,0.693 9.231,0.804 9.844,1.026 C10.457,1.249 10.975,1.555 11.397,1.946 C11.819,2.338 12.14,2.801 12.363,3.338 C12.586,3.875 12.697,4.457 12.697,5.086 C12.697,5.93 12.474,6.665 12.03,7.294 C11.585,7.923 11.017,8.352 10.328,8.582 C10.726,8.674 11.099,8.835 11.443,9.065 C11.788,9.294 12.09,9.575 12.351,9.904 C12.612,10.234 12.819,10.614 12.972,11.043 C13.125,11.473 13.202,11.94 13.202,12.446 C13.202,13.105 13.083,13.715 12.846,14.274 C12.608,14.834 12.271,15.313 11.834,15.712 C11.396,16.111 10.867,16.425 10.246,16.655 C9.626,16.884 8.932,17 8.165,17 L1.863,17 L1.863,0.693 L7.728,0.693 L7.728,0.693 Z M7.245,7.432 C7.981,7.432 8.552,7.248 8.959,6.88 C9.364,6.512 9.568,6.014 9.568,5.385 C9.568,4.757 9.372,4.262 8.981,3.902 C8.59,3.542 8.003,3.362 7.221,3.362 L4.991,3.362 L4.991,7.432 L7.245,7.432 L7.245,7.432 Z M7.567,14.355 C8.348,14.355 8.954,14.167 9.383,13.791 C9.813,13.416 10.028,12.898 10.028,12.239 C10.028,11.594 9.824,11.07 9.419,10.663 C9.012,10.258 8.41,10.054 7.613,10.054 L4.991,10.054 L4.991,14.356 L7.567,14.356 L7.567,14.355 Z" id="Shape"></path>
                <path d="M25.921,13.757 C25.782,14.248 25.565,14.712 25.265,15.149 C24.966,15.587 24.602,15.965 24.173,16.288 C23.743,16.61 23.241,16.867 22.666,17.059 C22.091,17.251 21.459,17.346 20.769,17.346 C19.987,17.346 19.243,17.212 18.538,16.944 C17.833,16.676 17.212,16.281 16.676,15.759 C16.139,15.238 15.713,14.602 15.4,13.85 C15.086,13.099 14.928,12.248 14.928,11.297 C14.928,10.393 15.081,9.572 15.388,8.836 C15.695,8.1 16.105,7.476 16.618,6.962 C17.131,6.448 17.725,6.05 18.4,5.766 C19.075,5.482 19.772,5.34 20.493,5.34 C22.257,5.34 23.629,5.861 24.61,6.904 C25.591,7.947 26.082,9.381 26.082,11.205 C26.082,11.42 26.074,11.623 26.06,11.814 C26.044,12.006 26.037,12.117 26.037,12.148 L17.941,12.148 C17.957,12.515 18.045,12.857 18.206,13.171 C18.367,13.485 18.574,13.757 18.827,13.987 C19.08,14.216 19.375,14.397 19.713,14.527 C20.05,14.658 20.41,14.722 20.794,14.722 C21.514,14.722 22.077,14.561 22.484,14.24 C22.889,13.918 23.185,13.504 23.369,12.998 L25.921,13.757 L25.921,13.757 Z M23.068,10.054 C23.052,9.779 22.995,9.506 22.896,9.238 C22.795,8.97 22.642,8.732 22.435,8.525 C22.229,8.318 21.967,8.15 21.654,8.019 C21.34,7.889 20.967,7.824 20.538,7.824 C20.14,7.824 19.787,7.892 19.48,8.031 C19.173,8.169 18.913,8.345 18.698,8.559 C18.483,8.774 18.319,9.012 18.204,9.273 C18.089,9.534 18.023,9.794 18.009,10.054 L23.068,10.054 L23.068,10.054 Z" id="Shape"></path>
                <path d="M30.152,13.274 C30.182,13.718 30.367,14.117 30.704,14.469 C31.041,14.823 31.548,14.998 32.223,14.998 C32.729,14.998 33.104,14.887 33.35,14.664 C33.595,14.442 33.717,14.178 33.717,13.871 C33.717,13.61 33.625,13.385 33.442,13.192 C33.257,13.001 32.943,12.859 32.499,12.766 L31.004,12.421 C29.9,12.176 29.096,11.75 28.589,11.145 C28.083,10.54 27.83,9.838 27.83,9.041 C27.83,8.535 27.937,8.056 28.152,7.603 C28.367,7.15 28.662,6.76 29.038,6.43 C29.413,6.1 29.857,5.836 30.372,5.636 C30.886,5.437 31.449,5.337 32.062,5.337 C32.859,5.337 33.534,5.448 34.085,5.671 C34.638,5.893 35.086,6.173 35.431,6.51 C35.776,6.848 36.033,7.204 36.202,7.579 C36.371,7.955 36.471,8.297 36.501,8.603 L33.948,9.177 C33.917,9.009 33.868,8.836 33.799,8.659 C33.73,8.483 33.618,8.318 33.465,8.165 C33.312,8.012 33.124,7.889 32.902,7.797 C32.68,7.705 32.408,7.659 32.086,7.659 C31.688,7.659 31.347,7.766 31.063,7.981 C30.78,8.196 30.638,8.463 30.638,8.786 C30.638,9.062 30.733,9.284 30.925,9.453 C31.116,9.622 31.365,9.737 31.672,9.798 L33.282,10.144 C34.401,10.373 35.241,10.803 35.801,11.431 C36.361,12.06 36.641,12.788 36.641,13.617 C36.641,14.077 36.552,14.529 36.376,14.973 C36.199,15.418 35.927,15.817 35.56,16.169 C35.192,16.523 34.732,16.806 34.18,17.021 C33.627,17.235 32.984,17.342 32.247,17.342 C31.389,17.342 30.668,17.219 30.085,16.974 C29.502,16.729 29.027,16.43 28.659,16.078 C28.291,15.726 28.018,15.346 27.843,14.939 C27.666,14.533 27.563,14.168 27.532,13.846 L30.152,13.274 L30.152,13.274 Z" id="Shape"></path>
                <path d="M42.871,5.684 L45.147,5.684 L45.147,8.399 L42.871,8.399 L42.871,13.136 C42.871,13.627 42.981,13.968 43.204,14.159 C43.427,14.351 43.76,14.447 44.205,14.447 C44.389,14.447 44.573,14.439 44.757,14.424 C44.941,14.409 45.071,14.386 45.148,14.356 L45.148,16.885 C45.01,16.947 44.799,17.008 44.516,17.07 C44.232,17.131 43.868,17.162 43.423,17.162 C42.319,17.162 41.444,16.855 40.801,16.242 C40.158,15.629 39.835,14.769 39.835,13.666 L39.835,8.399 L37.788,8.399 L37.788,5.684 L38.363,5.684 C38.961,5.684 39.401,5.512 39.685,5.166 C39.968,4.821 40.11,4.396 40.11,3.89 L40.11,2.303 L42.871,2.303 L42.871,5.684 L42.871,5.684 Z" id="Shape"></path>
                <path d="M52.99,1.981 C52.99,1.444 53.175,0.992 53.543,0.624 C53.91,0.256 54.355,0.072 54.877,0.072 C55.413,0.072 55.861,0.256 56.222,0.624 C56.583,0.992 56.763,1.444 56.763,1.981 C56.763,2.487 56.582,2.923 56.222,3.292 C55.862,3.661 55.413,3.844 54.877,3.844 C54.356,3.844 53.91,3.66 53.543,3.292 C53.175,2.924 52.99,2.487 52.99,1.981 L52.99,1.981 Z M53.358,17 L53.358,5.684 L56.418,5.684 L56.418,17 L53.358,17 L53.358,17 Z" id="Shape"></path>
                <path d="M62.743,17 L59.683,17 L59.683,5.684 L62.65,5.684 L62.65,7.087 C63.003,6.505 63.482,6.075 64.088,5.799 C64.693,5.524 65.304,5.385 65.917,5.385 C66.622,5.385 67.231,5.504 67.745,5.741 C68.259,5.979 68.684,6.298 69.021,6.696 C69.358,7.094 69.608,7.57 69.769,8.122 C69.93,8.674 70.01,9.257 70.01,9.87 L70.01,17 L66.951,17 L66.951,10.399 C66.951,9.754 66.786,9.218 66.456,8.789 C66.126,8.36 65.594,8.144 64.857,8.144 C64.182,8.144 63.662,8.371 63.294,8.823 C62.926,9.276 62.742,9.832 62.742,10.491 L62.742,17 L62.743,17 Z" id="Shape"></path>
                <path d="M83.879,8.168 C83.481,8.168 83.108,8.237 82.764,8.375 C82.42,8.513 82.116,8.717 81.856,8.984 C81.594,9.253 81.387,9.587 81.235,9.985 C81.082,10.383 81.005,10.836 81.005,11.341 C81.005,11.846 81.082,12.3 81.235,12.698 C81.387,13.096 81.598,13.433 81.867,13.71 C82.136,13.987 82.442,14.193 82.787,14.331 C83.133,14.469 83.504,14.538 83.903,14.538 C84.286,14.538 84.628,14.48 84.926,14.365 C85.225,14.251 85.482,14.1 85.697,13.917 C85.911,13.733 86.084,13.526 86.215,13.296 C86.345,13.067 86.441,12.844 86.502,12.629 L89.193,13.526 C89.07,14.002 88.867,14.465 88.584,14.918 C88.3,15.37 87.936,15.776 87.491,16.137 C87.046,16.497 86.525,16.788 85.927,17.011 C85.329,17.233 84.655,17.344 83.904,17.344 C83.076,17.344 82.298,17.195 81.569,16.896 C80.84,16.597 80.209,16.179 79.672,15.642 C79.135,15.106 78.714,14.473 78.407,13.745 C78.1,13.017 77.947,12.216 77.947,11.342 C77.947,10.468 78.096,9.663 78.395,8.927 C78.694,8.192 79.108,7.559 79.637,7.03 C80.166,6.502 80.786,6.088 81.5,5.788 C82.213,5.489 82.983,5.34 83.812,5.34 C84.578,5.34 85.264,5.451 85.87,5.674 C86.476,5.896 87.001,6.184 87.446,6.536 C87.89,6.889 88.251,7.295 88.527,7.755 C88.802,8.215 89.002,8.683 89.125,9.158 L86.388,10.078 C86.25,9.602 85.986,9.166 85.595,8.766 C85.201,8.367 84.63,8.168 83.879,8.168 L83.879,8.168 Z" id="Shape"></path>
                <polygon id="Shape" points="91.446 17 91.446 0.348 94.506 0.348 94.506 17"></polygon>
                <path d="M97.013,13.918 C97.013,13.412 97.101,12.964 97.277,12.572 C97.454,12.181 97.695,11.841 98.002,11.549 C98.309,11.258 98.665,11.028 99.072,10.86 C99.477,10.691 99.919,10.569 100.394,10.492 L103.177,10.078 C103.498,10.032 103.721,9.936 103.844,9.79 C103.966,9.644 104.028,9.473 104.028,9.273 C104.028,8.874 103.871,8.529 103.556,8.238 C103.241,7.947 102.763,7.8 102.118,7.8 C101.443,7.8 100.926,7.985 100.565,8.352 C100.205,8.72 100.002,9.15 99.956,9.64 L97.242,9.066 C97.288,8.621 97.427,8.176 97.656,7.732 C97.886,7.287 98.2,6.888 98.599,6.536 C98.997,6.183 99.488,5.895 100.071,5.674 C100.654,5.451 101.328,5.34 102.095,5.34 C102.984,5.34 103.742,5.459 104.371,5.696 C105,5.934 105.51,6.248 105.9,6.639 C106.292,7.03 106.575,7.487 106.752,8.007 C106.928,8.528 107.017,9.073 107.017,9.64 L107.017,15.206 C107.017,15.513 107.032,15.839 107.063,16.184 C107.093,16.529 107.124,16.801 107.155,17 L104.349,17 C104.318,16.847 104.291,16.636 104.268,16.367 C104.246,16.099 104.234,15.857 104.234,15.642 C103.943,16.087 103.525,16.478 102.98,16.816 C102.436,17.153 101.742,17.322 100.899,17.322 C100.301,17.322 99.76,17.225 99.278,17.034 C98.795,16.843 98.384,16.59 98.047,16.275 C97.71,15.961 97.453,15.6 97.276,15.194 C97.101,14.788 97.013,14.363 97.013,13.918 L97.013,13.918 Z M101.543,15.045 C101.865,15.045 102.176,15.003 102.475,14.919 C102.774,14.834 103.038,14.689 103.269,14.481 C103.498,14.274 103.683,14.006 103.821,13.676 C103.959,13.346 104.028,12.928 104.028,12.422 L104.028,11.916 L101.475,12.307 C101.076,12.369 100.743,12.511 100.474,12.733 C100.205,12.956 100.072,13.289 100.072,13.734 C100.072,14.071 100.195,14.374 100.44,14.642 C100.685,14.91 101.053,15.045 101.543,15.045 L101.543,15.045 Z" id="Shape"></path>
                <path d="M111.755,13.274 C111.785,13.718 111.97,14.117 112.307,14.469 C112.644,14.823 113.151,14.998 113.826,14.998 C114.332,14.998 114.707,14.887 114.953,14.664 C115.198,14.442 115.32,14.178 115.32,13.871 C115.32,13.61 115.228,13.385 115.045,13.192 C114.86,13.001 114.546,12.859 114.102,12.766 L112.607,12.421 C111.503,12.176 110.699,11.75 110.192,11.145 C109.686,10.54 109.433,9.838 109.433,9.041 C109.433,8.535 109.54,8.056 109.755,7.603 C109.97,7.15 110.265,6.76 110.641,6.43 C111.016,6.1 111.46,5.836 111.975,5.636 C112.489,5.437 113.052,5.337 113.665,5.337 C114.462,5.337 115.137,5.448 115.688,5.671 C116.241,5.893 116.689,6.173 117.034,6.51 C117.379,6.848 117.636,7.204 117.805,7.579 C117.974,7.955 118.074,8.297 118.104,8.603 L115.551,9.177 C115.52,9.009 115.471,8.836 115.402,8.659 C115.333,8.483 115.221,8.318 115.068,8.165 C114.915,8.012 114.727,7.889 114.505,7.797 C114.283,7.705 114.011,7.659 113.689,7.659 C113.291,7.659 112.95,7.766 112.666,7.981 C112.383,8.196 112.241,8.463 112.241,8.786 C112.241,9.062 112.336,9.284 112.528,9.453 C112.719,9.622 112.968,9.737 113.275,9.798 L114.885,10.144 C116.004,10.373 116.844,10.803 117.404,11.431 C117.964,12.06 118.244,12.788 118.244,13.617 C118.244,14.077 118.155,14.529 117.979,14.973 C117.802,15.418 117.53,15.817 117.163,16.169 C116.795,16.523 116.335,16.806 115.783,17.021 C115.23,17.235 114.587,17.342 113.85,17.342 C112.992,17.342 112.271,17.219 111.688,16.974 C111.105,16.729 110.63,16.43 110.262,16.078 C109.894,15.726 109.621,15.346 109.446,14.939 C109.269,14.533 109.166,14.168 109.135,13.846 L111.755,13.274 L111.755,13.274 Z" id="Shape"></path>
                <path d="M122.358,13.274 C122.388,13.718 122.573,14.117 122.91,14.469 C123.247,14.823 123.754,14.998 124.429,14.998 C124.935,14.998 125.31,14.887 125.556,14.664 C125.801,14.442 125.923,14.178 125.923,13.871 C125.923,13.61 125.831,13.385 125.648,13.192 C125.463,13.001 125.149,12.859 124.705,12.766 L123.21,12.421 C122.106,12.176 121.302,11.75 120.795,11.145 C120.289,10.54 120.036,9.838 120.036,9.041 C120.036,8.535 120.143,8.056 120.358,7.603 C120.573,7.15 120.868,6.76 121.244,6.43 C121.619,6.1 122.063,5.836 122.578,5.636 C123.092,5.437 123.655,5.337 124.268,5.337 C125.065,5.337 125.74,5.448 126.291,5.671 C126.844,5.893 127.292,6.173 127.637,6.51 C127.982,6.848 128.239,7.204 128.408,7.579 C128.577,7.955 128.677,8.297 128.707,8.603 L126.154,9.177 C126.123,9.009 126.074,8.836 126.005,8.659 C125.936,8.483 125.824,8.318 125.671,8.165 C125.518,8.012 125.33,7.889 125.108,7.797 C124.886,7.705 124.614,7.659 124.292,7.659 C123.894,7.659 123.553,7.766 123.269,7.981 C122.986,8.196 122.844,8.463 122.844,8.786 C122.844,9.062 122.939,9.284 123.131,9.453 C123.322,9.622 123.571,9.737 123.878,9.798 L125.488,10.144 C126.607,10.373 127.447,10.803 128.007,11.431 C128.567,12.06 128.847,12.788 128.847,13.617 C128.847,14.077 128.758,14.529 128.582,14.973 C128.405,15.418 128.133,15.817 127.766,16.169 C127.398,16.523 126.938,16.806 126.386,17.021 C125.833,17.235 125.19,17.342 124.453,17.342 C123.595,17.342 122.874,17.219 122.291,16.974 C121.708,16.729 121.233,16.43 120.865,16.078 C120.497,15.726 120.224,15.346 120.049,14.939 C119.872,14.533 119.769,14.168 119.738,13.846 L122.358,13.274 L122.358,13.274 Z" id="Shape"></path>
                <path d="M6.877,30.478 C6.708,30.478 6.528,30.501 6.337,30.547 C6.145,30.593 5.972,30.673 5.819,30.788 C5.666,30.903 5.539,31.06 5.439,31.26 C5.339,31.46 5.29,31.72 5.29,32.042 L5.29,33.283 L7.843,33.283 L7.843,35.905 L5.29,35.905 L5.29,44.6 L2.208,44.6 L2.208,35.906 L0.322,35.906 L0.322,33.284 L2.208,33.284 L2.208,31.997 C2.208,31.352 2.304,30.774 2.495,30.26 C2.687,29.746 2.963,29.306 3.323,28.938 C3.683,28.57 4.117,28.287 4.623,28.087 C5.129,27.887 5.696,27.787 6.325,27.787 C6.647,27.787 6.949,27.81 7.233,27.856 C7.516,27.902 7.719,27.956 7.842,28.017 L7.842,30.593 C7.765,30.563 7.651,30.535 7.497,30.512 C7.345,30.489 7.138,30.478 6.877,30.478 L6.877,30.478 Z" id="Shape"></path>
                <path d="M14.65,32.938 C15.494,32.938 16.279,33.087 17.007,33.386 C17.736,33.686 18.364,34.1 18.894,34.628 C19.422,35.157 19.836,35.79 20.135,36.525 C20.435,37.261 20.584,38.066 20.584,38.94 C20.584,39.814 20.435,40.616 20.135,41.343 C19.836,42.072 19.422,42.704 18.894,43.24 C18.365,43.777 17.736,44.195 17.007,44.494 C16.278,44.793 15.493,44.942 14.65,44.942 C13.807,44.942 13.021,44.793 12.293,44.494 C11.565,44.195 10.937,43.777 10.407,43.24 C9.878,42.704 9.464,42.071 9.165,41.343 C8.866,40.615 8.717,39.814 8.717,38.94 C8.717,38.066 8.866,37.261 9.165,36.525 C9.464,35.79 9.878,35.157 10.407,34.628 C10.936,34.1 11.564,33.686 12.293,33.386 C13.021,33.088 13.807,32.938 14.65,32.938 L14.65,32.938 Z M14.65,42.161 C15.018,42.161 15.379,42.093 15.731,41.955 C16.084,41.816 16.39,41.613 16.651,41.345 C16.912,41.077 17.123,40.743 17.284,40.345 C17.445,39.947 17.525,39.479 17.525,38.942 C17.525,38.406 17.445,37.938 17.284,37.54 C17.123,37.141 16.912,36.808 16.651,36.539 C16.39,36.27 16.084,36.067 15.731,35.93 C15.378,35.793 15.018,35.723 14.65,35.723 C14.282,35.723 13.921,35.792 13.569,35.93 C13.217,36.068 12.91,36.271 12.649,36.539 C12.388,36.807 12.177,37.141 12.016,37.54 C11.856,37.938 11.775,38.406 11.775,38.942 C11.775,39.479 11.856,39.947 12.016,40.345 C12.177,40.743 12.388,41.077 12.649,41.345 C12.91,41.614 13.216,41.817 13.569,41.955 C13.922,42.093 14.282,42.161 14.65,42.161 L14.65,42.161 Z" id="Shape"></path>
                <path d="M29.9,36.319 C29.593,36.258 29.287,36.227 28.98,36.227 C28.581,36.227 28.206,36.281 27.853,36.388 C27.499,36.495 27.193,36.672 26.933,36.917 C26.671,37.162 26.461,37.488 26.3,37.895 C26.139,38.302 26.059,38.811 26.059,39.424 L26.059,44.6 L23,44.6 L23,33.283 L25.967,33.283 L25.967,34.963 C26.136,34.595 26.355,34.292 26.623,34.054 C26.891,33.817 27.175,33.637 27.474,33.514 C27.773,33.391 28.072,33.307 28.371,33.261 C28.67,33.215 28.941,33.192 29.187,33.192 C29.309,33.192 29.428,33.196 29.543,33.204 C29.657,33.212 29.776,33.224 29.899,33.238 L29.899,36.319 L29.9,36.319 Z" id="Shape"></path>
                <path d="M47.817,41.356 C47.678,41.847 47.461,42.311 47.161,42.748 C46.862,43.186 46.498,43.564 46.069,43.887 C45.639,44.209 45.137,44.466 44.562,44.658 C43.987,44.85 43.355,44.945 42.665,44.945 C41.883,44.945 41.139,44.811 40.434,44.543 C39.729,44.275 39.108,43.88 38.572,43.358 C38.035,42.837 37.609,42.201 37.296,41.449 C36.982,40.698 36.824,39.847 36.824,38.896 C36.824,37.992 36.977,37.171 37.284,36.435 C37.591,35.699 38.001,35.075 38.514,34.561 C39.027,34.047 39.621,33.649 40.296,33.365 C40.971,33.081 41.668,32.939 42.389,32.939 C44.153,32.939 45.525,33.46 46.506,34.503 C47.487,35.546 47.978,36.98 47.978,38.804 C47.978,39.019 47.97,39.222 47.956,39.413 C47.94,39.605 47.933,39.716 47.933,39.747 L39.837,39.747 C39.853,40.114 39.941,40.456 40.102,40.77 C40.263,41.084 40.47,41.356 40.723,41.586 C40.976,41.815 41.271,41.996 41.609,42.126 C41.946,42.257 42.306,42.321 42.69,42.321 C43.41,42.321 43.973,42.16 44.38,41.839 C44.785,41.517 45.081,41.103 45.265,40.597 L47.817,41.356 L47.817,41.356 Z M44.965,37.653 C44.949,37.378 44.892,37.105 44.793,36.837 C44.692,36.569 44.539,36.331 44.332,36.124 C44.126,35.917 43.864,35.749 43.551,35.618 C43.237,35.488 42.864,35.423 42.435,35.423 C42.037,35.423 41.684,35.491 41.377,35.63 C41.07,35.768 40.81,35.944 40.595,36.158 C40.38,36.373 40.216,36.611 40.101,36.872 C39.986,37.133 39.92,37.393 39.906,37.653 L44.965,37.653 L44.965,37.653 Z" id="Shape"></path>
                <path d="M58.42,31.949 C58.42,31.321 58.516,30.75 58.707,30.236 C58.898,29.722 59.175,29.285 59.535,28.924 C59.895,28.565 60.325,28.284 60.823,28.085 C61.321,27.886 61.885,27.785 62.513,27.785 C62.835,27.785 63.138,27.808 63.421,27.854 C63.705,27.9 63.908,27.954 64.031,28.015 L64.031,30.591 C63.954,30.561 63.839,30.533 63.685,30.51 C63.532,30.488 63.325,30.476 63.064,30.476 C62.895,30.476 62.719,30.499 62.536,30.545 C62.351,30.591 62.18,30.671 62.018,30.786 C61.856,30.901 61.726,31.058 61.626,31.258 C61.526,31.458 61.477,31.718 61.477,32.04 L61.477,33.281 L69.114,33.281 L69.114,44.6 L66.054,44.6 L66.054,35.906 L61.477,35.906 L61.477,44.6 L58.418,44.6 L58.418,35.906 L54.048,35.906 L54.048,44.6 L50.966,44.6 L50.966,35.906 L49.08,35.906 L49.08,33.284 L50.966,33.284 L50.966,31.997 C50.966,31.352 51.062,30.774 51.253,30.26 C51.445,29.746 51.721,29.306 52.081,28.938 C52.441,28.57 52.875,28.287 53.381,28.087 C53.887,27.887 54.454,27.787 55.083,27.787 C55.405,27.787 55.707,27.81 55.991,27.856 C56.274,27.902 56.477,27.956 56.6,28.017 L56.6,30.593 C56.523,30.563 56.409,30.535 56.255,30.512 C56.102,30.49 55.895,30.478 55.634,30.478 C55.465,30.478 55.289,30.501 55.105,30.547 C54.921,30.593 54.749,30.673 54.587,30.788 C54.427,30.903 54.296,31.06 54.196,31.26 C54.096,31.46 54.047,31.72 54.047,32.042 L54.047,33.283 L58.417,33.283 L58.417,31.949 L58.42,31.949 Z M65.711,29.558 C65.711,29.022 65.891,28.569 66.251,28.201 C66.611,27.834 67.053,27.649 67.574,27.649 C68.11,27.649 68.562,27.834 68.93,28.201 C69.298,28.569 69.482,29.022 69.482,29.558 C69.482,30.079 69.298,30.52 68.93,30.88 C68.562,31.24 68.11,31.421 67.574,31.421 C67.053,31.421 66.611,31.24 66.251,30.88 C65.891,30.52 65.711,30.079 65.711,29.558 L65.711,29.558 Z" id="Shape"></path>
                <path d="M77.486,35.768 C77.088,35.768 76.715,35.837 76.371,35.975 C76.027,36.113 75.723,36.317 75.463,36.584 C75.201,36.853 74.994,37.187 74.842,37.585 C74.689,37.983 74.612,38.436 74.612,38.941 C74.612,39.446 74.689,39.9 74.842,40.298 C74.994,40.696 75.205,41.033 75.474,41.31 C75.743,41.587 76.049,41.793 76.394,41.931 C76.74,42.069 77.111,42.138 77.51,42.138 C77.893,42.138 78.235,42.08 78.533,41.965 C78.832,41.851 79.089,41.7 79.304,41.517 C79.518,41.333 79.691,41.126 79.822,40.896 C79.952,40.667 80.048,40.444 80.109,40.229 L82.8,41.126 C82.677,41.602 82.474,42.065 82.191,42.518 C81.907,42.97 81.543,43.376 81.098,43.737 C80.653,44.097 80.132,44.388 79.534,44.611 C78.936,44.833 78.262,44.944 77.511,44.944 C76.683,44.944 75.905,44.795 75.176,44.496 C74.447,44.197 73.816,43.779 73.279,43.242 C72.742,42.706 72.321,42.073 72.014,41.345 C71.707,40.617 71.554,39.816 71.554,38.942 C71.554,38.068 71.703,37.263 72.002,36.527 C72.301,35.792 72.715,35.159 73.244,34.63 C73.773,34.102 74.393,33.688 75.107,33.388 C75.82,33.089 76.59,32.94 77.419,32.94 C78.185,32.94 78.871,33.051 79.477,33.274 C80.083,33.496 80.608,33.784 81.053,34.136 C81.497,34.489 81.858,34.895 82.134,35.355 C82.409,35.815 82.609,36.283 82.732,36.758 L79.995,37.678 C79.857,37.202 79.593,36.766 79.202,36.366 C78.809,35.967 78.237,35.768 77.486,35.768 L77.486,35.768 Z" id="Shape"></path>
                <path d="M84.685,29.581 C84.685,29.044 84.87,28.592 85.238,28.224 C85.605,27.856 86.05,27.672 86.572,27.672 C87.108,27.672 87.556,27.856 87.917,28.224 C88.278,28.592 88.458,29.044 88.458,29.581 C88.458,30.087 88.277,30.523 87.917,30.892 C87.557,31.261 87.108,31.444 86.572,31.444 C86.051,31.444 85.605,31.26 85.238,30.892 C84.869,30.523 84.685,30.087 84.685,29.581 L84.685,29.581 Z M85.053,44.6 L85.053,33.283 L88.113,33.283 L88.113,44.6 L85.053,44.6 L85.053,44.6 Z" id="Shape"></path>
                <path d="M101.521,41.356 C101.382,41.847 101.165,42.311 100.865,42.748 C100.566,43.186 100.202,43.564 99.773,43.887 C99.343,44.209 98.841,44.466 98.266,44.658 C97.691,44.85 97.059,44.945 96.369,44.945 C95.587,44.945 94.843,44.811 94.138,44.543 C93.433,44.275 92.812,43.88 92.276,43.358 C91.739,42.837 91.313,42.201 91,41.449 C90.686,40.698 90.528,39.847 90.528,38.896 C90.528,37.992 90.681,37.171 90.988,36.435 C91.295,35.699 91.705,35.075 92.218,34.561 C92.731,34.047 93.325,33.649 94,33.365 C94.675,33.081 95.372,32.939 96.093,32.939 C97.857,32.939 99.229,33.46 100.21,34.503 C101.191,35.546 101.682,36.98 101.682,38.804 C101.682,39.019 101.674,39.222 101.66,39.413 C101.644,39.605 101.637,39.716 101.637,39.747 L93.541,39.747 C93.557,40.114 93.645,40.456 93.806,40.77 C93.967,41.084 94.174,41.356 94.427,41.586 C94.68,41.815 94.975,41.996 95.313,42.126 C95.65,42.257 96.01,42.321 96.394,42.321 C97.114,42.321 97.677,42.16 98.084,41.839 C98.489,41.517 98.785,41.103 98.969,40.597 L101.521,41.356 L101.521,41.356 Z M98.669,37.653 C98.653,37.378 98.596,37.105 98.497,36.837 C98.396,36.569 98.243,36.331 98.036,36.124 C97.83,35.917 97.568,35.749 97.255,35.618 C96.941,35.488 96.568,35.423 96.139,35.423 C95.741,35.423 95.388,35.491 95.081,35.63 C94.774,35.768 94.514,35.944 94.299,36.158 C94.084,36.373 93.92,36.611 93.805,36.872 C93.69,37.133 93.624,37.393 93.61,37.653 L98.669,37.653 L98.669,37.653 Z" id="Shape"></path>
                <path d="M107.156,44.6 L104.096,44.6 L104.096,33.283 L107.063,33.283 L107.063,34.686 C107.416,34.104 107.895,33.674 108.501,33.398 C109.106,33.123 109.717,32.984 110.33,32.984 C111.035,32.984 111.644,33.103 112.158,33.34 C112.672,33.578 113.097,33.897 113.434,34.295 C113.771,34.693 114.021,35.169 114.182,35.721 C114.343,36.273 114.423,36.856 114.423,37.469 L114.423,44.599 L111.364,44.599 L111.364,37.998 C111.364,37.353 111.199,36.817 110.869,36.388 C110.539,35.959 110.007,35.743 109.27,35.743 C108.595,35.743 108.075,35.97 107.707,36.422 C107.339,36.875 107.155,37.431 107.155,38.09 L107.155,44.6 L107.156,44.6 Z" id="Shape"></path>
                <path d="M122.611,35.768 C122.213,35.768 121.84,35.837 121.496,35.975 C121.152,36.113 120.848,36.317 120.588,36.584 C120.326,36.853 120.119,37.187 119.967,37.585 C119.814,37.983 119.737,38.436 119.737,38.941 C119.737,39.446 119.814,39.9 119.967,40.298 C120.119,40.696 120.33,41.033 120.599,41.31 C120.868,41.587 121.174,41.793 121.519,41.931 C121.865,42.069 122.236,42.138 122.635,42.138 C123.018,42.138 123.36,42.08 123.658,41.965 C123.957,41.851 124.214,41.7 124.429,41.517 C124.643,41.333 124.816,41.126 124.947,40.896 C125.077,40.667 125.173,40.444 125.234,40.229 L127.925,41.126 C127.802,41.602 127.599,42.065 127.316,42.518 C127.032,42.97 126.668,43.376 126.223,43.737 C125.778,44.097 125.257,44.388 124.659,44.611 C124.061,44.833 123.387,44.944 122.636,44.944 C121.808,44.944 121.03,44.795 120.301,44.496 C119.572,44.197 118.941,43.779 118.404,43.242 C117.867,42.706 117.446,42.073 117.139,41.345 C116.832,40.617 116.679,39.816 116.679,38.942 C116.679,38.068 116.828,37.263 117.127,36.527 C117.426,35.792 117.84,35.159 118.369,34.63 C118.898,34.102 119.518,33.688 120.232,33.388 C120.945,33.089 121.715,32.94 122.544,32.94 C123.31,32.94 123.996,33.051 124.602,33.274 C125.208,33.496 125.733,33.784 126.178,34.136 C126.622,34.489 126.983,34.895 127.259,35.355 C127.534,35.815 127.734,36.283 127.857,36.758 L125.12,37.678 C124.982,37.202 124.718,36.766 124.327,36.366 C123.934,35.967 123.362,35.768 122.611,35.768 L122.611,35.768 Z" id="Shape"></path>
                <polygon id="Shape" points="130.593 49.062 133.261 43.174 128.454 33.283 131.881 33.283 134.894 39.907 137.677 33.283 140.944 33.283 133.837 49.061 130.593 49.061"></polygon>
                <path d="M140.391,42.668 C140.391,42.085 140.594,41.591 141,41.185 C141.406,40.779 141.901,40.575 142.484,40.575 C142.775,40.575 143.05,40.63 143.311,40.736 C143.572,40.843 143.798,40.993 143.99,41.185 C144.181,41.376 144.331,41.598 144.438,41.852 C144.545,42.105 144.599,42.377 144.599,42.668 C144.599,42.959 144.545,43.231 144.438,43.484 C144.331,43.737 144.181,43.96 143.99,44.151 C143.799,44.342 143.572,44.492 143.311,44.599 C143.05,44.706 142.775,44.76 142.484,44.76 C141.901,44.76 141.406,44.557 141,44.151 C140.594,43.745 140.391,43.251 140.391,42.668 L140.391,42.668 Z" id="Shape"></path>
            </g>
            <g id="Group" transform="translate(285.000000, 82.000000)" fill="#000000">
                <polygon id="Shape" points="6.064 2.752 6.064 12 3.839 12 3.839 2.752 0.255 2.752 0.255 0.656 9.648 0.656 9.648 2.752"></polygon>
                <path d="M13.215,12 L11.087,12 L11.087,0.416 L13.215,0.416 L13.215,4.784 C13.471,4.474 13.797,4.254 14.192,4.12 C14.587,3.986 14.97,3.92 15.343,3.92 C15.845,3.92 16.28,4.003 16.648,4.168 C17.016,4.334 17.32,4.555 17.56,4.832 C17.799,5.109 17.978,5.44 18.095,5.824 C18.213,6.208 18.272,6.613 18.272,7.04 L18.272,12 L16.144,12 L16.144,7.408 C16.144,6.96 16.029,6.587 15.799,6.288 C15.569,5.989 15.199,5.84 14.688,5.84 C14.24,5.84 13.887,5.986 13.631,6.28 C13.375,6.573 13.236,6.938 13.215,7.376 L13.215,12 L13.215,12 Z" id="Shape"></path>
                <path d="M27.488,9.744 C27.391,10.086 27.24,10.408 27.032,10.712 C26.824,11.016 26.57,11.28 26.271,11.504 C25.973,11.728 25.624,11.907 25.223,12.04 C24.824,12.173 24.383,12.24 23.904,12.24 C23.36,12.24 22.842,12.146 22.351,11.96 C21.861,11.773 21.428,11.499 21.055,11.136 C20.682,10.774 20.386,10.331 20.167,9.808 C19.948,9.286 19.839,8.694 19.839,8.033 C19.839,7.403 19.945,6.833 20.159,6.321 C20.372,5.808 20.657,5.374 21.014,5.016 C21.371,4.66 21.785,4.382 22.254,4.184 C22.724,3.987 23.208,3.888 23.71,3.888 C24.937,3.888 25.892,4.251 26.574,4.976 C27.257,5.702 27.597,6.7 27.597,7.968 C27.597,8.117 27.592,8.259 27.581,8.392 C27.57,8.526 27.565,8.603 27.565,8.624 L21.932,8.624 C21.943,8.88 22.004,9.117 22.117,9.336 C22.228,9.555 22.373,9.744 22.549,9.904 C22.725,10.064 22.931,10.189 23.165,10.28 C23.399,10.371 23.65,10.416 23.917,10.416 C24.418,10.416 24.811,10.304 25.093,10.08 C25.375,9.856 25.581,9.568 25.709,9.216 L27.488,9.744 L27.488,9.744 Z M25.504,7.168 C25.493,6.976 25.453,6.787 25.384,6.6 C25.315,6.413 25.208,6.248 25.064,6.104 C24.92,5.96 24.739,5.843 24.52,5.752 C24.301,5.661 24.042,5.616 23.745,5.616 C23.468,5.616 23.222,5.664 23.009,5.76 C22.795,5.857 22.614,5.979 22.465,6.128 C22.316,6.277 22.201,6.442 22.121,6.624 C22.041,6.806 21.995,6.986 21.985,7.168 L25.504,7.168 L25.504,7.168 Z" id="Shape"></path>
                <path d="M35.359,12 L33.231,12 L33.231,4.128 L35.295,4.128 L35.295,5.104 C35.54,4.7 35.873,4.401 36.295,4.208 C36.716,4.016 37.14,3.92 37.566,3.92 C38.057,3.92 38.481,4.003 38.838,4.168 C39.195,4.334 39.491,4.555 39.726,4.832 C39.961,5.109 40.134,5.44 40.247,5.824 C40.358,6.208 40.415,6.613 40.415,7.04 L40.415,12 L38.287,12 L38.287,7.408 C38.287,6.96 38.172,6.587 37.942,6.288 C37.712,5.989 37.342,5.84 36.831,5.84 C36.361,5.84 35.999,5.997 35.743,6.312 C35.486,6.627 35.358,7.014 35.358,7.472 L35.358,12 L35.359,12 Z" id="Shape"></path>
                <path d="M49.632,9.744 C49.535,10.086 49.384,10.408 49.176,10.712 C48.968,11.016 48.714,11.28 48.415,11.504 C48.117,11.728 47.768,11.907 47.367,12.04 C46.968,12.173 46.527,12.24 46.048,12.24 C45.504,12.24 44.986,12.146 44.495,11.96 C44.005,11.773 43.572,11.499 43.199,11.136 C42.826,10.774 42.53,10.331 42.311,9.808 C42.092,9.286 41.983,8.694 41.983,8.033 C41.983,7.403 42.089,6.833 42.303,6.321 C42.516,5.808 42.801,5.374 43.158,5.016 C43.515,4.66 43.929,4.382 44.398,4.184 C44.868,3.987 45.352,3.888 45.854,3.888 C47.081,3.888 48.036,4.251 48.718,4.976 C49.401,5.702 49.741,6.7 49.741,7.968 C49.741,8.117 49.736,8.259 49.725,8.392 C49.714,8.526 49.709,8.603 49.709,8.624 L44.076,8.624 C44.087,8.88 44.148,9.117 44.261,9.336 C44.372,9.555 44.517,9.744 44.693,9.904 C44.869,10.064 45.075,10.189 45.309,10.28 C45.543,10.371 45.794,10.416 46.061,10.416 C46.562,10.416 46.955,10.304 47.237,10.08 C47.519,9.856 47.725,9.568 47.853,9.216 L49.632,9.744 L49.632,9.744 Z M47.647,7.168 C47.636,6.976 47.596,6.787 47.527,6.6 C47.458,6.413 47.351,6.248 47.207,6.104 C47.063,5.96 46.882,5.843 46.663,5.752 C46.444,5.661 46.185,5.616 45.888,5.616 C45.611,5.616 45.365,5.664 45.152,5.76 C44.938,5.857 44.757,5.979 44.608,6.128 C44.459,6.277 44.344,6.442 44.264,6.624 C44.184,6.806 44.138,6.986 44.128,7.168 L47.647,7.168 L47.647,7.168 Z" id="Shape"></path>
                <polygon id="Shape" points="57.999 4.128 59.695 9.2 61.151 4.128 63.262 4.128 60.799 12 58.671 12 56.831 6.624 55.023 12 52.863 12 50.351 4.128 52.59 4.128 54.046 9.184 55.758 4.128"></polygon>
                <path d="M74.352,3.968 C74.32,3.808 74.264,3.635 74.184,3.448 C74.104,3.261 73.984,3.088 73.824,2.927 C73.664,2.766 73.459,2.634 73.208,2.528 C72.957,2.422 72.65,2.368 72.288,2.368 C72.021,2.368 71.778,2.408 71.56,2.488 C71.341,2.568 71.154,2.675 70.999,2.807 C70.845,2.941 70.725,3.093 70.64,3.263 C70.554,3.434 70.511,3.616 70.511,3.807 C70.511,4.117 70.613,4.386 70.816,4.616 C71.018,4.845 71.328,5.003 71.744,5.088 L73.328,5.392 C73.84,5.489 74.293,5.643 74.688,5.857 C75.083,6.07 75.413,6.323 75.68,6.617 C75.946,6.91 76.149,7.238 76.287,7.6 C76.426,7.963 76.495,8.342 76.495,8.737 C76.495,9.175 76.404,9.603 76.224,10.025 C76.042,10.446 75.778,10.819 75.432,11.144 C75.085,11.47 74.659,11.734 74.152,11.936 C73.645,12.139 73.061,12.241 72.4,12.241 C71.642,12.241 70.992,12.132 70.448,11.913 C69.904,11.694 69.448,11.414 69.08,11.073 C68.712,10.731 68.433,10.35 68.24,9.928 C68.048,9.507 67.93,9.094 67.888,8.689 L69.936,8.144 C69.957,8.422 70.024,8.689 70.135,8.945 C70.247,9.201 70.405,9.427 70.608,9.625 C70.81,9.822 71.061,9.979 71.36,10.097 C71.659,10.215 72.01,10.274 72.416,10.274 C73.014,10.274 73.47,10.143 73.784,9.881 C74.098,9.62 74.256,9.286 74.256,8.881 C74.256,8.551 74.139,8.265 73.904,8.026 C73.67,7.786 73.328,7.623 72.88,7.538 L71.296,7.218 C70.39,7.037 69.667,6.666 69.128,6.106 C68.59,5.546 68.32,4.835 68.32,3.97 C68.32,3.469 68.424,3.002 68.632,2.571 C68.84,2.138 69.125,1.762 69.488,1.443 C69.85,1.123 70.272,0.872 70.752,0.691 C71.232,0.509 71.738,0.419 72.273,0.419 C72.956,0.419 73.54,0.513 74.025,0.699 C74.51,0.885 74.913,1.123 75.233,1.411 C75.552,1.699 75.8,2.016 75.977,2.363 C76.153,2.71 76.273,3.043 76.336,3.363 L74.352,3.968 L74.352,3.968 Z" id="Shape"></path>
                <path d="M80.91,4.128 L82.494,4.128 L82.494,6.016 L80.91,6.016 L80.91,9.312 C80.91,9.654 80.987,9.891 81.142,10.025 C81.296,10.158 81.529,10.224 81.838,10.224 C81.966,10.224 82.094,10.219 82.222,10.208 C82.35,10.197 82.44,10.182 82.493,10.16 L82.493,11.92 C82.397,11.963 82.251,12.005 82.054,12.048 C81.856,12.091 81.603,12.112 81.293,12.112 C80.525,12.112 79.917,11.898 79.47,11.471 C79.022,11.045 78.798,10.448 78.798,9.679 L78.798,6.015 L77.373,6.015 L77.373,4.127 L77.773,4.127 C78.189,4.127 78.496,4.007 78.693,3.767 C78.89,3.528 78.989,3.232 78.989,2.879 L78.989,1.775 L80.909,1.775 L80.909,4.128 L80.91,4.128 Z" id="Shape"></path>
                <polygon id="Shape" points="84.942 15.104 86.798 11.008 83.454 4.128 85.838 4.128 87.934 8.736 89.871 4.128 92.142 4.128 87.199 15.104"></polygon>
                <polygon id="Shape" points="93.438 12 93.438 0.416 95.566 0.416 95.566 12"></polygon>
                <path d="M97.582,1.552 C97.582,1.179 97.71,0.864 97.966,0.609 C98.222,0.352 98.531,0.224 98.895,0.224 C99.268,0.224 99.58,0.352 99.831,0.609 C100.082,0.865 100.207,1.179 100.207,1.552 C100.207,1.905 100.082,2.208 99.831,2.464 C99.58,2.72 99.269,2.848 98.895,2.848 C98.532,2.848 98.222,2.72 97.966,2.464 C97.71,2.208 97.582,1.904 97.582,1.552 L97.582,1.552 Z M97.838,12 L97.838,4.128 L99.966,4.128 L99.966,12 L97.838,12 L97.838,12 Z" id="Shape"></path>
                <path d="M104.366,12 L102.238,12 L102.238,4.128 L104.302,4.128 L104.302,5.104 C104.547,4.7 104.88,4.401 105.302,4.208 C105.723,4.016 106.147,3.92 106.573,3.92 C107.064,3.92 107.488,4.003 107.845,4.168 C108.202,4.334 108.498,4.555 108.733,4.832 C108.968,5.109 109.141,5.44 109.254,5.824 C109.365,6.208 109.422,6.613 109.422,7.04 L109.422,12 L107.294,12 L107.294,7.408 C107.294,6.96 107.179,6.587 106.949,6.288 C106.719,5.989 106.349,5.84 105.838,5.84 C105.368,5.84 105.006,5.997 104.75,6.312 C104.493,6.627 104.365,7.014 104.365,7.472 L104.365,12 L104.366,12 Z" id="Shape"></path>
                <path d="M118.639,9.744 C118.542,10.086 118.391,10.408 118.183,10.712 C117.975,11.016 117.721,11.28 117.422,11.504 C117.124,11.728 116.775,11.907 116.374,12.04 C115.975,12.173 115.534,12.24 115.055,12.24 C114.511,12.24 113.993,12.146 113.502,11.96 C113.012,11.773 112.579,11.499 112.206,11.136 C111.833,10.774 111.537,10.331 111.318,9.808 C111.099,9.286 110.99,8.694 110.99,8.033 C110.99,7.403 111.096,6.833 111.31,6.321 C111.523,5.808 111.808,5.374 112.165,5.016 C112.522,4.66 112.936,4.382 113.405,4.184 C113.875,3.987 114.359,3.888 114.861,3.888 C116.088,3.888 117.043,4.251 117.725,4.976 C118.408,5.702 118.748,6.7 118.748,7.968 C118.748,8.117 118.743,8.259 118.732,8.392 C118.721,8.526 118.716,8.603 118.716,8.624 L113.083,8.624 C113.094,8.88 113.155,9.117 113.268,9.336 C113.379,9.555 113.524,9.744 113.7,9.904 C113.876,10.064 114.082,10.189 114.316,10.28 C114.55,10.371 114.801,10.416 115.068,10.416 C115.569,10.416 115.962,10.304 116.244,10.08 C116.526,9.856 116.732,9.568 116.86,9.216 L118.639,9.744 L118.639,9.744 Z M116.654,7.168 C116.643,6.976 116.603,6.787 116.534,6.6 C116.465,6.413 116.358,6.248 116.214,6.104 C116.07,5.96 115.889,5.843 115.67,5.752 C115.451,5.661 115.192,5.616 114.895,5.616 C114.618,5.616 114.372,5.664 114.159,5.76 C113.945,5.857 113.764,5.979 113.615,6.128 C113.466,6.277 113.351,6.442 113.271,6.624 C113.191,6.806 113.145,6.986 113.135,7.168 L116.654,7.168 L116.654,7.168 Z" id="Shape"></path>
                <polygon id="Shape" points="6.704 25.536 10.432 31.2 7.76 31.2 5.312 27.28 2.848 31.2 0.256 31.2 3.985 25.52 0.273 19.856 2.928 19.856 5.361 23.776 7.84 19.856 10.416 19.856"></polygon>
                <polygon id="Shape" points="12 31.2 12 19.856 14.208 19.856 14.208 29.087 19.264 29.087 19.264 31.199 12 31.199"></polygon>
                <polygon id="Shape" points="32.063 31.2 32.063 26.496 27.119 26.496 27.119 31.2 24.911 31.2 24.911 19.856 27.119 19.856 27.119 24.416 32.063 24.416 32.063 19.856 34.287 19.856 34.287 31.2"></polygon>
                <polygon id="Shape" points="37.184 34.304 39.04 30.208 35.696 23.328 38.08 23.328 40.176 27.936 42.113 23.328 44.384 23.328 39.441 34.304"></polygon>
                <path d="M45.679,31.2 L45.679,19.616 L47.776,19.616 L47.776,24.192 C47.957,23.915 48.253,23.667 48.664,23.448 C49.074,23.229 49.573,23.12 50.16,23.12 C50.736,23.12 51.248,23.224 51.696,23.432 C52.143,23.64 52.525,23.927 52.84,24.295 C53.155,24.663 53.392,25.098 53.552,25.6 C53.712,26.101 53.792,26.645 53.792,27.232 C53.792,27.83 53.704,28.381 53.528,28.888 C53.351,29.394 53.101,29.834 52.776,30.207 C52.45,30.581 52.058,30.871 51.599,31.079 C51.141,31.287 50.634,31.391 50.079,31.391 C49.535,31.391 49.062,31.284 48.663,31.071 C48.263,30.858 47.956,30.581 47.743,30.239 L47.743,31.199 L45.679,31.199 L45.679,31.2 Z M51.663,27.248 C51.663,26.522 51.474,25.971 51.095,25.592 C50.716,25.214 50.255,25.025 49.711,25.025 C49.444,25.025 49.191,25.073 48.951,25.169 C48.711,25.266 48.503,25.406 48.327,25.593 C48.151,25.781 48.01,26.012 47.903,26.289 C47.796,26.566 47.743,26.887 47.743,27.249 C47.743,27.602 47.796,27.916 47.903,28.193 C48.009,28.47 48.151,28.705 48.327,28.897 C48.503,29.088 48.711,29.236 48.951,29.336 C49.191,29.438 49.444,29.488 49.711,29.488 C50.255,29.488 50.716,29.296 51.095,28.912 C51.474,28.528 51.663,27.974 51.663,27.248 L51.663,27.248 Z" id="Shape"></path>
                <path d="M60.271,25.44 C60.058,25.397 59.844,25.376 59.631,25.376 C59.354,25.376 59.092,25.414 58.847,25.488 C58.602,25.562 58.389,25.685 58.207,25.856 C58.025,26.027 57.879,26.253 57.767,26.536 C57.656,26.819 57.599,27.174 57.599,27.6 L57.599,31.2 L55.471,31.2 L55.471,23.328 L57.535,23.328 L57.535,24.496 C57.652,24.24 57.805,24.029 57.991,23.864 C58.177,23.699 58.375,23.573 58.583,23.488 C58.791,23.403 58.999,23.343 59.207,23.312 C59.415,23.28 59.604,23.264 59.775,23.264 C59.86,23.264 59.943,23.266 60.023,23.272 C60.102,23.277 60.185,23.286 60.27,23.295 L60.27,25.44 L60.271,25.44 Z" id="Shape"></path>
                <path d="M61.519,20.752 C61.519,20.379 61.647,20.064 61.903,19.809 C62.159,19.552 62.468,19.424 62.832,19.424 C63.205,19.424 63.517,19.552 63.768,19.809 C64.019,20.065 64.144,20.379 64.144,20.752 C64.144,21.105 64.019,21.408 63.768,21.664 C63.517,21.92 63.206,22.048 62.832,22.048 C62.469,22.048 62.159,21.92 61.903,21.664 C61.647,21.408 61.519,21.104 61.519,20.752 L61.519,20.752 Z M61.774,31.2 L61.774,23.328 L63.902,23.328 L63.902,31.2 L61.774,31.2 L61.774,31.2 Z" id="Shape"></path>
                <path d="M73.679,29.776 C73.679,30.043 73.685,30.306 73.696,30.568 C73.706,30.83 73.722,31.04 73.744,31.2 L71.712,31.2 C71.691,31.115 71.672,30.987 71.656,30.816 C71.639,30.645 71.632,30.469 71.632,30.288 C71.45,30.598 71.171,30.859 70.792,31.072 C70.413,31.285 69.957,31.392 69.424,31.392 C68.859,31.392 68.341,31.288 67.872,31.08 C67.402,30.872 67,30.584 66.664,30.216 C66.328,29.849 66.064,29.411 65.872,28.904 C65.68,28.397 65.584,27.845 65.584,27.248 C65.584,26.672 65.678,26.134 65.864,25.632 C66.051,25.131 66.309,24.696 66.639,24.328 C66.97,23.96 67.368,23.67 67.831,23.456 C68.295,23.243 68.805,23.136 69.359,23.136 C69.7,23.136 69.996,23.168 70.247,23.233 C70.498,23.296 70.714,23.377 70.895,23.473 C71.076,23.569 71.222,23.672 71.334,23.785 C71.446,23.898 71.528,24.007 71.582,24.113 L71.582,19.617 L73.678,19.617 L73.678,29.776 L73.679,29.776 Z M67.728,27.248 C67.728,27.952 67.912,28.502 68.28,28.896 C68.648,29.29 69.114,29.488 69.679,29.488 C70.223,29.488 70.682,29.291 71.055,28.896 C71.429,28.501 71.616,27.947 71.616,27.232 C71.616,26.528 71.429,25.987 71.055,25.608 C70.682,25.229 70.223,25.04 69.679,25.04 C69.135,25.04 68.674,25.232 68.295,25.616 C67.916,26 67.728,26.544 67.728,27.248 L67.728,27.248 Z" id="Shape"></path>
                <path d="M75.775,29.856 C75.775,29.451 75.916,29.107 76.199,28.824 C76.481,28.542 76.825,28.4 77.231,28.4 C77.433,28.4 77.625,28.437 77.806,28.511 C77.988,28.586 78.145,28.691 78.279,28.823 C78.412,28.957 78.516,29.111 78.591,29.287 C78.666,29.463 78.703,29.652 78.703,29.855 C78.703,30.057 78.665,30.247 78.591,30.422 C78.517,30.599 78.412,30.753 78.279,30.887 C78.145,31.02 77.988,31.124 77.806,31.199 C77.624,31.274 77.433,31.311 77.231,31.311 C76.825,31.311 76.481,31.169 76.199,30.887 C75.916,30.605 75.775,30.262 75.775,29.856 L75.775,29.856 Z" id="Shape"></path>
            </g>
            <rect id="Rectangle-path_1_" fill="#000000" x="0" y="0" width="271.553" height="250"></rect>
            <path d="M41.1198396,178 L41,178 L41,178.20794 C40.3452832,179.382801 39.9733353,180.720445 39.948,182.148262 C39.94,182.785341 39.937,183.262659 39.937,183.578258 L39.937,184.010491 C39.819,188.668024 42.568,194.986861 46.012,198.133048 C46.012,198.133048 50.256,203.034631 68.638,204.249 L68.638,203.077756 L65.772,202.740595 L42.802,189.60992 L41.5606301,185 L44,185 L44,178 L41.3807527,178 L41.39,177.576 C41.2956959,177.714644 41.2056012,177.856024 41.1198396,178 Z" id="Combined-Shape" fill="#FFFFFF"></path>
            <rect id="Rectangle-path_2_" fill="#000000" x="285" y="136" width="114.5" height="26.673"></rect>
            <g id="Group" transform="translate(292.000000, 147.000000)" fill="#FFFFFF">
                <polygon id="Shape" points="0.189 9.13 0.189 0.622 5.566 0.622 5.566 2.194 1.845 2.194 1.845 4.294 5.157 4.294 5.157 5.818 1.856 5.818 1.856 9.13"></polygon>
                <path d="M9.466,5.854 L8.602,5.854 L8.602,9.13 L6.934,9.13 L6.934,0.622 L10.258,0.622 C10.674,0.622 11.048,0.69 11.38,0.826 C11.712,0.962 11.996,1.145 12.233,1.378 C12.468,1.61 12.651,1.886 12.778,2.206 C12.907,2.526 12.97,2.87 12.97,3.238 C12.97,3.838 12.809,4.349 12.485,4.773 C12.161,5.198 11.718,5.49 11.159,5.649 L12.983,9.129 L11.134,9.129 L9.466,5.854 L9.466,5.854 Z M9.945,4.426 C10.369,4.426 10.697,4.319 10.929,4.102 C11.161,3.886 11.277,3.602 11.277,3.25 C11.277,2.89 11.162,2.602 10.929,2.386 C10.696,2.17 10.368,2.062 9.945,2.062 L8.601,2.062 L8.601,4.426 L9.945,4.426 L9.945,4.426 Z" id="Shape"></path>
                <path d="M13.869,4.882 C13.869,4.194 13.99,3.576 14.23,3.028 C14.469,2.48 14.789,2.013 15.189,1.63 C15.589,1.247 16.053,0.952 16.582,0.748 C17.109,0.544 17.662,0.441 18.238,0.441 C18.814,0.441 19.367,0.544 19.9,0.748 C20.431,0.952 20.898,1.246 21.297,1.63 C21.696,2.014 22.017,2.481 22.257,3.028 C22.497,3.575 22.616,4.194 22.616,4.882 C22.616,5.57 22.497,6.186 22.257,6.73 C22.017,7.275 21.696,7.739 21.297,8.123 C20.898,8.507 20.431,8.801 19.9,9.005 C19.367,9.209 18.814,9.311 18.238,9.311 C17.662,9.311 17.109,9.209 16.582,9.005 C16.054,8.801 15.59,8.507 15.189,8.123 C14.788,7.739 14.469,7.275 14.23,6.73 C13.99,6.186 13.869,5.57 13.869,4.882 L13.869,4.882 Z M15.586,4.87 C15.586,5.349 15.662,5.767 15.815,6.124 C15.966,6.479 16.169,6.774 16.42,7.006 C16.672,7.238 16.955,7.412 17.272,7.528 C17.588,7.643 17.911,7.702 18.239,7.702 C18.567,7.702 18.89,7.643 19.211,7.528 C19.53,7.412 19.817,7.238 20.069,7.006 C20.321,6.775 20.522,6.48 20.674,6.124 C20.826,5.768 20.903,5.35 20.903,4.87 C20.903,4.39 20.827,3.972 20.674,3.616 C20.522,3.26 20.32,2.966 20.069,2.733 C19.817,2.502 19.53,2.328 19.211,2.212 C18.891,2.096 18.567,2.038 18.239,2.038 C17.911,2.038 17.589,2.096 17.272,2.212 C16.955,2.328 16.672,2.502 16.42,2.733 C16.168,2.965 15.966,3.259 15.815,3.616 C15.662,3.972 15.586,4.39 15.586,4.87 L15.586,4.87 Z" id="Shape"></path>
                <polygon id="Shape" points="31.918 9.13 31.918 3.166 29.47 9.13 28.09 9.13 25.643 3.214 25.643 9.13 24.059 9.13 24.059 0.622 26.243 0.622 28.799 6.766 31.295 0.622 33.551 0.622 33.551 9.13"></polygon>
            </g>
            <g id="Group" transform="translate(333.000000, 143.000000)" fill="#FFFFFF">
                <path d="M1.523,5.857 C1.415,5.57 1.318,5.263 1.234,4.939 C1.15,4.616 1.109,4.255 1.109,3.86 C1.109,3.355 1.208,2.876 1.406,2.42 C1.603,1.964 1.88,1.565 2.234,1.223 C2.588,0.881 3.017,0.609 3.521,0.405 C4.025,0.201 4.583,0.098 5.195,0.098 C5.963,0.098 6.607,0.212 7.13,0.44 C7.652,0.669 8.072,0.96 8.391,1.313 C8.707,1.667 8.94,2.06 9.083,2.493 C9.227,2.925 9.305,3.339 9.316,3.734 L7.066,4.094 C7.054,3.458 6.886,2.975 6.562,2.645 C6.238,2.316 5.794,2.15 5.23,2.15 C5.002,2.15 4.783,2.186 4.574,2.258 C4.363,2.33 4.178,2.442 4.015,2.591 C3.853,2.741 3.721,2.924 3.619,3.14 C3.516,3.356 3.466,3.608 3.466,3.896 C3.466,4.256 3.517,4.592 3.619,4.905 C3.721,5.217 3.838,5.535 3.97,5.858 L7.607,5.858 L7.607,7.766 L4.564,7.766 C4.576,7.85 4.583,7.928 4.583,8 L4.583,8.216 C4.583,8.792 4.457,9.326 4.205,9.819 C3.953,10.312 3.568,10.707 3.053,11.007 L6.348,11.007 C6.887,11.007 7.301,10.839 7.589,10.503 C7.877,10.167 8.022,9.747 8.022,9.243 L10.217,9.459 C10.217,9.987 10.136,10.476 9.975,10.926 C9.813,11.376 9.584,11.763 9.29,12.087 C8.996,12.411 8.636,12.666 8.21,12.852 C7.783,13.039 7.307,13.131 6.779,13.131 L0.191,13.131 L0.191,11.043 C0.838,10.803 1.351,10.458 1.73,10.008 C2.107,9.558 2.296,9.045 2.296,8.469 C2.296,8.265 2.266,8.031 2.206,7.767 L0.28,7.767 L0.28,5.859 L1.523,5.859 L1.523,5.857 Z" id="Shape"></path>
                <path d="M12.341,10.682 C12.58,10.815 12.914,10.937 13.34,11.051 C13.766,11.165 14.195,11.222 14.627,11.222 C15.898,11.222 16.892,10.883 17.606,10.205 C18.321,9.527 18.708,8.594 18.768,7.406 C18.528,7.814 18.14,8.153 17.606,8.423 C17.073,8.694 16.446,8.828 15.725,8.828 C15.149,8.828 14.594,8.732 14.061,8.54 C13.526,8.348 13.058,8.066 12.657,7.694 C12.255,7.322 11.933,6.872 11.694,6.343 C11.454,5.816 11.334,5.215 11.334,4.543 C11.334,3.895 11.456,3.298 11.702,2.752 C11.948,2.206 12.288,1.735 12.72,1.339 C13.152,0.943 13.661,0.637 14.25,0.421 C14.838,0.205 15.474,0.097 16.157,0.097 C16.829,0.097 17.471,0.217 18.084,0.457 C18.697,0.697 19.233,1.066 19.694,1.563 C20.157,2.061 20.526,2.686 20.801,3.435 C21.076,4.185 21.215,5.064 21.215,6.073 C21.215,7.224 21.074,8.254 20.792,9.16 C20.51,10.066 20.096,10.834 19.55,11.464 C19.004,12.094 18.321,12.574 17.498,12.904 C16.676,13.233 15.725,13.398 14.644,13.398 C14.38,13.398 14.107,13.38 13.826,13.344 C13.544,13.308 13.273,13.26 13.015,13.2 C12.757,13.139 12.511,13.068 12.277,12.984 C12.044,12.9 11.848,12.803 11.693,12.696 L12.341,10.682 L12.341,10.682 Z M18.443,4.472 C18.443,4.136 18.38,3.83 18.254,3.554 C18.128,3.279 17.957,3.041 17.74,2.843 C17.525,2.645 17.275,2.492 16.994,2.384 C16.712,2.277 16.414,2.222 16.103,2.222 C15.791,2.222 15.494,2.277 15.211,2.384 C14.929,2.492 14.68,2.642 14.464,2.834 C14.248,3.026 14.077,3.263 13.95,3.545 C13.825,3.827 13.762,4.136 13.762,4.472 C13.762,4.821 13.825,5.135 13.95,5.417 C14.077,5.699 14.245,5.938 14.455,6.137 C14.665,6.336 14.911,6.486 15.192,6.587 C15.474,6.69 15.778,6.74 16.102,6.74 C16.413,6.74 16.71,6.685 16.993,6.578 C17.274,6.47 17.524,6.316 17.739,6.119 C17.956,5.921 18.127,5.683 18.253,5.408 C18.38,5.132 18.443,4.82 18.443,4.472 L18.443,4.472 Z" id="Shape"></path>
                <path d="M22.439,11.689 C22.439,11.257 22.594,10.897 22.906,10.61 C23.218,10.322 23.609,10.177 24.076,10.177 C24.64,10.177 25.078,10.375 25.39,10.771 C25.702,11.167 25.859,11.66 25.859,12.248 C25.859,12.908 25.756,13.477 25.552,13.958 C25.348,14.437 25.09,14.834 24.779,15.146 C24.467,15.458 24.125,15.698 23.753,15.867 C23.381,16.035 23.027,16.137 22.691,16.173 L22.691,15.021 C22.894,14.973 23.095,14.892 23.294,14.779 C23.492,14.665 23.672,14.523 23.834,14.355 C23.996,14.187 24.128,13.996 24.23,13.78 C24.332,13.563 24.388,13.33 24.4,13.078 C24.304,13.149 24.148,13.185 23.932,13.185 C23.488,13.185 23.128,13.044 22.853,12.762 C22.576,12.479 22.439,12.122 22.439,11.689 L22.439,11.689 Z" id="Shape"></path>
                <path d="M28.451,10.682 C28.69,10.815 29.023,10.937 29.449,11.051 C29.875,11.165 30.304,11.222 30.736,11.222 C32.007,11.222 33.002,10.883 33.715,10.205 C34.428,9.527 34.816,8.594 34.876,7.406 C34.636,7.814 34.249,8.153 33.715,8.423 C33.181,8.694 32.554,8.828 31.834,8.828 C31.258,8.828 30.702,8.732 30.169,8.54 C29.635,8.348 29.167,8.066 28.765,7.694 C28.363,7.322 28.042,6.872 27.802,6.343 C27.562,5.816 27.443,5.215 27.443,4.543 C27.443,3.895 27.565,3.298 27.811,2.752 C28.057,2.206 28.396,1.735 28.828,1.339 C29.261,0.943 29.77,0.637 30.359,0.421 C30.947,0.205 31.582,0.097 32.266,0.097 C32.938,0.097 33.579,0.217 34.193,0.457 C34.804,0.697 35.341,1.066 35.803,1.563 C36.265,2.061 36.634,2.686 36.909,3.435 C37.185,4.185 37.323,5.064 37.323,6.073 C37.323,7.224 37.182,8.254 36.901,9.16 C36.618,10.066 36.204,10.834 35.659,11.464 C35.112,12.094 34.429,12.574 33.606,12.904 C32.784,13.233 31.834,13.398 30.753,13.398 C30.488,13.398 30.216,13.38 29.934,13.344 C29.653,13.308 29.382,13.26 29.123,13.2 C28.865,13.139 28.619,13.068 28.386,12.984 C28.153,12.9 27.957,12.803 27.801,12.696 L28.451,10.682 L28.451,10.682 Z M34.553,4.472 C34.553,4.136 34.491,3.83 34.364,3.554 C34.239,3.279 34.067,3.041 33.851,2.843 C33.635,2.645 33.386,2.492 33.104,2.384 C32.823,2.277 32.525,2.222 32.213,2.222 C31.901,2.222 31.604,2.277 31.322,2.384 C31.039,2.492 30.791,2.642 30.574,2.834 C30.359,3.026 30.187,3.263 30.061,3.545 C29.935,3.827 29.873,4.136 29.873,4.472 C29.873,4.821 29.935,5.135 30.061,5.417 C30.187,5.699 30.355,5.938 30.566,6.137 C30.775,6.335 31.021,6.486 31.303,6.587 C31.585,6.69 31.888,6.74 32.212,6.74 C32.524,6.74 32.821,6.685 33.103,6.578 C33.385,6.47 33.634,6.316 33.85,6.119 C34.066,5.921 34.238,5.683 34.363,5.408 C34.49,5.132 34.553,4.82 34.553,4.472 L34.553,4.472 Z" id="Shape"></path>
                <path d="M39.881,10.682 C40.121,10.815 40.453,10.937 40.88,11.051 C41.306,11.165 41.734,11.222 42.167,11.222 C43.438,11.222 44.432,10.883 45.146,10.205 C45.859,9.527 46.246,8.594 46.306,7.406 C46.066,7.814 45.679,8.153 45.146,8.423 C44.611,8.694 43.984,8.828 43.265,8.828 C42.689,8.828 42.133,8.732 41.599,8.54 C41.066,8.348 40.597,8.066 40.195,7.694 C39.794,7.322 39.472,6.872 39.232,6.343 C38.992,5.816 38.873,5.215 38.873,4.543 C38.873,3.895 38.996,3.298 39.242,2.752 C39.488,2.206 39.826,1.735 40.259,1.339 C40.692,0.943 41.201,0.637 41.789,0.421 C42.377,0.205 43.013,0.097 43.697,0.097 C44.369,0.097 45.01,0.217 45.623,0.457 C46.234,0.697 46.771,1.066 47.234,1.563 C47.695,2.061 48.064,2.686 48.34,3.435 C48.616,4.185 48.754,5.064 48.754,6.073 C48.754,7.224 48.612,8.254 48.331,9.16 C48.049,10.066 47.635,10.834 47.089,11.464 C46.543,12.094 45.859,12.574 45.037,12.904 C44.215,13.233 43.265,13.398 42.184,13.398 C41.919,13.398 41.647,13.38 41.364,13.344 C41.083,13.308 40.813,13.26 40.554,13.2 C40.296,13.139 40.05,13.068 39.817,12.984 C39.583,12.9 39.387,12.803 39.231,12.696 L39.881,10.682 L39.881,10.682 Z M45.982,4.472 C45.982,4.136 45.92,3.83 45.794,3.554 C45.668,3.279 45.497,3.041 45.281,2.843 C45.064,2.645 44.816,2.492 44.533,2.384 C44.252,2.277 43.955,2.222 43.642,2.222 C43.329,2.222 43.033,2.277 42.751,2.384 C42.469,2.492 42.22,2.642 42.004,2.834 C41.788,3.026 41.616,3.263 41.491,3.545 C41.364,3.827 41.302,4.136 41.302,4.472 C41.302,4.821 41.364,5.135 41.491,5.417 C41.616,5.699 41.784,5.938 41.995,6.137 C42.204,6.335 42.45,6.486 42.733,6.587 C43.014,6.69 43.317,6.74 43.641,6.74 C43.953,6.74 44.25,6.685 44.532,6.578 C44.815,6.47 45.063,6.316 45.28,6.119 C45.496,5.921 45.667,5.683 45.793,5.408 C45.92,5.132 45.982,4.82 45.982,4.472 L45.982,4.472 Z" id="Shape"></path>
                <path d="M51.311,10.682 C51.551,10.815 51.883,10.937 52.31,11.051 C52.736,11.165 53.164,11.222 53.597,11.222 C54.868,11.222 55.862,10.883 56.576,10.205 C57.289,9.527 57.676,8.594 57.736,7.406 C57.496,7.814 57.109,8.153 56.576,8.423 C56.041,8.694 55.414,8.828 54.695,8.828 C54.119,8.828 53.563,8.732 53.029,8.54 C52.496,8.348 52.027,8.066 51.625,7.694 C51.224,7.322 50.902,6.872 50.662,6.343 C50.422,5.816 50.303,5.215 50.303,4.543 C50.303,3.895 50.426,3.298 50.672,2.752 C50.918,2.206 51.256,1.735 51.689,1.339 C52.122,0.943 52.631,0.637 53.219,0.421 C53.807,0.205 54.443,0.097 55.127,0.097 C55.799,0.097 56.44,0.217 57.053,0.457 C57.664,0.697 58.201,1.066 58.664,1.563 C59.125,2.061 59.494,2.686 59.77,3.435 C60.046,4.185 60.184,5.064 60.184,6.073 C60.184,7.224 60.042,8.254 59.761,9.16 C59.479,10.066 59.065,10.834 58.519,11.464 C57.973,12.094 57.289,12.574 56.467,12.904 C55.645,13.233 54.695,13.398 53.614,13.398 C53.349,13.398 53.077,13.38 52.794,13.344 C52.513,13.308 52.243,13.26 51.984,13.2 C51.726,13.139 51.48,13.068 51.247,12.984 C51.013,12.9 50.817,12.803 50.661,12.696 L51.311,10.682 L51.311,10.682 Z M57.412,4.472 C57.412,4.136 57.35,3.83 57.224,3.554 C57.098,3.279 56.927,3.041 56.711,2.843 C56.494,2.645 56.246,2.492 55.963,2.384 C55.682,2.277 55.385,2.222 55.072,2.222 C54.759,2.222 54.463,2.277 54.181,2.384 C53.899,2.492 53.65,2.642 53.434,2.834 C53.218,3.026 53.046,3.263 52.921,3.545 C52.794,3.827 52.732,4.136 52.732,4.472 C52.732,4.821 52.794,5.135 52.921,5.417 C53.046,5.699 53.214,5.938 53.425,6.137 C53.634,6.335 53.88,6.486 54.163,6.587 C54.444,6.69 54.747,6.74 55.071,6.74 C55.383,6.74 55.68,6.685 55.962,6.578 C56.245,6.47 56.493,6.316 56.71,6.119 C56.926,5.921 57.097,5.683 57.223,5.408 C57.35,5.132 57.412,4.82 57.412,4.472 L57.412,4.472 Z" id="Shape"></path>
            </g>
            <path d="M138.309,165.961 C139.083,165.961 139.751,165.333 139.751,164.557 L139.751,150.178 C139.751,149.434 139.114,148.784 138.309,148.784 C137.535,148.784 136.867,149.412 136.867,150.178 L136.867,164.557 C136.867,165.312 137.513,165.961 138.309,165.961 L138.309,165.961 L138.309,165.961 Z" id="Shape" fill="#FFFFFF"></path>
            <path d="M132.125,165.961 C132.891,165.961 133.568,165.333 133.568,164.557 L133.568,150.178 C133.568,149.434 132.92,148.784 132.125,148.784 C131.35,148.784 130.674,149.412 130.674,150.178 L130.674,164.557 C130.674,165.312 131.32,165.961 132.125,165.961 L132.125,165.961 L132.125,165.961 Z" id="Shape_1_" fill="#FFFFFF"></path>
            <path d="M125.941,165.961 C126.708,165.961 127.375,165.333 127.375,164.557 L127.375,150.178 C127.375,149.434 126.727,148.784 125.941,148.784 C125.155,148.784 124.488,149.412 124.488,150.178 L124.488,164.557 C124.488,165.312 125.138,165.961 125.941,165.961 L125.941,165.961 L125.941,165.961 Z" id="Shape_2_" fill="#FFFFFF"></path>
            <path d="M119.748,165.961 C120.523,165.961 121.191,165.333 121.191,164.557 L121.191,150.178 C121.191,149.434 120.544,148.784 119.748,148.784 C118.974,148.784 118.307,149.412 118.307,150.178 L118.307,164.557 C118.307,165.312 118.953,165.961 119.748,165.961 L119.748,165.961 L119.748,165.961 Z" id="Shape_3_" fill="#FFFFFF"></path>
            <path d="M113.555,165.961 C114.34,165.961 115.008,165.333 115.008,164.557 L115.008,150.178 C115.008,149.434 114.36,148.784 113.555,148.784 C112.789,148.784 112.121,149.412 112.121,150.178 L112.121,164.557 C112.121,165.312 112.77,165.961 113.555,165.961 L113.555,165.961 L113.555,165.961 Z" id="Shape_4_" fill="#FFFFFF"></path>
            <path d="M156.87,165.961 C157.645,165.961 158.312,165.333 158.312,164.557 L158.312,150.178 C158.312,149.434 157.666,148.784 156.87,148.784 C156.096,148.784 155.428,149.412 155.428,150.178 L155.428,164.557 C155.427,165.312 156.075,165.961 156.87,165.961 L156.87,165.961 L156.87,165.961 Z" id="Shape_5_" fill="#FFFFFF"></path>
            <path d="M144.494,165.961 C145.279,165.961 145.947,165.333 145.947,164.557 L145.947,150.178 C145.947,149.434 145.298,148.784 144.494,148.784 C143.728,148.784 143.06,149.412 143.06,150.178 L143.06,164.557 C143.06,165.312 143.698,165.961 144.494,165.961 L144.494,165.961 L144.494,165.961 Z" id="Shape_6_" fill="#FFFFFF"></path>
            <path d="M150.687,165.961 C151.461,165.961 152.129,165.333 152.129,164.557 L152.129,150.178 C152.129,149.434 151.481,148.784 150.687,148.784 C149.911,148.784 149.243,149.412 149.243,150.178 L149.243,164.557 C149.243,165.312 149.891,165.961 150.687,165.961 L150.687,165.961 L150.687,165.961 Z" id="Shape_7_" fill="#FFFFFF"></path>
            <path d="M104.643,163.251 C105.584,167.943 110.217,171.691 114.987,171.691 L155.447,171.691 C160.218,171.691 164.85,167.914 165.793,163.251 L168.169,151.492 C169.111,146.792 165.999,143.051 161.229,143.051 L109.206,143.051 C104.446,143.051 101.325,146.822 102.268,151.492 L104.643,163.251 L104.643,163.251 L104.643,163.251 Z M109.256,146.046 L160.972,146.046 C163.917,146.046 165.635,148.156 165.057,151.07 L162.691,162.859 C162.034,166.187 158.597,169.004 155.23,169.004 L115.008,169.004 C111.612,169.004 108.205,166.216 107.528,162.859 L105.173,151.07 C104.593,148.175 106.331,146.046 109.256,146.046 L109.256,146.046 L109.256,146.046 Z" id="Shape_8_" fill="#FFFFFF"></path>
            <path d="M96.318,90.126 C92.43,90.637 88.523,93.679 84.637,98.392 C83.185,100.158 81.849,102.033 80.633,103.908 C80.2,104.565 79.827,105.174 79.503,105.723 C79.298,106.057 79.159,106.302 79.091,106.43 C79.091,106.43 78.551,107.617 79.691,108.246 C80.83,108.892 81.615,107.813 81.615,107.813 C81.869,107.351 82.371,106.518 83.067,105.458 C84.215,103.661 85.501,101.875 86.876,100.216 C90.331,96.015 93.747,93.365 96.69,92.972 C96.947,92.934 97.192,92.912 97.437,92.912 C97.437,92.912 98.673,92.757 98.673,91.44 C98.673,90.126 97.437,90.046 97.437,90.046 C97.064,90.047 96.69,90.076 96.318,90.126 L96.318,90.126 L96.318,90.126 Z" id="Shape_9_" fill="#FFFFFF"></path>
            <path d="M39.938,185.141 L39.938,184.7 C39.937,184.979 39.938,185.141 39.938,185.141 L39.938,185.141 L39.938,185.141 Z" id="Shape_10_" fill="#FFFFFF"></path>
            <path d="M39.938,183.393 L39.938,184.7 C39.938,184.378 39.941,183.891 39.949,183.241 C39.947,183.291 39.938,183.34 39.938,183.393 L39.938,183.393 L39.938,183.393 Z" id="Shape_11_" fill="#FFFFFF"></path>
            <path d="M224.725,139.467 C221.133,128.699 219.474,125.441 218.738,124.509 C219.052,123.211 218.954,121.828 220.879,121.494 C225.118,120.748 230.733,121.259 229.733,115.635 C228.732,110.01 223.834,106.535 217.267,107.674 C213.595,108.322 210.494,109.882 208.589,111.698 L207.666,112.719 C207.294,113.2 207.019,113.692 206.832,114.181 L205.939,112.945 L204.957,111.571 L189.331,89.87 C186.554,86.022 180.398,82.891 175.647,82.891 L135.217,82.891 L135.217,85.757 L175.647,85.757 C179.476,85.757 184.756,88.436 186.984,91.538 L204.487,115.841 L205.585,117.373 C196.556,117.884 156.184,120.13 133.795,120.13 C111.376,120.13 73.114,117.884 64.691,117.373 L65.791,115.841 L83.294,91.538 C85.522,88.435 90.802,85.757 94.629,85.757 L135.062,85.757 L135.062,82.891 L94.629,82.891 C89.88,82.891 83.716,86.022 80.947,89.87 L65.32,111.573 L64.339,112.947 L63.436,114.183 C63.26,113.694 62.976,113.203 62.614,112.721 L61.69,111.7 C59.786,109.884 56.674,108.324 53.002,107.676 C46.436,106.537 41.547,110.012 40.546,115.637 C39.545,121.261 45.158,120.75 49.4,121.496 C51.325,121.83 51.226,123.213 51.542,124.511 C50.805,125.443 49.146,128.701 45.554,139.469 C40.675,154.061 40.033,176.604 39.95,183.24 C39.98,181.515 40.497,179.919 41.392,178.575 L41.255,184.984 L42.804,190.853 L65.774,204.25 L68.64,204.594 L68.64,205.789 C71.24,205.965 74.122,206.065 77.316,206.065 C77.316,206.065 114.283,209.178 134.011,208.952 L136.524,208.972 C156.173,209.208 192.963,206.065 192.963,206.065 C196.152,206.065 199.028,205.967 201.63,205.792 L201.63,211.771 C201.63,216.531 205.526,220.398 210.298,220.398 L221.841,220.398 C226.621,220.398 230.499,216.562 230.499,211.771 L230.499,183.18 C230.499,182.538 230.429,181.912 230.301,181.312 C230.113,172.978 229.211,152.867 224.725,139.467 Z M188.634,147.352 C195.014,147.352 200.187,152.475 200.187,158.796 C200.187,165.137 195.014,170.261 188.634,170.261 C182.253,170.261 177.08,165.137 177.08,158.796 C177.081,152.475 182.253,147.352 188.634,147.352 L188.634,147.352 L188.634,147.352 Z M109.205,143.051 L161.228,143.051 C165.999,143.051 169.111,146.792 168.168,151.492 L165.792,163.251 C164.85,167.914 160.218,171.691 155.446,171.691 L114.986,171.691 C110.216,171.691 105.584,167.943 104.642,163.251 L102.266,151.492 C101.324,146.82 104.445,143.051 109.205,143.051 L109.205,143.051 L109.205,143.051 Z M84.688,147.352 C91.067,147.352 96.24,152.475 96.24,158.796 C96.24,165.137 91.067,170.261 84.688,170.261 C78.307,170.261 73.135,165.137 73.135,158.796 C73.135,152.475 78.307,147.352 84.688,147.352 L84.688,147.352 L84.688,147.352 Z M61.59,147.352 C66.371,147.352 70.248,151.2 70.248,155.94 C70.248,160.682 66.371,164.528 61.59,164.528 C56.801,164.528 52.924,160.682 52.924,155.94 C52.924,151.198 56.801,147.352 61.59,147.352 L61.59,147.352 L61.59,147.352 Z M214.654,194.583 C214.654,194.583 166.98,197.99 135.217,197.782 C103.455,197.587 58.705,194.562 58.705,194.562 C54.719,194.308 53.816,191.874 56.684,189.124 L57.832,188.034 C60.707,185.286 66.234,183.332 70.219,183.645 C70.219,183.645 104.652,186.739 135.217,186.739 C165.773,186.739 203.131,183.606 203.131,183.606 C207.078,183.313 212.633,185.295 215.49,188.034 L216.638,189.124 C219.503,191.874 218.64,194.328 214.654,194.583 L214.654,194.583 L214.654,194.583 Z M211.73,164.527 C206.949,164.527 203.072,160.679 203.072,155.937 C203.072,151.198 206.949,147.349 211.73,147.349 C216.52,147.349 220.398,151.198 220.398,155.937 C220.398,160.682 216.52,164.527 211.73,164.527 L211.73,164.527 L211.73,164.527 Z" id="Shape_12_" fill="#FFFFFF"></path>
            <path d="M46.0786616,197.409 C42.6346616,194.199 39.8856616,187.752 40.0036616,183 L40.0036616,209.896 C40.0036616,214.706 43.8516616,218.543 48.6106616,218.543 L60.0856616,218.543 C64.8376616,218.543 68.7046616,214.666 68.7046616,209.896 L68.7046616,203.651 C50.3226616,202.41 46.0786616,197.409 46.0786616,197.409 L46.0786616,197.409 L46.0786616,197.409 Z" id="Shape_13_" fill="#FFFFFF"></path>
        </g>
    </g>
</svg>