<?xml version="1.0" encoding="utf-8"?>
<!-- Generator: Adobe Illustrator 16.0.0, SVG Export Plug-In . SVG Version: 6.00 Build 0)  -->
<!DOCTYPE svg PUBLIC "-//W3C//DTD SVG 1.1//EN" "http://www.w3.org/Graphics/SVG/1.1/DTD/svg11.dtd">
<svg version="1.1" id="Ebene_1" xmlns="http://www.w3.org/2000/svg" xmlns:xlink="http://www.w3.org/1999/xlink" x="0px" y="0px"
	 width="476px" height="250px" viewBox="0 0 476 250" enable-background="new 0 0 476 250" xml:space="preserve">
<rect fill="#FFFFFF" width="476" height="250"/>
<rect fill="#DADADA" width="271.553" height="250"/>
<text transform="matrix(1 0 0 1 285.4941 42.7505)"><tspan x="0" y="0" font-family="'CircularAir-Bold'" font-size="22.6414">B</tspan><tspan x="13.471" y="0" font-family="'CircularAir-Bold'" font-size="22.6414">est in class</tspan><tspan x="0" y="24" font-family="'CircularAir-Bold'" font-size="22.6414">for e</tspan><tspan x="48.248" y="24" font-family="'CircularAir-Bold'" font-size="22.6414">f</tspan><tspan x="56.783" y="24" font-family="'CircularAir-Bold'" font-size="22.6414">ficiency.</tspan></text>
<rect x="285.494" y="85.536" width="119.128" height="26.673"/>
<text transform="matrix(1 0 0 1 292.2178 105.1299)"><tspan x="0" y="0" fill="#FFFFFF" font-family="'CircularAir-Bold'" font-size="13.5309">ONLY </tspan><tspan x="43.785" y="0" fill="#FFFFFF" font-family="'CircularAir-Bold'" font-size="17.0199">£9,999</tspan></text>
<path fill="#FFFFFF" d="M138.309,165.961c0.774,0,1.442-0.628,1.442-1.404v-14.379c0-0.745-0.637-1.394-1.442-1.394
	c-0.774,0-1.442,0.628-1.442,1.394v14.379C136.867,165.312,137.513,165.961,138.309,165.961z"/>
<path fill="#FFFFFF" d="M132.125,165.961c0.766,0,1.443-0.628,1.443-1.404v-14.379c0-0.745-0.648-1.394-1.443-1.394
	c-0.775,0-1.451,0.628-1.451,1.394v14.379C130.674,165.312,131.32,165.961,132.125,165.961z"/>
<path fill="#FFFFFF" d="M125.941,165.961c0.767,0,1.434-0.628,1.434-1.404v-14.379c0-0.745-0.648-1.394-1.434-1.394
	s-1.453,0.628-1.453,1.394v14.379C124.488,165.312,125.138,165.961,125.941,165.961z"/>
<path fill="#FFFFFF" d="M119.748,165.961c0.775,0,1.443-0.628,1.443-1.404v-14.379c0-0.745-0.647-1.394-1.443-1.394
	c-0.774,0-1.441,0.628-1.441,1.394v14.379C118.307,165.312,118.953,165.961,119.748,165.961z"/>
<path fill="#FFFFFF" d="M113.555,165.961c0.785,0,1.453-0.628,1.453-1.404v-14.379c0-0.745-0.648-1.394-1.453-1.394
	c-0.766,0-1.434,0.628-1.434,1.394v14.379C112.121,165.312,112.77,165.961,113.555,165.961z"/>
<path fill="#FFFFFF" d="M156.87,165.961c0.775,0,1.442-0.628,1.442-1.404v-14.379c0-0.745-0.646-1.394-1.442-1.394
	c-0.774,0-1.442,0.628-1.442,1.394v14.379C155.427,165.312,156.075,165.961,156.87,165.961z"/>
<path fill="#FFFFFF" d="M144.494,165.961c0.785,0,1.453-0.628,1.453-1.404v-14.379c0-0.745-0.649-1.394-1.453-1.394
	c-0.766,0-1.434,0.628-1.434,1.394v14.379C143.06,165.312,143.698,165.961,144.494,165.961z"/>
<path fill="#FFFFFF" d="M150.687,165.961c0.774,0,1.442-0.628,1.442-1.404v-14.379c0-0.745-0.648-1.394-1.442-1.394
	c-0.776,0-1.444,0.628-1.444,1.394v14.379C149.243,165.312,149.891,165.961,150.687,165.961z"/>
<path fill="#FFFFFF" d="M104.643,163.251c0.941,4.692,5.574,8.441,10.344,8.441h40.46c4.771,0,9.403-3.778,10.346-8.441
	l2.376-11.759c0.942-4.7-2.17-8.441-6.94-8.441h-52.023c-4.76,0-7.881,3.771-6.938,8.441L104.643,163.251z M109.256,146.046h51.716
	c2.945,0,4.663,2.11,4.085,5.024l-2.366,11.79c-0.657,3.327-4.094,6.144-7.461,6.144h-40.222c-3.396,0-6.803-2.788-7.48-6.144
	l-2.355-11.79C104.593,148.175,106.331,146.046,109.256,146.046z"/>
<path fill="#FFFFFF" d="M96.318,90.126c-3.888,0.511-7.795,3.553-11.681,8.266c-1.452,1.766-2.788,3.641-4.004,5.516
	c-0.433,0.657-0.806,1.266-1.13,1.815c-0.205,0.334-0.344,0.579-0.412,0.707c0,0-0.54,1.187,0.6,1.816
	c1.139,0.646,1.924-0.433,1.924-0.433c0.254-0.462,0.756-1.295,1.452-2.355c1.148-1.797,2.434-3.583,3.809-5.242
	c3.455-4.201,6.871-6.851,9.814-7.244c0.257-0.038,0.502-0.06,0.747-0.06c0,0,1.236-0.155,1.236-1.472
	c0-1.314-1.236-1.394-1.236-1.394C97.064,90.047,96.69,90.076,96.318,90.126z"/>
<path fill="#FFFFFF" d="M39.938,185.14v-0.441C39.937,184.978,39.938,185.14,39.938,185.14z"/>
<path fill="#FFFFFF" d="M39.938,183.393v1.306c0-0.322,0.003-0.808,0.011-1.459C39.947,183.291,39.938,183.34,39.938,183.393z"/>
<g>
	<path fill="#FFFFFF" d="M230.301,181.312c-0.188-8.333-1.09-28.445-5.576-41.844c-3.592-10.768-5.251-14.026-5.987-14.958
		c0.314-1.298,0.216-2.681,2.141-3.015c4.239-0.746,9.854-0.235,8.854-5.859c-1.001-5.625-5.899-9.1-12.466-7.961
		c-3.672,0.648-6.773,2.208-8.678,4.024l-0.923,1.021c-0.372,0.481-0.647,0.973-0.834,1.462l-0.893-1.236l-0.982-1.374
		L189.331,89.87c-2.777-3.848-8.933-6.979-13.684-6.979h-40.43v2.866h40.43c3.829,0,9.109,2.679,11.337,5.781l17.503,24.303
		l1.098,1.532c-9.029,0.511-49.401,2.757-71.79,2.757c-22.419,0-60.681-2.246-69.104-2.757l1.1-1.532l17.503-24.303
		c2.228-3.103,7.508-5.781,11.335-5.781h40.433v-2.866H94.629c-4.749,0-10.913,3.131-13.682,6.979L65.32,111.573l-0.981,1.374
		l-0.903,1.236c-0.176-0.489-0.46-0.98-0.822-1.462l-0.924-1.021c-1.904-1.816-5.016-3.376-8.688-4.024
		c-6.566-1.139-11.455,2.336-12.456,7.961c-1.001,5.624,4.612,5.113,8.854,5.859c1.925,0.334,1.826,1.717,2.142,3.015
		c-0.737,0.932-2.396,4.19-5.988,14.958c-4.879,14.591-5.521,37.135-5.604,43.771c0.03-1.725,0.547-3.321,1.442-4.665l-0.137,6.41
		l1.549,5.869l22.97,13.397l2.866,0.344v1.195c2.6,0.176,5.482,0.276,8.676,0.276c0,0,36.967,3.113,56.695,2.887v0.02h2.513v-0.02
		c19.649,0.256,56.439-2.887,56.439-2.887c3.189,0,6.065-0.097,8.667-0.273v5.978c0,4.76,3.896,8.627,8.668,8.627h11.543
		c4.78,0,8.658-3.836,8.658-8.627v-28.592C230.499,182.538,230.429,181.912,230.301,181.312z M188.634,147.351
		c6.38,0,11.553,5.124,11.553,11.445c0,6.341-5.173,11.465-11.553,11.465c-6.381,0-11.554-5.124-11.554-11.465
		C177.081,152.475,182.253,147.351,188.634,147.351z M109.205,143.051h52.023c4.771,0,7.883,3.741,6.94,8.441l-2.376,11.759
		c-0.942,4.663-5.574,8.441-10.346,8.441h-40.46c-4.77,0-9.402-3.749-10.344-8.441l-2.376-11.759
		C101.324,146.821,104.445,143.051,109.205,143.051z M84.688,147.351c6.379,0,11.552,5.124,11.552,11.445
		c0,6.341-5.173,11.465-11.552,11.465c-6.381,0-11.553-5.124-11.553-11.465C73.135,152.475,78.307,147.351,84.688,147.351z
		 M61.59,147.351c4.781,0,8.658,3.848,8.658,8.588c0,4.742-3.877,8.589-8.658,8.589c-4.789,0-8.666-3.847-8.666-8.589
		C52.924,151.198,56.801,147.351,61.59,147.351z M214.654,194.583c0,0-47.674,3.407-79.437,3.199
		c-31.762-0.195-76.512-3.219-76.512-3.219c-3.986-0.254-4.889-2.689-2.021-5.438l1.148-1.09c2.875-2.748,8.402-4.702,12.387-4.388
		c0,0,34.433,3.093,64.998,3.093c30.556,0,67.914-3.132,67.914-3.132c3.947-0.294,9.502,1.689,12.359,4.427l1.148,1.09
		C219.503,191.874,218.64,194.328,214.654,194.583z M211.73,164.527c-4.781,0-8.658-3.847-8.658-8.589
		c0-4.74,3.877-8.588,8.658-8.588c4.79,0,8.668,3.848,8.668,8.588C220.398,160.681,216.52,164.527,211.73,164.527z"/>
	<path fill="#FFFFFF" d="M46.013,199.55c-3.444-3.21-6.193-9.657-6.075-14.41v26.896c0,4.81,3.848,8.647,8.607,8.647H60.02
		c4.752,0,8.619-3.876,8.619-8.647v-6.245C50.257,204.551,46.013,199.55,46.013,199.55z"/>
</g>
<path fill="#FFFFFF" d="M65.772,204.251l-22.97-13.397l-1.549-5.869l0.137-6.41c-0.896,1.344-1.412,2.94-1.442,4.665
	c-0.008,0.651-0.011,1.137-0.011,1.459v0.441c-0.118,4.753,2.631,11.2,6.075,14.41c0,0,4.244,5.001,22.626,6.24v-1.195
	L65.772,204.251z"/>
</svg>
