<?xml version="1.0" encoding="utf-8"?>
<!-- Generator: Adobe Illustrator 19.2.1, SVG Export Plug-In . SVG Version: 6.00 Build 0)  -->
<svg version="1.1" id="Layer_1" xmlns="http://www.w3.org/2000/svg" xmlns:xlink="http://www.w3.org/1999/xlink" x="0px" y="0px"
	 viewBox="0 0 187 167" style="enable-background:new 0 0 187 167;" xml:space="preserve">
<style type="text/css">
	.st0{fill:#FFFFFF;stroke:#000000;stroke-width:3;stroke-linecap:round;stroke-linejoin:round;stroke-miterlimit:10;}
	.st1{fill:none;stroke:#000000;stroke-width:3;stroke-linecap:round;stroke-linejoin:round;stroke-miterlimit:10;}
</style>
<path class="st0" d="M137.6,103.5l-97.3-0.6c-1.7-0.2-2.9-1.7-2.9-3.4l-11-63.3c0-1.9,1.5-3.4,3.4-3.4h117.3c1.9,0,3.4,1.5,3.4,3.4
	l-9,63.9C141.6,102.2,139.7,103.8,137.6,103.5z"/>
<polyline class="st1" points="169,19 150.5,33.2 136.5,140.5 44,139.5 "/>
<circle class="st0" cx="135.8" cy="139.7" r="11.1"/>
<circle class="st0" cx="44" cy="138.7" r="11.1"/>
<line class="st1" x1="31" y1="57.4" x2="146.9" y2="57.4"/>
<line class="st1" x1="72.5" y1="103.1" x2="62.4" y2="32.8"/>
<line class="st1" x1="105" y1="103.3" x2="114.8" y2="32.8"/>
<line class="st1" x1="34.5" y1="82.3" x2="144.3" y2="82.3"/>
</svg>
