<?xml version="1.0" encoding="UTF-8" standalone="no"?>
<svg width="518px" height="178px" viewBox="0 0 518 178" version="1.1" xmlns="http://www.w3.org/2000/svg" xmlns:xlink="http://www.w3.org/1999/xlink">
    <!-- Generator: Sketch 40.3 (33839) - http://www.bohemiancoding.com/sketch -->
    <title>Group 5</title>
    <desc>Created with Sketch.</desc>
    <defs>
        <polygon id="path-1" points="0 311 640.593 311 640.593 0.021 0 0.021"></polygon>
    </defs>
    <g id="Page-1" stroke="none" stroke-width="1" fill="none" fill-rule="evenodd">
        <g id="Group-5" transform="translate(-85.000000, -35.000000)">
            <path d="M257.6135,115.0459 L249.0715,115.0459 C247.6035,115.0459 246.0185,113.4329 245.5485,111.4629 L242.1845,97.3399 C241.7145,95.3689 240.1295,93.7569 238.6615,93.7569 L165.5205,93.7569 C164.0525,93.7569 162.3315,95.2909 161.6975,97.1669 L156.7985,111.6359 C156.1635,113.5109 154.4435,115.0459 152.9745,115.0459 L143.8985,115.0459 L85.1475,115.0459 L85.1475,141.9409 L601.7205,141.9409 L601.7205,115.0459 L257.6135,115.0459 L257.6135,115.0459 Z" id="Fill-1" fill="#DDDDDD"></path>
            <mask id="mask-2" fill="white">
                <use xlink:href="#path-1"></use>
            </mask>
            <g id="Clip-4"></g>
            <polygon id="Stroke-3" stroke="#DDDDDD" stroke-width="2" mask="url(#mask-2)" points="86.799 211.755 601.72 211.755 601.72 161.755 86.799 161.755"></polygon>
        </g>
        <g id="shopping_logo" transform="translate(15.000000, 10.000000)" stroke-width="2" stroke="#000000">
            <g id="Layer_1">
                <path d="M39.020979,29.4469697 L5,29.2378788 C4.40559441,29.1681818 3.98601399,28.6454545 3.98601399,28.0530303 L0.13986014,5.99393939 C0.13986014,5.33181818 0.664335664,4.80909091 1.32867133,4.80909091 L42.3426573,4.80909091 C43.006993,4.80909091 43.5314685,5.33181818 43.5314685,5.99393939 L40.3846154,28.2621212 C40.4195804,28.9939394 39.7552448,29.5515152 39.020979,29.4469697 L39.020979,29.4469697 Z" id="Shape" fill="#FFFFFF"></path>
                <polyline id="Shape" points="50 0 43.5314685 4.94848485 38.6363636 42.3409091 6.29370629 41.9924242"></polyline>
                <ellipse id="Oval" fill="#FFFFFF" cx="38.3916084" cy="42.0621212" rx="3.88111888" ry="3.86818182"></ellipse>
                <ellipse id="Oval" fill="#FFFFFF" cx="6.29370629" cy="41.7136364" rx="3.88111888" ry="3.86818182"></ellipse>
                <path d="M1.74825175,12.8196721 L42.2727273,12.8196721" id="Shape"></path>
                <path d="M16.2587413,29.3075758 L12.7272727,4.80909091" id="Shape"></path>
                <path d="M27.6223776,29.3772727 L31.048951,4.80909091" id="Shape"></path>
                <path d="M2.97202797,21.8688525 L41.3636364,21.8688525" id="Shape"></path>
            </g>
        </g>
        <path d="M82.3325227,158.347147 L82.3325227,152.613748 L77.7495148,144.616678 L79.9760773,144.616678 L83.5385773,150.813944 L87.3793977,144.616678 L89.1884797,144.616678 L84.2807648,152.576639 L84.2807648,158.347147 L82.3325227,158.347147 Z M93.7561984,158.57908 C92.3151105,158.57908 91.1647314,158.101302 90.3050266,157.145731 C89.4453217,156.19016 89.0154758,154.911445 89.0154758,153.309549 C89.0154758,151.689098 89.446868,150.407292 90.3096652,149.46409 C91.1724625,148.520889 92.3429423,148.049295 93.8211398,148.049295 C95.2993373,148.049295 96.4698172,148.520889 97.3326145,149.46409 C98.1954117,150.407292 98.6268039,151.682914 98.6268039,153.290995 C98.6268039,154.936185 98.1938655,156.228815 97.3279758,157.168924 C96.462086,158.109033 95.2715055,158.57908 93.7561984,158.57908 L93.7561984,158.57908 Z M93.7840305,157.206034 C95.7199125,157.206034 96.6878391,155.901034 96.6878391,153.290995 C96.6878391,150.71188 95.7322822,149.422342 93.8211398,149.422342 C91.9161824,149.422342 90.963718,150.718065 90.963718,153.309549 C90.963718,155.907218 91.9038127,157.206034 93.7840305,157.206034 L93.7840305,157.206034 Z M107.783542,158.347147 L107.783542,156.454569 C106.812509,157.870917 105.634298,158.57908 104.248874,158.57908 C103.370615,158.57908 102.671728,158.302309 102.152195,157.748758 C101.632661,157.195207 101.372898,156.448389 101.372898,155.50828 L101.372898,148.271952 L103.200534,148.271952 L103.200534,154.91453 C103.200534,155.669091 103.310315,156.205625 103.52988,156.524149 C103.749445,156.842673 104.115896,157.001932 104.629245,157.001932 C105.742532,157.001932 106.793954,156.269029 107.783542,154.803202 L107.783542,148.271952 L109.611179,148.271952 L109.611179,158.347147 L107.783542,158.347147 Z M113.27573,158.347147 L113.27573,148.271952 L115.103366,148.271952 L115.103366,150.16453 C115.827003,148.754366 116.878425,148.049295 118.257663,148.049295 C118.443211,148.049295 118.638033,148.064757 118.842136,148.095682 L118.842136,149.802713 C118.526705,149.69757 118.248387,149.644998 118.007175,149.644998 C116.850594,149.644998 115.882667,150.331515 115.103366,151.704569 L115.103366,158.347147 L113.27573,158.347147 Z M129.733737,158.57908 C128.898772,158.57908 127.88446,158.384258 126.690769,157.994608 L126.690769,156.315409 C127.88446,156.909162 128.923512,157.206034 129.807956,157.206034 C130.333675,157.206034 130.769706,157.063782 131.116062,156.779276 C131.462418,156.494769 131.635593,156.139141 131.635593,155.712381 C131.635593,155.087704 131.150084,154.57127 130.17905,154.163065 L129.112155,153.708475 C127.534999,153.052873 126.746433,152.109686 126.746433,150.878885 C126.746433,150.000626 127.057221,149.30947 127.678806,148.805399 C128.300391,148.301327 129.152352,148.049295 130.234714,148.049295 C130.797542,148.049295 131.493336,148.126606 132.322116,148.281229 L132.702487,148.355448 L132.702487,149.876932 C131.681975,149.573871 130.871761,149.422342 130.271823,149.422342 C129.096687,149.422342 128.509128,149.849096 128.509128,150.702616 C128.509128,151.253074 128.954436,151.716937 129.845066,152.094217 L130.726413,152.465311 C131.722186,152.885886 132.427258,153.329648 132.841648,153.79661 C133.256038,154.263572 133.46323,154.846492 133.46323,155.545389 C133.46323,156.429834 133.113787,157.156552 132.41489,157.725565 C131.715993,158.294578 130.822285,158.57908 129.733737,158.57908 L129.733737,158.57908 Z M136.747409,158.347147 L136.747409,143.698221 L138.575046,143.698221 L138.575046,150.16453 C139.539895,148.754366 140.721198,148.049295 142.118991,148.049295 C142.991066,148.049295 143.68686,148.326067 144.206394,148.879618 C144.725928,149.433169 144.985691,150.176895 144.985691,151.110819 L144.985691,158.347147 L143.158054,158.347147 L143.158054,151.704569 C143.158054,150.956193 143.048273,150.422751 142.828708,150.104227 C142.609143,149.785703 142.245784,149.626444 141.73862,149.626444 C140.619149,149.626444 139.564634,150.359347 138.575046,151.825174 L138.575046,158.347147 L136.747409,158.347147 Z M152.481784,158.57908 C151.040696,158.57908 149.890317,158.101302 149.030612,157.145731 C148.170908,156.19016 147.741062,154.911445 147.741062,153.309549 C147.741062,151.689098 148.172454,150.407292 149.035251,149.46409 C149.898048,148.520889 151.068528,148.049295 152.546726,148.049295 C154.024923,148.049295 155.195403,148.520889 156.0582,149.46409 C156.920998,150.407292 157.35239,151.682914 157.35239,153.290995 C157.35239,154.936185 156.919451,156.228815 156.053562,157.168924 C155.187672,158.109033 153.997091,158.57908 152.481784,158.57908 L152.481784,158.57908 Z M152.509616,157.206034 C154.445498,157.206034 155.413425,155.901034 155.413425,153.290995 C155.413425,150.71188 154.457868,149.422342 152.546726,149.422342 C150.641768,149.422342 149.689304,150.718065 149.689304,153.309549 C149.689304,155.907218 150.629399,157.206034 152.509616,157.206034 L152.509616,157.206034 Z M160.209812,162.011698 L160.209812,148.271952 L162.037448,148.271952 L162.037448,150.16453 C162.785825,148.754366 163.908372,148.049295 165.405124,148.049295 C166.61737,148.049295 167.571381,148.491511 168.267185,149.375955 C168.962989,150.2604 169.310886,151.469535 169.310886,153.003397 C169.310886,154.673327 168.916603,156.020075 168.128025,157.04368 C167.339446,158.067285 166.301941,158.57908 165.015476,158.57908 C163.821785,158.57908 162.829119,158.121403 162.037448,157.206034 L162.037448,162.011698 L160.209812,162.011698 Z M162.037448,155.944315 C162.977557,156.785465 163.874358,157.206034 164.727878,157.206034 C166.484397,157.206034 167.362644,155.867017 167.362644,153.188944 C167.362644,150.826302 166.583355,149.644998 165.024753,149.644998 C164.00424,149.644998 163.008482,150.198541 162.037448,151.305643 L162.037448,155.944315 Z M172.168308,162.011698 L172.168308,148.271952 L173.995945,148.271952 L173.995945,150.16453 C174.744321,148.754366 175.866868,148.049295 177.36362,148.049295 C178.575866,148.049295 179.529877,148.491511 180.225681,149.375955 C180.921485,150.2604 181.269382,151.469535 181.269382,153.003397 C181.269382,154.673327 180.875099,156.020075 180.086521,157.04368 C179.297943,158.067285 178.260437,158.57908 176.973972,158.57908 C175.780281,158.57908 174.787615,158.121403 173.995945,157.206034 L173.995945,162.011698 L172.168308,162.011698 Z M173.995945,155.944315 C174.936053,156.785465 175.832854,157.206034 176.686374,157.206034 C178.442893,157.206034 179.32114,155.867017 179.32114,153.188944 C179.32114,150.826302 178.541851,149.644998 176.983249,149.644998 C175.962736,149.644998 174.966978,150.198541 173.995945,151.305643 L173.995945,155.944315 Z M184.126804,158.347147 L184.126804,148.271952 L185.954441,148.271952 L185.954441,158.347147 L184.126804,158.347147 Z M184.126804,146.444315 L184.126804,144.616678 L185.954441,144.616678 L185.954441,146.444315 L184.126804,146.444315 Z M189.618991,158.347147 L189.618991,148.271952 L191.446628,148.271952 L191.446628,150.16453 C192.411477,148.754366 193.59278,148.049295 194.990573,148.049295 C195.862648,148.049295 196.558442,148.326067 197.077976,148.879618 C197.59751,149.433169 197.857273,150.176895 197.857273,151.110819 L197.857273,158.347147 L196.029636,158.347147 L196.029636,151.704569 C196.029636,150.956193 195.919855,150.422751 195.70029,150.104227 C195.480725,149.785703 195.117366,149.626444 194.610202,149.626444 C193.490731,149.626444 192.436216,150.359347 191.446628,151.825174 L191.446628,158.347147 L189.618991,158.347147 Z M201.447605,161.696268 L201.660984,160.109842 C202.718606,160.610821 203.760751,160.861307 204.787448,160.861307 C206.847029,160.861307 207.876804,159.769684 207.876804,157.586405 L207.876804,155.999979 C207.202647,157.410142 206.095562,158.115213 204.555515,158.115213 C203.349454,158.115213 202.390805,157.67609 201.679538,156.79783 C200.968272,155.919571 200.612644,154.735175 200.612644,153.244608 C200.612644,151.710746 201.01775,150.46141 201.827976,149.496561 C202.638201,148.531712 203.686531,148.049295 204.972995,148.049295 C206.098652,148.049295 207.066579,148.506973 207.876804,149.422342 L207.876804,148.271952 L209.713718,148.271952 L209.713718,155.601053 C209.713718,157.178209 209.631769,158.345597 209.467868,159.10325 C209.303968,159.860904 208.996272,160.480934 208.544773,160.963358 C207.746917,161.810693 206.506858,162.234354 204.824558,162.234354 C203.649422,162.234354 202.523782,162.054994 201.447605,161.696268 L201.447605,161.696268 Z M207.876804,154.858866 L207.876804,150.674784 C207.072763,149.839818 206.197609,149.422342 205.251316,149.422342 C204.410166,149.422342 203.751481,149.759416 203.275241,150.433573 C202.799002,151.10773 202.560886,152.032362 202.560886,153.207498 C202.560886,155.415517 203.337083,156.51951 204.889499,156.51951 C205.947122,156.51951 206.94288,155.965968 207.876804,154.858866 L207.876804,154.858866 Z M219.269382,158.347147 L219.269382,143.698221 L221.097019,143.698221 L221.097019,158.347147 L219.269382,158.347147 Z M224.76157,158.347147 L224.76157,148.271952 L226.589206,148.271952 L226.589206,158.347147 L224.76157,158.347147 Z M224.76157,146.444315 L224.76157,144.616678 L226.589206,144.616678 L226.589206,146.444315 L224.76157,146.444315 Z M232.925632,158.57908 C232.090667,158.57908 231.076354,158.384258 229.882663,157.994608 L229.882663,156.315409 C231.076354,156.909162 232.115406,157.206034 232.999851,157.206034 C233.52557,157.206034 233.9616,157.063782 234.307956,156.779276 C234.654312,156.494769 234.827487,156.139141 234.827487,155.712381 C234.827487,155.087704 234.341978,154.57127 233.370945,154.163065 L232.30405,153.708475 C230.726894,153.052873 229.938327,152.109686 229.938327,150.878885 C229.938327,150.000626 230.249115,149.30947 230.8707,148.805399 C231.492286,148.301327 232.344246,148.049295 233.426609,148.049295 C233.989437,148.049295 234.685231,148.126606 235.514011,148.281229 L235.894382,148.355448 L235.894382,149.876932 C234.873869,149.573871 234.063656,149.422342 233.463718,149.422342 C232.288582,149.422342 231.701023,149.849096 231.701023,150.702616 C231.701023,151.253074 232.146331,151.716937 233.03696,152.094217 L233.918308,152.465311 C234.914081,152.885886 235.619152,153.329648 236.033542,153.79661 C236.447932,154.263572 236.655124,154.846492 236.655124,155.545389 C236.655124,156.429834 236.305681,157.156552 235.606784,157.725565 C234.907888,158.294578 234.014179,158.57908 232.925632,158.57908 L232.925632,158.57908 Z M242.963718,158.57908 C242.035979,158.57908 241.312353,158.313133 240.79282,157.781229 C240.273286,157.249325 240.013523,156.510238 240.013523,155.563944 L240.013523,149.644998 L238.751804,149.644998 L238.751804,148.271952 L240.013523,148.271952 L240.013523,146.444315 L241.841159,146.268045 L241.841159,148.271952 L244.475925,148.271952 L244.475925,149.644998 L241.841159,149.644998 L241.841159,155.229959 C241.841159,156.547349 242.410164,157.206034 243.548191,157.206034 C243.789403,157.206034 244.083182,157.165832 244.429538,157.085428 L244.429538,158.347147 C243.86671,158.50177 243.378108,158.57908 242.963718,158.57908 L242.963718,158.57908 Z M253.057468,158.347147 L253.057468,143.698221 L254.885105,143.698221 L254.885105,150.16453 C255.849953,148.754366 257.031257,148.049295 258.42905,148.049295 C259.301125,148.049295 259.996918,148.326067 260.516452,148.879618 C261.035986,149.433169 261.295749,150.176895 261.295749,151.110819 L261.295749,158.347147 L259.468112,158.347147 L259.468112,151.704569 C259.468112,150.956193 259.358332,150.422751 259.138767,150.104227 C258.919202,149.785703 258.555843,149.626444 258.048679,149.626444 C256.929207,149.626444 255.874693,150.359347 254.885105,151.825174 L254.885105,158.347147 L253.057468,158.347147 Z M270.044284,157.066873 C268.949552,158.075016 267.895038,158.57908 266.88071,158.57908 C266.045745,158.57908 265.353044,158.317771 264.802585,157.795145 C264.252127,157.272519 263.976902,156.612288 263.976902,155.814432 C263.976902,154.713515 264.439218,153.867739 265.363864,153.277079 C266.288511,152.686418 267.613612,152.391092 269.339206,152.391092 L269.775241,152.391092 L269.775241,151.17576 C269.775241,150.006809 269.175313,149.422342 267.975437,149.422342 C267.010588,149.422342 265.968444,149.719214 264.848972,150.312967 L264.848972,148.80076 C266.079772,148.299781 267.233244,148.049295 268.309421,148.049295 C269.435078,148.049295 270.265392,148.302874 270.800388,148.810037 C271.335384,149.317201 271.602878,150.105768 271.602878,151.17576 L271.602878,155.740213 C271.602878,156.785466 271.924489,157.308084 272.567722,157.308084 C272.648126,157.308084 272.765638,157.295715 272.920261,157.270975 L273.050144,158.282205 C272.635754,158.480123 272.178076,158.57908 271.677097,158.57908 C270.823577,158.57908 270.279312,158.075016 270.044284,157.066873 L270.044284,157.066873 Z M269.775241,156.074198 L269.775241,153.467264 L269.162937,153.448709 C268.160979,153.448709 267.350765,153.638893 266.732273,154.019266 C266.11378,154.399639 265.804538,154.899064 265.804538,155.517557 C265.804538,155.956687 265.959159,156.327777 266.268405,156.630838 C266.577652,156.9339 266.954927,157.085428 267.400241,157.085428 C268.160987,157.085428 268.952646,156.748355 269.775241,156.074198 L269.775241,156.074198 Z M278.013523,158.57908 C277.178558,158.57908 276.164245,158.384258 274.970554,157.994608 L274.970554,156.315409 C276.164245,156.909162 277.203297,157.206034 278.087741,157.206034 C278.61346,157.206034 279.049491,157.063782 279.395847,156.779276 C279.742203,156.494769 279.915378,156.139141 279.915378,155.712381 C279.915378,155.087704 279.429869,154.57127 278.458835,154.163065 L277.391941,153.708475 C275.814784,153.052873 275.026218,152.109686 275.026218,150.878885 C275.026218,150.000626 275.337006,149.30947 275.958591,148.805399 C276.580176,148.301327 277.432137,148.049295 278.514499,148.049295 C279.077328,148.049295 279.773121,148.126606 280.601902,148.281229 L280.982273,148.355448 L280.982273,149.876932 C279.96176,149.573871 279.151546,149.422342 278.551609,149.422342 C277.376473,149.422342 276.788913,149.849096 276.788913,150.702616 C276.788913,151.253074 277.234221,151.716937 278.124851,152.094217 L279.006198,152.465311 C280.001972,152.885886 280.707043,153.329648 281.121433,153.79661 C281.535823,154.263572 281.743015,154.846492 281.743015,155.545389 C281.743015,156.429834 281.393572,157.156552 280.694675,157.725565 C279.995778,158.294578 279.10207,158.57908 278.013523,158.57908 L278.013523,158.57908 Z M291.038913,158.458475 L291.038913,143.698221 L292.86655,143.698221 L292.86655,150.16453 C293.614926,148.754366 294.737474,148.049295 296.234226,148.049295 C297.446471,148.049295 298.400482,148.491511 299.096286,149.375955 C299.792091,150.2604 300.139987,151.469535 300.139987,153.003397 C300.139987,154.673327 299.745704,156.020075 298.957126,157.04368 C298.168548,158.067285 297.131042,158.57908 295.844577,158.57908 C294.650886,158.57908 293.658221,158.121403 292.86655,157.206034 L292.643894,158.458475 L291.038913,158.458475 Z M292.86655,155.944315 C293.806659,156.785465 294.70346,157.206034 295.55698,157.206034 C297.313499,157.206034 298.191745,155.867017 298.191745,153.188944 C298.191745,150.826302 297.412456,149.644998 295.853855,149.644998 C294.833342,149.644998 293.837584,150.198541 292.86655,151.305643 L292.86655,155.944315 Z M310.382175,158.02244 C309.15756,158.393535 308.10923,158.57908 307.237155,158.57908 C305.752773,158.57908 304.542092,158.08584 303.605075,157.099344 C302.668059,156.112848 302.199558,154.834134 302.199558,153.263162 C302.199558,151.735486 302.612395,150.483057 303.438083,149.505838 C304.263771,148.52862 305.319831,148.040018 306.606296,148.040018 C307.824727,148.040018 308.766368,148.472956 309.431247,149.338846 C310.096127,150.204736 310.428562,151.435518 310.428562,153.031229 L310.419284,153.597147 L304.064304,153.597147 C304.330256,155.990714 305.502282,157.187479 307.580417,157.187479 C308.341163,157.187479 309.275073,156.983379 310.382175,156.575174 L310.382175,158.02244 Z M304.1478,152.2241 L308.591648,152.2241 C308.591648,150.350067 307.892761,149.413065 306.494968,149.413065 C305.09099,149.413065 304.308608,150.350067 304.1478,152.2241 L304.1478,152.2241 Z M320.967624,158.02244 C319.743009,158.393535 318.694679,158.57908 317.822605,158.57908 C316.338222,158.57908 315.127541,158.08584 314.190525,157.099344 C313.253508,156.112848 312.785007,154.834134 312.785007,153.263162 C312.785007,151.735486 313.197845,150.483057 314.023532,149.505838 C314.84922,148.52862 315.905281,148.040018 317.191745,148.040018 C318.410176,148.040018 319.351817,148.472956 320.016696,149.338846 C320.681576,150.204736 321.014011,151.435518 321.014011,153.031229 L321.004734,153.597147 L314.649753,153.597147 C314.915705,155.990714 316.087731,157.187479 318.165866,157.187479 C318.926612,157.187479 319.860522,156.983379 320.967624,156.575174 L320.967624,158.02244 Z M314.733249,152.2241 L319.177097,152.2241 C319.177097,150.350067 318.478211,149.413065 317.080417,149.413065 C315.676439,149.413065 314.894057,150.350067 314.733249,152.2241 L314.733249,152.2241 Z M324.168308,158.347147 L324.168308,148.271952 L325.995945,148.271952 L325.995945,150.16453 C326.960793,148.754366 328.142096,148.049295 329.53989,148.049295 C330.411965,148.049295 331.107758,148.326067 331.627292,148.879618 C332.146826,149.433169 332.406589,150.176895 332.406589,151.110819 L332.406589,158.347147 L330.578952,158.347147 L330.578952,151.704569 C330.578952,150.956193 330.469172,150.422751 330.249607,150.104227 C330.030042,149.785703 329.666683,149.626444 329.159519,149.626444 C328.040047,149.626444 326.985533,150.359347 325.995945,151.825174 L325.995945,158.347147 L324.168308,158.347147 Z M341.97153,158.347147 L341.97153,148.271952 L343.799167,148.271952 L343.799167,158.347147 L341.97153,158.347147 Z M341.97153,146.444315 L341.97153,144.616678 L343.799167,144.616678 L343.799167,146.444315 L341.97153,146.444315 Z M347.463718,158.347147 L347.463718,148.271952 L349.291355,148.271952 L349.291355,150.16453 C350.181984,148.754366 351.326178,148.049295 352.723972,148.049295 C354.072286,148.049295 354.990734,148.754366 355.479343,150.16453 C356.345233,148.748181 357.470873,148.040018 358.856296,148.040018 C359.746926,148.040018 360.436535,148.301327 360.925144,148.823954 C361.413753,149.34658 361.658054,150.077936 361.658054,151.018045 L361.658054,158.347147 L359.82114,158.347147 L359.82114,151.305643 C359.82114,150.155247 359.366555,149.580057 358.45737,149.580057 C357.511077,149.580057 356.518411,150.251112 355.479343,151.593241 L355.479343,158.347147 L353.642429,158.347147 L353.642429,151.305643 C353.642429,150.149062 353.178566,149.57078 352.250827,149.57078 C351.329273,149.57078 350.342792,150.244927 349.291355,151.593241 L349.291355,158.347147 L347.463718,158.347147 Z M365.201999,162.011698 L365.201999,148.271952 L367.029636,148.271952 L367.029636,150.16453 C367.778012,148.754366 368.900559,148.049295 370.397312,148.049295 C371.609557,148.049295 372.563568,148.491511 373.259372,149.375955 C373.955177,150.2604 374.303073,151.469535 374.303073,153.003397 C374.303073,154.673327 373.90879,156.020075 373.120212,157.04368 C372.331634,158.067285 371.294128,158.57908 370.007663,158.57908 C368.813972,158.57908 367.821307,158.121403 367.029636,157.206034 L367.029636,162.011698 L365.201999,162.011698 Z M367.029636,155.944315 C367.969745,156.785465 368.866546,157.206034 369.720066,157.206034 C371.476585,157.206034 372.354831,155.867017 372.354831,153.188944 C372.354831,150.826302 371.575542,149.644998 370.016941,149.644998 C368.996428,149.644998 368.000669,150.198541 367.029636,151.305643 L367.029636,155.944315 Z M381.103366,158.57908 C379.662278,158.57908 378.511899,158.101302 377.652195,157.145731 C376.79249,156.19016 376.362644,154.911445 376.362644,153.309549 C376.362644,151.689098 376.794036,150.407292 377.656833,149.46409 C378.51963,148.520889 379.69011,148.049295 381.168308,148.049295 C382.646505,148.049295 383.816985,148.520889 384.679782,149.46409 C385.54258,150.407292 385.973972,151.682914 385.973972,153.290995 C385.973972,154.936185 385.541033,156.228815 384.675144,157.168924 C383.809254,158.109033 382.618673,158.57908 381.103366,158.57908 L381.103366,158.57908 Z M381.131198,157.206034 C383.067081,157.206034 384.035007,155.901034 384.035007,153.290995 C384.035007,150.71188 383.07945,149.422342 381.168308,149.422342 C379.26335,149.422342 378.310886,150.718065 378.310886,153.309549 C378.310886,155.907218 379.250981,157.206034 381.131198,157.206034 L381.131198,157.206034 Z M388.831394,158.347147 L388.831394,148.271952 L390.65903,148.271952 L390.65903,150.16453 C391.382667,148.754366 392.434089,148.049295 393.813327,148.049295 C393.998875,148.049295 394.193697,148.064757 394.3978,148.095682 L394.3978,149.802713 C394.082369,149.69757 393.804051,149.644998 393.562839,149.644998 C392.406258,149.644998 391.438331,150.331515 390.65903,151.704569 L390.65903,158.347147 L388.831394,158.347147 Z M400.086222,158.57908 C399.158483,158.57908 398.434857,158.313133 397.915323,157.781229 C397.39579,157.249325 397.136027,156.510238 397.136027,155.563944 L397.136027,149.644998 L395.874308,149.644998 L395.874308,148.271952 L397.136027,148.271952 L397.136027,146.444315 L398.963663,146.268045 L398.963663,148.271952 L401.598429,148.271952 L401.598429,149.644998 L398.963663,149.644998 L398.963663,155.229959 C398.963663,156.547349 399.532668,157.206034 400.670695,157.206034 C400.911907,157.206034 401.205686,157.165832 401.552042,157.085428 L401.552042,158.347147 C400.989214,158.50177 400.500612,158.57908 400.086222,158.57908 L400.086222,158.57908 Z M411.439019,158.02244 C410.214403,158.393535 409.166074,158.57908 408.293999,158.57908 C406.809617,158.57908 405.598936,158.08584 404.661919,157.099344 C403.724903,156.112848 403.256402,154.834134 403.256402,153.263162 C403.256402,151.735486 403.669239,150.483057 404.494927,149.505838 C405.320615,148.52862 406.376675,148.040018 407.66314,148.040018 C408.88157,148.040018 409.823211,148.472956 410.488091,149.338846 C411.152971,150.204736 411.485405,151.435518 411.485405,153.031229 L411.476128,153.597147 L405.121148,153.597147 C405.3871,155.990714 406.559126,157.187479 408.637261,157.187479 C409.398007,157.187479 410.331917,156.983379 411.439019,156.575174 L411.439019,158.02244 Z M405.204644,152.2241 L409.648491,152.2241 C409.648491,150.350067 408.949605,149.413065 407.551812,149.413065 C406.147833,149.413065 405.365452,150.350067 405.204644,152.2241 L405.204644,152.2241 Z M421.106011,158.347147 L421.106011,156.454569 C420.36382,157.870917 419.244365,158.57908 417.747613,158.57908 C416.535367,158.57908 415.581356,158.136865 414.885552,157.25242 C414.189748,156.367976 413.841851,155.158841 413.841851,153.624979 C413.841851,151.948864 414.236134,150.60057 415.024712,149.580057 C415.81329,148.559544 416.850796,148.049295 418.137261,148.049295 C419.330952,148.049295 420.320525,148.506973 421.106011,149.422342 L421.106011,143.698221 L422.942925,143.698221 L422.942925,158.347147 L421.106011,158.347147 Z M421.106011,150.674784 C420.159717,149.839818 419.262916,149.422342 418.415581,149.422342 C416.665247,149.422342 415.790093,150.761359 415.790093,153.439432 C415.790093,155.795889 416.569382,156.9741 418.127984,156.9741 C419.142312,156.9741 420.134977,156.420557 421.106011,155.313455 L421.106011,150.674784 Z" id="Your-shopping-list-h" fill="#000000"></path>
        <g id="Group-10" transform="translate(33.000000, 134.979000)">
            <path d="M31.0928,16.255 C31.0928,24.815 24.1528,31.755 15.5928,31.755 C7.0328,31.755 0.0928,24.815 0.0928,16.255 C0.0928,7.695 7.0328,0.755 15.5928,0.755 C24.1528,0.755 31.0928,7.695 31.0928,16.255" id="Fill-6" fill="#1D1D1D"></path>
            <polyline id="Stroke-8" stroke="#FFFFFF" stroke-width="2" stroke-linecap="round" stroke-linejoin="round" points="2.6543 17.6695 12.2053 23.7185 26.5313 5.6085"></polyline>
        </g>
    </g>
</svg>