<?xml version="1.0" encoding="utf-8"?>
<!-- Generator: Adobe Illustrator 20.1.0, SVG Export Plug-In . SVG Version: 6.00 Build 0)  -->
<svg version="1.1" id="Layer_1" xmlns="http://www.w3.org/2000/svg" xmlns:xlink="http://www.w3.org/1999/xlink" x="0px" y="0px"
	 viewBox="0 0 518 65" style="enable-background:new 0 0 518 65;" xml:space="preserve">
<style type="text/css">
	.st0{fill:#FFFFFF;}
	.st1{fill:#FFFFFF;stroke:#000000;stroke-width:2;}
	.st2{fill:none;stroke:#000000;stroke-width:2;}
</style>
<g>
	<polygon id="path-1" class="st0" points="-85,276 555.6,276 555.6,-35 -85,-35 	"/>
</g>
<g id="Page-1">
	<g id="shopping_logo" transform="translate(15.000000, 10.000000)">
		<g id="Layer_1_1_">
			<path id="Shape" class="st1" d="M39,29.4L5,29.2c-0.6-0.1-1-0.6-1-1.2L0.1,6c0-0.7,0.5-1.2,1.2-1.2h41c0.7,0,1.2,0.5,1.2,1.2
				l-3.1,22.3C40.4,29,39.8,29.6,39,29.4L39,29.4z"/>
			<polyline id="Shape_1_" class="st2" points="50,0 43.5,4.9 38.6,42.3 6.3,42 			"/>
			<ellipse id="Oval" class="st1" cx="38.4" cy="42.1" rx="3.9" ry="3.9"/>
			<ellipse id="Oval_1_" class="st1" cx="6.3" cy="41.7" rx="3.9" ry="3.9"/>
			<path id="Shape_2_" class="st2" d="M1.7,12.8h40.5"/>
			<path id="Shape_3_" class="st2" d="M16.3,29.3L12.7,4.8"/>
			<path id="Shape_4_" class="st2" d="M27.6,29.4L31,4.8"/>
			<path id="Shape_5_" class="st2" d="M3,21.9h38.4"/>
		</g>
	</g>
</g>
</svg>
