<?xml version="1.0" encoding="utf-8"?>
<!-- Generator: Adobe Illustrator 20.1.0, SVG Export Plug-In . SVG Version: 6.00 Build 0)  -->
<svg version="1.1" id="Layer_1" xmlns="http://www.w3.org/2000/svg" xmlns:xlink="http://www.w3.org/1999/xlink" x="0px" y="0px"
	 viewBox="0 0 518 133" style="enable-background:new 0 0 518 133;" xml:space="preserve">
<style type="text/css">
	.st0{filter:url(#Adobe_OpacityMaskFilter);}
	.st1{fill:#FFFFFF;}
	.st2{mask:url(#mask-2);fill:none;stroke:#DDDDDD;stroke-width:2;}
	.st3{fill:#FFFFFF;stroke:#000000;stroke-width:2;}
	.st4{fill:none;stroke:#000000;stroke-width:2;}
	.st5{fill:#1D1D1D;}
	.st6{fill:none;stroke:#FFFFFF;stroke-width:2;stroke-linecap:round;stroke-linejoin:round;}
</style>
<g id="Page-1">
	<g id="Group-5" transform="translate(-85.000000, -35.000000)">
		<defs>
			<filter id="Adobe_OpacityMaskFilter" filterUnits="userSpaceOnUse" x="85.8" y="110.8" width="516.9" height="52">
				<feColorMatrix  type="matrix" values="1 0 0 0 0  0 1 0 0 0  0 0 1 0 0  0 0 0 1 0"/>
			</filter>
		</defs>
		<mask maskUnits="userSpaceOnUse" x="85.8" y="110.8" width="516.9" height="52" id="mask-2">
			<g class="st0">
				<polygon id="path-1" class="st1" points="0,261 640.6,261 640.6,-50 0,-50 				"/>
			</g>
		</mask>
		<polygon id="Stroke-3" class="st2" points="86.8,161.8 601.7,161.8 601.7,111.8 86.8,111.8 		"/>
	</g>
	<g id="shopping_logo" transform="translate(15.000000, 10.000000)">
		<g id="Layer_1_1_">
			<path id="Shape" class="st3" d="M39,29.4L5,29.2c-0.6-0.1-1-0.6-1-1.2L0.1,6c0-0.7,0.5-1.2,1.2-1.2h41c0.7,0,1.2,0.5,1.2,1.2
				l-3.1,22.3C40.4,29,39.8,29.6,39,29.4L39,29.4z"/>
			<polyline id="Shape_1_" class="st4" points="50,0 43.5,4.9 38.6,42.3 6.3,42 			"/>
			<ellipse id="Oval" class="st3" cx="38.4" cy="42.1" rx="3.9" ry="3.9"/>
			<ellipse id="Oval_1_" class="st3" cx="6.3" cy="41.7" rx="3.9" ry="3.9"/>
			<path id="Shape_2_" class="st4" d="M1.7,12.8h40.5"/>
			<path id="Shape_3_" class="st4" d="M16.3,29.3L12.7,4.8"/>
			<path id="Shape_4_" class="st4" d="M27.6,29.4L31,4.8"/>
			<path id="Shape_5_" class="st4" d="M3,21.9h38.4"/>
		</g>
	</g>
	<path id="Your-shopping-list-h" d="M82.3,108.3v-5.7l-4.6-8H80l3.6,6.2l3.8-6.2h1.8l-4.9,8v5.8H82.3z M93.8,108.6
		c-1.4,0-2.6-0.5-3.5-1.4c-0.9-1-1.3-2.2-1.3-3.8c0-1.6,0.4-2.9,1.3-3.8c0.9-0.9,2-1.4,3.5-1.4c1.5,0,2.6,0.5,3.5,1.4
		c0.9,0.9,1.3,2.2,1.3,3.8c0,1.6-0.4,2.9-1.3,3.9C96.5,108.1,95.3,108.6,93.8,108.6L93.8,108.6z M93.8,107.2c1.9,0,2.9-1.3,2.9-3.9
		c0-2.6-1-3.9-2.9-3.9c-1.9,0-2.9,1.3-2.9,3.9C91,105.9,91.9,107.2,93.8,107.2L93.8,107.2z M107.8,108.3v-1.9
		c-1,1.4-2.1,2.1-3.5,2.1c-0.9,0-1.6-0.3-2.1-0.8c-0.5-0.6-0.8-1.3-0.8-2.2v-7.2h1.8v6.6c0,0.8,0.1,1.3,0.3,1.6
		c0.2,0.3,0.6,0.5,1.1,0.5c1.1,0,2.2-0.7,3.2-2.2v-6.5h1.8v10.1H107.8z M113.3,108.3V98.3h1.8v1.9c0.7-1.4,1.8-2.1,3.2-2.1
		c0.2,0,0.4,0,0.6,0v1.7c-0.3-0.1-0.6-0.2-0.8-0.2c-1.2,0-2.1,0.7-2.9,2.1v6.6H113.3z M129.7,108.6c-0.8,0-1.8-0.2-3-0.6v-1.7
		c1.2,0.6,2.2,0.9,3.1,0.9c0.5,0,1-0.1,1.3-0.4c0.3-0.3,0.5-0.6,0.5-1.1c0-0.6-0.5-1.1-1.5-1.5l-1.1-0.5c-1.6-0.7-2.4-1.6-2.4-2.8
		c0-0.9,0.3-1.6,0.9-2.1c0.6-0.5,1.5-0.8,2.6-0.8c0.6,0,1.3,0.1,2.1,0.2l0.4,0.1v1.5c-1-0.3-1.8-0.5-2.4-0.5c-1.2,0-1.8,0.4-1.8,1.3
		c0,0.6,0.4,1,1.3,1.4l0.9,0.4c1,0.4,1.7,0.9,2.1,1.3c0.4,0.5,0.6,1,0.6,1.7c0,0.9-0.3,1.6-1,2.2
		C131.7,108.3,130.8,108.6,129.7,108.6L129.7,108.6z M136.7,108.3V93.7h1.8v6.5c1-1.4,2.1-2.1,3.5-2.1c0.9,0,1.6,0.3,2.1,0.8
		c0.5,0.6,0.8,1.3,0.8,2.2v7.2h-1.8v-6.6c0-0.7-0.1-1.3-0.3-1.6c-0.2-0.3-0.6-0.5-1.1-0.5c-1.1,0-2.2,0.7-3.2,2.2v6.5H136.7z
		 M152.5,108.6c-1.4,0-2.6-0.5-3.5-1.4c-0.9-1-1.3-2.2-1.3-3.8c0-1.6,0.4-2.9,1.3-3.8c0.9-0.9,2-1.4,3.5-1.4s2.6,0.5,3.5,1.4
		c0.9,0.9,1.3,2.2,1.3,3.8c0,1.6-0.4,2.9-1.3,3.9S154,108.6,152.5,108.6L152.5,108.6z M152.5,107.2c1.9,0,2.9-1.3,2.9-3.9
		c0-2.6-1-3.9-2.9-3.9c-1.9,0-2.9,1.3-2.9,3.9C149.7,105.9,150.6,107.2,152.5,107.2L152.5,107.2z M160.2,112V98.3h1.8v1.9
		c0.7-1.4,1.9-2.1,3.4-2.1c1.2,0,2.2,0.4,2.9,1.3s1,2.1,1,3.6c0,1.7-0.4,3-1.2,4s-1.8,1.5-3.1,1.5c-1.2,0-2.2-0.5-3-1.4v4.8H160.2z
		 M162,105.9c0.9,0.8,1.8,1.3,2.7,1.3c1.8,0,2.6-1.3,2.6-4c0-2.4-0.8-3.5-2.3-3.5c-1,0-2,0.6-3,1.7V105.9z M172.2,112V98.3h1.8v1.9
		c0.7-1.4,1.9-2.1,3.4-2.1c1.2,0,2.2,0.4,2.9,1.3s1,2.1,1,3.6c0,1.7-0.4,3-1.2,4s-1.8,1.5-3.1,1.5c-1.2,0-2.2-0.5-3-1.4v4.8H172.2z
		 M174,105.9c0.9,0.8,1.8,1.3,2.7,1.3c1.8,0,2.6-1.3,2.6-4c0-2.4-0.8-3.5-2.3-3.5c-1,0-2,0.6-3,1.7V105.9z M184.1,108.3V98.3h1.8
		v10.1H184.1z M184.1,96.4v-1.8h1.8v1.8H184.1z M189.6,108.3V98.3h1.8v1.9c1-1.4,2.1-2.1,3.5-2.1c0.9,0,1.6,0.3,2.1,0.8
		c0.5,0.6,0.8,1.3,0.8,2.2v7.2H196v-6.6c0-0.7-0.1-1.3-0.3-1.6c-0.2-0.3-0.6-0.5-1.1-0.5c-1.1,0-2.2,0.7-3.2,2.2v6.5H189.6z
		 M201.4,111.7l0.2-1.6c1.1,0.5,2.1,0.8,3.1,0.8c2.1,0,3.1-1.1,3.1-3.3V106c-0.7,1.4-1.8,2.1-3.3,2.1c-1.2,0-2.2-0.4-2.9-1.3
		c-0.7-0.9-1.1-2.1-1.1-3.6c0-1.5,0.4-2.8,1.2-3.7c0.8-1,1.9-1.4,3.1-1.4c1.1,0,2.1,0.5,2.9,1.4v-1.2h1.8v7.3c0,1.6-0.1,2.7-0.2,3.5
		c-0.2,0.8-0.5,1.4-0.9,1.9c-0.8,0.8-2,1.3-3.7,1.3C203.6,112.2,202.5,112.1,201.4,111.7L201.4,111.7z M207.9,104.9v-4.2
		c-0.8-0.8-1.7-1.3-2.6-1.3c-0.8,0-1.5,0.3-2,1c-0.5,0.7-0.7,1.6-0.7,2.8c0,2.2,0.8,3.3,2.3,3.3C205.9,106.5,206.9,106,207.9,104.9
		L207.9,104.9z M219.3,108.3V93.7h1.8v14.6H219.3z M224.8,108.3V98.3h1.8v10.1H224.8z M224.8,96.4v-1.8h1.8v1.8H224.8z M232.9,108.6
		c-0.8,0-1.8-0.2-3-0.6v-1.7c1.2,0.6,2.2,0.9,3.1,0.9c0.5,0,1-0.1,1.3-0.4c0.3-0.3,0.5-0.6,0.5-1.1c0-0.6-0.5-1.1-1.5-1.5l-1.1-0.5
		c-1.6-0.7-2.4-1.6-2.4-2.8c0-0.9,0.3-1.6,0.9-2.1c0.6-0.5,1.5-0.8,2.6-0.8c0.6,0,1.3,0.1,2.1,0.2l0.4,0.1v1.5
		c-1-0.3-1.8-0.5-2.4-0.5c-1.2,0-1.8,0.4-1.8,1.3c0,0.6,0.4,1,1.3,1.4l0.9,0.4c1,0.4,1.7,0.9,2.1,1.3c0.4,0.5,0.6,1,0.6,1.7
		c0,0.9-0.3,1.6-1,2.2C234.9,108.3,234,108.6,232.9,108.6L232.9,108.6z M243,108.6c-0.9,0-1.7-0.3-2.2-0.8c-0.5-0.5-0.8-1.3-0.8-2.2
		v-5.9h-1.3v-1.4h1.3v-1.8l1.8-0.2v2h2.6v1.4h-2.6v5.6c0,1.3,0.6,2,1.7,2c0.2,0,0.5,0,0.9-0.1v1.3
		C243.9,108.5,243.4,108.6,243,108.6L243,108.6z M253.1,108.3V93.7h1.8v6.5c1-1.4,2.1-2.1,3.5-2.1c0.9,0,1.6,0.3,2.1,0.8
		c0.5,0.6,0.8,1.3,0.8,2.2v7.2h-1.8v-6.6c0-0.7-0.1-1.3-0.3-1.6c-0.2-0.3-0.6-0.5-1.1-0.5c-1.1,0-2.2,0.7-3.2,2.2v6.5H253.1z
		 M270,107.1c-1.1,1-2.1,1.5-3.2,1.5c-0.8,0-1.5-0.3-2.1-0.8c-0.6-0.5-0.8-1.2-0.8-2c0-1.1,0.5-1.9,1.4-2.5c0.9-0.6,2.2-0.9,4-0.9
		h0.4v-1.2c0-1.2-0.6-1.8-1.8-1.8c-1,0-2,0.3-3.1,0.9v-1.5c1.2-0.5,2.4-0.8,3.5-0.8c1.1,0,2,0.3,2.5,0.8c0.5,0.5,0.8,1.3,0.8,2.4
		v4.6c0,1,0.3,1.6,1,1.6c0.1,0,0.2,0,0.4,0l0.1,1c-0.4,0.2-0.9,0.3-1.4,0.3C270.8,108.6,270.3,108.1,270,107.1L270,107.1z
		 M269.8,106.1v-2.6l-0.6,0c-1,0-1.8,0.2-2.4,0.6c-0.6,0.4-0.9,0.9-0.9,1.5c0,0.4,0.2,0.8,0.5,1.1c0.3,0.3,0.7,0.5,1.1,0.5
		C268.2,107.1,269,106.7,269.8,106.1L269.8,106.1z M278,108.6c-0.8,0-1.8-0.2-3-0.6v-1.7c1.2,0.6,2.2,0.9,3.1,0.9
		c0.5,0,1-0.1,1.3-0.4c0.3-0.3,0.5-0.6,0.5-1.1c0-0.6-0.5-1.1-1.5-1.5l-1.1-0.5c-1.6-0.7-2.4-1.6-2.4-2.8c0-0.9,0.3-1.6,0.9-2.1
		c0.6-0.5,1.5-0.8,2.6-0.8c0.6,0,1.3,0.1,2.1,0.2l0.4,0.1v1.5c-1-0.3-1.8-0.5-2.4-0.5c-1.2,0-1.8,0.4-1.8,1.3c0,0.6,0.4,1,1.3,1.4
		l0.9,0.4c1,0.4,1.7,0.9,2.1,1.3c0.4,0.5,0.6,1,0.6,1.7c0,0.9-0.3,1.6-1,2.2C280,108.3,279.1,108.6,278,108.6L278,108.6z M291,108.5
		V93.7h1.8v6.5c0.7-1.4,1.9-2.1,3.4-2.1c1.2,0,2.2,0.4,2.9,1.3s1,2.1,1,3.6c0,1.7-0.4,3-1.2,4s-1.8,1.5-3.1,1.5
		c-1.2,0-2.2-0.5-3-1.4l-0.2,1.3H291z M292.9,105.9c0.9,0.8,1.8,1.3,2.7,1.3c1.8,0,2.6-1.3,2.6-4c0-2.4-0.8-3.5-2.3-3.5
		c-1,0-2,0.6-3,1.7V105.9z M310.4,108c-1.2,0.4-2.3,0.6-3.1,0.6c-1.5,0-2.7-0.5-3.6-1.5s-1.4-2.3-1.4-3.8c0-1.5,0.4-2.8,1.2-3.8
		s1.9-1.5,3.2-1.5c1.2,0,2.2,0.4,2.8,1.3s1,2.1,1,3.7l0,0.6h-6.4c0.3,2.4,1.4,3.6,3.5,3.6c0.8,0,1.7-0.2,2.8-0.6V108z M304.1,102.2
		h4.4c0-1.9-0.7-2.8-2.1-2.8C305.1,99.4,304.3,100.4,304.1,102.2L304.1,102.2z M321,108c-1.2,0.4-2.3,0.6-3.1,0.6
		c-1.5,0-2.7-0.5-3.6-1.5s-1.4-2.3-1.4-3.8c0-1.5,0.4-2.8,1.2-3.8s1.9-1.5,3.2-1.5c1.2,0,2.2,0.4,2.8,1.3s1,2.1,1,3.7l0,0.6h-6.4
		c0.3,2.4,1.4,3.6,3.5,3.6c0.8,0,1.7-0.2,2.8-0.6V108z M314.7,102.2h4.4c0-1.9-0.7-2.8-2.1-2.8C315.7,99.4,314.9,100.4,314.7,102.2
		L314.7,102.2z M324.2,108.3V98.3h1.8v1.9c1-1.4,2.1-2.1,3.5-2.1c0.9,0,1.6,0.3,2.1,0.8c0.5,0.6,0.8,1.3,0.8,2.2v7.2h-1.8v-6.6
		c0-0.7-0.1-1.3-0.3-1.6c-0.2-0.3-0.6-0.5-1.1-0.5c-1.1,0-2.2,0.7-3.2,2.2v6.5H324.2z M342,108.3V98.3h1.8v10.1H342z M342,96.4v-1.8
		h1.8v1.8H342z M347.5,108.3V98.3h1.8v1.9c0.9-1.4,2-2.1,3.4-2.1c1.3,0,2.3,0.7,2.8,2.1c0.9-1.4,2-2.1,3.4-2.1
		c0.9,0,1.6,0.3,2.1,0.8c0.5,0.5,0.7,1.3,0.7,2.2v7.3h-1.8v-7c0-1.2-0.5-1.7-1.4-1.7c-0.9,0-1.9,0.7-3,2v6.8h-1.8v-7
		c0-1.2-0.5-1.7-1.4-1.7c-0.9,0-1.9,0.7-3,2v6.8H347.5z M365.2,112V98.3h1.8v1.9c0.7-1.4,1.9-2.1,3.4-2.1c1.2,0,2.2,0.4,2.9,1.3
		s1,2.1,1,3.6c0,1.7-0.4,3-1.2,4s-1.8,1.5-3.1,1.5c-1.2,0-2.2-0.5-3-1.4v4.8H365.2z M367,105.9c0.9,0.8,1.8,1.3,2.7,1.3
		c1.8,0,2.6-1.3,2.6-4c0-2.4-0.8-3.5-2.3-3.5c-1,0-2,0.6-3,1.7V105.9z M381.1,108.6c-1.4,0-2.6-0.5-3.5-1.4c-0.9-1-1.3-2.2-1.3-3.8
		c0-1.6,0.4-2.9,1.3-3.8c0.9-0.9,2-1.4,3.5-1.4c1.5,0,2.6,0.5,3.5,1.4c0.9,0.9,1.3,2.2,1.3,3.8c0,1.6-0.4,2.9-1.3,3.9
		C383.8,108.1,382.6,108.6,381.1,108.6L381.1,108.6z M381.1,107.2c1.9,0,2.9-1.3,2.9-3.9c0-2.6-1-3.9-2.9-3.9
		c-1.9,0-2.9,1.3-2.9,3.9C378.3,105.9,379.3,107.2,381.1,107.2L381.1,107.2z M388.8,108.3V98.3h1.8v1.9c0.7-1.4,1.8-2.1,3.2-2.1
		c0.2,0,0.4,0,0.6,0v1.7c-0.3-0.1-0.6-0.2-0.8-0.2c-1.2,0-2.1,0.7-2.9,2.1v6.6H388.8z M400.1,108.6c-0.9,0-1.7-0.3-2.2-0.8
		c-0.5-0.5-0.8-1.3-0.8-2.2v-5.9h-1.3v-1.4h1.3v-1.8l1.8-0.2v2h2.6v1.4H399v5.6c0,1.3,0.6,2,1.7,2c0.2,0,0.5,0,0.9-0.1v1.3
		C401,108.5,400.5,108.6,400.1,108.6L400.1,108.6z M411.4,108c-1.2,0.4-2.3,0.6-3.1,0.6c-1.5,0-2.7-0.5-3.6-1.5s-1.4-2.3-1.4-3.8
		c0-1.5,0.4-2.8,1.2-3.8s1.9-1.5,3.2-1.5c1.2,0,2.2,0.4,2.8,1.3s1,2.1,1,3.7l0,0.6h-6.4c0.3,2.4,1.4,3.6,3.5,3.6
		c0.8,0,1.7-0.2,2.8-0.6V108z M405.2,102.2h4.4c0-1.9-0.7-2.8-2.1-2.8C406.1,99.4,405.4,100.4,405.2,102.2L405.2,102.2z
		 M421.1,108.3v-1.9c-0.7,1.4-1.9,2.1-3.4,2.1c-1.2,0-2.2-0.4-2.9-1.3s-1-2.1-1-3.6c0-1.7,0.4-3,1.2-4c0.8-1,1.8-1.5,3.1-1.5
		c1.2,0,2.2,0.5,3,1.4v-5.7h1.8v14.6H421.1z M421.1,100.7c-0.9-0.8-1.8-1.3-2.7-1.3c-1.8,0-2.6,1.3-2.6,4c0,2.4,0.8,3.5,2.3,3.5
		c1,0,2-0.6,3-1.7V100.7z"/>
	<g id="Group-10" transform="translate(33.000000, 134.979000)">
		<path id="Fill-6" class="st5" d="M31.1-33.7c0,8.6-6.9,15.5-15.5,15.5S0.1-25.2,0.1-33.7S7-49.2,15.6-49.2S31.1-42.3,31.1-33.7"/>
		<polyline id="Stroke-8" class="st6" points="2.7,-32.3 12.2,-26.3 26.5,-44.4 		"/>
	</g>
</g>
</svg>
