<?xml version="1.0" encoding="UTF-8" standalone="no"?>
<svg width="92px" height="69px" viewBox="0 0 92 69" version="1.1" xmlns="http://www.w3.org/2000/svg" xmlns:xlink="http://www.w3.org/1999/xlink">
    <!-- Generator: Sketch 39.1 (31720) - http://www.bohemiancoding.com/sketch -->
    <title>shopping_trolley</title>
    <desc>Created with Sketch.</desc>
    <defs></defs>
    <g id="Page-1" stroke="none" stroke-width="1" fill="none" fill-rule="evenodd">
        <g id="shopping_trolley" fill="#FFFFFF">
            <g id="Group">
                <path d="M40.5,60.3 C41.5,64.9 37.5,68.9 32.9,67.9 C30.6,67.4 28.7,65.5 28.2,63.2 C27.2,58.6 31.2,54.6 35.8,55.6 C38.1,56.1 40,58 40.5,60.3 L40.5,60.3 Z" id="Shape"></path>
                <path d="M3,0 L17.3,0 C18.3,0 19.1,0.7 19.4,1.6 L21.8,11.8 C22,12.8 22.9,13.4 23.9,13.4 L86.2,13.4 L86.2,13.4 L89,13.4 C90.3,13.4 91.3,14.6 91.1,15.9 L84.5,50.5 C84.3,51.5 83.4,52.2 82.4,52.2 L26.1,52.2 C25.1,52.2 24.2,51.5 24,50.5 L15.1,6 C14.9,5 14,4.3 13,4.3 L3,4.3 C1.8,4.3 0.9,3.3 0.9,2.2 L0.9,2.2 C0.9,0.9 1.8,0 3,0 L3,0 Z" id="Shape"></path>
                <path d="M80.2,60.3 C81.2,64.9 77.2,68.9 72.6,67.9 C70.3,67.4 68.4,65.5 67.9,63.2 C66.9,58.6 70.9,54.6 75.5,55.6 C77.8,56.1 79.7,58 80.2,60.3 L80.2,60.3 Z" id="Shape"></path>
            </g>
        </g>
    </g>
</svg>