<?xml version="1.0" encoding="UTF-8" standalone="no"?>
<svg width="176px" height="51px" viewBox="0 0 176 51" version="1.1" xmlns="http://www.w3.org/2000/svg" xmlns:xlink="http://www.w3.org/1999/xlink">
    <!-- Generator: Sketch 40.3 (33839) - http://www.bohemiancoding.com/sketch -->
    <title>tesco_logo</title>
    <desc>Created with Sketch.</desc>
    <defs>
        <rect id="path-1" x="0" y="0" width="208" height="70"></rect>
    </defs>
    <g id="Page-1" stroke="none" stroke-width="1" fill="none" fill-rule="evenodd">
        <g id="tesco_logo" transform="translate(-15.000000, -10.000000)">
            <g id="Page-1">
                <g id="Tesco">
                    <g id="Clipped">
                        <mask id="mask-2" fill="white">
                            <use xlink:href="#path-1"></use>
                        </mask>
                        <g id="path-1"></g>
                        <g id="Group" mask="url(#mask-2)">
                            <g transform="translate(15.000000, 10.000000)">
                                <g>
                                    <path d="M13.48275,42 L34.87975,42 C35.13075,42 35.13075,42.125 34.87975,42.25 C32.50275,43.376 28.99875,46.88 28.99875,46.88 C26.62175,49.257 24.74475,50.759 20.61575,50.759 L0.09375,50.759 C-0.03125,50.759 -0.03125,50.509 0.09375,50.509 C2.34575,49.257 5.72475,45.754 5.72475,45.754 C7.10075,44.127 9.97875,42 13.48275,42" id="Fill-2" fill="#000000"></path>
                                    <path d="M152.895,41.573 L174.418,41.573 C174.543,41.573 174.543,41.698 174.418,41.823 C171.915,42.949 168.537,46.453 168.537,46.453 C166.034,48.83 164.157,50.332 160.153,50.332 L139.631,50.332 C139.506,50.332 139.506,50.082 139.631,50.082 C141.883,48.83 145.262,45.327 145.262,45.327 C146.638,43.7 149.391,41.573 152.895,41.573" id="Fill-3" fill="#000000"></path>
                                    <path d="M48.4711068,42 L69.8681068,42 C70.1191068,42 70.1191068,42.125 69.8681068,42.25 C67.4911068,43.376 63.9871068,46.88 63.9871068,46.88 C61.6101068,49.257 59.7331068,50.759 55.6031068,50.759 L35.2071068,50.759 C34.9571068,50.759 34.9571068,50.509 35.0821068,50.509 C37.3341068,49.257 40.7131068,45.754 40.7131068,45.754 C42.0891068,44.127 44.9671068,42 48.4711068,42" id="Fill-4" fill="#000000"></path>
                                    <path d="M83.389,42 L104.787,42 C105.037,42 105.037,42.125 104.787,42.25 C102.409,43.376 98.905,46.88 98.905,46.88 C96.528,49.257 94.651,50.759 90.647,50.759 L70.125,50.759 C70,50.759 70,50.509 70,50.509 C72.377,49.257 75.631,45.754 75.631,45.754 C77.007,44.127 79.885,42 83.389,42" id="Fill-5" fill="#000000"></path>
                                    <path d="M117.733,41.573 L139.256,41.573 C139.381,41.573 139.381,41.698 139.131,41.823 C136.753,42.949 133.249,46.453 133.249,46.453 C130.872,48.83 128.995,50.332 124.991,50.332 L104.469,50.332 C104.344,50.332 104.344,50.082 104.469,50.082 C106.722,48.83 110.1,45.327 110.1,45.327 C111.351,43.7 114.229,41.573 117.733,41.573" id="Fill-6" fill="#000000"></path>
                                    <path d="M124.524,0 C111.01,0 102,7.007 102,17.643 C102,27.404 110.259,33.91 122.522,33.91 C126.526,33.91 130.03,33.41 134.159,32.284 L134.159,24.15 C131.281,27.404 127.778,28.655 124.024,28.655 C116.766,28.655 111.761,23.9 111.761,16.892 C111.761,10.01 116.891,5.005 124.149,5.005 C128.028,5.005 131.156,6.507 133.659,9.134 L133.659,0.875 C131.031,0.375 127.778,0 124.524,0" id="Fill-7" fill="#000000"></path>
                                    <path d="M24.023,5.63 C29.028,5.63 35.035,6.631 37.537,8.758 L37.537,1 L2,1 L2,8.758 C4.502,6.631 9.883,5.755 15.639,5.755 L15.639,27.027 C15.639,30.156 15.389,31.031 14.138,32.658 L25.525,32.658 C24.273,31.031 24.023,30.156 24.023,27.027 L24.023,5.63" id="Fill-8" fill="#000000"></path>
                                    <path d="M60.396,13.263 C58.394,14.014 54.64,14.139 52.763,14.139 L49.76,14.139 L49.76,5.755 L53.764,5.755 C57.393,5.755 63.525,6.506 65.902,8.633 L65.902,1 L40,1 C41.251,2.501 41.501,3.503 41.501,6.506 L41.501,27.027 C41.501,30.156 41.251,31.031 40.125,32.658 L67.654,32.658 L67.654,24.9 C63.9,27.778 56.642,27.778 53.764,27.778 L49.76,27.778 L49.76,18.894 L52.638,18.894 C54.64,18.894 58.269,19.144 60.396,19.895 L60.396,13.263" id="Fill-9" fill="#000000"></path>
                                    <path d="M98.405,2.127 C94.275,0.75 88.895,0 84.765,0 C77.257,0 70,2.377 70,10.385 C70,24.15 92.524,16.892 92.524,25.401 C92.524,28.154 88.519,29.281 85.266,29.281 C79.51,29.281 75.506,28.279 70.5,25.026 L70.5,32.033 C74.254,33.285 79.385,34.035 84.89,34.035 C92.649,34.035 99.906,31.783 99.906,23.65 C99.906,9.134 77.508,15.641 77.508,8.634 C77.508,5.756 81.137,4.755 84.265,4.755 C89.52,4.755 95.276,6.381 98.405,9.51 L98.405,2.127" id="Fill-10" fill="#000000"></path>
                                    <path d="M156.771,0 C144.634,0 136,7.007 136,16.893 C136,26.653 143.758,33.035 155.145,33.035 C167.408,33.035 175.917,26.278 175.917,16.267 C175.917,6.507 168.159,0 156.771,0 L156.771,0 L156.771,0 Z M155.896,28.28 C149.389,28.28 145.259,23.024 145.259,16.518 C145.259,10.011 149.389,4.755 155.896,4.755 C162.277,4.755 166.532,10.011 166.532,16.518 C166.532,23.024 162.277,28.28 155.896,28.28 L155.896,28.28 L155.896,28.28 Z" id="Fill-11" fill="#000000"></path>
                                </g>
                            </g>
                        </g>
                    </g>
                </g>
            </g>
        </g>
    </g>
</svg>