<?xml version="1.0" encoding="utf-8"?>
<!-- Generator: Adobe Illustrator 16.0.4, SVG Export Plug-In . SVG Version: 6.00 Build 0)  -->
<!DOCTYPE svg PUBLIC "-//W3C//DTD SVG 1.1//EN" "http://www.w3.org/Graphics/SVG/1.1/DTD/svg11.dtd">
<svg version="1.1" id="Layer_1" xmlns="http://www.w3.org/2000/svg" xmlns:xlink="http://www.w3.org/1999/xlink" x="0px" y="0px"
	 width="64px" height="64px" viewBox="0 0 64 64" enable-background="new 0 0 64 64" xml:space="preserve">
<g>
	<path fill="#FFFFFF" d="M32,53.691c0.357,0,0.716,0.143,1.002,0.43l3.58-3.58C35.436,49.395,33.789,48.68,32,48.68
		c-1.79,0-3.438,0.715-4.582,1.861l3.579,3.58C31.213,53.834,31.643,53.691,32,53.691z"/>
	<path fill="#FFFFFF" d="M32,40.732c3.938,0,7.518,1.576,10.166,4.225l3.578-3.58c-3.506-3.507-8.375-5.654-13.674-5.654
		c-5.368,0-10.236,2.147-13.744,5.654l3.578,3.58C24.482,42.379,28.062,40.732,32,40.732z"/>
	<path fill="#FFFFFF" d="M32,27.848c7.518,0,14.316,3.079,19.258,8.018l3.579-3.579c-5.87-5.87-13.888-9.45-22.837-9.45
		c-8.948,0-16.967,3.651-22.837,9.45l3.579,3.579C17.682,30.926,24.482,27.848,32,27.848z"/>
	<path fill="#FFFFFF" d="M32,14.891c11.096,0,21.118,4.51,28.42,11.812l3.58-3.58C55.768,14.962,44.527,9.879,32,9.879
		S8.232,14.962,0,23.122l3.579,3.58C10.881,19.4,20.902,14.891,32,14.891z"/>
</g>
</svg>
