<?xml version="1.0" encoding="UTF-8" standalone="no"?>
<svg width="921px" height="67px" viewBox="0 0 921 67" version="1.1" xmlns="http://www.w3.org/2000/svg" xmlns:xlink="http://www.w3.org/1999/xlink">
    <!-- Generator: Sketch 40.3 (33839) - http://www.bohemiancoding.com/sketch -->
    <title>behaviour-biometric</title>
    <desc>Created with Sketch.</desc>
    <defs></defs>
    <g id="Page-1" stroke="none" stroke-width="1" fill="none" fill-rule="evenodd">
        <g id="behaviour-biometric">
            <path d="M292.41599,29.5656123 C289.615377,29.4199854 287.155122,27.4626751 286.138684,24.5715628 L280.183778,4.99404948 C279.16734,2.10293718 276.707085,0.14562685 273.906472,0 L143.543325,0 C140.684997,0.170272412 138.109581,1.96414648 136.735009,4.74224867 L128.01126,24.8863138 C126.636688,27.664416 124.061272,29.4582901 121.202943,29.6285625 L0.360061728,29.6285625 L0.360061728,67 L921,67 L921,29.5656123 L307.587727,29.5656123 L292.41599,29.5656123 Z" id="Shape" fill="#DDDDDD"></path>
            <ellipse id="Oval" stroke="#000000" cx="22.4416506" cy="16.4329549" rx="6.42425926" ry="6.42425926"></ellipse>
            <ellipse id="Oval" stroke="#000000" cx="46.4677375" cy="16.4329549" rx="6.42425926" ry="6.42425926"></ellipse>
            <ellipse id="Oval" stroke="#000000" cx="68.4916506" cy="16.4329549" rx="6.42425926" ry="6.42425926"></ellipse>
            <path d="M85.2777778,38.2681857 L569.200741,38.2681857 C571.530857,38.2530164 573.770477,39.1693432 575.421708,40.8134567 C577.072938,42.4575701 577.998931,44.6932108 577.993827,47.0233709 L577.993827,50.2070746 C577.993827,55.0424299 574.073997,58.9622598 569.238642,58.9622598 L85.2777778,58.9622598 C80.4528887,58.9622598 76.5415432,55.0509144 76.5415432,50.2260252 L76.5415432,47.0233709 C76.5365101,44.7030958 77.4547097,42.4761288 79.0936174,40.833666 C80.732525,39.1912033 82.9574972,38.2681803 85.2777778,38.2681857 L85.2777778,38.2681857 Z" id="Shape" fill="#FFFFFF"></path>
            <text id="&lt;-&gt;" fill="#000000" font-family="Helvetica" font-size="22" font-weight="normal">
                <tspan x="16.0173913" y="54.0336957">&lt; &gt;</tspan>
            </text>
        </g>
    </g>
</svg>