<?xml version="1.0" encoding="UTF-8" standalone="no"?>
<svg width="921px" height="65px" viewBox="0 0 921 65" version="1.1" xmlns="http://www.w3.org/2000/svg" xmlns:xlink="http://www.w3.org/1999/xlink">
    <!-- Generator: Sketch 40.3 (33839) - http://www.bohemiancoding.com/sketch -->
    <title>behaviour-biometric</title>
    <desc>Created with Sketch.</desc>
    <defs></defs>
    <g id="Page-1" stroke="none" stroke-width="1" fill="none" fill-rule="evenodd">
        <g id="behaviour-biometric">
            <path d="M307.587727,29.0978352 L292.41599,29.0978352 C289.615377,28.958169 287.155122,27.0809731 286.138684,24.3081966 L280.183778,5.53200841 C279.16734,2.75923192 276.707085,0.882036047 273.906472,0.742369834 L143.543325,0.742369834 C140.684997,0.905672844 138.109581,2.62612205 136.735009,5.29051403 L128.01126,24.6100646 C126.636688,27.2744566 124.061272,28.9949058 121.202943,29.1582088 L0.360061728,29.1582088 L0.360061728,65 L921,65 L921,29.0978352 L307.587727,29.0978352 L307.587727,29.0978352 Z" id="Shape" fill="#000000"></path>
            <ellipse id="Oval" stroke="#000000" cx="22.4416506" cy="14.4329549" rx="6.42425926" ry="6.42425926"></ellipse>
            <ellipse id="Oval" stroke="#000000" cx="46.4677375" cy="14.4329549" rx="6.42425926" ry="6.42425926"></ellipse>
            <ellipse id="Oval" stroke="#000000" cx="68.4916506" cy="14.4329549" rx="6.42425926" ry="6.42425926"></ellipse>
            <path d="M85.2777778,36.2681857 L569.200741,36.2681857 C571.530857,36.2530164 573.770477,37.1693432 575.421708,38.8134567 C577.072938,40.4575701 577.998931,42.6932108 577.993827,45.0233709 L577.993827,48.2070746 C577.993827,53.0424299 574.073997,56.9622598 569.238642,56.9622598 L85.2777778,56.9622598 C80.4528887,56.9622598 76.5415432,53.0509144 76.5415432,48.2260252 L76.5415432,45.0233709 C76.5365101,42.7030958 77.4547097,40.4761288 79.0936174,38.833666 C80.732525,37.1912033 82.9574972,36.2681803 85.2777778,36.2681857 L85.2777778,36.2681857 Z" id="Shape" fill="#FFFFFF"></path>
            <text id="&lt;-&gt;" fill="#FFFFFF" font-family="Helvetica" font-size="22" font-weight="normal">
                <tspan x="16.0173913" y="52.0336957">&lt; &gt;</tspan>
            </text>
        </g>
    </g>
</svg>