<?xml version="1.0" encoding="utf-8"?>
<!-- Generator: Adobe Illustrator 16.0.4, SVG Export Plug-In . SVG Version: 6.00 Build 0)  -->
<!DOCTYPE svg PUBLIC "-//W3C//DTD SVG 1.1//EN" "http://www.w3.org/Graphics/SVG/1.1/DTD/svg11.dtd">
<svg version="1.1" id="Layer_1" xmlns="http://www.w3.org/2000/svg" xmlns:xlink="http://www.w3.org/1999/xlink" x="0px" y="0px"
	 width="77.25px" height="28.75px" viewBox="0 0 77.25 28.75" enable-background="new 0 0 77.25 28.75" xml:space="preserve">
<g>
	<path fill="#212121" d="M15.897,22.208c-4.319,0-7.833-3.515-7.833-7.833c0-4.319,3.514-7.833,7.833-7.833
		c4.32,0,7.833,3.514,7.833,7.833C23.73,18.693,20.217,22.208,15.897,22.208z M15.897,8.108c-3.455,0-6.267,2.812-6.267,6.267
		s2.812,6.268,6.267,6.268s6.267-2.812,6.267-6.268S19.352,8.108,15.897,8.108z"/>
	<path fill="#212121" d="M37.625,22.208c-4.32,0-7.833-3.515-7.833-7.833c0-4.319,3.513-7.833,7.833-7.833
		c4.318,0,7.833,3.514,7.833,7.833C45.458,18.693,41.943,22.208,37.625,22.208z M37.625,8.108c-3.455,0-6.267,2.812-6.267,6.267
		s2.812,6.268,6.267,6.268s6.268-2.812,6.268-6.268S41.08,8.108,37.625,8.108z"/>
	<path fill="#212121" d="M59.354,22.208c-4.319,0-7.834-3.515-7.834-7.833c0-4.319,3.515-7.833,7.834-7.833
		c4.318,0,7.832,3.514,7.832,7.833C67.186,18.693,63.672,22.208,59.354,22.208z M59.354,8.108c-3.457,0-6.268,2.812-6.268,6.267
		s2.811,6.268,6.268,6.268c3.453,0,6.267-2.812,6.267-6.268S62.807,8.108,59.354,8.108z"/>
</g>
</svg>
