<?xml version="1.0" encoding="utf-8"?>
<!-- Generator: Adobe Illustrator 20.1.0, SVG Export Plug-In . SVG Version: 6.00 Build 0)  -->
<svg version="1.1" id="Layer_1" xmlns="http://www.w3.org/2000/svg" xmlns:xlink="http://www.w3.org/1999/xlink" x="0px" y="0px"
	 viewBox="0 0 921 60.6" style="enable-background:new 0 0 921 60.6;" xml:space="preserve">
<style type="text/css">
	.st0{fill:#DDDDDD;}
	.st1{fill:#FFFFFF;}
	.st2{fill:none;}
	.st3{fill:#1D1D1B;}
	.st4{font-family:'Calibre-Regular';}
	.st5{font-size:19.0369px;}
	.st6{font-size:15.1766px;}
</style>
<g>
	<path class="st0" d="M307.5,26.8h-15.2c-2.6,0-5.4-2-6.3-4.5l-6-17.8C279.1,2,276.3,0,273.7,0H143.3c-2.6,0-5.7,1.9-6.8,4.3
		l-8.7,18.2c-1.1,2.4-4.2,4.3-6.8,4.3h-16.2H0v33.8h921V26.8H307.5z"/>
	<circle class="st0" cx="16" cy="13.5" r="6.4"/>
	<circle class="st0" cx="39.8" cy="13.5" r="6.4"/>
	<circle class="st0" cx="61.9" cy="13.5" r="6.4"/>
	<path class="st1" d="M573.7,54.3H81c-2.5,0-4.6-2.1-4.6-4.6V38.2c0-2.5,2.1-4.6,4.6-4.6h492.6c2.5,0,4.6,2.1,4.6,4.6v11.5
		C578.3,52.3,576.2,54.3,573.7,54.3z"/>
	<rect x="20.3" y="37.3" class="st2" width="92.8" height="17"/>
	<text transform="matrix(1 0 0 1 20.2724 49.6926)" class="st3 st4 st5">&lt;   &gt;</text>
	<text transform="matrix(1 0 0 1 87.203 48.758)" class="st4 st6">192.168.2.1/privacy-settings.htm</text>
</g>
</svg>
